<svg xmlns="http://www.w3.org/2000/svg" width="299.849" height="224.18" viewBox="0 0 299.849 224.18"><g transform="translate(-1776.5 -31.5)"><path d="M1879.543,205.192c.717-.1,1.22-.183,1.724-.254.324-.045.651-.069.975-.116a11.931,11.931,0,0,0,2.06-.335c2.153-.722,2.3-.151,2.847,1.2.089.221.2.432.292.649a.668.668,0,0,1,.014.167,1.326,1.326,0,0,1-1.517.822,16.4,16.4,0,0,0-2.806.345,27.791,27.791,0,0,1-2.945.253,5.1,5.1,0,0,1-1.425-.466,9.7,9.7,0,0,0-.091,2.9c-.012.425.089.852.107,1.279.114,2.628-.927,3.807-3.378,5-.3.146-.694.157-.924.363-1.656,1.493-3.726,1.462-5.747,1.6a19.539,19.539,0,0,1-2.847.082,39.059,39.059,0,0,1-4.032-.557c-.329-.061-.612-.425-.9-.673a18.59,18.59,0,0,1-2.34-2.083c-1.239-1.505-2.685-2.877-2.521-5.185a15.075,15.075,0,0,0-.694-3.877c-.141-.69-.359-1.365-.473-2.059-.16-.98.011-1.825,1.276-2.043-.956-1.656.007-2.713.939-3.742a6.619,6.619,0,0,1,3.048-1.769c1.884-.584,3.806-1.043,5.862-1.592.041-1.094.082-2.363.135-3.63.037-.9.144-1.8.127-2.7a50.026,50.026,0,0,1,.768-8.369,46.831,46.831,0,0,0,.215-5.249c.123-3.61.261-7.22.368-10.832.039-1.324.006-2.649.006-4.035-1.028-.411-1.327-.778-1.164-2.043a31.568,31.568,0,0,0-.237-6.243c-.117-1.7.074-3.414.08-5.124.009-1.986-.055-3.971-.053-5.957s.058-3.987.075-5.982c0-.47.336-1.155-.5-1.222-.793-.062-.735.648-.75,1.123q-.094,2.989-.087,5.982a7.117,7.117,0,0,1-1.039,4.21c-.31.457-.37,1.084-.666,1.557-.158.253-.576.345-.877.511-.143-.322-.436-.662-.4-.964.1-.888.359-1.758.49-2.644a6.471,6.471,0,0,0,.1-1.978,18.048,18.048,0,0,1,.02-4.975c.023-.23,0-.464,0-.7l-1.879.559c-.09.027-.25.037-.261.084-.229,1.019-1.468,1.461-1.518,2.541-.039.847.1,1.7.143,2.555.059,1.183.028,2.377.169,3.551a23.44,23.44,0,0,1-.3,4.624c-.229,3.034-.333,6.076-.5,9.115-.03.568-.121,1.133-.167,1.7a6.038,6.038,0,0,0-.043,1.119c.078.79.272,1.571.3,2.359a40.719,40.719,0,0,1,.027,4.663c-.326,4.213-.726,8.421-1.149,12.623-.2,2.027-.541,4.039-.8,6.06a10.637,10.637,0,0,0-.052,1.559c.012.505-.032.948-.61,1.164a1.682,1.682,0,0,1-.72-1.744c.107-2.324.274-4.646.436-6.967.093-1.327.26-2.651.324-3.978.1-2.183.192-4.37.212-6.555a50.974,50.974,0,0,0-.134-5.69,60.517,60.517,0,0,1-.007-9.266c.119-2.42.4-4.832.473-7.252.092-3.09.05-6.183.052-9.275a2.73,2.73,0,0,0-.254-.678,6.184,6.184,0,0,0-.571.943c-.265.745-.568,1.368-1.48,1.555-.276.057-.61.621-.634.973-.1,1.512-.135,3.034-.117,4.549.025,2.041.164,4.081.176,6.12.009,1.7-.144,3.4-.128,5.1.012,1.269.112,2.53.021,3.806-.213,2.966-.5,5.939-.457,8.9a22.159,22.159,0,0,1-.3,4.514,39.872,39.872,0,0,0-.2,10.035c.153,2.457.043,4.93.1,7.394a40.771,40.771,0,0,0,.26,4.688,8.767,8.767,0,0,1-.922,4.565l-1.425.087c-.125-1.075-.331-2.091-.345-3.112-.052-4.041-.023-8.081-.069-12.122-.021-1.9-.233-3.8-.2-5.7.03-1.989.254-3.976.382-5.967.213-3.359.473-6.718.614-10.083.126-3.037.167-6.081.153-9.122-.015-3.135-.143-6.27-.216-9.4-.012-.562,0-1.124,0-1.651l-1.749-.673-2.194,2.025c.982.883.819,2.153.865,3.4a16.54,16.54,0,0,0,.405,2.08,48.107,48.107,0,0,1,.289,12.209c-.142,1.676-.01,3.375,0,5.064,0,.429.012.856.005,1.283a28.786,28.786,0,0,0-.038,3.411,44.258,44.258,0,0,1,.136,6.387c-.11,2.7.14,5.419.16,8.131.012,1.706-.123,3.414-.173,5.121a24.311,24.311,0,0,0-.025,3.414,19.133,19.133,0,0,1-.258,6.092,11.487,11.487,0,0,0-.021,2.147c.895,0,1.772-.005,2.651,0a10.428,10.428,0,0,1,1.7.052,2.173,2.173,0,0,1,1.808,2.381c-.039.552-.436.87-.859.612-1.037-.628-2.053-.009-3.073-.094-.749-.062-1.51.062-2.266.057-.938-.005-1.9-.333-2.783.254a.611.611,0,0,1-.417.046,14.571,14.571,0,0,0-4.62.345,2.61,2.61,0,0,1-.849,0,20.432,20.432,0,0,0-5.649-.283c-1.687.11-3.4-.265-5.1-.253-1.79.014-3.582.2-5.363.391a4.494,4.494,0,0,0-1.318.655,3.231,3.231,0,0,0-2.729-.792c-.729.075-1.495-.278-2.3-.073-.458.117-.671-.358-.845-.794a1.108,1.108,0,0,0-1.546-.69c-1.381.39-1.761.119-1.664-1.294.189-2.7.477-5.4.619-8.1.142-2.752.139-5.51.245-8.264a10.526,10.526,0,0,1,.367-1.767,7.262,7.262,0,0,0,.317-1.523,41.146,41.146,0,0,1,.866-7.046c.3-1.825.547-3.66.845-5.485.29-1.781.635-3.555.927-5.336a25.364,25.364,0,0,0,.417-3.24c.065-2.08.019-4.163.019-6.338-.261.119-.541.254-.825.374-1.744.719-3.487,1.443-5.236,2.147-2.281.922-4.549,1.881-6.859,2.722a38.74,38.74,0,0,1-4.633,1.343,1.964,1.964,0,0,1-2.288-1.035c-.678-1.189-1.5-2.3-2.144-3.5a6.287,6.287,0,0,1-.349-1.806c3.044-1.237,5.937-2.528,8.914-3.592,3.434-1.228,6.962-2.194,10.408-3.388,2.2-.761,4.318-1.729,6.471-2.612a1.474,1.474,0,0,0,.313-.231c-.562-1.583-.242-2.215,1.389-2.541,3.008-.6,5.636-2.085,8.376-3.354,1.82-.843,3.542-2.053,5.657-2.188a1.744,1.744,0,0,0,.936-.32c1.69-1.345,3.352-2.726,5.146-4.194-1.694-.925-3.279-1.792-4.866-2.655-.125-.068-.271-.1-.4-.167a4.8,4.8,0,0,1-2.585-4.265c-.139-3.407-.388-6.813-.513-10.22-.062-1.662.066-3.327.086-4.991.028-2.329.03-4.658.055-6.987.007-.708.064-1.414.09-2.123.086-2.268.146-4.539.265-6.805a1.807,1.807,0,0,0-.5-1.564,4.188,4.188,0,0,1-1.233-2.345,15.676,15.676,0,0,0-.64-1.793,5.74,5.74,0,0,1,1-.607c.852-.292,1.49-.6,1.514-1.733.014-.667.763-1.089,1.489-1.068.8.023,1.6.169,2.391.269a.917.917,0,0,1,.9,1.181c-.133.754.283,1.108.845,1.464,1.088.69,1.1,1.153.194,2.071a2.332,2.332,0,0,0-.835,2.5,8.1,8.1,0,0,1,0,2.557c-.13,2.318-.366,4.635-.411,6.955-.046,2.366.147,4.738.119,7.106-.023,2.021-.334,4.044-.29,6.06.041,1.815-.31,3.665.28,5.455.029.091.1.21.064.272-.626,1.178.292,2.3.139,3.462a.93.93,0,0,0,.3.738,18.184,18.184,0,0,0,2.6,1.66,31.322,31.322,0,0,0,3.192,1.158c.267.094.552.133.81.244,1.069.457,1.037.432,1.809-.327a35.357,35.357,0,0,0,2.959-2.8,5.5,5.5,0,0,1,3.7-2.133c.376-.053.718-.436,1.05-.7.881-.7,1.751-1.409,2.877-2.32-.93-.192-1.562-.322-2.2-.45a20.242,20.242,0,0,1-2.228-.484,1.046,1.046,0,0,1-.6-.763c.007-.443.441-.557.865-.488.843.137,1.685.274,2.526.425.77.137,1.612-.19,2.326.418.126.109.565-.018.779-.158,1.05-.692,2.074-1.427,3.234-2.235-2.736-1.189-5.243-2.309-7.778-3.359-.956-.395-1.98-.617-2.966-.941a6.882,6.882,0,0,1-1.175-.493c-.473-.262-.352-.6.018-.986,4.4.817,8.414,2.921,12.9,4.069l2.644-3.22c-1.107-1.407-2.738-2.041-4.142-2.957-1.98-1.3-4.1-2.373-6.118-3.615a17.913,17.913,0,0,1-2.445-1.914,1.009,1.009,0,0,1-.092-.879c.039-.123.521-.224.734-.148a10.959,10.959,0,0,1,1.675.788c1.6.907,3.2,1.822,4.779,2.772.769.464,1.463,1.057,2.233,1.516,1.407.838,2.852,1.616,4.274,2.432a1.045,1.045,0,0,0,1.585-.276,17.574,17.574,0,0,1,1.641-1.683c-.737-.865-1.609-1.35-2.21-2.2a11.5,11.5,0,0,0-2.521-2.276c-1.454-1.112-3.026-2.075-4.436-3.236-1.676-1.381-3.2-2.939-4.846-4.361-1.327-1.146-2.729-2.2-4.1-3.3a8.847,8.847,0,0,1-1-.788c-.367-.4-.41-.847.162-1.317a2.432,2.432,0,0,1,.836.283c2.082,1.72,4.1,3.525,6.218,5.2a42.58,42.58,0,0,0,6.594,4.637,14.377,14.377,0,0,1,4.033,2.879,22.988,22.988,0,0,0,3.067,2.388l2.176-2.158c-1.1-1.1-2.176-2.22-3.3-3.29-1.338-1.27-2.71-2.507-4.085-3.738-.591-.53-1.258-.977-1.824-1.53a20.554,20.554,0,0,1-1.412-1.745c.495-.076.829-.242,1.021-.139a12.931,12.931,0,0,1,2.42,1.491c1.233,1.076,2.35,2.285,3.519,3.437a1.058,1.058,0,0,0,.319.278c1.3.489,2.1,1.614,3.119,2.45.507.413,1.053.776,1.761,1.293,1.352-.351,2.007-1.719,3.024-2.95-1.379-1.523-2.729-3.034-4.1-4.523-.995-1.082-2.023-2.13-3.026-3.2-1.682-1.8-3.343-3.619-5.034-5.411-1.4-1.479-2.827-2.925-4.234-4.393a2.527,2.527,0,0,1-.5-.678c-.285-.63.16-1.231.812-1.035a4.93,4.93,0,0,1,1.884.893c1.323,1.2,2.55,2.509,3.792,3.8a8.129,8.129,0,0,1,.626.938,4.489,4.489,0,0,0,.71.875c.857.7,1.751,1.352,2.626,2.028a1.435,1.435,0,0,1,.406.395c1.279,2.388,3.526,3.9,5.263,5.877.767.868,1.484,1.781,2.34,2.815.806-.014,1.134-.911,1.891-1.562-.616-.979-1.18-1.95-1.815-2.872-1.076-1.557-2.183-3.092-3.306-4.613-.479-.649-1.044-1.233-1.548-1.865q-3.683-4.617-7.352-9.246c-.171-.215-.413-.452-.429-.692-.021-.3.112-.852.258-.879a4.719,4.719,0,0,1,1.635.009c.233.041.436.352.617.571,1.36,1.64,2.708,3.292,4.064,4.936a60.26,60.26,0,0,1,4.282,5.282q1.575,2.431,3.261,4.777c.653.911,1.3,1.825,1.968,2.758l3.372-2.03-6.434-8.974c.212-.984.212-.984,1.786-1.461.491.575,1.088,1.171,1.567,1.852,1.615,2.3,3.176,4.649,4.793,6.955.349.495,1.05.815,1.233,1.342.612,1.749,2.012,2.937,2.932,4.455a14.237,14.237,0,0,0,1.093,1.961c1.665,1.938,3.407,3.809,5.122,5.7.158.174.358.315.509.495.729.865,1.479,1.715,2.163,2.615a11.6,11.6,0,0,1,.927,1.6,11,11,0,0,0,.813,1.607,97.581,97.581,0,0,0,8.644,9.51c1.425-1.173,2.717-2.361,4.136-3.366a19.168,19.168,0,0,1,4.569-2.832c1.552-.55,2.971-1.463,4.482-2.146a22.5,22.5,0,0,1,6.58-1.669c1.64-.2,3.276-.441,4.914-.662a16.445,16.445,0,0,1,7.733.358c3.743,1.311,7.652,2.224,11.006,4.512,1.156.786,2.539,1.27,3.609,2.147,1.531,1.256,2.876,2.74,4.291,4.138a11.3,11.3,0,0,1,1.146,1.258,22.178,22.178,0,0,1,3.987,7.642c.39,1.511.991,2.968,1.358,4.482.445,1.841.722,3.724,1.112,5.578a11.906,11.906,0,0,1,.123,3.946,1.712,1.712,0,0,0,0,.427c.169,1.3.3,2.6.535,3.877a5.539,5.539,0,0,1-.293,2.66c-.61,2.037-1.1,4.119-1.873,6.094a5.129,5.129,0,0,1-3.135,3.089,5.632,5.632,0,0,1,.078-.882c.281-1.041.934-1.959.886-3.126-.018-.4.509-.8.6-1.244.543-2.544,1.717-4.957,1.625-7.635-.007-.237-.027-.473-.054-.71a19.171,19.171,0,0,1-.407-4.051c.263-2.448-.409-4.71-.95-7.008a33.226,33.226,0,0,0-2.439-7.417,18.9,18.9,0,0,0-3.2-4.661c-.874-.916-1.678-1.911-2.621-2.751a23.383,23.383,0,0,0-3.592-2.788c-2.071-1.213-4.263-2.22-6.4-3.316a2.492,2.492,0,0,0-.252-.133l-4.968-1.715a15.615,15.615,0,0,0-8.008-.559c-2.523.454-5.076.744-7.6,1.206a11.391,11.391,0,0,0-2.815.986,75.293,75.293,0,0,0-7.109,3.617,18.5,18.5,0,0,0-5.083,4.32q2.175,2.09,4.357,4.185c.276.263.6.482.847.765,2.569,2.92,5.4,5.572,8.216,8.25,1.824,1.733,3.829,3.292,5.533,5.1a96.374,96.374,0,0,0,8,6.955,1.756,1.756,0,0,0,1.941.427c1.544-.576,3.1-1.137,4.681-1.607a23.5,23.5,0,0,0,6.43-2.881c2.05-1.37,4.065-2.79,6.087-4.2a3.606,3.606,0,0,0,.543-.619c-2.2-1.153-2.2-1.153-1.641-2.655,1.376-.071,4.073,1.535,4.9,2.913a5.382,5.382,0,0,1-.118,5.667c-1.128.133-1.52-.174-1.544-1.3a2.915,2.915,0,0,0-.57-2.311,6.762,6.762,0,0,0-1.1.671,34.509,34.509,0,0,1-14.755,8c-.543.137-1.108.178-1.815.288.813.74,1.525,1.393,2.24,2.043a78.843,78.843,0,0,0,6.674,5.957,57.854,57.854,0,0,1,5.989,5.161,51.175,51.175,0,0,0,4.11,3.263,2.129,2.129,0,0,0,.662.212,2.728,2.728,0,0,1,.8.269c1.223.891,2.457,1.774,3.6,2.754a1.487,1.487,0,0,1,.358,1.27.937.937,0,0,1-1.29.53c-.167-.052-.342-.078-.5-.114-.059.153-.147.269-.119.318,1.215,2.1.712,4.329.466,6.53a15.232,15.232,0,0,1-.425,2.238c-.653,2.429-.169,4.921-.45,7.373-.125,1.084-.084,2.187-.146,3.279a2.67,2.67,0,0,1-.219.963,3.043,3.043,0,0,0-.3,2.324c.109.352-.118.806-.2,1.279.562.2,1.249.384,1.325,1.288a1.759,1.759,0,0,1-.874,1.8c-.892.575-1.643,1.281-2.913,1.073a4.71,4.71,0,0,0-2.3.619c-1.637.692-3.24,1.466-4.8,2.181a11.229,11.229,0,0,1-1.281-.995,1.942,1.942,0,0,1-.676-2.037c.238-.8-.178-1.2-.842-.881-1.388.68-2.9.283-4.325.63a37.125,37.125,0,0,1-4.348.674c-2.865.349-5.713.913-8.626.63a3.693,3.693,0,0,0-.984.084c-1.01.173-.941.078-1.516-.779a9.975,9.975,0,0,1-1.39-5.569c-.037-1.375-.25-2.747-.331-4.122a22.294,22.294,0,0,1,.945-6.6,17.569,17.569,0,0,0,.18-4.375c-.014-.895-.274-1.785-.317-2.683a40.374,40.374,0,0,1-.1-5.268,34.447,34.447,0,0,0,.155-6.661c-.052-.468-.143-.936-.148-1.4-.005-.548-.13-1.11.52-1.5.688-.413,1.027.071,1.608.628l.181-1.7c-1.354.729-2.155.1-2.986-.584-.617-.509-1.356-.872-1.986-1.368-.959-.758-1.882-1.567-2.8-2.381a2.95,2.95,0,0,1-.447-.7l-.345.162-.521,5h-1.167a2.076,2.076,0,0,1-.153-.477c-.025-1.9-.057-3.8-.043-5.7a1.956,1.956,0,0,0-.7-1.624,10.48,10.48,0,0,1-1.071-1.32,3.04,3.04,0,0,0-1.121-.952q-.1,5.049-.206,10.1l-.248.071c-.124-.148-.336-.283-.358-.445a20.486,20.486,0,0,1-.2-2.4c-.023-2.665.007-5.332-.007-8-.007-1.235-1.014-1.8-1.826-2.722.329,1.785.675,3.345.885,4.923.132.987-.342,1.443-1.255,1.512a.893.893,0,0,1-1.048-.74,4.963,4.963,0,0,1-.231-1.253,41.368,41.368,0,0,1,.212-4.229,2.814,2.814,0,0,0-.872-2.69,10.88,10.88,0,0,0-1.747-1.543c0,.342-.023.685,0,1.025a50.452,50.452,0,0,1-.032,10.092,13.166,13.166,0,0,0,.046,2.258c.073,1.288.173,2.574.256,3.863.014.231.1.534-.009.683a3.618,3.618,0,0,0-.313,2.487,25.109,25.109,0,0,1-.781,7.2c-.372,1.406-.546,2.865-.81,4.3-.016.093.016.224-.037.278-.212.217-.449.411-.676.614-.175-.246-.5-.495-.5-.737a38.784,38.784,0,0,1,.251-4.411,76.92,76.92,0,0,0,.507-9.789c.044-4.418.236-8.835.3-13.253a40.328,40.328,0,0,0-.255-4.818,1.79,1.79,0,0,1,.582-1.87l-3.242-4.676c-.109,1.075-.239,1.841-.249,2.608-.02,1.32.1,2.642.046,3.959-.149,3.583-.37,7.163-.534,10.746-.027.6.156,1.217.125,1.82a73.6,73.6,0,0,1-.538,7.958c-.439,2.71-.119,5.405-.345,8.1-.155,1.841-.336,3.681-.466,5.524-.061.842-.006,1.69-.034,2.534-.1,3.041-.2,6.08-.331,9.118-.068,1.607-.229,3.21-.265,4.815-.043,1.943.044,3.889-.021,5.83a5.226,5.226,0,0,1-.644,1.569l2.316.139c0-1.758-.055-3.507.013-5.252a55.343,55.343,0,0,1,.608-8.519,28.113,28.113,0,0,0,.249-3.978c.028-.569,0-1.155.687-1.438.651.294.473.888.434,1.359-.215,2.507-.618,5.007-.681,7.515a39.87,39.87,0,0,0,.185,8.529,10.1,10.1,0,0,1,.014,1.761h2.6a3.772,3.772,0,0,1-.459-3.135,7.8,7.8,0,0,0-.014-1.409c0-1.806-.039-3.612.021-5.414.135-4.087.334-8.172.473-12.259a3.2,3.2,0,0,1,.916-2.139,2.719,2.719,0,0,1,.361.913c0,.9-.125,1.8-.158,2.7-.119,3.137-.334,6.273-.3,9.408.041,3.594.31,7.186.485,10.778a3.645,3.645,0,0,0,.155.621c.815.036,1.612.082,2.411.1,1.137.03,2.278.007,3.411.085a1.3,1.3,0,0,1,.907.509,8.666,8.666,0,0,1,.932,2.062,1.615,1.615,0,0,1-.274,1.153,1.669,1.669,0,0,0,.169,2.137c1.276-.142,2.551-.228,3.8-.445a8.3,8.3,0,0,0,2.272-.749c.288-.146.47-.678.536-1.062.249-1.454.575-1.672,2.037-1.749,1.927-.1,3.845-.383,5.772-.525a25.327,25.327,0,0,1,3.119-.023c.893.043,1.779.253,2.672.288a8.958,8.958,0,0,0,1.957-.182,38.564,38.564,0,0,1,9.444-.914.817.817,0,0,1,.827.936c0,.509-.422.544-.829.537-.9-.014-1.8-.055-2.7-.012a5.649,5.649,0,0,0-3.137,1.164,4.2,4.2,0,0,1-1.526.635c-2.533.692-5.106.35-7.662.445a11.741,11.741,0,0,0-2.523.315,10.492,10.492,0,0,1-4.045.53c-.658-.085-.967.256-1.038.877-.059.514-.126,1.028-.192,1.557-.879.363-1.689.74-2.53,1.025a6.065,6.065,0,0,1-1.368.164c-.18.016-.406-.078-.539,0-1.5.9-3.172.174-4.752.489-1.126.224-2.341-1.473-2.333-2.936,0-.468.032-.934.033-1.4.006-1.3-.479-1.85-1.717-1.845-2.071.007-4.14.061-6.209.1a2.48,2.48,0,0,1-.425.025c-2.893-.5-5.774.26-8.665.089-.64-.037-1.3.32-1.943.29-1.523-.069-3.032.527-4.578-.08-1.9-.742-3.937-.5-5.917-.557a7.652,7.652,0,0,0-2.244.747c-.224-.142-.794-.318-1.035-.7a13.278,13.278,0,0,1-1.272-2.672c-.165-.475.393-.929.911-.737a8.742,8.742,0,0,0,4.222.126,33.547,33.547,0,0,1,3.772-.028c.143-1,.353-2.06.436-3.131q.376-4.825.665-9.659c.107-1.753.144-3.507.21-5.261a3.648,3.648,0,0,1,.031-.852,2.5,2.5,0,0,1,.424-.633c.192.224.525.432.554.678a21.792,21.792,0,0,1,.075,2.279q.037,3.419.06,6.836a15.23,15.23,0,0,1-.473,4.943,5.763,5.763,0,0,0-.105,1.269c-.085.986-.147,1.973-.27,2.953-.16,1.279.155,1.642,1.466,1.532a11.7,11.7,0,0,0,1.239-.233c.048-.388.1-.664.116-.943q.328-4.977.649-9.955c.2-3.224.365-6.451.6-9.672.116-1.559.365-3.106.545-4.661.278-2.407.529-4.82.833-7.225.091-.713.048-1.559,1.128-1.932a7.131,7.131,0,0,1,.245,1.24c.031,1.854.087,3.71.011,5.558-.07,1.656-.3,3.3-.463,4.955,0,.046-.016.093-.02.141-.226,3.076-.542,6.149-.651,9.23-.13,3.711-.58,7.382-1.046,11.056a16.783,16.783,0,0,1-.427,1.776h4.926c.075-2.188.166-4.307.212-6.43.046-2.083-.046-4.176.084-6.254.293-4.642.74-9.275,1.023-13.919.185-3.039.148-6.09.292-9.133.132-2.747.441-5.487.552-8.234.1-2.464.037-4.934.046-7.4,0-.475-.014-.952,0-1.427q.168-4.115.351-8.231c.046-1.044.155-2.089.164-3.133.007-.738.233-1.53-.342-2.194a.452.452,0,0,1-.067-.4c.582-1.2-.466-1.626-1.128-2.518a5.435,5.435,0,0,0-.29,1.084q-.034,1.692.006,3.388c.042,1.879.115,3.756.162,5.636.009.375-.052.753-.068,1.132a12.843,12.843,0,0,0-.082,3.114c.453,2.133-.078,4.151-.385,6.2-.146.982-.395,1.948-.516,2.932-.256,2.115-.429,4.243-.7,6.359a17.414,17.414,0,0,1-.587,2.244l-.3-.032a2.6,2.6,0,0,1-.19-.737c.182-3.864.4-7.727.569-11.591.057-1.235.007-2.475.037-3.713.044-1.756.128-3.512.173-5.27.018-.712-.019-1.427-.035-2.14-.028-1.185-.093-2.372-.084-3.557.018-2.379.1-4.758.107-7.136a2.711,2.711,0,0,0-2.347-2.551q-2.194-.214-4.393-.379a4.767,4.767,0,0,0-.921.128c.783,1.363.475,2.727.423,4.089-.034.833.228,1.68.181,2.512-.071,1.311-.285,2.617-.448,3.923a3.319,3.319,0,0,0-.155.97c.472,2.277-.334,4.4-.722,6.574-.092.527-.48,1.055.021,1.6.089.1.028.365-.011.543a17.559,17.559,0,0,0,.109,5.09,4.778,4.778,0,0,1-.562,1.674c-.084,1.1-.123,2.279-.276,3.445a4.008,4.008,0,0,0,.192,2.471,2.742,2.742,0,0,1,.185,1.245c-.041,1.852-.088,3.7-.19,5.551a47.1,47.1,0,0,1-.48,5.916,24.381,24.381,0,0,0-.438,4.065c-.016,1.274.156,2.551.123,3.823-.046,1.71-.217,3.416-.322,5.124-.08,1.326-.116,2.656-.214,3.98-.112,1.514-.272,3.025-.411,4.537a3.474,3.474,0,0,0-.046.69c.2,1.811-.277,2.4-2.162,2.519-.053.19-.131.4-.174.624-.125.628-.559.843-1.036.523a3.849,3.849,0,0,0-2.2-.347c-2.919-.146-5.748.614-8.629.842a.865.865,0,0,0-.6.594A4.8,4.8,0,0,1,1879.543,205.192Zm-6.706-76.714.039.02c-1.08-.527-2.106.1-3.233.027-.039.479-.075.847-.1,1.217-.121,1.744-.212,3.489-.365,5.231-.2,2.306-.521,4.6-.66,6.916-.162,2.7-.187,5.411-.258,8.117a2.486,2.486,0,0,0,.146.635l.277.018c.107-.525.194-1.053.326-1.571a5.164,5.164,0,0,1,.445-1.324.9.9,0,0,1,1.306-.455,6.483,6.483,0,0,0,4,.509c1.213-.2,2.416-.488,3.636-.575.94-.066,1.831-.516,2.854-.148a6.322,6.322,0,0,0,2.115.044c.128-1.484.322-2.831.345-4.179.063-3.8.047-7.6.077-11.4a3.768,3.768,0,0,1,.171-1.251.732.732,0,0,1,1.325-.212c.278.318.509.68.751,1.009a7.117,7.117,0,0,0-.263,1.128c-.086,1.374-.174,2.747-.182,4.122,0,.977.166,1.955.171,2.932.005,1.37-.1,2.74-.1,4.11a5.274,5.274,0,0,1-1.08,3.9c2.574.713,4.917-.1,7.19.027.117-.247.19-.333.192-.418.046-2.468.025-4.937.146-7.4.091-1.891.357-3.772.552-5.658.057-.548.334-.863,1.1-.806a9.775,9.775,0,0,1,.639,3.651q-.2,3.835-.468,7.668a3.956,3.956,0,0,1-.37,1.475,1.768,1.768,0,0,0-.111,1.772l2.952.383V129.169a22.832,22.832,0,0,0-7.348-.117c0,1.957.015,3.8,0,5.637-.02,1.9-.044,3.8-.116,5.7-.068,1.815-.2,3.63-.3,5.533-1.052-.21-.921-1-.962-1.495a64.079,64.079,0,0,1,.053-10.515,10.73,10.73,0,0,0-.288-4.884c-1.076.055-2.11.132-3.144.157-1.064.028-2.13.007-3.354.007a2.512,2.512,0,0,1,.379,2.615,1.391,1.391,0,0,0,.009.566c.07,1.6.118,3.21.214,4.813.089,1.511.359,3.023.3,4.524a10.672,10.672,0,0,1-.829,2.934c-.074.214-.425.331-.667.505a2.189,2.189,0,0,1-.87-1.763c.029-1.941.135-3.888.066-5.825-.1-2.838-.479-5.669.014-8.581A31.86,31.86,0,0,0,1872.837,128.479ZM1821.5,167.244a1.81,1.81,0,0,0-.473,1.612c.013,2.091.052,4.181.043,6.272-.011,2.886.009,5.773-.108,8.656-.075,1.845.4,3.662.048,5.532a27.169,27.169,0,0,0-.172,4.112c-.009.249-.048.5-.077.8-.258-.077-.425-.078-.514-.162a1.106,1.106,0,0,0-1.633.027,1.3,1.3,0,0,0-.345,1.557,3.872,3.872,0,0,1,.253,1.08c.094,1.512.148,3.026.226,4.541.018.318-.037.719.13.941a2.986,2.986,0,0,1,.454,2.687,5.794,5.794,0,0,0-.013,1.231l1.233-.785c.784.413,1.468,1.256,2.43.438-.094-1.623-.24-3.183-.261-4.747-.018-1.461.134-2.923.146-4.386a61.3,61.3,0,0,1,.126-8.117,19.989,19.989,0,0,0,.044-6.1,2.11,2.11,0,0,1,.466-2.121,1.006,1.006,0,0,1,.9.982,9.534,9.534,0,0,0,.274,2.235,15.28,15.28,0,0,1,.64,4.482c.059,1.745.276,3.487.344,5.233a23.572,23.572,0,0,1-.048,4.674,15.258,15.258,0,0,0-.015,5.213c.134.754.244,1.514.352,2.192a25.285,25.285,0,0,1,4.765-.176,43.556,43.556,0,0,0,5.106.27c1.231.034,2.462.055,3.693.093.488.014.974.06,1.358.085-.114-2.542-.235-4.9-.326-7.257-.141-3.7-.368-7.4-.368-11.1,0-4.984.2-9.965.277-14.949.069-4.665.088-9.33.121-13.993.016-2.236.007-4.473.032-6.708.008-.5-.128-.861-.64-.948-.48-.084-.957.423-.987.979-.111,2.034-.208,4.071-.351,6.1a2.9,2.9,0,0,1-.379,1.617,1.743,1.743,0,0,0-.4,1.429c.055,1.133.108,2.27.216,3.4.308,3.231-.441,6.377-.716,9.561-.05.566-.034,1.142-.138,1.7-.043.224-.333.566-.506.562a1.411,1.411,0,0,1-.79-.415c-.114-.1-.1-.354-.125-.541a52.552,52.552,0,0,1-.169-10.106c.3-4.414.648-8.825.957-13.237a2.3,2.3,0,0,0-.246-.735c-1.3,1.245-1.179,3.243-2.843,4.206a9.994,9.994,0,0,1,.813,4.841c-.121,4.606-.315,9.209-.484,13.812-.08,2.178-.256,4.357-.233,6.535.021,1.893.311,3.783.39,5.676a12.326,12.326,0,0,0,.395,3.751,1.222,1.222,0,0,1-.018.425c-.071,2.082-.156,4.162-.206,6.245-.052,2.139-.039,4.279-.112,6.416-.032.915-.251,1.8-1.357,2.01a1.719,1.719,0,0,1-.831-1.6c-.009-1.141-.053-2.281-.044-3.42.014-1.665.059-3.331.1-5,.046-1.943.233-3.891.13-5.825-.184-3.416-.616-6.818-.8-10.234-.141-2.653-.121-5.316-.064-7.974.075-3.468.242-6.934.395-10.4a20.175,20.175,0,0,1,1.013-6.277,5.722,5.722,0,0,0,.3-3.22c-.747-.119-.975.237-.989.872-.014.712-.046,1.422-.1,2.131-.114,1.414-.525,1.583-1.7.868a1.8,1.8,0,0,0-1.311-.085c-.18.052-.264.621-.292.963-.044.56.02,1.13-.012,1.692-.075,1.326-.229,2.647-.258,3.971-.025,1.178.071,2.357.12,3.535.046,1.087.076,2.174.156,3.258.066.893.211,1.777.288,2.669.085.991.155,1.984.194,2.977q.131,3.333.219,6.672c.044,1.744,0,3.489.082,5.231.133,2.742.423,5.478.495,8.222.052,1.989-.141,3.987-.228,5.982-.005.141.02.331-.059.413a1.648,1.648,0,0,1-.722.548c-.165.032-.479-.27-.587-.489a3.58,3.58,0,0,1-.2-.966c-.085-.511-.155-1.025-.245-1.534-.244-1.35-.6-2.688-.717-4.048-.139-1.653-.053-3.324-.105-4.985-.188-6.177-.411-12.353-.585-18.529-.1-3.562-.121-7.124-.208-10.686-.028-1.164-.155-2.324-.245-3.594l-1.32.361c-.1.543-.029,1.13-.29,1.445-.827,1-.545,2.167-.681,3.267a11.223,11.223,0,0,0,.018,1.694,31.726,31.726,0,0,1,.043,5.811,25.014,25.014,0,0,0-.15,2.975c-.014.463,0,.929.025,1.393.06,1.18.181,2.359.181,3.539,0,.762-.36.92-1.143.669Zm23.018-25.459c.915-.534,1.749-1.071,2.626-1.527,1.416-.738,3.274-.744,4.071-2.5.014-.034.084-.041.123-.068.783-.527,1.585-1.027,2.342-1.589,1.336-.989,2.717-1.936,3.944-3.048,1.824-1.653,3.521-3.445,5.288-5.16,2.93-2.841,5.879-5.663,8.8-8.506a15.909,15.909,0,0,0,1.212-1.4c.929-1.14,1.774-2.357,2.783-3.421,1.825-1.927,3.75-3.759,5.622-5.642,1.1-1.11,2.2-2.224,3.263-3.373.93-1.005,2.288-.989,3.428-1.482a1.227,1.227,0,0,1,1.527.728,8.594,8.594,0,0,0,.721,1.215c1.243,1.726,2.421,3.507,3.779,5.138,1.589,1.911,2.719,4.222,4.85,5.674.148.1.217.31.34.454,1.656,1.941,3.341,3.857,4.962,5.827.948,1.153,2.149,2.108,2.778,3.519a6.04,6.04,0,0,0,.678,1.24,69.115,69.115,0,0,0,6.407,7.909,21.961,21.961,0,0,1,1.462,1.906,5.718,5.718,0,0,0,1.19,1.183,17.944,17.944,0,0,1,3.792,3.738c.786.941,1.489,1.952,2.26,2.905.5.624,1.046,1.217,1.6,1.8,1.269,1.354,2.553,2.7,4.019,4.242a2.86,2.86,0,0,0-.057-.719c-.475-.859-.65-1.877-1.5-2.544a.966.966,0,0,1-.167-1.409c.356-.425.843-.327,1.3-.059.233.137.488.24,1.055.514a6.56,6.56,0,0,0-.443-1.507c-1.071-1.671-2.187-3.315-3.3-4.959-.692-1.018-1.37-2.048-2.13-3.014-.991-1.261-2.044-2.475-3.094-3.688-.712-.822-1.471-1.6-2.194-2.418-1.26-1.418-2.486-2.868-3.766-4.266s-2.641-2.715-3.9-4.122-2.413-2.914-3.677-4.32a76.931,76.931,0,0,1-6.231-7.369,12.233,12.233,0,0,0-1.259-1.535,21.423,21.423,0,0,1-3.488-3.927,8.235,8.235,0,0,0-1.308-1.495c-1.585-1.612-3.188-3.206-4.781-4.813a1.558,1.558,0,0,0-2.463.187,8.33,8.33,0,0,1-.866.877,29.692,29.692,0,0,0-2.5,2.26c-.953,1.091-1.621,2.45-3.106,2.984a.548.548,0,0,0-.287.308c-.283.9-1.153,1.228-1.74,1.831-1.112,1.144-2.2,2.311-3.309,3.455-1.041,1.069-2.386,1.857-3.044,3.288-.046.1-.253.121-.372.2a17.721,17.721,0,0,0-4.839,5.144,11.023,11.023,0,0,1-1.568,1.8c-.866.8-1.809,1.523-2.719,2.281-1.6,1.338-3.19,2.685-4.8,4.01a1.631,1.631,0,0,1-.868.466,4.456,4.456,0,0,0-3.339,1.74c-.21.226-.4.471-.594.712s-.374.511-.593.737c-.29.3-.646.539-.911.856a16.129,16.129,0,0,1-5.249,4.254,10.875,10.875,0,0,0-3.171,2.119Zm1.8,63.21c0-.961,0-1.861,0-2.76.01-3.469.071-6.941.023-10.408-.042-3.089-.235-6.174-.3-9.261-.055-2.706-.012-5.412-.038-8.118-.009-.948-.13-1.9-.123-2.845.027-3.231.042-6.462.144-9.69.128-3.989.345-7.974.509-11.962.036-.838.005-1.678.005-2.437l-3.322-.326c0,1.277.037,2.509-.011,3.735s-.167,2.45-.276,3.672a11.649,11.649,0,0,0-.2,3.727c.055.24-.121.53-.174.8a1.648,1.648,0,0,0-.078.658,23.414,23.414,0,0,1,.466,7.215c-.087,1.18-.125,2.366-.139,3.55-.032,2.886-.019,5.773-.06,8.659-.018,1.137-.187,2.274-.183,3.409.007,2.462.084,4.925.126,7.387.048,2.656.085,5.314.139,7.971.006.281.119.56.118.84a20.092,20.092,0,0,1-.142,3.807,5.44,5.44,0,0,0,0,2.224c.139.721.607.918,1.267.753C1844.756,205.425,1845.438,205.231,1846.318,204.995Zm101.274-15.926c.752-.112,1.346-.2,1.938-.292,1.413-.221,1.728.091,1.505,1.482a19.9,19.9,0,0,0,.749,8.318l4.272-.861c-1.258-3.541-.6-7.031-.856-10.472a35.8,35.8,0,0,1,.68-10.387l1.347-.121c-1.319-1.185-2.585.381-3.727-.219-.326-1.124-.344-1.1-1.21-1.648-1.158-.735-2.284-1.523-3.436-2.27a1.541,1.541,0,0,0-.553-.087A146.809,146.809,0,0,0,1947.592,189.069Zm-75.291,6.925c-.244-1.865-.625-3.637-.676-5.419-.107-3.692-.071-7.387-.034-11.083.029-2.9.075-5.8.249-8.686.139-2.318.544-4.621.72-6.937.2-2.651.287-5.311.411-7.965.014-.274.059-.633-.085-.81a13.085,13.085,0,0,1-1.593-3.277,4.866,4.866,0,0,0-.573-.794c-.534.452-.729.788-.494,1.418a4.283,4.283,0,0,1,.343,2.048c-.507,3.194-.226,6.412-.393,9.613-.085,1.612-.256,3.219-.338,4.831-.057,1.13.007,2.267-.046,3.4-.143,3.053.318,6.158-.774,9.138a4.713,4.713,0,0,0-.094,1.269c-.027.425-.044.85-.089,1.274-.333,3.146-.678,6.288-.994,9.433a1.263,1.263,0,0,0,.185.932C1869.231,195.423,1870.455,196.5,1872.3,195.994Zm22.6-46.547a19.957,19.957,0,0,1-1.651,1.612,3.123,3.123,0,0,0-1.37,3.6,18.173,18.173,0,0,1,.176,4.948c-.037,2.79.157,5.581.171,8.373.011,2.041-.062,4.085-.184,6.122-.151,2.551-.687,5.081-.405,7.656a5.855,5.855,0,0,1,.149,1.261,67.359,67.359,0,0,0-.253,6.91,14.652,14.652,0,0,1-.386,4.371,1.356,1.356,0,0,0,.073,1.075c.571.717,1.258,1.34,2.076,2.179a9.381,9.381,0,0,0,.151-.947c.064-2.416.093-4.832.181-7.245.072-1.945.351-3.891.29-5.829a93.622,93.622,0,0,1,.536-12.652,64.964,64.964,0,0,0-.069-11.252c-.023-.32-.006-.644-.011-.968-.015-.939-.032-1.881-.045-2.82a2.432,2.432,0,0,1,.032-.806,3.774,3.774,0,0,0-.128-2.984C1895.155,150.651,1895.155,150.651,1894.9,149.447Zm2.936-28.076c-.119.388-.183.642-.274.886a.9.9,0,0,1-1,.621c-2.374-.109-4.751-.151-7.121-.313-1.891-.132-3.779-.367-5.661-.617-2.348-.313-4.683-.726-7.033-1.028-1.118-.142-1.585.3-1.931,1.612,1.34.046,2.664.032,3.977.149,2.034.181,4.055.594,6.088.657,4.254.126,8.482.833,12.752.591a.99.99,0,0,1,.558.044c.248.171.589.422.6.655a.915.915,0,0,1-.5.735,8.428,8.428,0,0,1-2.368.244c-1.784-.144-3.553-.448-5.334-.624-1.13-.112-2.274-.069-3.4-.176-1.5-.141-2.993-.431-4.5-.53-2.13-.144-4.268-.171-6.4-.253-.6-.023-1.206-.064-1.933-.1l-.308,2.77c1.813.167,3.459.31,5.1.47a41.52,41.52,0,0,0,7.812.043,45.555,45.555,0,0,1,6.094-.381c2.585.112,5.156.544,7.733.861.584.071,1.1.071,1.447-.415C1900.772,125.3,1899.361,123.408,1897.838,121.371ZM1893.229,149c-.874.151-1.583.313-2.3.388-.8.082-1.608.1-2.414.117a12.544,12.544,0,0,1-2.535-.043,24.936,24.936,0,0,0-8.218-.078,19.766,19.766,0,0,1-5.346.452c-.1-.014-.226.132-.484.294l1.462,2.788a5.333,5.333,0,0,1,1.5-.228,29.322,29.322,0,0,0,5.781-.036c3.108-.107,6.2-.977,9.332-.324a1.628,1.628,0,0,0,.543-.073l-.15-.185Zm-10.07,46.364c0-2.315-.005-4.446,0-6.579.01-3.644-.242-7.293.356-10.922a15,15,0,0,0,.27-3.243c-.071-1.277-.093-2.466.938-3.3a3.891,3.891,0,0,1-.34-1.053c.043-2.325.069-4.654.206-6.976.171-2.916.44-5.829.667-8.739-.758-.206-1.393-.03-1.311.571a13.529,13.529,0,0,1-.219,2.925c-.076.991-.112,1.986-.2,2.977-.226,2.592-.536,5.181-.689,7.777-.224,3.838-.192,7.7-.55,11.517-.353,3.747-.53,7.483-.514,11.241.005,1.256-.126,2.514-.2,3.8Zm55.652-36.091a5.908,5.908,0,0,1-2.181-2.01c-.31-.34-.566-.648-1.219-.206.166.338.246.827.527,1.016,1.7,1.148,2.482,3.115,4.112,4.371a27.863,27.863,0,0,0,4.56,3.085,9.738,9.738,0,0,1,2.454,1.834,7.248,7.248,0,0,0,2.781,2.044l-.319-1.6c2.263-.11,2.95,2.236,4.718,2.708.393-.53.941-.927.521-1.745a1.771,1.771,0,0,1-2.016-.5,6.457,6.457,0,0,0-.824-.555c-1.719-1.128-3.948-1.359-5.338-3.082-.639-.792-1.8-1.269-1.884-2.373a2.609,2.609,0,0,0-1.587-2.14c-.361-.222-.685-.5-1.025-.758-.747-.564-1.492-1.13-2.284-1.726Zm-56.785-4.663a1.926,1.926,0,0,0-.95,1.87c-.258,3.356-.47,6.715-.658,10.076-.153,2.745-.256,5.492-.375,8.239-.093,2.131-.162,4.263-.27,6.393-.134,2.6-.308,5.208-.443,7.812-.1,1.939-.144,3.884-.267,5.822-.031.454,0,.786.473.845.514.064.776-.214.79-.754.029-1.229.089-2.455.13-3.685.078-2.279.1-4.562.235-6.839.173-2.985.573-5.966.609-8.951.071-5.75.281-11.49.717-17.223C1882.1,157.113,1882.025,156,1882.025,154.612Zm-9.467,47.784a15.152,15.152,0,0,0-2.4,1.075c-.914.6-1.84.267-2.759.286-.868.02-1.738-.069-2.782-.119l.34.954c1.041.178,1.8.333,2.567.427a3.137,3.137,0,0,0,.968-.087c.968-.192,1.932-.4,2.9-.614a16.068,16.068,0,0,0,2.322-.56c1.356-.52,2.67-1.151,4.063-1.763-.187-1.274-1.468-1.644-2.416-2.08a15.8,15.8,0,0,0-5.677-1.47c-1.443-.082-2.881-.256-4.322-.384-.139-.011-.336-.027-.415.052-.7.685-1.66.6-2.482.918a10.3,10.3,0,0,0-1.224.665c.53.6.947.991,1.679.573.222-.128.6-.007.9.028a4.879,4.879,0,0,0,1.215.165c1.447-.215,2.879-.543,4.327-.756C1871.348,199.413,1872.3,200.216,1872.558,202.4Zm89.625-26.249a2.45,2.45,0,0,0-.458-.112c-1.313-.066-1.7.254-1.795,1.537-.068.9-.025,1.811-.139,2.7a36.894,36.894,0,0,0,.075,9.086,8.673,8.673,0,0,1,.005.986c.011,1.375-.041,2.754.057,4.121.075,1.037.331,1.13,1.733.847,0-2.792,0-5.629,0-8.467a4.676,4.676,0,0,1,.038-.7,38.8,38.8,0,0,0,.486-6.656C1962.166,178.41,1962.183,177.332,1962.183,176.147ZM1879.31,155.09l-.277-.1c-.166.162-.458.313-.474.488-.085.982-.115,1.971-.146,2.959-.034,1.139.016,2.283-.085,3.414a75.042,75.042,0,0,0-.452,7.9c.007.374.139.751.115,1.121q-.307,5.327-.658,10.654c-.055.847-.235,1.688-.276,2.537-.139,2.936-.251,5.873-.354,8.811a14.938,14.938,0,0,0,.068,1.849c.055.6.382.831.964.584Q1878.523,175.181,1879.31,155.09Zm-4.2,38.046q.649-18.954,1.3-37.936c-.138.055-.281.073-.292.123a17.1,17.1,0,0,0-.583,2.715c-.107,1.681-.064,3.373-.087,5.06a7.573,7.573,0,0,1-.038.98c-.135.931-.342,1.854-.429,2.788a19.21,19.21,0,0,1-.062,2.4,28.029,28.029,0,0,0-.484,6.428q.008,3.048.018,6.1c0,1.747-.039,3.5.011,5.242C1874.517,189.059,1874.159,191.112,1875.106,193.136Zm92.047-16.76h-2.368c-1.05,5.423-.4,10.775-.452,16.121a7.243,7.243,0,0,0,1.756-4.124,56.2,56.2,0,0,1,1.052-10.721A5.719,5.719,0,0,0,1967.153,176.376Zm-82.788,19.174c1.326-.03,1.385-.061,1.425-1.055.121-2.986.246-5.969.324-8.956.057-2.085.041-4.172.055-6.259,0-.792,0-1.584,0-2.329-.7-.235-1.1-.155-1.192.495a36.43,36.43,0,0,0-.493,3.781c-.1,2.891-.094,5.784-.116,8.677C1884.354,191.747,1884.365,193.59,1884.365,195.551Zm9.51-78.148c.013-.253.059-.381.016-.429-.562-.633-1.135-1.254-1.509-1.662-1.861-.075-3.5-.116-5.127-.21s-3.188-.8-4.843-.587l-.062.32,3.2.624c-.135.863-.165.947-.48.906a8.261,8.261,0,0,1-2.092-.372,2.572,2.572,0,0,0-3.215.838C1884.486,117.871,1889.188,117.441,1893.874,117.4Zm-4.531,56.76a4.207,4.207,0,0,0-1.573,3.485c.128,2.793.021,5.6-.01,8.4a27.6,27.6,0,0,0-.087,3.692,21.01,21.01,0,0,1,.08,4.953c-.046.406-.1.87.548,1.025a3.184,3.184,0,0,0,.589-2.375c.078-4.08.052-8.159.11-12.239.023-1.655.169-3.307.256-4.96C1889.284,175.578,1889.305,175.015,1889.343,174.163Zm-13.006-55.134c.52.123.731.19.95.224,2.2.329,4.393.692,6.6.966,1.929.242,3.866.473,5.806.546,2.5.093,5,.021,7.577.021a1.562,1.562,0,0,0-1.381-1.148,12.826,12.826,0,0,0-2.676-.256,53.434,53.434,0,0,1-11.092-.461,39.9,39.9,0,0,0-4.825-.3C1877.072,118.618,1876.842,118.811,1876.337,119.029Zm10.307,37.141a1.555,1.555,0,0,0-.181.455c-.1,1.512-.19,3.025-.28,4.537a9.8,9.8,0,0,1-.085,1.559c-.567,2.555-.354,5.137-.445,7.752.943.141,1.176-.406,1.24-1.055.249-2.587.555-5.174.676-7.768a39.771,39.771,0,0,0-.26-4.681C1887.284,156.618,1887.295,156.174,1886.644,156.17Zm5.286,42.251c-.242-.954-.593-1.158-1.229-.938a4.078,4.078,0,0,1-1.363.313c-2.5-.06-5.007-.178-7.51-.258a2.4,2.4,0,0,0-1.117.133,2.961,2.961,0,0,1-2.072.094,1.118,1.118,0,0,0-1.455.47,6.155,6.155,0,0,1,.888.6,2.746,2.746,0,0,0,2.671.71c2.4-.431,4.863-.543,7.3-.777C1889.289,198.647,1890.539,198.543,1891.93,198.421Zm-2.591-24.715a9.411,9.411,0,0,0,.2-1.3q-.03-7.4-.093-14.808a7.421,7.421,0,0,0-.217-1.971c-.135-.468-.077-1.165-.915-1.375a2.2,2.2,0,0,0-.055.7,24.234,24.234,0,0,1,.607,7.01,46.448,46.448,0,0,1-.454,5.653A11.2,11.2,0,0,0,1889.339,173.706Zm-28.792,26.377c-.979-.288-1.356.423-1.861.881a2.851,2.851,0,0,0-1.231,2.405c1.409.253,2.831.518,4.258.749a2.909,2.909,0,0,0,.84-.085,1.082,1.082,0,0,0,1-1.13C1862.553,201.974,1860.6,201.942,1860.547,200.082Zm96.826-17.947-.422.071c0,.557-.011,1.112,0,1.669.085,3.557.155,7.113.277,10.67a11.68,11.68,0,0,0,.4,2.236c.128.544.449.815,1,.471.012-.141.059-.251.025-.326a9.931,9.931,0,0,1-.57-5.3,7.744,7.744,0,0,0,.025-1.423q-.248-3.4-.534-6.795C1957.545,182.984,1957.443,182.561,1957.373,182.136Zm-67.243-68.8.18-.395-3.2-3.32v2.19c.6.429,1.833-.221,1.735,1.361-.842-.148-1.607-.269-2.368-.418-.733-.144-1.464-.464-2.19.048C1886.226,113.188,1888.142,113.774,1890.129,113.334Zm-88.551,46.12c-1.044.681-2.331.632-2.911,1.774.822,1.322,1.667,1.3,3.7-.059Zm60.8,48.5c1.527-.367,1.956.754,2.52,1.822.667-.655,1.36-.438,2.29,0l-.623-1.929c-.824-.109-1.516-.23-2.213-.279C1863.7,207.528,1862.995,207.311,1862.375,207.959Zm23.571-33.209c1.47-.763,1.607-1.464.623-2.754A2.07,2.07,0,0,0,1885.946,174.75Zm-11.259,37.874c1.884-1.3,2.131-2.672.948-4.555A6.841,6.841,0,0,1,1874.688,212.624Zm-15.652-.1c-.1-1.037,1.726-.6,1.311-1.854-.585-.254-1.246-.4-1.669.133C1858.269,211.315,1858.476,211.943,1859.036,212.523Zm10.091-.5-.935-1.325c-.685,1.336-.728,1.5-.392,1.594C1868.108,212.384,1868.5,212.169,1869.127,212.026Zm60.443-71.219-1.773-1.891-.224.21C1927.989,139.915,1928.393,140.718,1929.57,140.807Zm34.2,54.881c.918-.58.918-.58.2-1.71Zm-99.427,16.764c-.308-.237-.495-.488-.632-.463a2.146,2.146,0,0,0-.662.4c.151.148.3.411.456.413C1863.733,212.807,1863.965,212.624,1864.345,212.451Zm67.161-69.926-.374.251.731,1.062.338-.226Zm-57.815,71.038c-.877.062-.877.062-1.329.9Zm71.276-15.1-.532,1.258C1945.192,199.408,1945.327,199.141,1944.968,198.462Zm-69.332,8.839c.383-1,.383-1-.466-1.288Zm63.631-24.964c.865-.185.865-.185.619-1.048Zm-50.346-74.344-.785-1.1C1887.918,107.605,1888.382,107.826,1888.921,107.993Zm50.018,91.481c.258.685.61.617,1.014.107Zm-79.178,7.707.055.208.7-.114-.108-.338ZM1818.944,186l-.224-.055-.173.657.229.055Zm47.965,26.3-.226-.4a6.61,6.61,0,0,0-.64.415,1.1,1.1,0,0,0,.147.311C1866.436,212.537,1866.672,212.419,1866.909,212.306Zm-.947-83.037c-.258-.13-.418-.267-.484-.231a1.615,1.615,0,0,0-.439.415c-.014.016.18.262.215.247A5.408,5.408,0,0,0,1865.962,129.269Z" transform="translate(14.807 36.958)" fill="#12577d"/><path d="M1907.816,147.228c-1.178-.562-2.626-.091-3.269-1.42.356-.788,1.158-.329,1.692-.719-.272-.715-1.048-.68-1.573-.995a8.906,8.906,0,0,1-1.143-.546c-.206-.167-.4-.676-.3-.82a1.135,1.135,0,0,1,.892-.472,12.368,12.368,0,0,1,2,.69c.472.183.925.407,1.658.733-.11-.728-.18-1.172-.242-1.619-.039-.283-.077-.566-.094-.85-.075-1.13.18-1.607.866-1.644a1.755,1.755,0,0,1,1.706,1.582c.064.886.139,1.774.256,2.655.188,1.416.2,1.413,1.895,1.311,0-.676-.042-1.368.009-2.053.11-1.461.286-2.916.4-4.377.048-.6.007-1.217.007-1.683-1.482-.548-2.834-1.035-4.176-1.55a5.978,5.978,0,0,0-4.342.037,17.154,17.154,0,0,1-3.9.909,1.935,1.935,0,0,1-1.263-.514c-.719-.621-.532-1.258.4-1.539.63-.19,1.279-.324,1.906-.528a7.051,7.051,0,0,0,1.059-.632c-1.164-.2-1.989-.327-2.8-.5-.945-.2-1.173-.489-1.293-1.583,1.274-.493,2.592-.123,4.019-.071-.424-.858-.833-1.583-1.147-2.35s.039-1.224.838-1.119a1.9,1.9,0,0,1,1.649,1.178c.272.648.637,1.254,1.045,2.041a9.812,9.812,0,0,1,.565-.856,6.1,6.1,0,0,1,.961-1.019,1.7,1.7,0,0,1,1.854.148c.521.468.178.961.025,1.443-.222.7-.453,1.393-.75,2.3l3.91,1.185a2.354,2.354,0,0,0-.009-.706,20.149,20.149,0,0,1-1.418-5.635,1.446,1.446,0,0,0-.354-.886c-.959-.744-1.646-1.843-2.916-2.194a5.453,5.453,0,0,1-1.411-.671.662.662,0,0,1-.085-1.18,1.492,1.492,0,0,1,2.315.053c.47-.786-.018-1.326-.109-1.881-.077-.473-.621-.966.093-1.356a1.64,1.64,0,0,1,1.946.683,5.023,5.023,0,0,1,.269,1.091c.111.543.2,1.089.3,1.589.753.119.859-.361.993-.745.139-.4.178-.836.29-1.249q.6-2.183,2.533-.922c.194.126.386.256.639.422a31.972,31.972,0,0,1-1.324,3.293c-.252.48-.887.76-1.4,1.174l.844.959a3.81,3.81,0,0,0,.242,3.172,2.191,2.191,0,0,1,.271,1.37c-.261,1.027.4,1.72.889,2.623.278-.713.527-1.438.836-2.135.828-1.865,1.61-3.756,2.553-5.562a6.736,6.736,0,0,0,1.1-3.523c-.272-.311-.6-.648-.884-1.018-.327-.425-.607-.886-.223-1.425.463-.651.925-.077,1.536.068a8.186,8.186,0,0,0,.269-1.66,1.249,1.249,0,0,1,.836-1.445c.685-.262,1.076.132,1.48.55.1.1.171.224.29.383l-.671,2.226c.45-.185.742-.212.852-.367.329-.463.562-.993.879-1.464a1.262,1.262,0,0,1,2.06-.2c.74.649.728,1.1-.043,1.87-.468.468-.938.932-1.386,1.418-.074.082-.038.269-.077.637.507-.094.94-.165,1.365-.254,1.488-.315,2.126.372,1.739,1.765-1.518.285-2.985.632-4.473.81a1.6,1.6,0,0,0-1.439.886,10.684,10.684,0,0,1-1.251,1.523,2.267,2.267,0,0,0-.4.578q-1.351,3.517-2.665,7.046a2.664,2.664,0,0,0,.046.779l4.939-3.334a8.059,8.059,0,0,1-.662-1.5,1.591,1.591,0,0,1,.187-1.156c.263-.352,1.217-.13,1.525.294.164.226.183.566.37.758s.557.439.76.379c.231-.071.425-.436.519-.713a1.222,1.222,0,0,0-.1-.7,1.611,1.611,0,0,1,.916-2.123c1.619.391,1.858.71,1.548,2.281l2.453-.81c1.082,1.151,1.052,1.576-.187,2.119a17.32,17.32,0,0,1-1.881.539,6.775,6.775,0,0,0-.822.381,8.248,8.248,0,0,1,1.016,1.176,1.1,1.1,0,0,1,.011.906c-.076.158-.493.226-.747.208a10.354,10.354,0,0,1-2.4-.3,2.879,2.879,0,0,0-2.661.53c-.975.662-1.907,1.388-3.071,2.242a8.146,8.146,0,0,0,1.091.263c1.329.094,2.659.157,3.991.242,2.074.135,2.072.139,2.51,2.2-.879.808-1.646-.616-2.6-.087,1.116.92,2.911.726,3.615,2.292-.8.751-1.615,1.171-2.729.374a5.276,5.276,0,0,1,.135.6c.048.6.3,1.267-.544,1.55a1.854,1.854,0,0,1-1.843-.77c-.553-.763-1.132-1.507-1.72-2.24-.1-.132-.315-.18-.6-.334-.187.363-.37.669-.505.995-.172.411-.447.628-.886.5a.7.7,0,0,1-.462-1.021c.212-.58.495-1.132.722-1.706a3.169,3.169,0,0,0,.078-.7,9.231,9.231,0,0,0-1.24-.167,1.779,1.779,0,0,0-1.692,2.434c.194.621.375,1.249.614,2.044a2.674,2.674,0,0,0,.592.242c.735.16.957.562.939,1.327-.03,1.276.126,2.553.158,3.832.022.9-.041,1.8-.055,2.7-.01.589,0,1.178,0,1.767l.331.011c.041-.176.093-.352.123-.53a8.3,8.3,0,0,1,.292-1.646c.385-.968.888-1.889,1.335-2.834a1.539,1.539,0,0,1,1.788-.856,1.7,1.7,0,0,1,1,.845c.1.2-.183.685-.407.941a14.418,14.418,0,0,1-1.343,1.192,1.769,1.769,0,0,0,1.9-.308,3.284,3.284,0,0,1,2.708-.464,1.035,1.035,0,0,1,.866.991c.029.576-.411.8-.929.884a3.339,3.339,0,0,0-1.231.418l1.9.505v1.548a1.936,1.936,0,0,1-2.02.052,5.293,5.293,0,0,0-1.42-.329c-.275.7.175.8.493.968.405.208.816.473.637.964a1.987,1.987,0,0,1-.789,1.059c-.445.233-.857-.076-1.2-.5a10.975,10.975,0,0,0-1.379-1.217c-.1.991.325,1.911-.7,2.334-.74.306-1.137-.247-1.745-.781-.3.657-.539,1.189-.772,1.724-.057.13-.055.286-.121.409a7.483,7.483,0,0,0-.717,5.243,1.724,1.724,0,0,1-.427,1.121,2.057,2.057,0,0,0-.212,2.048c.312-.265.626-.409.744-.651a11.189,11.189,0,0,1,2.856-3.329,1.512,1.512,0,0,1,1.7-.35,1.2,1.2,0,0,1,.712,1.916,7.09,7.09,0,0,1-.452.678c1.347.947,1.347.947.962,2.421.408.37.751.326.993-.183a5.69,5.69,0,0,0,.2-.683c.39-1.215.758-2.437,1.183-3.64.363-1.027.541-1.1,1.55-.817.224.062.445.135.625.19.535.888-.157,1.478-.42,2.142.207.507.537.559,1.03.5,1.235-.141,1.24-.1,1.521,1.272l-1.512.722.066.253c.194,0,.386.012.578,0a2.337,2.337,0,0,1,.683-.085c.518.125,1.062.34,1.087.964.019.539-.4.8-.893.97a7.861,7.861,0,0,0-2.317,1.18c.222.087.454.263.665.244.707-.066,1.4-.206,2.1-.31,1.555-.226,1.685-.087,1.491,1.64l-3.845.386c.055,1,1.628.987.943,2.283-.465-.046-1.007-.084-1.544-.164-.326-.048-.639-.2-.964-.233-.153-.016-.429.109-.461.221-.053.2-.039.536.087.633a12.5,12.5,0,0,0,1.313.8c.479,1.382.21,1.955-2.446,2.473l-.626,1.416a2.087,2.087,0,0,1-2.162-.585,7.659,7.659,0,0,0-3.243-1.459l.109,1.984a1.409,1.409,0,0,1-1.657-.443,8.6,8.6,0,0,0-.982-.82,1.326,1.326,0,0,0-1.817.093,2.667,2.667,0,0,1-2.272.906c-.47-.064-.989.286-1.494.422-1.454.384-1.625.308-2.334-.991-.715.214-1.427.447-2.149.635a1.887,1.887,0,0,1-.982.089,3.484,3.484,0,0,0-3.331.226.894.894,0,0,1-1.311-.482c-.214-.566.231-.861.653-1.116.308-.187.616-.374,1.061-.646-.925-.644-1.621-1.293-2.713-1.18a2.094,2.094,0,0,1-2.135-.788c.883-1.559,2.469-.715,3.763-1.059-.18-.653-.817-.6-1.166-.9-.3-.254-.763-.749-.687-.9a1.674,1.674,0,0,1,1-.833,4.826,4.826,0,0,1,1.521.189,1.117,1.117,0,0,0,.865-.173c-.335-.2-.666-.418-1.007-.612-.441-.254-1.112-.422-.966-1.044.085-.365.612-.626.947-.929a2.327,2.327,0,0,1,.317-.194,1.267,1.267,0,0,1,.742-1.573,1.553,1.553,0,0,1,1.594.279c.811.536,1.688.97,2.683,1.527a1.511,1.511,0,0,0-.669-1.5c-.72-.562-.669-1.075-.016-1.594l-.829-1.064a1.563,1.563,0,0,1,1.977-.77c1.062.372,2.11.778,3.168,1.164a3.7,3.7,0,0,0,.495.1c.49-.74.767-1.685,1.646-2.149a.512.512,0,0,0,.167-.374c.063-1.221.109-2.443.162-3.735a1.841,1.841,0,0,0-2.261.5c-.142.187-.471.222-.7.347a4.382,4.382,0,0,0-.806.475c-.849.719-1.676,1.464-2.693,2.361l-.687-1.674c-.287.082-.637.173-.98.279-.49.153-.939.185-1.261-.315a.846.846,0,0,1,.2-1.253c.064-.052.075-.167.123-.279-.7-.281-1.7.109-2.112-.945.31-1.142,1.468-.676,2.5-1.14a5.188,5.188,0,0,1-1.24-.35,1.614,1.614,0,0,1-.658-.792c-.04-.128.361-.484.623-.6a3.092,3.092,0,0,1,2.492.125c.421.169.829.368,1.51.671-.167-.641-.235-.993-.352-1.326-.109-.311-.292-.6-.407-.909-.167-.445-.4-.966.156-1.269s.984-.039,1.288.5c.35.621.737,1.221,1.117,1.824.146.231.319.447.523.733.135-.174.267-.267.272-.366.03-.514-.095-1.137.674-1.178a1.381,1.381,0,0,1,1.482.893,7.681,7.681,0,0,1,.229,1.361l1.178.169v-9.234a5.441,5.441,0,0,0-.875-.187c-.993-.057-1.139.071-1.425.986a6.2,6.2,0,0,1-.557,1.443,1.379,1.379,0,0,1-.867.571c-.541.078-1.2.192-1.516-.463-.288-.6.192-.947.555-1.322A4.738,4.738,0,0,0,1907.816,147.228Z" transform="translate(93.226 65.997)" fill="#12577d"/><path d="M1940.6,82.613a5.8,5.8,0,0,0,.091-.632.94.94,0,0,1,.664-.984,1.331,1.331,0,0,1,1.441.155,2.436,2.436,0,0,1,.918,1.649.812.812,0,0,0,.733.806,2.044,2.044,0,0,0,.676.069c.856-.1,1.28.632,1.909.961.1.053.158.235.189.367.155.689.293,1.381.445,2.1a.651.651,0,0,0,.1.089c.391.249.914.308,1.069.886a3.5,3.5,0,0,1-.016,2.256c-.111.285-.244.56-.422.964a5.6,5.6,0,0,0,.825-.007c.555-.093,1.1-.24,1.658-.318a.584.584,0,0,1,.495.187.785.785,0,0,1,.032.623,1,1,0,0,1-.5.434c-.521.221-1.06.406-1.6.585-1.21.4-2.416.829-3.644,1.176a8.138,8.138,0,0,1-1.587.117c-.379,1.585-.881,3.149-2.649,4.035h-1.489a8.156,8.156,0,0,1-.34.854c-.315.587-.191.922.449.877.959-.068,1.984.26,2.867-.395a.571.571,0,0,1,.229-.055c.746.639.829.964.395,1.473-.247.286-.395.246-1.11-.345-.591.5.078,1.185-.256,1.685a10.454,10.454,0,0,1-1.151.569,1.133,1.133,0,0,1-.792.036.842.842,0,0,1-.437-.938c.042-.263.087-.528.128-.786-.612-.213-.785.285-1.071.5a1.11,1.11,0,0,1-1.332.157c-.445-.249-.548-.505-.336-.961.164-.352.34-.7.527-1.084-1.514-.055-2.436.441-2.842,1.518a2.6,2.6,0,0,0,1.3.477,1.757,1.757,0,0,1,1.772,1.77,1.414,1.414,0,0,1-.374.811.784.784,0,0,1-.947.03c-.235-.26-.117-.534.018-.788.08-.149.244-.265.285-.42.037-.135-.045-.3-.111-.642-.624.881-1.018,1.74-2.142,1.717l-.313-.488.776-1.046c-.559-.528-.877-.473-1.166.117-.295.607-.631,1.194-.968,1.779a.477.477,0,0,1-.706.189c0-.984,1.018-1.459,1.229-2.386-.3-.379-.811-.753-.354-1.468-.512.087-1.025.185-1.539.26a13.619,13.619,0,0,1-1.772.215,1.933,1.933,0,0,1-2.1-1.567,2.061,2.061,0,0,0-.169-.294,5.837,5.837,0,0,0-.656.306c-.694.436-1.384.875-2.062,1.334-1.074.728-2.11,1.518-3.215,2.2a3.633,3.633,0,0,1-2.946.783,3.2,3.2,0,0,1-.571-.16c-.63-.308-.72-.544-.507-1.229.043-.133.1-.262.164-.443a1.913,1.913,0,0,0-1.254.062,2.231,2.231,0,0,1-1.957-.283,1.04,1.04,0,0,1-.18-1.783,5.743,5.743,0,0,1,1.352-.854c.683-.322,1.4-.566,2.261-.907-.318-.169-.482-.246-.637-.34a7.029,7.029,0,0,1-.927-.594c-.427-.363-.477-.728-.1-1.1a2.045,2.045,0,0,1,1.95-.8,3.216,3.216,0,0,0,.849.021c1.334-.055,2.667-.158,4-.158a10.461,10.461,0,0,1,1.84.3c.583.107,1.174.19,1.743.349.76.21,1.165-.2,1.512-.761.1-.16.166-.34.291-.6-.3-.023-.509-.053-.722-.055-1.589-.018-3.181.014-4.769-.066a6.34,6.34,0,0,1-1.889-.48c-.713-.272-.776-.97-.18-1.47a6.973,6.973,0,0,1,2.208-1.075c.151-.055.3-.1.548-.187-.4-.495-.932-.512-1.373-.7a.647.647,0,0,1-.231-1.142,2.327,2.327,0,0,1,.774-.511,5.239,5.239,0,0,1,2.245-.434,7.3,7.3,0,0,0,.81-.052l.036-.171c-.336-.162-.676-.31-1-.486a7.064,7.064,0,0,1-.943-.575,1.517,1.517,0,0,1-.526-1.7c.075-.263.1-.539.167-.875a4.4,4.4,0,0,1,2.089-.082,7.011,7.011,0,0,0,2.019.23,8.547,8.547,0,0,1,3.237.879q1.089.467,2.178.929a9.746,9.746,0,0,1,3.439,1.975,1.884,1.884,0,0,0,.418.215,7.931,7.931,0,0,0,.117-.856,3.334,3.334,0,0,1,1.687-2.943c.041-.027.057-.1.082-.141a16.332,16.332,0,0,1-.913-1.4c-.379-.724-.327-1.119.076-1.461a1.623,1.623,0,0,1,1.763-.125C1940.082,82.22,1940.276,82.38,1940.6,82.613ZM1924.1,90.121a3.181,3.181,0,0,0,1.879.521c1.593-.027,3.185-.089,4.777-.125a2.61,2.61,0,0,1,.534.085v1.1a18.265,18.265,0,0,1-2.866.3,12.253,12.253,0,0,0-5.462,1.075,2.836,2.836,0,0,0-.511.409,3.318,3.318,0,0,0,.648.224,23.425,23.425,0,0,0,6.866-.06,6.376,6.376,0,0,0,3.818-1.895c.422-.491.925-.587,1.174-.315s.126.724-.324,1.2a5.855,5.855,0,0,1-2.288,1.422c-1.11.413-2.532.358-3.041,1.8-.505.173-.548.6-.568,1.037s-.274.6-.678.56a7.459,7.459,0,0,1-1.432-.185,1.157,1.157,0,0,0-1.217.356c-.939.818-1.918,1.591-2.884,2.377a.891.891,0,0,1-.221.13,8.556,8.556,0,0,0-2.295,1.6c-.394.333-.87.657-.9,1.3a1.2,1.2,0,0,0,1.114-.3c.9-.6,1.773-1.228,2.669-1.827,1.252-.836,2.507-1.669,3.775-2.482a2.958,2.958,0,0,1,1.909-.617c.175.018.447.123.482.244.112.393.514.744.142,1.242-.142.19-.023.575-.023.877a2.073,2.073,0,0,0,1.473-.16,2.318,2.318,0,0,1,.737-.162c.639-.11,1.29-.176,1.917-.333,1.016-.256,2.036-.523,3.02-.879.755-.272,1.651-.276,2.2-1.018a.176.176,0,0,1,.149-.069c.415.151.671-.039.936-.343.1-.116.372-.082.562-.128a7.071,7.071,0,0,0,.89-.23,3.171,3.171,0,0,0,1.7-2.215c.233-.646.324-1.317,1-1.69.082-.046.091-.219.146-.361l.183.29a15.183,15.183,0,0,0,1.738-.112,2.173,2.173,0,0,0,1.639-.664,11.394,11.394,0,0,0-1.584-.016c-.624.08-.866-.447-1.3-.74-.651.778-1.562.6-2.386.649a1.178,1.178,0,0,1-.872-.45,2.406,2.406,0,0,1-.552-2.064,6.722,6.722,0,0,1,.719-1.809,2.023,2.023,0,0,1,1.713-.959,1.925,1.925,0,0,1,2,1.309c.322-.386.676-.642.792-.98a1.466,1.466,0,0,0-1.384-2.107,1.765,1.765,0,0,1-1.964-1.635,1.182,1.182,0,0,0-.61-1c-.26.516.116.838.278,1.192.226.489.24.849-.055,1.068-.34.253-.649.087-.941-.11-.562-.381-1.114-.778-1.685-1.144-.093-.059-.267.012-.482.03a3.983,3.983,0,0,0,1.955,1.582,1.289,1.289,0,0,1-1.05,1.092,1.819,1.819,0,0,0-1.505,1.345c-.167.747-.267,1.509-.366,2.268a1.22,1.22,0,0,0,.066.74,2.489,2.489,0,0,1-.132,2.649c-.767,1.477-2.214,2.247-3.374,3.316a.336.336,0,0,1-.235.087c-.213-.023-.507-.009-.612-.137s-.038-.42.036-.61a3.281,3.281,0,0,1,1.45-1.4,5.9,5.9,0,0,0,1.715-1.872,1.27,1.27,0,0,0-.223-1.9,10.941,10.941,0,0,0-3.661-2.405c-.945-.383-1.9-.758-2.833-1.162a11.226,11.226,0,0,0-4.989-.9c-.251.011-.443.1-.438.457a7.9,7.9,0,0,0,3.005,1.2,30.86,30.86,0,0,1,3.309.767c.006.014.061.141.1.274.179.584.14.669-.49.769a6.637,6.637,0,0,1-1.014.03,6.775,6.775,0,0,0-1.612.007,18.86,18.86,0,0,1-3.466.425A4.218,4.218,0,0,0,1924.1,90.121Zm-1.407,8.216a4.836,4.836,0,0,0-.658.089c-.731.23-1.469.448-2.186.719-1.271.477-2.528.989-3.792,1.486a.96.96,0,0,0-.709.829A12.313,12.313,0,0,0,1922.693,98.338Zm2.366-1.48a5.464,5.464,0,0,0-1.149-.258c-1.9.03-3.8.1-5.7.158a.748.748,0,0,0-.763.641,4.147,4.147,0,0,0,2.74.311c.938-.221,1.881-.425,2.824-.632a1.225,1.225,0,0,1,.98.117C1924.357,97.425,1924.674,97.252,1925.06,96.857Zm19.16-6.827c-.288-.126-.47-.19-.637-.279-.3-.165-.616-.343-.579-.758s.359-.521.717-.6a3.715,3.715,0,0,0,.639-.262l-.021-.19c-.173-.052-.354-.169-.512-.144a2.556,2.556,0,0,0-1.19.315,1.771,1.771,0,0,0-.616,1.61,1.135,1.135,0,0,0,.569.993.987.987,0,0,0,1.093-.258C1943.839,90.339,1943.99,90.212,1944.22,90.031Zm3.564.167c-1.187-.1-1.351-.31-1.093-1.37.148-.048.31-.094.468-.155.139-.055.271-.13.457-.221-1.065-.425-1.745-.244-2.065.495a1.352,1.352,0,0,0,.5,1.914A1.269,1.269,0,0,0,1947.784,90.2Z" transform="translate(107.113 38.462)" fill="#12577d"/><path d="M1872.618,154.978l-1.594-.454c1.658,2.658,1.683,5.306,1.713,8.1a4.849,4.849,0,0,1-1.3.153.922.922,0,0,1-.633-.6c-.235-2.439-.411-4.884-.609-7.393h-1.042c.05,1.98.1,3.866.142,5.754.018.9.013,1.808.013,2.712,0,.237-.023.475-.041.712-.042.548-.336.95-.882.89a.861.861,0,0,1-.753-1.034c.1-1.277.231-2.555.267-3.836.046-1.646.012-3.3.012-5.144a13.025,13.025,0,0,0-1.858.477,1.5,1.5,0,0,1-1.452-.2c-.637-.342-.277-.847-.395-1.261-.4-1.43.085-2.806.019-4.206-.108-2.27.07-4.557.18-6.834.147-3.083.3-6.168.537-9.246.142-1.84.445-3.667.7-5.5a1.762,1.762,0,0,1,1.637-1.3c1.179,0,2.361.005,3.54.016,1.8.016,2.81,1.064,2.495,2.824-.767,4.291-.472,8.613-.55,12.928-.034,1.8-.246,3.59-.3,5.387-.036,1.274.057,2.551.11,3.827a.781.781,0,0,0,.182.528c.754.6.543,1.2.092,1.852A2.967,2.967,0,0,0,1872.618,154.978Zm-4.9-25.983c-.457,7.512-.845,15.031-.555,22.58a5.659,5.659,0,0,0,.42-1.9c.087-1.466.137-2.936.2-4.405q.182-4.484.359-8.967.138-3.339.285-6.681C1868.439,129.2,1868.375,128.849,1867.715,128.995Z" transform="translate(68.215 74.232)" fill="#12577d"/><path d="M1882.864,115.321a3.248,3.248,0,0,0-.53.79c-.436,1.461-1.72,1.886-2.922,2.2a5.183,5.183,0,0,1-3.59-.139,3.843,3.843,0,0,1-2.238-2.624,9.462,9.462,0,0,1,3.212-10.574,3.863,3.863,0,0,1,5.976,1.63c.51,1.238.822,2.559,1.272,4a6.177,6.177,0,0,0,.518-.8,5.86,5.86,0,0,1,2.719-2.984c2.471-1.283,5.976.39,6.771,3.044a9.97,9.97,0,0,1-.567,6.781,1.348,1.348,0,0,1-.261.5c-1.642,1.525-3.35,3.025-5.688,3.224-2.856.244-3.738-1.034-4.215-3.329-.114-.548-.128-1.117-.187-1.676Zm2.589,1.035c.144.457.211.722.31.977.439,1.133.811,1.27,1.944.742.431-.2.869-.386,1.294-.6a4.219,4.219,0,0,0,2.688-3.007,7.354,7.354,0,0,0-.236-4.58,1.994,1.994,0,0,0-2.746-1.269c-1.7.576-3.04,2.758-2.966,5.008.372-.379.643-.681.94-.955a1.734,1.734,0,0,1,2.2.037,4.006,4.006,0,0,1-.135,2.971c-.443.491-.884.984-1.4,1.559Zm-9.809-3.325c-.119,1.521,1.2,3.286,2.466,3.363a2.119,2.119,0,0,0,1.747-.758,6.278,6.278,0,0,0,1.374-5.843,11.02,11.02,0,0,0-1.073-3.048c-.486-.931-1.116-.952-1.823-.235a8.2,8.2,0,0,0-1.582,1.811c-.564,1.1-1.632,2.115-.892,3.654.052-.222.085-.379.125-.534a2.112,2.112,0,0,1,1.557-1.656c.955-.224,1.031.8,1.457,1.3a2.731,2.731,0,0,1,.322.781,2.764,2.764,0,0,1-.512,2.674,1.083,1.083,0,0,1-1.81.219A14.462,14.462,0,0,1,1875.644,113.031Z" transform="translate(75.252 56.613)" fill="#12577d"/><path d="M1873.8,119.088a1.5,1.5,0,0,1-1.743-1.009,13.3,13.3,0,0,0-1.6-2.164c-1.562-2.083-3.179-4.126-4.66-6.265-1.4-2.021-2.624-4.167-3.985-6.218-1.26-1.893-2.6-3.733-3.906-5.6-1.661-2.37-3.334-4.731-4.982-7.108q-1.82-2.623-3.585-5.284a29.536,29.536,0,0,1-1.509-2.569c-.271-.516-.43-1.076.276-1.47a1.131,1.131,0,0,1,1.708.345c.89,1.334,1.683,2.731,2.584,4.057.825,1.213,1.769,2.347,2.606,3.551,1.219,1.749,2.377,3.541,3.591,5.293.744,1.075,1.553,2.1,2.315,3.169.357.5.676,1.027,1,1.546.1.16.133.391.27.5,1.788,1.375,2.009,3.875,3.782,5.254a17.058,17.058,0,0,0,2.719,4.3c1.3,1.619,2.524,3.3,3.788,4.948.488.639,1.023,1.244,1.486,1.9C1874.94,117.649,1874.924,117.69,1873.8,119.088Z" transform="translate(55.406 38.699)" fill="#12577d"/><path d="M1831.705,162.756c.091-2.368.162-4.774.281-7.175.1-1.991.324-3.977.366-5.967.083-4.037.03-8.079.132-12.116.085-3.364.308-6.725.473-10.088.1-1.941.21-3.88.3-5.822.042-.989.021-.989,1.067-1.724a1.593,1.593,0,0,1,.5,1.495,2.864,2.864,0,0,0,.061,1.254,15.582,15.582,0,0,1,.716,5.957c-.086,1.984-.1,3.969-.146,5.953a10.78,10.78,0,0,1-.067,1.539,17.227,17.227,0,0,0-.156,2.776c-.016,2.7-.116,5.4-.239,8.1-.139,3.028-.334,6.053-.509,9.079-.076,1.324-.069,2.663-.273,3.969a8.351,8.351,0,0,1-.911,2.486C1833.01,163.014,1832.44,163.186,1831.705,162.756Z" transform="translate(43.017 68.852)" fill="#12577d"/><path d="M1850.861,79.138c1.333-.283,2.3-.059,2.941.931,1.057,1.626,2.087,3.272,3.076,4.941.895,1.505,1.727,3.048,2.573,4.583,1.354,2.464,2.889,4.822,4.291,7.259.968,1.68,1.865,3.4,2.813,5.089.675,1.2,1.43,2.35,2.066,3.567,1.532,2.929,3.624,5.5,5.274,8.352.281.486.7.893,1.027,1.356.368.52.484,1-.155,1.463a4.8,4.8,0,0,0-.794.98,3.054,3.054,0,0,1-2.1-1.9c-.692-1.395-1.544-2.711-2.336-4.057-.714-1.212-1.425-2.425-2.16-3.622-.4-.646-.893-1.233-1.256-1.895-1.863-3.407-3.677-6.843-5.553-10.245-1.138-2.069-2.395-4.073-3.535-6.14q-2.615-4.742-5.628-9.236A7.037,7.037,0,0,1,1850.861,79.138Z" transform="translate(57.942 37.031)" fill="#12577d"/><path d="M1859.462,75.9a4.174,4.174,0,0,1,.473-.52c.363-.265.952-.794,1.084-.7.51.361,1.247.939,1.229,1.409-.069,1.76.913,3.172,1.306,4.766a44.683,44.683,0,0,0,1.383,4.315c.619,1.735,1.331,3.436,1.945,5.17.885,2.5,1.717,5.023,2.573,7.535a3.9,3.9,0,0,0,.2.527,36.217,36.217,0,0,1,2.124,5.706c.51,1.582,1.2,3.108,1.651,4.7a48.047,48.047,0,0,0,2.334,6.017,3.975,3.975,0,0,1-.05,2.224.551.551,0,0,1-.979.267,4.162,4.162,0,0,1-.713-1.222c-1.37-3.747-2.706-7.506-4.067-11.255-1.148-3.162-2.354-6.3-3.47-9.476-1.906-5.418-3.747-10.858-5.651-16.276C1860.451,77.992,1859.916,76.944,1859.462,75.9Z" transform="translate(64.644 33.638)" fill="#12577d"/><path d="M1854.72,155.665a4.943,4.943,0,0,1-.535-2.514c.078-4.318.164-8.636.231-12.953.064-4.137.105-8.271.169-12.408.043-2.8.077-5.6.173-8.4.064-1.895.309-3.788.326-5.683.014-1.6-.182-3.213-.287-4.82-.02-.274-.055-.548-.082-.8,1.528-.573,2.153-.254,2.27,1.222a22.722,22.722,0,0,1-.062,2.7c-.14,3.6-.35,7.19-.411,10.787-.044,2.653.162,5.309.15,7.964-.015,3.122-.1,6.245-.235,9.366-.1,2.509-.308,5.014-.5,7.517-.06.8-.216,1.594-.338,2.389C1855.322,151.8,1855.044,153.572,1854.72,155.665Z" transform="translate(60.53 59.461)" fill="#12577d"/><path d="M1872.96,129.025a3.411,3.411,0,0,1,.28.763,39.88,39.88,0,0,1,.372,8.745c-.2,2.06-.009,4.158-.005,6.238,0,.52-.042,1.041-.078,1.56-.142,2.121-.427,4.24-.4,6.357.029,2.306.393,4.606.516,6.914a12.169,12.169,0,0,1-.18,4.508c-.179.555-.352,1.249-1.028,1.1-.327-.075-.674-.767-.735-1.217-.342-2.526-.608-5.064-.875-7.6a33.3,33.3,0,0,1-.288-3.827c.018-1.6.242-3.206.311-4.811.123-2.8.149-5.6.3-8.389.123-2.222.358-4.437.578-6.654.1-1.009.269-2.014.458-3.01a2.621,2.621,0,0,1,.436-.758Z" transform="translate(73.272 75.926)" fill="#12577d"/><path d="M1873.906,113.359c-.254-2.1-.577-4.156-.74-6.227-.256-3.265-.347-6.544-.623-9.807-.219-2.6-.621-5.183-.914-7.777-.1-.895-.146-1.8-.163-2.7-.042-2.377-.027-4.756-.092-7.133a22.06,22.06,0,0,0-.338-2.539c-.034-.233-.128-.459-.15-.692-.069-.786.287-1.388.829-1.439a1.718,1.718,0,0,1,1.507,1.281c.062,1.463.114,2.929.114,4.393,0,1.08-.184,2.164-.123,3.238.1,1.786.331,3.567.507,5.352q.1,1.059.2,2.119c.089.943.171,1.884.265,2.825.226,2.24.185,4.491.322,6.732.1,1.607.324,3.2.459,4.807.091,1.082.063,2.174.2,3.249a16.731,16.731,0,0,0,.582,2.614C1876.194,113.191,1875.829,113.62,1873.906,113.359Z" transform="translate(73.54 33.93)" fill="#12577d"/><path d="M1895.627,114.348a8.21,8.21,0,0,1-1.3-.642c-.678-.5-.544-1.078.181-1.523,1.644-1.009,3.47-1.715,4.9-3.094a12.423,12.423,0,0,1,2.019-1.3c1.7-1.1,3.422-2.181,5.1-3.327,2.384-1.632,4.742-3.3,7.089-4.984.692-.495,1.293-1.112,1.966-1.635,1.238-.959,2.375-.729,3.069.571a.775.775,0,0,1-.24,1.121c-1.21.838-2.418,1.678-3.649,2.484-1.694,1.108-3.424,2.16-5.1,3.286-1.018.683-1.97,1.462-2.954,2.2a2.274,2.274,0,0,1-.48.308c-2.128.861-3.8,2.457-5.758,3.594-1.178.685-2.251,1.55-3.4,2.29A10.534,10.534,0,0,1,1895.627,114.348Z" transform="translate(91.466 51.24)" fill="#12577d"/><path d="M1922.412,103.212a1.212,1.212,0,0,1-.9,1.219,16.3,16.3,0,0,0-3.863,2.076,11.719,11.719,0,0,1-3.809,1.471,23.225,23.225,0,0,0-5.46,1.9c-2.441,1.14-4.875,2.3-7.32,3.43-1.112.516-2.227,1.021-3.363,1.484-1.365.555-2.153.064-2.512-1.571,1.979-.858,3.991-1.678,5.96-2.592,2.316-1.075,4.572-2.286,6.9-3.329,1.288-.576,2.679-.918,4.018-1.386,1.162-.407,2.347-.772,3.462-1.283,1.29-.591,2.512-1.324,3.767-1.991C1920.82,101.833,1921.119,101.885,1922.412,103.212Z" transform="translate(92.482 55.019)" fill="#12577d"/><path d="M1857.206,82.7c1.179-1.142,1.79-1.053,2.37.29.806,1.866,1.528,3.768,2.384,5.612.555,1.2,1.322,2.29,1.927,3.466q1.887,3.667,3.693,7.377c.632,1.3,1.173,2.64,1.758,3.962a43.757,43.757,0,0,0,4.345,7.482c.292.413.589.872.162,1.429a1.132,1.132,0,0,1-1.229.518,1.426,1.426,0,0,1-.84-.609q-4.934-9.786-9.809-19.6c-1.514-3.055-2.967-6.138-4.448-9.209C1857.417,83.2,1857.331,82.98,1857.206,82.7Z" transform="translate(62.886 39.275)" fill="#12577d"/><path d="M1876.442,78.321c0,2.8.012,5.59,0,8.385-.021,3.845-.073,7.688-.094,11.533a12.9,12.9,0,0,0,.146,1.559q.347,2.957.7,5.914c.187,1.544.39,3.087.571,4.631a2.721,2.721,0,0,1-.009.977,1.235,1.235,0,0,1-1.238,1c-.671-.02-.729-.607-.774-1.156-.356-4.35-.755-8.7-1.071-13.049-.127-1.753-.08-3.517-.112-5.277-.048-2.706-.123-5.412-.135-8.12-.007-1.423.116-2.845.142-4.268.02-1.085-.036-2.171-.025-3.254a2.006,2.006,0,0,1,.207-.938.814.814,0,0,1,1.411-.087C1876.766,76.82,1876.524,77.581,1876.442,78.321Z" transform="translate(76.302 34.52)" fill="#12577d"/><path d="M1886.1,78.1l1.863.987c-.194.624-.447,1.37-.65,2.128-.219.813-.392,1.639-.578,2.461a4.715,4.715,0,0,1-.162.82,25.255,25.255,0,0,0-1.539,6.181,16.242,16.242,0,0,1-.655,3.188,15.628,15.628,0,0,0-.744,4.6c-.079,1.08-.274,2.151-.326,3.231-.114,2.32-.141,4.645-.262,6.964a3.143,3.143,0,0,1-.978,2.564c-.306.231-.851.5-1.089.374a1.376,1.376,0,0,1-.429-1.087c.03-.943.181-1.884.3-2.825.441-3.573.957-7.138,1.317-10.72a106.038,106.038,0,0,1,2.17-12.871c.313-1.381.482-2.793.708-4.2A2.091,2.091,0,0,1,1886.1,78.1Z" transform="translate(81.077 36.313)" fill="#12577d"/><path d="M1901.379,87.775a4.489,4.489,0,0,1,1.48-.439,5.167,5.167,0,0,1,1.744.628,1.715,1.715,0,0,1-.233.977c-.771,1.247-1.672,2.42-2.377,3.7-1.484,2.7-2.849,5.464-4.313,8.174-.9,1.665-1.925,3.261-2.829,4.923-.811,1.495-1.536,3.037-2.3,4.558a1.716,1.716,0,0,1-1.667,1.121,1.469,1.469,0,0,1-.97-.372c-.132-.155.011-.626.141-.9.221-.466.555-.879.793-1.338,1.265-2.438,2.487-4.9,3.779-7.323,1.806-3.388,3.66-6.748,5.5-10.118.158-.29.382-.543.541-.833C1901.147,89.65,1902.152,88.935,1901.379,87.775Z" transform="translate(88.333 43.503)" fill="#12577d"/><path d="M1898.369,85.23c1.206.874.3,1.977,0,2.877-.744,2.238-1.685,4.414-2.6,6.594-1,2.391-2.149,4.724-3.074,7.143-.687,1.8-1.112,3.69-1.667,5.537-.2.676-.43,1.345-.671,2.007a1.98,1.98,0,0,1-.366.607c-.342.384-1.322.6-1.548.267a1.671,1.671,0,0,1-.2-1.164,62.385,62.385,0,0,1,3.25-10.131q1.975-5.02,3.877-10.068c.3-.794.493-1.626.726-2.443A1.555,1.555,0,0,1,1898.369,85.23Z" transform="translate(87.048 41.756)" fill="#12577d"/><path d="M1872.51,108.536c-.861-3.354-1.74-6.6-2.523-9.869-.609-2.537-1.106-5.1-1.64-7.656-.338-1.623-.675-3.245-.968-4.877a17.4,17.4,0,0,1-.239-2.258c-.027-.548.126-1.151.79-1.132a1.2,1.2,0,0,1,1.192,1.009c.22,1.156.5,2.306.653,3.473a44.812,44.812,0,0,0,1.279,6.821c.34,1.167.322,2.436.6,3.626.315,1.365.792,2.692,1.174,4.041.473,1.674.95,3.348,1.374,5.037C1874.6,108.348,1874.306,108.65,1872.51,108.536Z" transform="translate(70.625 39.93)" fill="#12577d"/><path d="M1893.22,84.235a6.2,6.2,0,0,1-.1,2.964c-.146.877-.392,1.738-.591,2.607a1.733,1.733,0,0,1-.083.418c-.965,1.82-.941,3.928-1.7,5.816a16.012,16.012,0,0,0-.569,2.327c-.712,3.039-1.767,6.01-1.729,9.193a1.091,1.091,0,0,1-1.071,1.121c-.707.11-1.14-.233-1.043-.952.242-1.786.48-3.578.851-5.341.495-2.356,1.137-4.681,1.672-7.03.582-2.539,1.119-5.089,1.666-7.636q.192-.9.321-1.817C1891.014,84.686,1891.745,84.14,1893.22,84.235Z" transform="translate(85.573 41.083)" fill="#12577d"/><path d="M1880.131,80.8c.781,1.487.561,3.021.534,4.5-.025,1.5-.368,2.989-.429,4.491-.073,1.845.009,3.7.011,5.546a4.467,4.467,0,0,1-.082,1.276,9.6,9.6,0,0,0-.134,4.581,23.456,23.456,0,0,1-.071,5.053c-.032.683-.66,1.075-1.434.984-.69-.08-.61-.6-.6-1.078.114-4.75.2-9.5.349-14.253.05-1.612.3-3.219.365-4.831a19.535,19.535,0,0,0-.163-3.4A2.361,2.361,0,0,1,1880.131,80.8Z" transform="translate(79.025 38.415)" fill="#12577d"/><path d="M1914.263,113.72a21.2,21.2,0,0,0-7.092,1.258c-1.254.406-2.567.642-3.861.927-1.2.263-2.418.475-3.621.735a2.365,2.365,0,0,1-2.389-.5,1.217,1.217,0,0,1-.321-.856c.018-.176.381-.406.625-.459,2.961-.657,5.928-1.283,8.895-1.923a8.039,8.039,0,0,0,1.093-.308,12.56,12.56,0,0,1,3.749-.737,15.166,15.166,0,0,0,5.159-.872c.929-.388,2.02-.745,2.893.221.226.251.479.683.4.943a1.057,1.057,0,0,1-.822.6,8.647,8.647,0,0,0-3.033.7A13.441,13.441,0,0,1,1914.263,113.72Z" transform="translate(93.876 61.627)" fill="#12577d"/><path d="M1894.383,111.859c-.429-.214-.927-.3-1.12-.594-.3-.464.075-.815.45-1.178,2.485-2.4,4.927-4.845,7.4-7.256a13.628,13.628,0,0,1,2.044-1.767,22.359,22.359,0,0,0,5.012-4.779,4.52,4.52,0,0,1,1.067-.92c.733-.463,1.294-.4,1.621.093a1.235,1.235,0,0,1-.25,1.772c-.809.729-1.658,1.413-2.466,2.146-.934.847-1.822,1.747-2.765,2.583-.53.471-1.179.811-1.688,1.3-1.292,1.238-2.523,2.541-3.8,3.8-1.445,1.42-2.9,2.829-4.38,4.21A4.955,4.955,0,0,1,1894.383,111.859Z" transform="translate(90.896 49.519)" fill="#12577d"/><path d="M1915.151,109.2a8.5,8.5,0,0,0-1.943.745c-1.494,1.133-3.272,1.379-5,1.825-1.64.422-3.249.975-4.845,1.544a26.152,26.152,0,0,1-2.557,1.142,18.545,18.545,0,0,1-3.518.359,1.114,1.114,0,0,1-.861-.532c-.207-.461.123-.788.591-.948,1.249-.429,2.5-.859,3.745-1.3.354-.126.683-.324,1.037-.454a42.117,42.117,0,0,1,4.526-1.608,14.088,14.088,0,0,0,5.108-1.936c.039-.028.071-.064.11-.093a2.8,2.8,0,0,1,2.32-.352C1914.726,107.77,1914.379,108.71,1915.151,109.2Z" transform="translate(93.395 59.21)" fill="#12577d"/><path d="M1902.466,95.41a2.121,2.121,0,0,1-.5,2.313c-1.242,1.429-2.419,2.918-3.544,4.439-.987,1.333-1.861,2.747-2.8,4.119-.372.548-.772,1.078-1.155,1.619a1.736,1.736,0,0,1-2.071.776c-.564-.142-.687-.5-.406-.957.4-.648.831-1.274,1.272-1.893q2.3-3.251,4.622-6.489,1.2-1.676,2.446-3.318A1.567,1.567,0,0,1,1902.466,95.41Z" transform="translate(89.884 49.642)" fill="#12577d"/><path d="M1881.618,104.075a16.717,16.717,0,0,1,1.537-1.658,3.166,3.166,0,0,1,2.471-.342,6.106,6.106,0,0,1,5.22,5.181c.1,1.035.285,2.064.377,3.1.066.742-.247,1.037-1.064,1.213-.743.162-.99-.2-1.142-.872a36.778,36.778,0,0,0-1.1-4.1,4.012,4.012,0,0,0-1.213-1.7,2.773,2.773,0,0,0-3.183-.455A1.379,1.379,0,0,1,1881.618,104.075Z" transform="translate(81.908 54.924)" fill="#12577d"/><path d="M1882.238,103.109a1.652,1.652,0,0,1-1.785.032,3.684,3.684,0,0,0-5.135,1.671c-.334.729-.633,1.475-.98,2.2a2.428,2.428,0,0,1-.607.925,1.25,1.25,0,0,1-1.011.251,1.018,1.018,0,0,1-.422-.9,17.147,17.147,0,0,1,1.009-3.071,8.342,8.342,0,0,1,1.4-1.948,3.953,3.953,0,0,1,3.884-1.546,4.467,4.467,0,0,0,1.265-.1A2.056,2.056,0,0,1,1882.238,103.109Z" transform="translate(74.639 53.851)" fill="#12577d"/><path d="M1887.773,90.636a13.275,13.275,0,0,0-.829,1.187,2.9,2.9,0,0,0-.359,1.037c-.224,2.256-.39,4.517-.63,6.772a7,7,0,0,1-.5,1.765,1.416,1.416,0,0,1-1.574.669c-.619-.235-.628-.68-.516-1.267.418-2.188.792-4.384,1.155-6.581.139-.838.2-1.688.3-2.532a6.121,6.121,0,0,1,.16-1.121c.282-.9.923-1.13,1.765-.651C1887.064,90.094,1887.347,90.334,1887.773,90.636Z" transform="translate(83.224 45.326)" fill="#12577d"/><path d="M1908.364,116.5a1.512,1.512,0,0,1-1.525.731,18.869,18.869,0,0,0-5.331.632,30.854,30.854,0,0,1-3.22.4,1.418,1.418,0,0,1-1.377-1.194c-.077-.548.31-.932,1.108-.987a36.37,36.37,0,0,0,6.245-1.148,7.853,7.853,0,0,1,2.93.041C1907.917,115.085,1908.186,115.786,1908.364,116.5Z" transform="translate(93.816 64.917)" fill="#12577d"/><path d="M1920.664,80.589c-.253.158-.447.3-.655.409a11.823,11.823,0,0,0-3.568,2.834,6.5,6.5,0,0,0-.564,1.014c-.212.367-.306.856-.98.971a4.221,4.221,0,0,1,.98-2.363,10.07,10.07,0,0,1,3.071-2.5c.306-.149.591-.336.888-.5A.572.572,0,0,1,1920.664,80.589Z" transform="translate(107.839 38.051)" fill="#12577d"/><path d="M1899.892,119.737a8.607,8.607,0,0,1-1.833-.037c-.322-.073-.56-.521-.836-.8.292-.262.543-.656.881-.756a13.117,13.117,0,0,1,2.5-.457,1.63,1.63,0,0,1,1.153.333,1.374,1.374,0,0,1,.308,1.1c-.05.256-.466.553-.769.626a6.28,6.28,0,0,1-1.407.027Z" transform="translate(94.068 67.151)" fill="#12577d"/><path d="M1916.362,84.951a1.818,1.818,0,0,1,.1-.594,7.43,7.43,0,0,1,3.165-3.09,2.036,2.036,0,0,1,.99-.071c.1.007.179.233.269.358-.134.069-.3.226-.393.192-.568-.2-.979.1-1.417.363a6.3,6.3,0,0,0-2.112,2.391c-.107.185-.235.358-.352.536Z" transform="translate(108.98 38.703)" fill="#12577d"/><path d="M1886.908,111.079c.7,2.153-.206,4.019-1.968,4.452-.411.1-.874.133-1.1-.374a.773.773,0,0,1,.4-1.08,3.054,3.054,0,0,0,1.594-1.893C1885.967,111.8,1886.451,111.531,1886.908,111.079Z" transform="translate(83.569 62.008)" fill="#12577d"/><path d="M1864.65,147.774c.059-.746.093-1.491.18-2.233.1-.858.59-1.381,1.169-1.32.549.059.875.779.69,1.6-.082.361-.238.708-.356,1.062a5.03,5.03,0,0,0-.365,1.192c-.032.569-.237.943-.808.931-.619-.012-.53-.536-.543-.952,0-.094,0-.189,0-.283Z" transform="translate(68.661 87.828)" fill="#12577d"/><path d="M1898.787,120.221c.833-.139,1.523-.157,1.993.575.368.576.272,1.025-.372,1.21a4.228,4.228,0,0,1-2.868-.411.9.9,0,0,1-.319-.813c.057-.23.415-.455.685-.539A2.917,2.917,0,0,1,1898.787,120.221Z" transform="translate(94.057 69.072)" fill="#12577d"/><path d="M1873.324,106.648a4.5,4.5,0,0,1-.012,1.108c-.374,1.165-.9,2.3-.363,3.566.066.158-.2.651-.292.644a1.143,1.143,0,0,1-.822-.333C1871,110.292,1871.659,107.76,1873.324,106.648Z" transform="translate(74.003 58.555)" fill="#12577d"/><path d="M1839.527,106.779a3.567,3.567,0,0,1,1.308,3.14c-.064,2.034-.118,4.074,0,6.1.059,1.034.37,2.021-.159,3.041-.124.242.181.7.289,1.066a1.694,1.694,0,0,1-1.23,2.194,1.181,1.181,0,0,1-1.434-1.019,3.614,3.614,0,0,1,.048-1.411,16.616,16.616,0,0,0,.26-4.628c-.05-2.4.057-4.8.192-7.2.023-.434.5-.845.771-1.269Z" transform="translate(48.118 58.657)" fill="#12577d"/><path d="M1841.282,123.393a1.092,1.092,0,0,1-.758-1.495c.968-3.667.882-7.43,1.055-11.172a6.273,6.273,0,0,1,.211-1.537c.073-.238.413-.4.806-.744a9.184,9.184,0,0,1,.144,1.176c-.07,2.267-.13,4.535-.249,6.8-.1,1.936-.24,3.873-.459,5.8C1841.985,122.646,1841.53,123.023,1841.282,123.393Z" transform="translate(49.832 59.956)" fill="#12577d"/><path d="M1841.055,105.054a3.385,3.385,0,0,1,.961-.333q3.323.005,6.649.084c.523.012.555.4.459.806C1847.049,106.183,1842.32,105.893,1841.055,105.054Z" transform="translate(50.301 57.054)" fill="#12577d"/><path d="M1805.72,43.546c-1.393.527-2.848.961-4.187,1.608a21.163,21.163,0,0,1-2.2.8c-.564.2-1.082.516-1.628.754.45,1.062.957,2.1,1.417,3.156.852,1.968,1.7,3.939,2.517,5.925.872,2.117,1.669,4.272,2.571,6.371.328.763.217,1.034-.2,1.238-2.526,1.228-5.04,2.489-7.585,3.678-1.494.7-3.032,1.3-4.565,1.9a5.468,5.468,0,0,1-1.486.311.752.752,0,0,1-.525-.4q-1.635-4.206-3.22-8.437c-.464-1.249-.813-2.544-1.3-3.783-.594-1.507-1.267-2.982-1.909-4.468-.313.116-.626.228-.941.331a.5.5,0,0,1-.311,0c-.7.244-1.4.512-2.092.79-1.2.479-2.427.9-3.575,1.493q.414.971.812,1.952c.327.811.525,1.685.863,2.491.574,1.374,1.238,2.7,1.82,4.074.665,1.573,1.263,3.178,1.921,4.752.888,2.126,1.827,4.227,2.7,6.359,1.231,3,2.38,6.033,3.642,9.015a105.4,105.4,0,0,1,5.533,14.853,2.723,2.723,0,0,0,.162.463c1.333-.655,2.717-1.176,4.092-1.728a17.123,17.123,0,0,1,1.881-.644l.037-.027a5.22,5.22,0,0,1,1.317-.6,2.036,2.036,0,0,0-.274-.448,2.967,2.967,0,0,1-.477-.713c-.567-1.43-1.073-2.889-1.666-4.306-1.144-2.735-2.336-5.444-3.5-8.17a8.9,8.9,0,0,1-.818-2.265c-.031-.278.774-.427,1.2-.637.084-.041.155-.11.24-.142,1.649-.63,3.3-1.249,4.948-1.886a13,13,0,0,0,1.439-.642c1.914-1.019,3.822-2.055,5.729-3.09.4-.215.634-.077.822.632a14.551,14.551,0,0,0,.682,1.793c1.023,2.493,2.072,4.975,3.078,7.476.925,2.3,1.824,4.613,2.733,6.921a5.374,5.374,0,0,1,.913-.35c.653-.212,1.29-.479,1.93-.728,1.333-.518,2.667-1.035,4.035-1.459q-1.9-5-3.772-10.013c-1.656-4.457-3.288-8.921-4.939-13.378q-1.729-4.67-3.48-9.328c-.841-2.233-1.708-4.453-2.557-6.681C1806.937,46.759,1806.34,45.147,1805.72,43.546Z" transform="translate(0 9.386)" fill="#12577d"/><path d="M1870.2,41.73a3.54,3.54,0,0,0-.822-.044,25.823,25.823,0,0,1-4.03.016c-.678.027-.8-.121-.763-.824.069-1.256.19-2.51.277-3.765.1-1.416.182-2.832.278-4.249.08-1.178.379-1.462,1.5-1.338.783.089,1.555.294,2.34.377,2.242.238,4.493.4,6.731.674,1.493.183,2.968.512,4.452.769,1.445.249,2.891.486,4.336.731a21.411,21.411,0,0,1,6.7,2.329,12.239,12.239,0,0,1,6.033,7.426,31.148,31.148,0,0,1,1.418,12.212,24.075,24.075,0,0,1-2.176,8.642,11.681,11.681,0,0,1-6.747,6.119,24.23,24.23,0,0,1-9.51.906c-2.629-.183-5.258-.393-7.885-.592-.149-.012-.3-.036-.448-.044-.322-.018-.749.1-.939-.077a1.631,1.631,0,0,1-.434-1.034c-.057-1.091-.027-2.187-.032-3.279,0-.276,0-.55-.011-.824-.11-2.078-.29-4.156-.325-6.238-.073-4.331-.085-8.665-.089-13,0-1.3.115-2.6.169-3.9C1870.239,42.419,1870.213,42.113,1870.2,41.73Zm8.058.254c-.369,7.562-.97,14.965-.635,22.437a4.969,4.969,0,0,0,.927.157c2.4-.076,4.808-.149,7.209-.281a3.513,3.513,0,0,0,1.731-.454,9.169,9.169,0,0,0,4.172-6.718,46.454,46.454,0,0,0,.18-5.656,8.732,8.732,0,0,0-1.682-5.167,9.4,9.4,0,0,0-5.75-3.662c-1.616-.349-3.269-.512-4.907-.726A7.146,7.146,0,0,0,1878.26,41.985Z" transform="translate(68.632 0)" fill="#12577d"/><path d="M1843.139,54.018c-.991,0-1.98-.007-2.971-.011.224,1.434.433,2.872.523,4.32a34.194,34.194,0,0,1-.16,4.635c-.09,1.265-.045,4.818-2.184,4.338-.386-.085-.472-.379-.615-.724-.256-.608-.507-1.215-.7-1.845a30.743,30.743,0,0,1-.936-4.411,60.089,60.089,0,0,1-.915-8.852c-.025-2.507.087-5.03-.18-7.526-.249.06-.495.133-.746.18-1.676.31-3.352.625-5.033.911-.587.1-.747.4-.641.877.161.7.4,1.393.5,2.1.336,2.366.664,4.734.917,7.111a34.589,34.589,0,0,1,.1,3.546c0,1.041-.025,2.083-.048,3.124a12.325,12.325,0,0,1-.128,4.571,3.438,3.438,0,0,1-4.282,2.379c-1.8-.571-2.748-2.831-3.381-4.43a55.011,55.011,0,0,1-2.6-9.6,55.911,55.911,0,0,1-.92-5.681c0-.064-.006-.128-.01-.192-.248-1.172-.251-2.379-.384-3.569-.358.068-.716.132-1.073.189q-2.313.374-4.63.719c-.334.05-.516.174-.494.509.03.473.052.947.073,1.422.313,1.42.568,2.854.831,4.286.386,2.11.836,4.21,1.295,6.305.564,2.576,1.109,5.186,1.77,7.757q.315.83.653,1.649c.119.286.237.576.357.865.16.246.317.5.475.747a17.176,17.176,0,0,0,1.66,2.135c.4.452.79.922,1.2,1.363.674.454,1.379.874,2.06,1.32a9.516,9.516,0,0,0,6.768,1.153,1.277,1.277,0,0,0,.39-.144c.98-.493,1.932-1.043,2.943-1.475a6.5,6.5,0,0,0,3.282-3.7,4.739,4.739,0,0,0,.213-.747c.493.5.91.963,1.377,1.379a4.033,4.033,0,0,0,4.09.726,3.779,3.779,0,0,0,2.544-2.672,11.249,11.249,0,0,0,.4-2.519,42.656,42.656,0,0,0-.249-8.8c-.115-.97-.13-1.954-.244-2.925A.828.828,0,0,0,1843.139,54.018Z" transform="translate(27.77 9.695)" fill="#12577d"/><path d="M1850.66,56.04c.093.671.141,1.272.265,1.849a19.521,19.521,0,0,0,.751,2.978,5.121,5.121,0,0,0,5.516,3.566c.749-.039,2.547-1.986,2.7-2.9.1-.592.151-1.2.2-1.8.036-.466.2-.717.593-.69,1.177.08,2.357.164,3.535.237a4.631,4.631,0,0,0,.685-.007c.42-.03.57.258.546.715a11.054,11.054,0,0,1-1.562,5.478,9.022,9.022,0,0,1-7.149,4.363,7.392,7.392,0,0,1-5.583-1.464,11.4,11.4,0,0,1-3.772-4.2,21.028,21.028,0,0,1-1.81-6.448,20.386,20.386,0,0,1,.009-5.766,17.853,17.853,0,0,1,4.2-9.174,11.085,11.085,0,0,1,5.425-3.53,23.415,23.415,0,0,1,2.505-.141c1.833-.215,3.322.786,4.85,1.834A9.061,9.061,0,0,1,1864.9,43.4a9.963,9.963,0,0,1,1.338,3.56,21.258,21.258,0,0,1,.055,7.072c-.009.061-.023.119-.029.18-.08.918-.53,1.395-1.309,1.425-1.722.068-3.443.18-5.165.217-2.263.048-4.526.034-6.79.066C1852.263,55.928,1851.526,55.994,1850.66,56.04Zm9.457-4.581a12.529,12.529,0,0,0-.174-4.08c-.545-1.865-1.377-3.1-3.094-3.4-1.973-.343-3.327.724-4.44,2.5a10.9,10.9,0,0,0-1.291,4.033c-.049.3-.076.61-.118.952Z" transform="translate(53.665 5.904)" fill="#12577d"/><path d="M1821.981,64.252a24.608,24.608,0,0,1-.215,7.044,17.564,17.564,0,0,1-2.5,6.925,5.812,5.812,0,0,1-2.769,2.2,7.5,7.5,0,0,1-2.1.712,17.834,17.834,0,0,1-2.813.1c-1.982-.021-3.681-1.728-5.263-3.665a19.35,19.35,0,0,1-2.535-4.2,34.813,34.813,0,0,1-2.765-7.941c-.947-4.932-.646-9.33,1.1-13.029,1.164-2.459,2.7-4.215,4.676-5a7.626,7.626,0,0,1,7.026.286,11.925,11.925,0,0,1,4.348,4.669,31.284,31.284,0,0,1,2.934,7.638C1821.461,61.38,1821.693,62.83,1821.981,64.252Zm-5.308-.368a14.421,14.421,0,0,0-1.418-4.943,9.712,9.712,0,0,0-3.4-3.656,2.179,2.179,0,0,0-1.217-.413,3.98,3.98,0,0,0-2.852,1.1,6.687,6.687,0,0,0-1.382,1.715,9.822,9.822,0,0,0-.706,4.428,15.628,15.628,0,0,0,1.221,6.031,9.179,9.179,0,0,0,3.533,4.427c1.1.667,2.194.971,3.214.246a8.809,8.809,0,0,0,.945-.788,7.41,7.41,0,0,0,2.271-6.241C1816.848,65.156,1816.745,64.517,1816.673,63.883Z" transform="translate(18.691 11.826)" fill="#12577d"/><path d="M1846.152,45.251c-.271-1.206-.534-2.347-.779-3.489-.083-.384-.125-.776-.19-1.164-.055-.334.057-.516.464-.584,1.578-.256,3.151-.543,4.727-.817.153-.027.31-.043.461-.08.509-.126.715.03.786.5.219,1.434.434,2.868.707,4.293.345,1.809.763,3.606,1.112,5.416.132.673-.263.866-1,.751a21.335,21.335,0,0,0-3.512-.327,46.678,46.678,0,0,0-5.056.32,30.376,30.376,0,0,0-3.763.781,2.784,2.784,0,0,0-1.722,1.14,1.415,1.415,0,0,0,.274,1.968,13.456,13.456,0,0,0,5.621,2.735,35.918,35.918,0,0,1,7.238,2.9,6.178,6.178,0,0,1,2.978,3.035c.6,1.384.707,3.717-1.391,4.758a12.364,12.364,0,0,1-3.363.89,31.936,31.936,0,0,1-5.985.164c-1.6-.007-3.2-.121-4.807-.185-.1,0-.192.007-.36.014-.005.254-.03.5-.012.737.1,1.327.217,2.655.319,3.984.046.608-.15.8-.833.811-1.167.023-2.334.028-3.5.06-.365.009-.729.116-1.09.1a.647.647,0,0,1-.475-.3,2.886,2.886,0,0,1-.263-.97c-.082-.987-.078-1.986-.189-2.969-.107-.95-.3-1.893-.479-2.834-.2-1.028-.459-2.044-.648-3.074-.117-.637.347-.915,1.039-.765,1.279.278,2.566.562,3.87.712,2.387.276,4.788.486,7.189.66a8.473,8.473,0,0,0,3.571-.489c.674-.251.952-.756.644-1.354a2.324,2.324,0,0,0-.838-.979,36.547,36.547,0,0,0-3.878-1.966c-1.256-.521-2.612-.849-3.918-1.272a13.392,13.392,0,0,1-3.8-2.08,7.515,7.515,0,0,1-2.575-3.053,3.573,3.573,0,0,1,.735-4.58,10.6,10.6,0,0,1,5.366-2.281c2.308-.39,4.624-.721,6.935-1.076C1845.879,45.283,1845.993,45.271,1846.152,45.251Z" transform="translate(42.779 5.904)" fill="#12577d"/><path d="M1933.968,49.527c.3-1.706.55-3.263.836-4.811.128-.692.356-.815.938-.678q2.562.6,5.128,1.181c.683.153.95.6.8,1.719-.31,2.272-.674,4.537-1.014,6.805-.149.995-.31,1.989-.43,2.987-.078.644-.349.973-.9.913-.718-.08-1.434-.171-2.146-.288-.52-.087-.815.069-.879.758-.187,2.007-.4,4.012-.617,6.015-.151,1.388-.322,2.772-.5,4.156-.2,1.587-.375,3.179-.642,4.754A26.685,26.685,0,0,1,1932.518,80a6.9,6.9,0,0,1-3.805,3.621,13.32,13.32,0,0,1-5.724.868c-2.569-.123-5.133-.31-7.7-.477a6.586,6.586,0,0,1-.984-.153.925.925,0,0,1-.792-1.053c.084-2.268.178-4.539.267-6.807.023-.573.057-1.146.059-1.717,0-.738.333-1.057.956-.824.655.246,1.283.576,1.938.817a19.793,19.793,0,0,0,6.292.973,31.823,31.823,0,0,0,4.151-.208c1.494-.155,2.01-.729,2.32-2.416.043-.235-.151-.52-.242-.8l.439.044,1.239-8.558c-.667.466-1.212.875-1.779,1.235a8.953,8.953,0,0,1-4.99,1.379,13.733,13.733,0,0,1-3-.717,10.5,10.5,0,0,1-5.181-3.393,9.222,9.222,0,0,1-2.305-5.058,12.794,12.794,0,0,1-.134-4.359,19.489,19.489,0,0,1,2.046-5.282,8.053,8.053,0,0,1,2.806-3.233,8.543,8.543,0,0,1,4.46-1.583,13.8,13.8,0,0,1,6.168,1.413,9.2,9.2,0,0,1,4.763,5.38C1933.819,49.191,1933.866,49.287,1933.968,49.527Zm-9.09-1.076a3.869,3.869,0,0,0-2.957.6,6.028,6.028,0,0,0-1.673,1.6,8.239,8.239,0,0,0-1.067,4.09c-.114,2.752,1.217,5.67,4.434,5.633a4.143,4.143,0,0,0,2.713-1.19,8.316,8.316,0,0,0,2.411-4.348,5.935,5.935,0,0,0-.671-4.663A3.531,3.531,0,0,0,1924.878,48.451Z" transform="translate(106.668 8.412)" fill="#12577d"/><path d="M1940.382,54.056c.31-.311.607-.637.934-.932a15.58,15.58,0,0,1,7.249-3.895,5.867,5.867,0,0,1,3.438.281,12.49,12.49,0,0,1,3.369,1.818,5.335,5.335,0,0,1,1.943,3.5,13.562,13.562,0,0,1-.352,4.969c-.425,1.873-1.16,3.676-1.771,5.5-.35,1.052-.726,2.1-1.078,3.149a23.271,23.271,0,0,0-.831,2.7,1.822,1.822,0,0,0,.439,1.137c.07.1.559.06.742-.069.683-.484,1.329-1.025,1.973-1.562.327-.272.646-.327.943,0a.6.6,0,0,1,.147.475c-.325,1.222-.689,2.434-1.021,3.654-.2.737-.374,1.484-.552,2.228a1.42,1.42,0,0,1-1.208,1.089,7.21,7.21,0,0,1-3.131.162,15.408,15.408,0,0,1-3.082-.923c-1.045-.443-1.272-1.518-1.518-2.486a4.634,4.634,0,0,1,.384-2.777c.567-1.539,1.166-3.066,1.738-4.6.9-2.423,1.842-4.836,2.669-7.284a15.1,15.1,0,0,0,.58-3.067,2.415,2.415,0,0,0-1.5-2.354,5.451,5.451,0,0,0-3.476-.208,8.215,8.215,0,0,0-3.945,2.06,21.587,21.587,0,0,0-4.763,5.56,28.45,28.45,0,0,0-2.032,3.825,28.188,28.188,0,0,0-1.053,4.217c-.16.749-.2,1.525-.3,2.286-.061.441-.47.644-1.066.5-.813-.19-1.614-.443-2.433-.6a14.791,14.791,0,0,0-2.076-.249c-.694-.037-.9-.265-.676-.914.37-1.053.821-2.082,1.132-3.151.457-1.575.811-3.179,1.231-4.765.167-.63.445-1.231.58-1.866.432-2.041.8-4.1,1.236-6.136.237-1.114.591-2.2.834-3.313.271-1.229.493-2.47.708-3.71.19-1.1.331-2.2.521-3.3.094-.553.322-.683.89-.532.345.091.664.281,1.009.352,1.63.338,3.265.644,4.893.982.121.025.308.242.29.338-.192,1.039-.4,2.075-.64,3.1-.146.632-.332,1.256-.525,1.877-.3.955-.623,1.9-.936,2.856Z" transform="translate(118.811 10.064)" fill="#12577d"/><path d="M1890.178,53.838c.093.56.139,1.066.263,1.548a14.171,14.171,0,0,0,.742,2.491c1.1,2.365,3.1,3.089,5.456,2.984a4.813,4.813,0,0,0,2.676-2.425,14.194,14.194,0,0,0,.2-1.509c.035-.388.194-.6.583-.576q1.751.1,3.5.2a5.737,5.737,0,0,0,.678-.005c.415-.027.564.215.541.6a8.223,8.223,0,0,1-1.546,4.585,9.286,9.286,0,0,1-7.074,3.649,8.326,8.326,0,0,1-5.524-1.226,10.3,10.3,0,0,1-3.731-3.512,15.6,15.6,0,0,1-1.792-5.4,14.447,14.447,0,0,1,.009-4.823,14.022,14.022,0,0,1,4.155-7.677,11.312,11.312,0,0,1,5.368-2.953c.8-.157,1.655-.036,2.479-.117,1.813-.181,3.286.658,4.8,1.535a8.3,8.3,0,0,1,2.311,2.057,7.592,7.592,0,0,1,1.324,2.978,15.064,15.064,0,0,1,.053,5.919c-.007.05-.023.1-.028.149a1.206,1.206,0,0,1-1.293,1.192c-1.7.057-3.407.149-5.112.181-2.238.041-4.479.03-6.717.055C1891.763,53.746,1891.035,53.8,1890.178,53.838Zm9.359-3.832a8.917,8.917,0,0,0-.175-3.414,3.659,3.659,0,0,0-3.062-2.847,4.386,4.386,0,0,0-4.393,2.089,8.169,8.169,0,0,0-1.276,3.375c-.051.253-.076.511-.119.8Z" transform="translate(84.5 6.346)" fill="#12577d"/><path d="M1913.4,40.425a3.365,3.365,0,0,1,3.374,3.379,2.514,2.514,0,0,1-2.039,1.934,6.416,6.416,0,0,1-3.035-.283,2.191,2.191,0,0,1-1.619-2.007,2.565,2.565,0,0,1,2.011-2.84A9.868,9.868,0,0,1,1913.4,40.425Z" transform="translate(104.087 6.954)" fill="#12577d"/><path d="M1911.772,53.623a18.559,18.559,0,0,0-2.334-.6s-6.8-.952-5.816-6.435,9.86.036,9.86.036l2.675-4.957s-8.64-5.126-15.161,1.551.484,11.705,5.439,13.038,2.649,4.651,2.649,4.651c-5.859,5.631-9.508-3.042-9.508-3.042l-2.163,6.565c2.156,2.824,11.8,4.236,15.719-.1a7.5,7.5,0,0,0,.731-9.177A6.292,6.292,0,0,0,1911.772,53.623Z" transform="translate(94.214 6.458)" fill="#12577d"/><path d="M1910.48,44.511l5.334.407s-3.795,27.992.418,16.242l1.422-4.462,1.074.274s-6.115,17.249-8.887,3.943C1909.842,60.915,1909.178,55.736,1910.48,44.511Z" transform="translate(103.768 10.138)" fill="#12577d"/><path d="M1940.527,150.145c-.217.062-.437.119-.658.169-.911.2-1.776.532-2.66.81-.833.262-1.654.56-2.483.834a3.841,3.841,0,0,1-.647.151c-.082.012-.23-.032-.251-.087a.887.887,0,0,1-.053-.834,5.18,5.18,0,0,1,1.066-1.43,1.133,1.133,0,0,0,.149-.208l-.306-.263c-.141.158-.248.3-.379.423-.674.616-1.356,1.226-2.034,1.84-.207.185-.4.383-.621.555a.815.815,0,0,1-.29.087c-.027-.1-.091-.208-.072-.3a1.3,1.3,0,0,1,.183-.457c.285-.427.587-.843.888-1.26.183-.254.185-.253-.036-.536l-3.217,2.961a2.523,2.523,0,0,1,.031-.279,5.856,5.856,0,0,1,1.01-2.126,8.581,8.581,0,0,0,.5-.774l-.238-.334c-.522.6-1.03,1.2-1.545,1.783a12,12,0,0,1-1.822,1.591,5.735,5.735,0,0,1,.7-1.774l-.313-.26-.559,1a8.13,8.13,0,0,1-.443.783c-.312.436-.639.865-.986,1.274-.228.269-.5.5-.806.8a1.823,1.823,0,0,1-.212-1.534c.19-.594.443-1.169.642-1.76a1.159,1.159,0,0,1,.509-.633,19.217,19.217,0,0,1,2.181-1.29,1.045,1.045,0,0,0,.278-.181c.5-.464.994-.925,1.475-1.406.372-.372.733-.754,1.071-1.156.187-.224.152-.351-.089-.516a1.96,1.96,0,0,0-1.05-.34,2.891,2.891,0,0,0-1.518.5,8.266,8.266,0,0,0-1.788,1.272c-.2.194-.436.351-.719.575.023-.219.037-.352.052-.484.025-.222.052-.443.075-.664.018-.176-.031-.3-.3-.313a6.732,6.732,0,0,0-.226.674c-.066.3-.094.6-.142.907a1.749,1.749,0,0,1-.512,1.014c-.63.626-1.233,1.281-1.815,1.954-.495.575-.957,1.18-1.407,1.792a7.441,7.441,0,0,0-1.087,1.763c-.082.221-.155.447-.249.662a2.734,2.734,0,0,0-.206,1.5c.067.523.142.616.663.728.377-.423.767-.834,1.124-1.272a20.855,20.855,0,0,0,2.014-3,17.777,17.777,0,0,0,1.715-4.1,1.748,1.748,0,0,1,.644-.945c.6-.471,1.2-.945,1.838-1.368a6.67,6.67,0,0,1,1.226-.608,1.342,1.342,0,0,1,1.255.084.79.79,0,0,1-.1.189q-.547.571-1.1,1.13c-.146.149-.288.3-.441.438a4.128,4.128,0,0,1-.911.774,17.537,17.537,0,0,0-1.9,1.114,2.24,2.24,0,0,0-1.1,1.349,10.253,10.253,0,0,1-.491,1.235,2.663,2.663,0,0,0-.023,1.873.642.642,0,0,0,1,.372,5.214,5.214,0,0,0,.607-.621c.267-.31.518-.633.78-.955.32.407.42.29.694.066.45-.37.875-.769,1.313-1.155.1-.089.2-.173.358-.3-.023.221-.027.368-.057.509-.1.461-.2.922-.312,1.377a.854.854,0,0,1-.189.308c-.288.356-.589.7-.874,1.059-.6.747-1.188,1.5-1.781,2.252-.052.064-.107.128-.153.2-.261.391-.519.783-.779,1.176a5.724,5.724,0,0,0-.89,1.818c-.08.336-.023.5.281.635a1.865,1.865,0,0,0,1.465.073,3.121,3.121,0,0,0,1.754-1.578c.354-.737.615-1.518.9-2.286a10.656,10.656,0,0,0,.761-3.445.5.5,0,0,1,.144-.286q.68-.761,1.379-1.507c.135-.146.288-.274.461-.436-.022.2-.039.352-.054.5a.6.6,0,0,0,.326.653.544.544,0,0,0,.656-.082c.269-.221.521-.457.781-.689.178-.16.354-.322.564-.511.027.183.034.294.059.4.029.123.075.24.111.359.1.352.224.461.578.473a1.194,1.194,0,0,0,.37-.05c.571-.169,1.147-.331,1.711-.527,1.139-.4,2.258-.849,3.407-1.213q.563-.179,1.13-.352Q1940.522,150.308,1940.527,150.145Zm-20.324,6.608c-.151-.1-.146-.267-.158-.431a3.756,3.756,0,0,1,.31-1.454,7.042,7.042,0,0,1,1.306-2.2c.842-1.048,1.724-2.064,2.59-3.094.034-.037.075-.068.112-.1l.091.069A19.533,19.533,0,0,1,1920.2,156.753Zm8.062-1.669a5.877,5.877,0,0,0-.176.642c-.166.557-.336,1.114-.509,1.669-.125.395-.229.8-.391,1.176a5.577,5.577,0,0,1-.564,1.012,2.476,2.476,0,0,1-1.576,1.068,2.122,2.122,0,0,1-.694-.027c-.187-.03-.228-.176-.164-.354a8.046,8.046,0,0,1,1.014-1.946c.564-.776,1.144-1.539,1.726-2.3.4-.518.807-1.025,1.213-1.535.041-.05.093-.091.176-.174A1.639,1.639,0,0,1,1928.265,155.084Z" transform="translate(111.483 88.806)" fill="#12577d"/></g></svg>