<svg xmlns="http://www.w3.org/2000/svg" width="168.53" height="126" viewBox="0 0 168.53 126"><g transform="translate(-14318.189 -2572.95)"><path d="M14384.427,2691.347c.4-.06.687-.1.97-.143.182-.025.365-.039.548-.066a6.584,6.584,0,0,0,1.157-.187c1.21-.407,1.3-.086,1.6.675.05.124.111.243.164.366a.34.34,0,0,1,.008.093.745.745,0,0,1-.853.463,9.108,9.108,0,0,0-1.577.194,15.947,15.947,0,0,1-1.655.142,2.833,2.833,0,0,1-.8-.263,5.456,5.456,0,0,0-.052,1.632c-.006.239.051.479.062.719.063,1.476-.521,2.139-1.9,2.813-.167.081-.39.087-.519.2a4.914,4.914,0,0,1-3.23.9,10.939,10.939,0,0,1-1.6.045,21.713,21.713,0,0,1-2.267-.312c-.186-.034-.345-.24-.506-.378a10.584,10.584,0,0,1-1.314-1.171c-.7-.846-1.509-1.617-1.417-2.914a8.5,8.5,0,0,0-.39-2.179c-.079-.388-.2-.768-.266-1.157-.091-.551,0-1.027.716-1.149-.537-.93,0-1.524.528-2.1a3.74,3.74,0,0,1,1.713-.994c1.06-.327,2.139-.585,3.295-.895.023-.614.046-1.327.076-2.039.021-.507.081-1.013.071-1.519a28.149,28.149,0,0,1,.432-4.7,26.221,26.221,0,0,0,.121-2.95c.07-2.029.147-4.059.207-6.088.022-.744,0-1.489,0-2.269-.579-.23-.747-.436-.655-1.148a17.693,17.693,0,0,0-.133-3.508c-.065-.954.042-1.92.046-2.88,0-1.116-.031-2.232-.03-3.348s.032-2.242.042-3.363c0-.263.188-.649-.283-.686-.446-.036-.413.364-.421.631q-.054,1.68-.051,3.362a4,4,0,0,1-.584,2.366c-.174.257-.208.609-.374.874-.089.143-.322.2-.491.287-.081-.181-.246-.371-.228-.541.056-.5.2-.988.275-1.487a3.589,3.589,0,0,0,.055-1.111,10.154,10.154,0,0,1,.011-2.8,3.819,3.819,0,0,0,0-.4l-1.056.314c-.051.015-.141.021-.146.046-.13.574-.824.822-.854,1.429-.021.476.056.956.08,1.435.033.666.016,1.337.095,2a13.2,13.2,0,0,1-.169,2.6c-.129,1.705-.187,3.415-.282,5.122-.017.32-.066.638-.094.957a3.41,3.41,0,0,0-.023.63c.044.443.153.883.17,1.326a22.788,22.788,0,0,1,.015,2.621c-.183,2.367-.408,4.732-.646,7.095-.115,1.139-.3,2.27-.447,3.406a5.959,5.959,0,0,0-.029.876c.007.283-.017.533-.342.654a.946.946,0,0,1-.406-.981c.061-1.306.154-2.611.245-3.915.052-.746.146-1.49.182-2.236.06-1.227.108-2.456.119-3.684a28.626,28.626,0,0,0-.074-3.2,33.95,33.95,0,0,1,0-5.207c.067-1.36.227-2.716.267-4.076.052-1.737.027-3.476.03-5.213a1.555,1.555,0,0,0-.145-.381,3.6,3.6,0,0,0-.321.53c-.148.419-.318.769-.832.874-.154.031-.343.349-.355.546-.057.851-.076,1.705-.066,2.558.015,1.147.092,2.293.1,3.44,0,.956-.081,1.913-.072,2.869.007.713.063,1.422.012,2.139-.12,1.667-.283,3.338-.256,5.005a12.516,12.516,0,0,1-.169,2.537,22.392,22.392,0,0,0-.112,5.64c.086,1.381.024,2.77.055,4.155a23.015,23.015,0,0,0,.146,2.636,4.93,4.93,0,0,1-.518,2.565l-.8.05a17.577,17.577,0,0,1-.192-1.749c-.03-2.271-.015-4.543-.04-6.814-.012-1.068-.131-2.137-.114-3.205.019-1.119.144-2.236.215-3.354.121-1.889.267-3.777.346-5.667.07-1.707.094-3.418.086-5.127-.009-1.762-.08-3.524-.121-5.286-.007-.316,0-.632,0-.928l-.983-.379-1.232,1.139c.552.5.46,1.209.485,1.91a9.111,9.111,0,0,0,.229,1.168,27.088,27.088,0,0,1,.161,6.863c-.08.942-.007,1.9,0,2.846,0,.24.008.481,0,.721a16.31,16.31,0,0,0-.021,1.916,24.746,24.746,0,0,1,.076,3.59c-.062,1.52.079,3.047.09,4.571.007.959-.069,1.918-.1,2.878a13.53,13.53,0,0,0-.014,1.918,10.725,10.725,0,0,1-.146,3.425,6.528,6.528,0,0,0-.011,1.207c.5,0,1,0,1.488,0a5.855,5.855,0,0,1,.957.029,1.222,1.222,0,0,1,1.018,1.338c-.023.31-.246.488-.484.344-.583-.354-1.154-.005-1.727-.053-.42-.035-.85.034-1.274.032-.526,0-1.064-.187-1.562.143a.354.354,0,0,1-.235.026,8.211,8.211,0,0,0-2.6.193,1.477,1.477,0,0,1-.479,0,11.406,11.406,0,0,0-3.175-.159c-.947.062-1.909-.149-2.864-.142-1.006.008-2.013.113-3.014.22a2.549,2.549,0,0,0-.741.367,1.822,1.822,0,0,0-1.534-.445c-.41.043-.84-.156-1.295-.04-.257.065-.376-.2-.475-.446a.623.623,0,0,0-.869-.389c-.776.219-.99.067-.935-.726.105-1.519.268-3.034.348-4.553.08-1.547.078-3.1.138-4.646a5.936,5.936,0,0,1,.206-.992,4.048,4.048,0,0,0,.179-.856,23.186,23.186,0,0,1,.486-3.961c.171-1.025.307-2.056.475-3.082.164-1,.357-2,.521-3a14.4,14.4,0,0,0,.234-1.821c.038-1.169.011-2.34.011-3.562-.147.066-.3.143-.464.209-.98.405-1.959.811-2.943,1.208-1.282.518-2.556,1.057-3.854,1.53a21.977,21.977,0,0,1-2.6.755,1.105,1.105,0,0,1-1.286-.583c-.38-.667-.843-1.29-1.205-1.967a3.6,3.6,0,0,1-.2-1.014c1.711-.7,3.338-1.422,5.01-2.019,1.93-.69,3.913-1.233,5.85-1.905,1.234-.427,2.429-.971,3.638-1.467a.792.792,0,0,0,.176-.131c-.315-.89-.137-1.245.781-1.428a21.172,21.172,0,0,0,4.707-1.885,9.068,9.068,0,0,1,3.181-1.229,1,1,0,0,0,.525-.18c.95-.757,1.886-1.532,2.893-2.358-.952-.52-1.843-1.007-2.735-1.492-.069-.038-.151-.054-.221-.093a2.7,2.7,0,0,1-1.454-2.4c-.078-1.916-.218-3.829-.288-5.745-.034-.933.037-1.869.048-2.8.017-1.308.018-2.617.031-3.926,0-.4.036-.8.051-1.193.048-1.276.082-2.552.149-3.826a1.016,1.016,0,0,0-.281-.878,2.365,2.365,0,0,1-.693-1.318,8.607,8.607,0,0,0-.358-1.008,3.132,3.132,0,0,1,.562-.341c.479-.164.836-.341.851-.974.009-.376.429-.612.837-.6.449.013.9.095,1.345.151a.516.516,0,0,1,.507.664c-.075.423.158.623.475.823.611.388.621.648.109,1.164a1.309,1.309,0,0,0-.47,1.4,4.517,4.517,0,0,1,0,1.437c-.073,1.3-.205,2.6-.231,3.908-.025,1.331.083,2.664.067,4-.013,1.136-.188,2.272-.163,3.406a10.26,10.26,0,0,0,.157,3.066c.017.05.055.118.036.153-.353.662.164,1.291.078,1.945a.518.518,0,0,0,.17.416,9.974,9.974,0,0,0,1.459.932,17.394,17.394,0,0,0,1.794.652c.148.052.31.075.454.137.6.256.584.243,1.018-.184a20.119,20.119,0,0,0,1.663-1.575,3.085,3.085,0,0,1,2.076-1.2c.211-.03.4-.245.59-.392.5-.392.984-.792,1.618-1.3l-1.235-.252a11.416,11.416,0,0,1-1.252-.272.586.586,0,0,1-.34-.43c0-.249.248-.313.486-.274.474.078.947.154,1.42.239.433.078.906-.106,1.307.235.072.062.318-.009.438-.088.59-.39,1.166-.8,1.817-1.256-1.538-.668-2.947-1.3-4.372-1.888-.537-.223-1.112-.348-1.667-.529a3.841,3.841,0,0,1-.66-.278c-.265-.146-.2-.336.011-.553,2.473.459,4.729,1.642,7.252,2.286l1.485-1.809a8.553,8.553,0,0,0-2.327-1.662c-1.113-.728-2.306-1.335-3.439-2.033a9.957,9.957,0,0,1-1.374-1.075.573.573,0,0,1-.052-.494c.021-.07.293-.127.414-.083a6.015,6.015,0,0,1,.939.443c.9.51,1.8,1.024,2.687,1.558.433.26.821.593,1.255.852.791.471,1.6.908,2.4,1.366a.587.587,0,0,0,.892-.154,10.009,10.009,0,0,1,.922-.946c-.413-.487-.9-.759-1.242-1.239a6.487,6.487,0,0,0-1.416-1.278c-.817-.625-1.7-1.166-2.494-1.819-.94-.777-1.8-1.652-2.724-2.451-.745-.644-1.534-1.239-2.3-1.854a4.765,4.765,0,0,1-.56-.444c-.207-.223-.23-.476.09-.739a1.315,1.315,0,0,1,.471.159c1.171.967,2.3,1.981,3.5,2.92a23.913,23.913,0,0,0,3.707,2.606,8.093,8.093,0,0,1,2.266,1.618,12.981,12.981,0,0,0,1.724,1.342l1.224-1.213c-.618-.619-1.224-1.249-1.855-1.849-.753-.715-1.523-1.409-2.3-2.1-.332-.3-.707-.548-1.025-.859a11.546,11.546,0,0,1-.794-.981c.278-.043.468-.136.575-.078a7.21,7.21,0,0,1,1.359.838c.692.6,1.321,1.284,1.978,1.931a.65.65,0,0,0,.18.157,6.711,6.711,0,0,1,1.754,1.377c.283.232.591.436.989.726.761-.2,1.127-.966,1.7-1.658-.775-.855-1.535-1.7-2.3-2.541-.561-.608-1.138-1.2-1.7-1.8-.946-1.012-1.88-2.034-2.83-3.041-.785-.831-1.589-1.644-2.38-2.469a1.428,1.428,0,0,1-.282-.381c-.16-.354.09-.693.456-.583a2.791,2.791,0,0,1,1.06.5c.744.674,1.433,1.41,2.131,2.133a4.778,4.778,0,0,1,.352.527,2.506,2.506,0,0,0,.4.493c.481.393.984.759,1.476,1.139a.785.785,0,0,1,.229.223c.719,1.341,1.981,2.194,2.959,3.3.43.489.833,1,1.313,1.583.453-.008.638-.513,1.063-.878-.346-.55-.662-1.1-1.021-1.614-.6-.875-1.227-1.738-1.857-2.594-.27-.364-.587-.692-.87-1.047q-2.07-2.595-4.132-5.2c-.1-.121-.232-.255-.241-.39-.012-.168.063-.478.145-.493a2.629,2.629,0,0,1,.919.005c.132.023.245.2.348.32.764.923,1.521,1.851,2.284,2.775a33.685,33.685,0,0,1,2.406,2.969q.886,1.366,1.833,2.685c.367.512.732,1.025,1.106,1.549l1.895-1.14-3.614-5.044c.117-.553.117-.553,1-.822.275.324.611.659.881,1.042.909,1.295,1.785,2.613,2.693,3.908.2.279.591.459.694.754a13.773,13.773,0,0,0,1.647,2.5,8.023,8.023,0,0,0,.614,1.1c.936,1.089,1.914,2.141,2.878,3.2.09.1.2.176.286.277.41.486.831.965,1.216,1.471a6.545,6.545,0,0,1,.521.9,6.1,6.1,0,0,0,.457.9,54.9,54.9,0,0,0,4.858,5.346c.8-.659,1.526-1.327,2.324-1.893a10.767,10.767,0,0,1,2.568-1.591c.872-.309,1.67-.823,2.519-1.206a12.662,12.662,0,0,1,3.7-.938c.921-.115,1.841-.248,2.761-.372a9.231,9.231,0,0,1,4.347.2c2.1.736,4.3,1.25,6.187,2.535.649.443,1.426.715,2.028,1.208.86.706,1.616,1.54,2.411,2.326a6.2,6.2,0,0,1,.644.707,12.46,12.46,0,0,1,2.241,4.295c.219.849.557,1.668.763,2.519.25,1.035.406,2.092.625,3.135a6.69,6.69,0,0,1,.069,2.218.987.987,0,0,0,0,.24c.1.727.169,1.459.3,2.179a3.1,3.1,0,0,1-.165,1.5c-.343,1.144-.62,2.315-1.053,3.425a2.879,2.879,0,0,1-1.762,1.736,3.07,3.07,0,0,1,.044-.5,5.669,5.669,0,0,0,.5-1.757c-.011-.227.287-.452.339-.7.3-1.431.965-2.786.914-4.291,0-.133-.017-.267-.031-.4a10.776,10.776,0,0,1-.229-2.277,11.581,11.581,0,0,0-.533-3.94,18.717,18.717,0,0,0-1.372-4.168,10.679,10.679,0,0,0-1.8-2.621c-.492-.515-.944-1.074-1.475-1.545a13.155,13.155,0,0,0-2.019-1.567c-1.164-.683-2.4-1.249-3.6-1.864a1.231,1.231,0,0,0-.142-.075l-2.792-.964a8.779,8.779,0,0,0-4.5-.315c-1.418.256-2.854.418-4.271.679a6.39,6.39,0,0,0-1.581.554,42.084,42.084,0,0,0-4,2.033,10.4,10.4,0,0,0-2.858,2.428q1.223,1.173,2.449,2.352c.155.147.336.27.476.43,1.444,1.641,3.036,3.131,4.618,4.636,1.025.975,2.152,1.851,3.11,2.869a54.085,54.085,0,0,0,4.5,3.909.987.987,0,0,0,1.09.24c.869-.324,1.743-.639,2.631-.9a13.165,13.165,0,0,0,3.614-1.62c1.151-.769,2.285-1.567,3.421-2.361a1.946,1.946,0,0,0,.3-.348c-1.233-.648-1.233-.648-.922-1.492a4.138,4.138,0,0,1,2.752,1.637,3.025,3.025,0,0,1-.065,3.185c-.635.074-.854-.1-.868-.731a1.643,1.643,0,0,0-.32-1.3,3.963,3.963,0,0,0-.616.377,19.4,19.4,0,0,1-8.293,4.5c-.3.077-.623.1-1.019.161.456.417.856.783,1.259,1.148a43.944,43.944,0,0,0,3.75,3.349,32.569,32.569,0,0,1,3.366,2.9,28.775,28.775,0,0,0,2.31,1.835,1.2,1.2,0,0,0,.373.118,1.559,1.559,0,0,1,.45.152c.687.5,1.381,1,2.027,1.548a.835.835,0,0,1,.2.714.526.526,0,0,1-.725.3c-.093-.03-.192-.044-.283-.064-.033.085-.083.151-.066.179.683,1.181.4,2.433.262,3.67a8.336,8.336,0,0,1-.239,1.257c-.367,1.366-.095,2.767-.253,4.144-.07.61-.047,1.229-.082,1.843a1.457,1.457,0,0,1-.123.541,1.715,1.715,0,0,0-.171,1.307c.061.2-.066.453-.115.719.317.113.7.216.745.724a.99.99,0,0,1-.491,1.009,2.172,2.172,0,0,1-1.636.6,2.634,2.634,0,0,0-1.294.348c-.92.389-1.821.823-2.7,1.225a6.282,6.282,0,0,1-.72-.558,1.092,1.092,0,0,1-.38-1.145c.134-.447-.1-.677-.473-.495-.78.382-1.63.159-2.432.354a21.061,21.061,0,0,1-2.443.379,22.321,22.321,0,0,1-4.849.354,2.11,2.11,0,0,0-.553.046c-.568.1-.529.044-.853-.438a5.6,5.6,0,0,1-.78-3.129c-.021-.774-.142-1.544-.187-2.317a12.5,12.5,0,0,1,.532-3.709,9.859,9.859,0,0,0,.1-2.459c-.008-.5-.153-1-.178-1.508a22.728,22.728,0,0,1-.054-2.961,19.508,19.508,0,0,0,.086-3.744c-.029-.264-.08-.526-.083-.789,0-.308-.073-.625.293-.845.386-.232.576.04.9.353l.1-.958c-.761.41-1.211.057-1.677-.328-.349-.286-.763-.489-1.116-.768-.54-.427-1.058-.881-1.573-1.338a1.709,1.709,0,0,1-.251-.392l-.193.09-.293,2.809h-.656a1.141,1.141,0,0,1-.086-.267c-.014-1.068-.032-2.135-.024-3.2a1.1,1.1,0,0,0-.39-.914,5.633,5.633,0,0,1-.6-.741,1.724,1.724,0,0,0-.631-.536q-.057,2.84-.116,5.678l-.139.04c-.07-.083-.188-.16-.2-.25a11.78,11.78,0,0,1-.114-1.348c-.013-1.5,0-3,0-4.5,0-.694-.569-1.009-1.024-1.531.184,1,.378,1.881.5,2.768.074.555-.193.811-.705.849a.5.5,0,0,1-.59-.415,2.689,2.689,0,0,1-.129-.7,23.212,23.212,0,0,1,.117-2.377,1.581,1.581,0,0,0-.489-1.512,6.191,6.191,0,0,0-.981-.867c0,.192-.014.385,0,.576a28.448,28.448,0,0,1-.019,5.672,7.461,7.461,0,0,0,.025,1.269c.041.724.1,1.447.145,2.17.008.13.057.3,0,.385a2.032,2.032,0,0,0-.177,1.4,14.155,14.155,0,0,1-.437,4.045c-.21.79-.308,1.61-.456,2.416-.009.053.009.126-.02.157-.12.122-.254.231-.382.345-.1-.138-.281-.278-.278-.414a21.868,21.868,0,0,1,.141-2.48,43.332,43.332,0,0,0,.285-5.5c.024-2.484.133-4.966.169-7.45a22.808,22.808,0,0,0-.145-2.707,1.009,1.009,0,0,1,.327-1.051l-1.821-2.629c-.062.6-.135,1.035-.141,1.467-.011.741.058,1.485.026,2.225-.083,2.014-.207,4.026-.3,6.039-.017.34.087.684.068,1.023a41.043,41.043,0,0,1-.3,4.474c-.247,1.522-.067,3.038-.194,4.55-.086,1.035-.188,2.069-.262,3.1-.034.473,0,.95-.019,1.425-.058,1.708-.115,3.417-.187,5.124-.038.9-.128,1.8-.148,2.707-.024,1.092.024,2.186-.013,3.277a2.936,2.936,0,0,1-.361.882l1.3.077c0-.987-.031-1.971.007-2.951a31.376,31.376,0,0,1,.342-4.789,15.712,15.712,0,0,0,.141-2.235c.016-.321,0-.65.386-.809.366.165.267.5.244.764-.121,1.409-.348,2.814-.383,4.225a22.491,22.491,0,0,0,.1,4.794,5.712,5.712,0,0,1,.008.989h1.461a2.123,2.123,0,0,1-.258-1.762,4.387,4.387,0,0,0-.007-.792c0-1.014-.023-2.029.011-3.042.076-2.3.188-4.594.268-6.891a1.8,1.8,0,0,1,.514-1.2,1.526,1.526,0,0,1,.2.513c0,.505-.071,1.01-.09,1.516-.067,1.762-.187,3.526-.167,5.287.022,2.021.174,4.039.272,6.059a2.118,2.118,0,0,0,.087.349c.459.02.906.046,1.355.058.639.017,1.28,0,1.917.047a.735.735,0,0,1,.51.287,4.858,4.858,0,0,1,.524,1.159.909.909,0,0,1-.154.648.936.936,0,0,0,.095,1.2c.719-.08,1.435-.127,2.139-.249a4.625,4.625,0,0,0,1.276-.422c.162-.082.265-.38.3-.6.141-.817.323-.94,1.146-.984,1.084-.057,2.161-.214,3.244-.295a14.43,14.43,0,0,1,1.753-.012c.5.023,1,.142,1.5.162a5.115,5.115,0,0,0,1.1-.1,21.561,21.561,0,0,1,5.308-.514.46.46,0,0,1,.466.525c0,.287-.238.307-.467.3-.5-.008-1.012-.031-1.516-.007a3.165,3.165,0,0,0-1.763.654,2.358,2.358,0,0,1-.858.357,18.511,18.511,0,0,1-4.306.25,6.574,6.574,0,0,0-1.417.176,5.907,5.907,0,0,1-2.275.3c-.369-.047-.543.144-.583.494-.032.289-.07.578-.107.875-.493.2-.948.416-1.422.575a3.305,3.305,0,0,1-.769.092c-.1.009-.229-.043-.3,0-.845.5-1.783.1-2.671.274-.633.126-1.316-.827-1.312-1.649,0-.263.019-.526.02-.789,0-.73-.27-1.039-.965-1.036-1.163,0-2.327.034-3.49.054a1.3,1.3,0,0,1-.239.013c-1.626-.283-3.244.146-4.87.051-.359-.022-.73.18-1.092.163-.855-.04-1.7.295-2.573-.045a9.683,9.683,0,0,0-3.325-.314,4.286,4.286,0,0,0-1.262.421c-.125-.08-.445-.18-.581-.4a7.52,7.52,0,0,1-.716-1.5c-.093-.266.222-.522.513-.413a4.91,4.91,0,0,0,2.372.071,18.662,18.662,0,0,1,2.12-.017c.081-.562.2-1.158.245-1.759q.212-2.714.374-5.43c.061-.984.081-1.971.118-2.957a2.049,2.049,0,0,1,.018-.479,1.419,1.419,0,0,1,.238-.356c.109.127.295.244.312.381a12.17,12.17,0,0,1,.042,1.281q.021,1.922.033,3.843a8.55,8.55,0,0,1-.266,2.778,3.166,3.166,0,0,0-.059.713c-.048.554-.083,1.109-.152,1.66-.09.719.087.923.824.861a6.5,6.5,0,0,0,.7-.131c.027-.218.056-.373.065-.53q.186-2.8.365-5.6c.114-1.812.205-3.625.339-5.436.063-.875.205-1.746.3-2.619.156-1.354.3-2.709.469-4.061.051-.4.027-.876.635-1.086a4.107,4.107,0,0,1,.137.7c.017,1.041.049,2.085.006,3.124-.039.93-.169,1.856-.26,2.784,0,.027-.009.053-.011.08-.127,1.729-.306,3.456-.366,5.188-.073,2.085-.325,4.149-.587,6.214a9.785,9.785,0,0,1-.241,1h2.769c.042-1.23.095-2.422.12-3.614.025-1.172-.026-2.347.047-3.515.164-2.61.416-5.214.574-7.824.1-1.707.083-3.423.164-5.132.074-1.544.248-3.084.312-4.629.056-1.384.021-2.772.024-4.159,0-.267-.008-.535,0-.8q.094-2.313.2-4.627c.026-.587.087-1.173.092-1.76,0-.416.131-.86-.191-1.234a.254.254,0,0,1-.038-.224c.327-.675-.263-.914-.634-1.416a3.167,3.167,0,0,0-.163.61q-.021.951,0,1.9c.023,1.057.064,2.112.091,3.168,0,.212-.029.424-.038.636a7.192,7.192,0,0,0-.046,1.751,9.588,9.588,0,0,1-.215,3.486c-.082.551-.224,1.095-.29,1.647-.146,1.19-.241,2.386-.4,3.575a9.641,9.641,0,0,1-.33,1.26l-.166-.018a1.448,1.448,0,0,1-.106-.413c.1-2.172.222-4.343.32-6.515.031-.7,0-1.392.021-2.087.025-.988.072-1.975.1-2.962.011-.4-.011-.8-.02-1.2-.017-.667-.052-1.333-.047-2,.01-1.337.055-2.674.06-4.011a1.524,1.524,0,0,0-1.318-1.434q-1.233-.12-2.47-.214a2.745,2.745,0,0,0-.517.072,3.9,3.9,0,0,1,.236,2.3c-.018.469.129.945.1,1.413-.04.737-.16,1.47-.252,2.205a1.869,1.869,0,0,0-.087.545,9.574,9.574,0,0,1-.406,3.7c-.052.295-.27.592.012.9.051.054.017.2-.006.3a9.886,9.886,0,0,0,.062,2.86,2.7,2.7,0,0,1-.316.942c-.047.618-.069,1.281-.155,1.936a2.26,2.26,0,0,0,.108,1.389,1.537,1.537,0,0,1,.1.7c-.022,1.04-.049,2.081-.106,3.12a26.7,26.7,0,0,1-.27,3.325,13.717,13.717,0,0,0-.247,2.285c-.009.716.089,1.434.069,2.149-.025.961-.122,1.92-.18,2.88-.046.745-.066,1.492-.121,2.237-.063.851-.153,1.7-.231,2.549a1.943,1.943,0,0,0-.025.389c.112,1.018-.156,1.347-1.215,1.416-.03.107-.073.227-.1.351-.069.352-.313.473-.582.293a2.159,2.159,0,0,0-1.237-.194,37.525,37.525,0,0,0-4.851.472.489.489,0,0,0-.338.334A2.7,2.7,0,0,1,14384.427,2691.347Zm-3.769-43.118.021.012c-.606-.3-1.184.057-1.816.014-.022.27-.041.477-.057.685-.067.98-.118,1.961-.2,2.939-.113,1.3-.294,2.589-.371,3.887-.092,1.519-.105,3.042-.146,4.563a1.444,1.444,0,0,0,.083.357l.155.009c.06-.294.108-.592.184-.882a2.929,2.929,0,0,1,.249-.744.507.507,0,0,1,.734-.257,3.645,3.645,0,0,0,2.247.287c.682-.11,1.358-.275,2.044-.323a3.524,3.524,0,0,1,1.6-.083,3.562,3.562,0,0,0,1.189.025c.072-.834.182-1.591.193-2.35.035-2.136.027-4.272.045-6.409a2.081,2.081,0,0,1,.095-.7.413.413,0,0,1,.746-.12c.154.18.285.382.421.568a4,4,0,0,0-.147.634c-.049.771-.1,1.544-.1,2.317,0,.549.093,1.1.1,1.648,0,.77-.054,1.54-.058,2.31a2.968,2.968,0,0,1-.608,2.194c1.447.4,2.764-.058,4.041.015.066-.139.108-.187.108-.235.025-1.387.014-2.776.082-4.161.051-1.062.2-2.12.31-3.179.032-.308.188-.485.618-.454a5.548,5.548,0,0,1,.358,2.053c-.076,1.437-.161,2.874-.264,4.309a2.215,2.215,0,0,1-.208.83.993.993,0,0,0-.062,1l1.659.214v-10.578a12.842,12.842,0,0,0-4.131-.066c0,1.1.009,2.134,0,3.168-.011,1.068-.024,2.137-.064,3.2-.038,1.021-.11,2.041-.17,3.111-.591-.118-.518-.563-.541-.84a35.88,35.88,0,0,1,.031-5.911,6.06,6.06,0,0,0-.163-2.744c-.605.031-1.187.073-1.768.088-.6.015-1.2,0-1.885,0a1.413,1.413,0,0,1,.213,1.471.809.809,0,0,0,0,.317c.039.9.066,1.805.12,2.706.05.848.2,1.7.168,2.542a5.992,5.992,0,0,1-.466,1.649c-.042.121-.239.187-.375.285a1.231,1.231,0,0,1-.489-.991c.018-1.092.076-2.185.037-3.274a23.35,23.35,0,0,1,.008-4.823A17.832,17.832,0,0,0,14380.658,2648.229Zm-28.854,21.789a1.018,1.018,0,0,0-.266.906c.007,1.175.029,2.349.024,3.524-.007,1.622,0,3.246-.062,4.866a20.51,20.51,0,0,1,.027,3.109,15.244,15.244,0,0,0-.1,2.31c0,.141-.025.281-.043.448-.145-.043-.238-.043-.289-.09a.622.622,0,0,0-.918.015.728.728,0,0,0-.193.874,2.2,2.2,0,0,1,.142.608c.053.85.084,1.7.127,2.551.01.18-.021.405.073.529a1.679,1.679,0,0,1,.255,1.511,3.269,3.269,0,0,0-.007.692l.694-.441c.439.232.823.706,1.365.245-.054-.911-.136-1.789-.147-2.667-.01-.822.075-1.644.082-2.466a34.53,34.53,0,0,1,.07-4.561,11.26,11.26,0,0,0,.026-3.427,1.183,1.183,0,0,1,.261-1.191.562.562,0,0,1,.506.552,5.375,5.375,0,0,0,.154,1.256,8.581,8.581,0,0,1,.36,2.519c.033.981.155,1.959.192,2.941a13.241,13.241,0,0,1-.026,2.626,8.582,8.582,0,0,0-.008,2.93c.074.425.137.851.2,1.233a14.221,14.221,0,0,1,2.679-.1,24.69,24.69,0,0,0,2.869.152c.692.018,1.386.03,2.077.051.273.009.546.035.763.049-.064-1.43-.133-2.754-.183-4.08-.08-2.078-.207-4.157-.208-6.236,0-2.8.114-5.6.156-8.4.039-2.621.049-5.243.068-7.865.009-1.256,0-2.513.019-3.77,0-.278-.072-.483-.36-.533-.271-.046-.538.239-.556.551-.062,1.143-.117,2.287-.2,3.43a1.621,1.621,0,0,1-.213.909.982.982,0,0,0-.225.8c.031.638.061,1.277.122,1.912a29.568,29.568,0,0,1-.4,5.374c-.028.318-.019.642-.078.954-.023.126-.187.317-.284.316a.8.8,0,0,1-.443-.233c-.064-.056-.058-.2-.07-.3a29.439,29.439,0,0,1-.094-5.68c.17-2.481.364-4.96.537-7.441a1.267,1.267,0,0,0-.139-.412c-.731.7-.661,1.822-1.6,2.363a5.628,5.628,0,0,1,.456,2.722c-.067,2.588-.176,5.175-.271,7.763-.046,1.224-.145,2.449-.132,3.672.013,1.065.176,2.126.22,3.191a6.908,6.908,0,0,0,.222,2.108.689.689,0,0,1-.01.239c-.04,1.169-.088,2.339-.116,3.509-.029,1.2-.022,2.405-.063,3.607-.018.514-.141,1.01-.763,1.13a.967.967,0,0,1-.467-.9c0-.641-.03-1.282-.025-1.923.008-.936.033-1.872.057-2.808.025-1.091.131-2.186.072-3.273-.1-1.92-.346-3.833-.447-5.753-.08-1.49-.069-2.988-.037-4.481.042-1.949.137-3.9.222-5.845a11.305,11.305,0,0,1,.569-3.529,3.206,3.206,0,0,0,.168-1.81c-.42-.066-.548.134-.556.491-.009.4-.026.8-.059,1.2-.063.8-.295.891-.958.489a1.019,1.019,0,0,0-.737-.049c-.1.03-.147.349-.164.542-.024.315.012.635-.007.951-.042.744-.129,1.487-.145,2.232-.015.661.04,1.324.067,1.986.025.611.042,1.223.087,1.832.037.5.119,1,.162,1.5.049.556.087,1.114.109,1.672q.073,1.875.124,3.75c.024.98,0,1.962.046,2.94.074,1.542.237,3.08.277,4.621.029,1.119-.079,2.241-.128,3.362,0,.08.011.187-.033.233a.937.937,0,0,1-.405.308c-.094.017-.27-.152-.331-.276a1.991,1.991,0,0,1-.114-.542c-.049-.287-.088-.576-.139-.862-.137-.759-.338-1.511-.4-2.276-.077-.929-.029-1.868-.059-2.8-.106-3.471-.231-6.942-.329-10.414-.057-2-.067-4-.117-6-.016-.654-.087-1.307-.138-2.02l-.742.2c-.054.3-.016.635-.163.812-.465.56-.306,1.218-.383,1.836a6.316,6.316,0,0,0,.01.951,17.807,17.807,0,0,1,.024,3.267,13.971,13.971,0,0,0-.084,1.671c-.008.261,0,.523.015.784.033.663.1,1.325.1,1.988,0,.429-.2.518-.642.377Zm12.938-14.309c.514-.3.982-.6,1.476-.859.8-.414,1.841-.417,2.288-1.4.009-.019.047-.023.069-.038.439-.3.891-.578,1.315-.893.751-.557,1.528-1.088,2.219-1.714,1.023-.928,1.978-1.936,2.971-2.9,1.646-1.6,3.3-3.183,4.949-4.782a8.763,8.763,0,0,0,.681-.786c.522-.641,1-1.326,1.564-1.924,1.025-1.083,2.107-2.112,3.159-3.171.62-.623,1.238-1.249,1.834-1.9.523-.566,1.287-.556,1.929-.833a.688.688,0,0,1,.856.409,4.882,4.882,0,0,0,.405.683c.7.97,1.361,1.97,2.124,2.887.893,1.075,1.528,2.374,2.726,3.19.083.057.122.173.191.254.931,1.091,1.878,2.169,2.789,3.276a9.183,9.183,0,0,1,1.561,1.978,3.464,3.464,0,0,0,.382.7,38.806,38.806,0,0,0,3.6,4.446,12.279,12.279,0,0,1,.822,1.071,3.233,3.233,0,0,0,.669.665,10.108,10.108,0,0,1,2.131,2.1c.441.528.837,1.1,1.27,1.633.283.351.588.684.9,1.013.713.761,1.435,1.515,2.26,2.384-.019-.259,0-.346-.033-.4-.267-.484-.364-1.055-.844-1.43a.542.542,0,0,1-.095-.793c.2-.238.474-.183.729-.032.131.077.274.134.595.288a3.793,3.793,0,0,0-.25-.846c-.6-.939-1.229-1.863-1.856-2.787-.388-.572-.77-1.152-1.2-1.694-.558-.709-1.149-1.391-1.739-2.073-.4-.463-.827-.9-1.233-1.36-.708-.8-1.4-1.611-2.117-2.4s-1.483-1.526-2.194-2.318-1.355-1.638-2.066-2.427a43.529,43.529,0,0,1-3.5-4.142,6.836,6.836,0,0,0-.708-.863,12.053,12.053,0,0,1-1.96-2.207,4.654,4.654,0,0,0-.735-.841c-.891-.906-1.792-1.8-2.686-2.7a.877.877,0,0,0-1.386.1,4.779,4.779,0,0,1-.486.493,16.475,16.475,0,0,0-1.4,1.27c-.536.612-.911,1.376-1.746,1.677a.306.306,0,0,0-.161.172c-.157.506-.647.691-.978,1.03-.624.642-1.235,1.3-1.86,1.941a7.231,7.231,0,0,0-1.711,1.849c-.025.057-.142.068-.209.111a9.974,9.974,0,0,0-2.72,2.89,6.1,6.1,0,0,1-.881,1.012c-.487.452-1.018.856-1.527,1.283-.9.752-1.793,1.509-2.7,2.254a.912.912,0,0,1-.487.261,2.507,2.507,0,0,0-1.878.979c-.118.127-.225.265-.334.4s-.211.287-.333.414c-.162.168-.362.3-.513.481a9.053,9.053,0,0,1-2.95,2.391,6.108,6.108,0,0,0-1.781,1.19Zm1.011,35.527c0-.541,0-1.046,0-1.551.006-1.95.04-3.9.013-5.851-.022-1.735-.132-3.469-.167-5.205-.031-1.52-.008-3.041-.021-4.562,0-.534-.073-1.067-.069-1.6.016-1.815.023-3.631.081-5.445.072-2.242.194-4.482.286-6.723.02-.471,0-.943,0-1.37l-1.867-.183c0,.718.021,1.409-.006,2.1s-.094,1.377-.155,2.064a6.528,6.528,0,0,0-.113,2.095c.029.135-.069.3-.1.45a.961.961,0,0,0-.044.37,13.157,13.157,0,0,1,.263,4.055c-.05.663-.07,1.33-.078,2-.019,1.622-.012,3.245-.034,4.867-.009.639-.1,1.277-.1,1.916,0,1.384.047,2.768.072,4.152.026,1.493.047,2.986.077,4.479,0,.158.068.316.066.473a11.375,11.375,0,0,1-.08,2.14,3.039,3.039,0,0,0,0,1.249c.078.406.341.516.712.424S14365.258,2691.369,14365.753,2691.236Zm56.922-8.951c.422-.064.756-.112,1.089-.164.794-.124.971.05.846.833a11.176,11.176,0,0,0,.422,4.675l2.4-.484c-.707-1.99-.338-3.952-.48-5.886a20.155,20.155,0,0,1,.382-5.838l.758-.069c-.742-.665-1.453.214-2.095-.123-.185-.631-.194-.616-.681-.925-.651-.413-1.284-.856-1.932-1.276a.863.863,0,0,0-.311-.049A82.4,82.4,0,0,0,14422.675,2682.285Zm-42.317,3.892c-.137-1.048-.351-2.044-.381-3.046-.06-2.075-.04-4.153-.019-6.229.016-1.628.042-3.258.14-4.883.079-1.3.307-2.6.405-3.9.114-1.49.161-2.985.231-4.478.008-.153.033-.355-.049-.455a7.4,7.4,0,0,1-.895-1.841,2.682,2.682,0,0,0-.322-.446c-.3.253-.41.443-.277.8a2.4,2.4,0,0,1,.192,1.15,50.979,50.979,0,0,0-.221,5.4c-.048.906-.145,1.809-.19,2.714-.031.636,0,1.275-.025,1.911-.08,1.716.179,3.461-.436,5.135a2.641,2.641,0,0,0-.053.714c-.015.239-.025.478-.05.716-.187,1.767-.381,3.534-.559,5.3a.71.71,0,0,0,.1.524A2.511,2.511,0,0,0,14380.357,2686.177Zm12.7-26.162a11.138,11.138,0,0,1-.929.906,1.757,1.757,0,0,0-.77,2.023,10.257,10.257,0,0,1,.1,2.78c-.021,1.568.087,3.138.1,4.707.007,1.147-.035,2.3-.1,3.441a25.655,25.655,0,0,0-.229,4.3,3.261,3.261,0,0,1,.084.71,38.212,38.212,0,0,0-.141,3.884,8.252,8.252,0,0,1-.218,2.456.756.756,0,0,0,.041.6c.321.4.707.754,1.167,1.226a5.311,5.311,0,0,0,.085-.533c.036-1.357.053-2.715.1-4.072.04-1.093.2-2.186.163-3.275a52.719,52.719,0,0,1,.3-7.111,36.474,36.474,0,0,0-.038-6.324c-.014-.181,0-.363-.007-.544-.008-.528-.018-1.057-.023-1.585a1.35,1.35,0,0,1,.017-.454,2.111,2.111,0,0,0-.072-1.676C14393.2,2660.691,14393.2,2660.691,14393.061,2660.015Zm1.649-15.78c-.066.218-.1.361-.154.5a.5.5,0,0,1-.56.349c-1.334-.062-2.67-.085-4-.177-1.063-.073-2.124-.205-3.183-.346-1.318-.177-2.632-.409-3.952-.578-.628-.08-.892.166-1.085.905.753.026,1.5.019,2.234.085,1.144.1,2.279.334,3.422.368,2.392.072,4.768.469,7.167.333a.554.554,0,0,1,.315.024c.138.1.33.238.337.369a.513.513,0,0,1-.279.412,4.772,4.772,0,0,1-1.331.138c-1-.081-2-.252-3-.352-.635-.063-1.277-.038-1.913-.1-.844-.08-1.682-.242-2.526-.3-1.2-.08-2.4-.095-3.6-.141-.339-.013-.678-.036-1.085-.058l-.174,1.557c1.02.093,1.944.174,2.868.264a23.344,23.344,0,0,0,4.391.023,25.61,25.61,0,0,1,3.426-.213c1.453.063,2.9.306,4.346.484.328.04.617.039.813-.233Zm-2.591,15.53c-.491.085-.891.176-1.293.218-.45.046-.9.058-1.357.066a7.055,7.055,0,0,1-1.425-.024,14.011,14.011,0,0,0-4.618-.045,11.131,11.131,0,0,1-3.006.255c-.058-.008-.127.074-.271.165l.822,1.567a3,3,0,0,1,.84-.129,16.4,16.4,0,0,0,3.249-.019c1.747-.06,3.485-.55,5.245-.182a.94.94,0,0,0,.306-.041l-.084-.1Zm-5.66,26.059c0-1.3,0-2.5,0-3.7a38.146,38.146,0,0,1,.2-6.139,8.573,8.573,0,0,0,.153-1.824,1.98,1.98,0,0,1,.526-1.852,2.135,2.135,0,0,1-.191-.592c.023-1.308.04-2.616.115-3.921.1-1.64.247-3.276.375-4.912-.426-.117-.781-.017-.736.321a7.64,7.64,0,0,1-.123,1.643c-.043.558-.063,1.117-.111,1.673-.127,1.458-.3,2.912-.387,4.372-.126,2.157-.108,4.325-.31,6.473-.2,2.1-.3,4.206-.288,6.317,0,.707-.071,1.413-.111,2.139Zm31.279-20.285a3.351,3.351,0,0,1-1.227-1.13c-.174-.191-.317-.364-.685-.117.093.191.138.465.3.572.955.644,1.395,1.75,2.311,2.457a15.783,15.783,0,0,0,2.563,1.733,5.5,5.5,0,0,1,1.379,1.031,4.08,4.08,0,0,0,1.563,1.15l-.18-.9c1.272-.062,1.658,1.256,2.652,1.522.221-.3.529-.521.294-.981a1,1,0,0,1-1.134-.282,3.878,3.878,0,0,0-.462-.311c-.968-.634-2.221-.765-3-1.732-.359-.445-1.014-.713-1.059-1.335a1.47,1.47,0,0,0-.893-1.2c-.2-.125-.385-.282-.576-.426-.42-.316-.839-.634-1.283-.97Zm-31.915-2.621a1.085,1.085,0,0,0-.535,1.051c-.146,1.886-.264,3.774-.37,5.662-.086,1.543-.144,3.088-.211,4.631-.052,1.2-.09,2.4-.152,3.594-.073,1.464-.173,2.927-.249,4.391-.057,1.09-.081,2.182-.149,3.272-.017.254,0,.441.266.475.289.036.438-.12.444-.424.016-.691.05-1.381.074-2.071.043-1.281.058-2.564.132-3.844.1-1.678.32-3.353.341-5.031.04-3.232.158-6.458.4-9.68C14385.863,2664.324,14385.823,2663.7,14385.823,2662.918Zm-5.321,26.857a8.434,8.434,0,0,0-1.352.6c-.515.34-1.034.15-1.552.162-.487.011-.977-.039-1.563-.067l.19.536c.586.1,1.014.187,1.444.24a1.757,1.757,0,0,0,.543-.049c.544-.108,1.086-.226,1.628-.346a9.021,9.021,0,0,0,1.306-.314c.763-.293,1.5-.647,2.284-.992-.105-.715-.825-.924-1.358-1.168a8.883,8.883,0,0,0-3.191-.826c-.811-.046-1.619-.145-2.429-.216-.078-.007-.189-.015-.233.029-.391.385-.933.339-1.395.516a5.632,5.632,0,0,0-.688.374c.3.335.533.557.944.321.125-.071.336,0,.5.017a2.787,2.787,0,0,0,.683.093c.814-.121,1.618-.306,2.433-.425C14379.821,2688.1,14380.356,2688.55,14380.5,2689.775Zm50.373-14.753a1.461,1.461,0,0,0-.257-.064c-.738-.037-.956.144-1.009.864-.037.506-.015,1.018-.078,1.52a20.734,20.734,0,0,0,.042,5.107,4.988,4.988,0,0,1,0,.554c.007.772-.023,1.547.032,2.316.042.583.186.635.974.476,0-1.569,0-3.164,0-4.759a2.679,2.679,0,0,1,.021-.4,21.711,21.711,0,0,0,.273-3.741C14430.865,2676.294,14430.875,2675.688,14430.875,2675.022Zm-46.579-11.835-.156-.058c-.093.091-.257.175-.266.273-.048.553-.065,1.109-.082,1.664-.019.64.009,1.283-.047,1.919a41.848,41.848,0,0,0-.255,4.437c0,.211.078.422.065.63q-.173,3-.371,5.989c-.03.476-.132.949-.154,1.425-.078,1.651-.142,3.3-.2,4.953a8.393,8.393,0,0,0,.038,1.039c.031.338.215.467.542.328Q14383.855,2674.479,14384.3,2663.187Zm-2.362,21.384q.363-10.655.729-21.322c-.078.031-.157.041-.164.068a9.552,9.552,0,0,0-.327,1.527c-.061.945-.037,1.9-.05,2.844a4.118,4.118,0,0,1-.021.55c-.074.524-.19,1.042-.24,1.567a10.824,10.824,0,0,1-.035,1.349,15.756,15.756,0,0,0-.272,3.613q0,1.714.011,3.427c0,.982-.022,1.964.007,2.946A8.057,8.057,0,0,0,14381.934,2684.571Zm51.734-9.42h-1.331c-.59,3.048-.224,6.056-.254,9.06a4.066,4.066,0,0,0,.987-2.317,31.611,31.611,0,0,1,.591-6.026A3.237,3.237,0,0,0,14433.668,2675.151Zm-46.531,10.776c.746-.017.778-.033.8-.592.067-1.678.138-3.356.183-5.034.031-1.172.021-2.345.03-3.518,0-.445,0-.891,0-1.309-.391-.132-.619-.087-.67.277a20.2,20.2,0,0,0-.277,2.126c-.056,1.624-.052,3.251-.065,4.877C14387.131,2683.79,14387.137,2684.826,14387.137,2685.927Zm5.346-43.923c.007-.141.032-.213.009-.24-.315-.356-.639-.7-.849-.935-1.046-.041-1.965-.064-2.882-.117a14.436,14.436,0,0,0-2.722-.33l-.034.18,1.8.35c-.075.485-.092.533-.27.51a4.656,4.656,0,0,1-1.175-.209,1.447,1.447,0,0,0-1.809.471A34.929,34.929,0,0,0,14392.482,2642Zm-2.547,31.9a2.363,2.363,0,0,0-.885,1.959c.073,1.569.013,3.146,0,4.719a15.556,15.556,0,0,0-.05,2.075,11.807,11.807,0,0,1,.045,2.784c-.026.228-.054.489.308.576a1.79,1.79,0,0,0,.331-1.335c.045-2.293.029-4.587.063-6.88.013-.929.095-1.858.144-2.788C14389.9,2674.7,14389.914,2674.385,14389.936,2673.907Zm-7.311-30.989c.292.07.412.108.534.126,1.235.186,2.469.389,3.708.544,1.084.135,2.173.266,3.263.306,1.4.053,2.811.013,4.259.013a.877.877,0,0,0-.774-.646,7.3,7.3,0,0,0-1.5-.143,30.033,30.033,0,0,1-6.234-.259,22.194,22.194,0,0,0-2.712-.166C14383.038,2642.688,14382.909,2642.795,14382.625,2642.918Zm5.793,20.876a.864.864,0,0,0-.1.256c-.059.849-.107,1.7-.156,2.55a5.659,5.659,0,0,1-.049.876,23.468,23.468,0,0,0-.249,4.357c.528.079.661-.228.7-.593.142-1.454.313-2.908.381-4.367a22.434,22.434,0,0,0-.146-2.63C14388.778,2664.045,14388.784,2663.795,14388.418,2663.794Zm2.971,23.747c-.136-.536-.333-.651-.69-.527a2.288,2.288,0,0,1-.766.175c-1.407-.033-2.814-.1-4.222-.145a1.357,1.357,0,0,0-.627.076,1.673,1.673,0,0,1-1.165.053.629.629,0,0,0-.818.264,3.378,3.378,0,0,1,.5.336,1.547,1.547,0,0,0,1.5.4c1.352-.242,2.733-.305,4.1-.437C14389.905,2687.667,14390.608,2687.61,14391.389,2687.541Zm-1.456-13.892a5.388,5.388,0,0,0,.116-.728q-.018-4.162-.053-8.324a4.2,4.2,0,0,0-.122-1.108c-.076-.262-.042-.655-.514-.772a1.206,1.206,0,0,0-.031.394,13.6,13.6,0,0,1,.341,3.941,26.178,26.178,0,0,1-.255,3.177A6.3,6.3,0,0,0,14389.933,2673.649Zm-16.182,14.826c-.551-.162-.762.237-1.047.495a1.6,1.6,0,0,0-.692,1.352c.792.141,1.591.291,2.394.421a1.632,1.632,0,0,0,.472-.049.608.608,0,0,0,.562-.634C14374.878,2689.538,14373.782,2689.52,14373.751,2688.475Zm54.42-10.087-.237.04c0,.313-.006.625,0,.937.049,2,.088,4,.156,6a6.65,6.65,0,0,0,.226,1.257c.071.306.252.458.563.265.008-.08.033-.141.015-.183a5.583,5.583,0,0,1-.32-2.977,4.38,4.38,0,0,0,.014-.8q-.139-1.911-.3-3.819C14428.268,2678.865,14428.211,2678.627,14428.171,2678.388Zm-37.794-38.67.1-.223-1.8-1.866v1.232c.336.241,1.03-.124.976.765-.473-.083-.9-.152-1.331-.235-.412-.081-.823-.261-1.231.027A7.883,7.883,0,0,0,14390.377,2639.718Zm-49.77,25.922c-.588.383-1.31.355-1.636,1,.461.743.937.732,2.076-.034Zm34.171,27.262c.857-.206,1.1.423,1.416,1.023.375-.367.764-.245,1.287,0l-.351-1.085c-.463-.06-.852-.128-1.244-.156C14375.521,2692.66,14375.127,2692.538,14374.778,2692.9Zm13.249-18.666c.824-.429.9-.823.349-1.547A1.16,1.16,0,0,0,14388.027,2674.236Zm-6.329,21.287a1.628,1.628,0,0,0,.533-2.56A3.845,3.845,0,0,1,14381.7,2695.523Zm-8.8-.056c-.054-.584.97-.341.736-1.042-.328-.143-.7-.225-.937.075S14372.586,2695.141,14372.9,2695.467Zm5.673-.28-.527-.744c-.385.751-.409.841-.22.9C14378,2695.388,14378.222,2695.267,14378.574,2695.187Zm33.972-40.028-1-1.063-.127.117C14411.656,2654.658,14411.883,2655.109,14412.546,2655.159Zm19.222,30.845c.517-.325.517-.325.113-.961Zm-55.883,9.423c-.172-.133-.277-.274-.354-.26a1.188,1.188,0,0,0-.372.226c.085.083.17.231.256.232C14375.542,2695.627,14375.671,2695.524,14375.885,2695.427Zm37.748-39.3-.21.141.412.6.189-.127Zm-32.5,39.928c-.493.034-.493.034-.747.507Zm40.062-8.488-.3.706C14421.325,2688.1,14421.4,2687.946,14421.2,2687.564Zm-38.968,4.968c.215-.561.215-.561-.263-.725ZM14418,2678.5c.486-.1.486-.1.348-.589Zm-28.3-41.785-.441-.616C14389.134,2636.5,14389.395,2636.622,14389.7,2636.716Zm28.112,51.416c.146.386.344.347.571.06Zm-44.5,4.333.032.117.4-.065-.062-.189Zm-22.941-11.9-.125-.031-.1.368.13.032Zm26.959,14.783-.127-.226a4,4,0,0,0-.36.233.619.619,0,0,0,.084.176C14377.06,2695.475,14377.193,2695.409,14377.326,2695.345Zm-.531-46.671c-.146-.073-.236-.15-.271-.13a.879.879,0,0,0-.248.233c-.009.009.1.147.121.139A3.15,3.15,0,0,0,14376.795,2648.674Z" fill="#fff"/><path d="M14444.393,2675.09c-.661-.316-1.476-.052-1.837-.8.2-.443.652-.185.952-.4-.154-.4-.59-.382-.885-.559a5.332,5.332,0,0,1-.642-.307c-.116-.095-.228-.38-.171-.462a.64.64,0,0,1,.5-.264,6.751,6.751,0,0,1,1.129.388c.264.1.519.229.931.412-.062-.41-.1-.66-.136-.91-.022-.159-.043-.318-.054-.478-.042-.636.1-.9.487-.924a.986.986,0,0,1,.959.889c.036.5.078,1,.145,1.491.105.8.114.795,1.065.738,0-.38-.023-.769,0-1.155.063-.821.16-1.639.226-2.46.026-.339,0-.683,0-.945-.833-.308-1.595-.582-2.349-.871a3.354,3.354,0,0,0-2.439.021,9.759,9.759,0,0,1-2.194.511,1.093,1.093,0,0,1-.709-.289c-.405-.349-.3-.707.222-.865.354-.108.72-.182,1.071-.3a3.934,3.934,0,0,0,.595-.355c-.653-.115-1.117-.184-1.575-.28-.531-.112-.658-.275-.728-.89a5.588,5.588,0,0,1,2.26-.04c-.238-.482-.469-.891-.646-1.321s.021-.688.471-.629a1.063,1.063,0,0,1,.927.662c.153.363.358.705.588,1.146a5.731,5.731,0,0,1,.317-.48,3.47,3.47,0,0,1,.54-.574.956.956,0,0,1,1.043.084c.292.262.1.54.014.811-.125.392-.256.782-.423,1.29l2.2.665a1.357,1.357,0,0,0,0-.4,11.279,11.279,0,0,1-.8-3.168.811.811,0,0,0-.2-.5c-.538-.419-.925-1.036-1.639-1.233a3.076,3.076,0,0,1-.793-.377.373.373,0,0,1-.048-.664.839.839,0,0,1,1.3.03c.264-.441-.01-.744-.062-1.056-.043-.266-.348-.543.053-.762a.921.921,0,0,1,1.094.383,2.8,2.8,0,0,1,.15.614c.063.305.114.612.166.893.424.066.483-.2.559-.419s.1-.47.163-.7q.335-1.227,1.424-.518c.109.071.217.143.359.237a18.02,18.02,0,0,1-.744,1.85c-.143.27-.5.428-.789.661l.474.539a2.141,2.141,0,0,0,.137,1.783,1.238,1.238,0,0,1,.151.77c-.146.576.223.967.5,1.473.156-.4.3-.808.47-1.2.467-1.048.905-2.11,1.436-3.125a3.793,3.793,0,0,0,.616-1.98c-.153-.175-.338-.364-.5-.572-.185-.239-.342-.5-.125-.8.26-.366.52-.042.863.038a4.6,4.6,0,0,0,.15-.932.7.7,0,0,1,.47-.813c.385-.146.606.075.832.31a2.335,2.335,0,0,1,.163.214l-.377,1.252c.253-.1.417-.119.479-.207.185-.259.315-.557.493-.822a.709.709,0,0,1,1.158-.114c.416.365.409.617-.023,1.05-.263.263-.527.524-.778.8-.043.046-.022.151-.044.357.286-.053.528-.092.768-.143.836-.177,1.194.21.977.992-.854.161-1.678.356-2.515.456a.9.9,0,0,0-.809.5,5.931,5.931,0,0,1-.7.857,1.262,1.262,0,0,0-.227.325q-.759,1.975-1.5,3.96a1.5,1.5,0,0,0,.025.438l2.776-1.874a4.46,4.46,0,0,1-.371-.845.893.893,0,0,1,.1-.65c.147-.2.684-.073.856.165.092.126.1.318.208.425s.314.248.428.213c.13-.039.239-.244.292-.4a.691.691,0,0,0-.055-.391.906.906,0,0,1,.514-1.194c.911.22,1.045.4.871,1.283l1.378-.455c.608.646.592.886-.1,1.191a9.66,9.66,0,0,1-1.057.3,4.018,4.018,0,0,0-.463.213,4.6,4.6,0,0,1,.571.662.617.617,0,0,1,.006.509c-.043.088-.276.127-.42.116a5.706,5.706,0,0,1-1.346-.167,1.621,1.621,0,0,0-1.5.3c-.548.372-1.072.78-1.726,1.259a4.4,4.4,0,0,0,.613.148c.746.054,1.5.089,2.242.137,1.166.076,1.166.078,1.411,1.235-.494.453-.925-.347-1.461-.05.626.518,1.636.408,2.032,1.289a1.069,1.069,0,0,1-1.534.21,3.059,3.059,0,0,1,.075.336c.026.334.166.712-.307.871a1.042,1.042,0,0,1-1.036-.434c-.311-.428-.636-.846-.967-1.259-.059-.074-.177-.1-.339-.187-.1.2-.208.376-.284.558-.1.232-.251.354-.5.281a.392.392,0,0,1-.26-.574c.119-.326.279-.637.407-.959a1.936,1.936,0,0,0,.044-.4,5.229,5.229,0,0,0-.7-.093,1,1,0,0,0-.951,1.367c.109.35.211.7.346,1.149a1.441,1.441,0,0,0,.333.137c.413.09.539.316.527.745-.017.717.072,1.436.089,2.155.013.5-.022,1.01-.03,1.516,0,.331,0,.662,0,.993l.186.006c.024-.1.052-.2.069-.3a4.611,4.611,0,0,1,.164-.924c.216-.545.5-1.062.751-1.593a.863.863,0,0,1,1-.481.952.952,0,0,1,.562.475c.059.109-.1.384-.228.528a7.987,7.987,0,0,1-.756.67.991.991,0,0,0,1.066-.173,1.848,1.848,0,0,1,1.522-.26.585.585,0,0,1,.488.557c.015.324-.232.448-.523.5a1.889,1.889,0,0,0-.692.235l1.065.284v.87a1.088,1.088,0,0,1-1.134.029,2.9,2.9,0,0,0-.8-.185c-.155.4.1.451.276.544.229.117.459.266.359.542a1.13,1.13,0,0,1-.443.595c-.251.131-.482-.044-.673-.281a6.273,6.273,0,0,0-.775-.683c-.058.557.183,1.073-.393,1.312-.416.172-.638-.139-.981-.439-.165.369-.3.668-.434.969-.032.072-.031.161-.068.23a4.206,4.206,0,0,0-.4,2.947.968.968,0,0,1-.24.63,1.155,1.155,0,0,0-.119,1.151c.175-.149.353-.231.418-.366a6.289,6.289,0,0,1,1.605-1.871.852.852,0,0,1,.958-.2.672.672,0,0,1,.4,1.077,3.784,3.784,0,0,1-.254.382c.757.532.757.532.541,1.361.23.208.423.183.559-.1a3.346,3.346,0,0,0,.113-.384c.22-.683.427-1.37.665-2.046.2-.578.3-.616.871-.459.126.035.25.076.352.106.3.5-.089.832-.236,1.2.117.284.3.313.579.282.7-.079.7-.059.854.714l-.85.407.037.142c.108,0,.218.007.325,0a1.308,1.308,0,0,1,.384-.048c.291.07.6.19.611.542.011.3-.227.449-.5.545a4.435,4.435,0,0,0-1.3.663c.125.048.255.147.374.136.4-.036.789-.116,1.184-.173.874-.127.946-.05.838.922l-2.161.216c.031.565.916.556.531,1.284-.263-.026-.567-.047-.868-.092-.185-.027-.36-.112-.543-.132-.086-.008-.241.062-.258.125-.03.11-.023.3.048.356a7.036,7.036,0,0,0,.737.448c.27.777.118,1.1-1.375,1.39l-.352.8a1.175,1.175,0,0,1-1.215-.329,4.3,4.3,0,0,0-1.823-.82l.062,1.115a.794.794,0,0,1-.932-.249,4.7,4.7,0,0,0-.552-.461.746.746,0,0,0-1.021.052,1.5,1.5,0,0,1-1.276.509c-.265-.036-.557.161-.84.236-.816.217-.912.174-1.312-.557-.4.121-.8.252-1.208.358a1.069,1.069,0,0,1-.552.05,1.956,1.956,0,0,0-1.872.127.5.5,0,0,1-.737-.272c-.12-.317.13-.483.367-.626l.6-.363c-.52-.362-.91-.727-1.524-.663a1.177,1.177,0,0,1-1.2-.443c.5-.876,1.387-.4,2.114-.6-.1-.366-.459-.337-.655-.505-.165-.143-.429-.421-.386-.507a.939.939,0,0,1,.562-.468,2.712,2.712,0,0,1,.855.106.623.623,0,0,0,.485-.1c-.187-.115-.374-.234-.565-.344-.248-.142-.625-.236-.543-.586.049-.2.344-.352.532-.522a1.337,1.337,0,0,1,.178-.11.712.712,0,0,1,.417-.883.867.867,0,0,1,.9.157c.456.3.95.544,1.509.858a.854.854,0,0,0-.375-.845c-.406-.315-.378-.6-.011-.9l-.466-.6a.88.88,0,0,1,1.111-.433c.6.208,1.187.437,1.781.654a2,2,0,0,0,.277.056c.275-.416.432-.947.925-1.208a.286.286,0,0,0,.095-.211c.034-.686.061-1.372.092-2.1a1.035,1.035,0,0,0-1.272.28c-.079.1-.265.125-.4.195a2.5,2.5,0,0,0-.453.266c-.477.405-.942.824-1.514,1.328l-.387-.941c-.161.045-.356.1-.551.157-.273.085-.528.1-.709-.177a.475.475,0,0,1,.113-.7c.036-.029.043-.094.068-.157-.395-.158-.952.061-1.187-.532.174-.641.825-.379,1.405-.64a2.936,2.936,0,0,1-.7-.2.906.906,0,0,1-.37-.445c-.021-.072.2-.272.351-.338a1.736,1.736,0,0,1,1.4.07c.237.095.466.206.85.377-.095-.361-.133-.558-.2-.745s-.164-.337-.229-.511c-.094-.251-.222-.544.088-.713s.555-.022.725.28c.2.349.414.686.628,1.025.082.13.179.251.294.411.076-.1.149-.149.154-.2.016-.289-.055-.639.378-.662a.776.776,0,0,1,.833.5,4.291,4.291,0,0,1,.129.764l.663.1v-5.19a2.984,2.984,0,0,0-.493-.1c-.559-.032-.641.039-.8.554a3.484,3.484,0,0,1-.313.811.778.778,0,0,1-.487.321c-.3.043-.676.108-.852-.261-.162-.338.108-.531.312-.743A2.533,2.533,0,0,0,14444.393,2675.09Z" fill="#fff"/><path d="M14470.622,2623.3a2.853,2.853,0,0,0,.051-.354.532.532,0,0,1,.373-.554.753.753,0,0,1,.812.088,1.38,1.38,0,0,1,.516.926.454.454,0,0,0,.411.453,1.148,1.148,0,0,0,.38.039c.48-.058.719.356,1.074.541.056.029.088.131.1.206.087.387.166.776.25,1.18a.319.319,0,0,0,.056.049c.22.141.514.174.6.5a1.965,1.965,0,0,1-.008,1.268c-.063.16-.139.316-.238.542a3.169,3.169,0,0,0,.464,0c.313-.052.62-.135.934-.179a.323.323,0,0,1,.276.1.441.441,0,0,1,.019.35.569.569,0,0,1-.28.244c-.294.124-.6.228-.9.329-.681.227-1.358.465-2.049.66a4.488,4.488,0,0,1-.892.067,2.987,2.987,0,0,1-1.489,2.268h-.837a4.591,4.591,0,0,1-.191.48c-.176.329-.105.518.253.493.539-.038,1.116.145,1.612-.223a.347.347,0,0,1,.128-.031c.419.36.466.542.223.828-.139.162-.223.139-.624-.193-.332.282.044.666-.144.946a6.049,6.049,0,0,1-.647.321.631.631,0,0,1-.445.019.472.472,0,0,1-.246-.526c.024-.149.049-.3.073-.442-.346-.12-.442.16-.6.28a.623.623,0,0,1-.749.087c-.25-.139-.308-.284-.188-.54.092-.2.19-.393.3-.608-.852-.032-1.369.248-1.6.853a1.46,1.46,0,0,0,.731.268.986.986,0,0,1,1,.994.791.791,0,0,1-.21.457.441.441,0,0,1-.531.017c-.132-.146-.066-.3.01-.444.045-.083.137-.149.159-.235s-.024-.171-.062-.361c-.352.5-.572.978-1.2.964l-.175-.274.435-.588c-.313-.3-.493-.265-.655.067s-.354.671-.544,1a.268.268,0,0,1-.4.106c0-.553.572-.82.69-1.341-.166-.213-.456-.423-.2-.826-.289.05-.577.105-.866.147a7.663,7.663,0,0,1-1,.12,1.085,1.085,0,0,1-1.184-.88,1.179,1.179,0,0,0-.095-.165,3.2,3.2,0,0,0-.37.172c-.39.244-.777.492-1.158.75-.6.409-1.187.852-1.808,1.233a2.035,2.035,0,0,1-1.655.44,1.772,1.772,0,0,1-.321-.089c-.354-.174-.405-.306-.284-.692.023-.074.053-.146.092-.249a1.094,1.094,0,0,0-.706.035,1.257,1.257,0,0,1-1.1-.158.585.585,0,0,1-.1-1,3.2,3.2,0,0,1,.762-.48c.383-.181.787-.319,1.27-.51-.179-.095-.271-.139-.357-.191a4.049,4.049,0,0,1-.521-.334c-.241-.2-.269-.41-.056-.616a1.148,1.148,0,0,1,1.1-.452,1.772,1.772,0,0,0,.478.011c.75-.03,1.5-.088,2.247-.089a5.87,5.87,0,0,1,1.034.169c.328.061.66.108.98.2.427.118.655-.113.85-.427.057-.09.093-.191.163-.337-.166-.013-.286-.029-.405-.03-.894-.01-1.789.007-2.68-.037a3.561,3.561,0,0,1-1.062-.27c-.4-.153-.437-.546-.1-.827a3.976,3.976,0,0,1,1.241-.6c.085-.031.171-.058.308-.1-.223-.278-.523-.287-.771-.4a.364.364,0,0,1-.13-.643,1.32,1.32,0,0,1,.435-.287,2.98,2.98,0,0,1,1.262-.244,3.651,3.651,0,0,0,.455-.029l.021-.1c-.188-.09-.38-.173-.563-.272a3.8,3.8,0,0,1-.53-.324.851.851,0,0,1-.3-.952c.042-.148.06-.3.095-.492a2.47,2.47,0,0,1,1.174-.046,3.952,3.952,0,0,0,1.135.129,4.767,4.767,0,0,1,1.819.494c.408.175.815.348,1.225.522a5.461,5.461,0,0,1,1.933,1.11,1.091,1.091,0,0,0,.234.12,4.271,4.271,0,0,0,.066-.48,1.875,1.875,0,0,1,.948-1.655c.022-.014.031-.053.047-.078a8.934,8.934,0,0,1-.515-.786c-.212-.407-.184-.63.044-.821a.91.91,0,0,1,.99-.07C14470.333,2623.075,14470.442,2623.166,14470.622,2623.3Zm-9.271,4.22a1.785,1.785,0,0,0,1.057.293c.895-.014,1.79-.049,2.685-.069a1.378,1.378,0,0,1,.3.047v.621a10.323,10.323,0,0,1-1.61.166,6.905,6.905,0,0,0-3.07.6,1.612,1.612,0,0,0-.287.231,1.874,1.874,0,0,0,.364.126,13.165,13.165,0,0,0,3.859-.034,3.583,3.583,0,0,0,2.146-1.065c.237-.277.521-.33.661-.177s.071.407-.183.673a3.3,3.3,0,0,1-1.286.8c-.624.232-1.422.2-1.709,1.012-.283.1-.309.339-.319.583s-.154.337-.381.315a4.172,4.172,0,0,1-.8-.1.647.647,0,0,0-.684.2c-.528.46-1.079.893-1.622,1.336a.472.472,0,0,1-.124.072,4.864,4.864,0,0,0-1.29.9c-.221.188-.488.369-.507.729a.67.67,0,0,0,.626-.172c.5-.334,1-.689,1.5-1.026.7-.471,1.409-.938,2.122-1.4a1.659,1.659,0,0,1,1.073-.347c.1.01.251.069.271.137.064.22.29.417.08.7-.08.107-.013.323-.013.492a1.167,1.167,0,0,0,.828-.089,1.258,1.258,0,0,1,.414-.091c.358-.063.725-.1,1.078-.188a17.483,17.483,0,0,0,1.7-.493c.424-.153.929-.156,1.234-.573a.1.1,0,0,1,.084-.038c.233.085.378-.022.526-.193.058-.066.209-.047.315-.072a4.173,4.173,0,0,0,.5-.13,1.78,1.78,0,0,0,.959-1.244c.131-.363.182-.741.562-.95.046-.026.052-.124.082-.2l.1.164a8.794,8.794,0,0,0,.978-.063,1.228,1.228,0,0,0,.921-.373,6.574,6.574,0,0,0-.89-.01c-.351.046-.487-.25-.733-.415-.366.436-.878.335-1.342.365a.665.665,0,0,1-.489-.253,1.353,1.353,0,0,1-.311-1.161,3.835,3.835,0,0,1,.4-1.016,1.136,1.136,0,0,1,.963-.539,1.08,1.08,0,0,1,1.125.735c.181-.216.38-.36.446-.55a.826.826,0,0,0-.779-1.185.991.991,0,0,1-1.1-.918.662.662,0,0,0-.344-.563c-.146.29.065.471.156.669.127.275.135.478-.031.6-.189.142-.364.048-.528-.062-.316-.214-.625-.438-.947-.643-.051-.033-.15.007-.271.017a2.239,2.239,0,0,0,1.1.889.727.727,0,0,1-.59.614,1.022,1.022,0,0,0-.846.756c-.095.419-.15.848-.207,1.275a.7.7,0,0,0,.037.415,1.4,1.4,0,0,1-.073,1.49,7.5,7.5,0,0,1-1.9,1.864.2.2,0,0,1-.133.049c-.12-.014-.285-.005-.344-.077s-.021-.237.02-.344a1.848,1.848,0,0,1,.815-.786,3.32,3.32,0,0,0,.964-1.053.714.714,0,0,0-.125-1.068,6.146,6.146,0,0,0-2.059-1.351c-.53-.216-1.064-.426-1.592-.653a6.306,6.306,0,0,0-2.8-.507c-.142.006-.249.057-.245.257a4.415,4.415,0,0,0,1.688.675,17.4,17.4,0,0,1,1.859.432c0,.007.034.079.058.154.1.327.078.375-.275.431a3.607,3.607,0,0,1-.57.017,3.81,3.81,0,0,0-.906,0,10.5,10.5,0,0,1-1.947.239A2.6,2.6,0,0,0,14461.351,2627.516Zm-.791,4.619a2.669,2.669,0,0,0-.369.05c-.411.129-.825.252-1.229.4-.714.269-1.421.557-2.131.836a.542.542,0,0,0-.4.466A6.919,6.919,0,0,0,14460.56,2632.135Zm1.33-.832a3.022,3.022,0,0,0-.646-.146c-1.068.018-2.136.056-3.2.09a.42.42,0,0,0-.429.36,2.33,2.33,0,0,0,1.54.174c.526-.123,1.057-.239,1.587-.354a.688.688,0,0,1,.551.066C14461.5,2631.621,14461.673,2631.525,14461.89,2631.3Zm10.77-3.838c-.162-.07-.265-.106-.357-.157-.171-.092-.347-.192-.326-.425s.2-.294.4-.336a2.148,2.148,0,0,0,.359-.147l-.013-.107c-.1-.03-.2-.1-.287-.082a1.468,1.468,0,0,0-.67.177,1,1,0,0,0-.346.906.641.641,0,0,0,.32.558c.237.117.432-.006.615-.146C14472.446,2627.639,14472.531,2627.568,14472.659,2627.465Zm2,.095c-.667-.055-.759-.174-.614-.771.083-.027.175-.052.263-.087s.152-.072.258-.124c-.6-.238-.981-.136-1.161.279a.76.76,0,0,0,.284,1.076A.712.712,0,0,0,14474.662,2627.56Z" fill="#fff"/><path d="M14410.553,2684.074l-.9-.256a8.1,8.1,0,0,1,.963,4.553,2.732,2.732,0,0,1-.731.086.521.521,0,0,1-.355-.337c-.132-1.371-.231-2.745-.342-4.155h-.586c.027,1.112.058,2.173.079,3.234.011.507.009,1.015.008,1.523,0,.134-.014.267-.023.4-.022.308-.188.534-.5.5a.482.482,0,0,1-.423-.58c.057-.718.13-1.436.151-2.156.025-.926.006-1.853.006-2.891a7.291,7.291,0,0,0-1.044.268.842.842,0,0,1-.815-.114c-.358-.192-.157-.476-.223-.709a9.864,9.864,0,0,1,.011-2.364c-.06-1.276.04-2.562.1-3.842.083-1.733.167-3.466.3-5.2.08-1.034.251-2.061.395-3.09a.992.992,0,0,1,.92-.73c.663,0,1.327,0,1.99.009,1.014.009,1.579.6,1.4,1.587a45.407,45.407,0,0,0-.311,7.266c-.019,1.01-.138,2.017-.167,3.028-.02.716.033,1.434.063,2.151a.436.436,0,0,0,.1.3c.424.337.306.672.052,1.042A1.679,1.679,0,0,0,14410.553,2684.074Zm-2.755-14.6c-.258,4.221-.476,8.448-.312,12.691a3.183,3.183,0,0,0,.235-1.068c.049-.824.078-1.65.111-2.476.069-1.68.134-3.36.2-5.04q.078-1.878.16-3.755C14408.2,2669.583,14408.168,2669.387,14407.8,2669.47Z" fill="#fff"/><path d="M14420.266,2651.882a1.818,1.818,0,0,0-.3.444c-.245.82-.966,1.06-1.642,1.237a2.922,2.922,0,0,1-2.019-.078,2.164,2.164,0,0,1-1.258-1.475,5.32,5.32,0,0,1,1.806-5.943,2.171,2.171,0,0,1,3.358.916c.287.7.462,1.437.716,2.25a3.559,3.559,0,0,0,.29-.452,3.3,3.3,0,0,1,1.528-1.676,2.864,2.864,0,0,1,3.807,1.71,5.613,5.613,0,0,1-.319,3.811.763.763,0,0,1-.147.28,5.507,5.507,0,0,1-3.2,1.812c-1.6.136-2.1-.581-2.368-1.871a9.441,9.441,0,0,1-.105-.942Zm1.455.582c.081.257.119.406.174.548.247.637.457.715,1.094.418.242-.113.487-.217.728-.336a2.368,2.368,0,0,0,1.51-1.689,4.125,4.125,0,0,0-.132-2.574,1.12,1.12,0,0,0-1.543-.713,2.909,2.909,0,0,0-1.667,2.814c.208-.212.361-.382.528-.536a.974.974,0,0,1,1.236.021,2.262,2.262,0,0,1-.075,1.67c-.249.276-.5.553-.787.876Zm-5.513-1.87a1.854,1.854,0,0,0,1.387,1.89,1.19,1.19,0,0,0,.981-.425,3.526,3.526,0,0,0,.771-3.284,6.174,6.174,0,0,0-.6-1.714c-.273-.522-.627-.535-1.025-.132a4.656,4.656,0,0,0-.889,1.019c-.317.616-.917,1.189-.5,2.054.029-.125.048-.213.07-.3a1.185,1.185,0,0,1,.876-.931c.535-.126.579.448.817.732a1.525,1.525,0,0,1,.182.439,1.551,1.551,0,0,1-.288,1.5.609.609,0,0,1-1.018.124A8.156,8.156,0,0,1,14416.208,2650.594Z" fill="#fff"/><path d="M14404.018,2643.931a.842.842,0,0,1-.979-.567,7.453,7.453,0,0,0-.9-1.217c-.877-1.17-1.787-2.318-2.618-3.52-.788-1.137-1.475-2.343-2.24-3.495-.708-1.065-1.461-2.1-2.2-3.146-.934-1.331-1.874-2.658-2.8-4-.682-.983-1.356-1.971-2.015-2.969-.309-.466-.589-.951-.849-1.444-.151-.291-.241-.606.155-.826a.635.635,0,0,1,.96.194c.5.75.946,1.535,1.452,2.28.464.682.994,1.319,1.466,2,.685.983,1.335,1.989,2.017,2.974.418.6.873,1.184,1.3,1.781.2.281.38.578.563.87.058.09.076.22.152.279,1,.772,1.129,2.177,2.126,2.953a9.575,9.575,0,0,0,1.527,2.414c.731.911,1.42,1.855,2.13,2.782.274.359.574.7.835,1.068C14404.658,2643.122,14404.649,2643.145,14404.018,2643.931Z" fill="#fff"/><path d="M14373.395,2685.422c.052-1.332.092-2.683.158-4.033.056-1.119.183-2.235.206-3.354.047-2.27.018-4.541.074-6.81.048-1.891.173-3.78.266-5.67.055-1.091.118-2.181.166-3.272.024-.556.013-.557.6-.969a.893.893,0,0,1,.278.84,1.61,1.61,0,0,0,.034.7,8.743,8.743,0,0,1,.4,3.348c-.047,1.114-.055,2.231-.081,3.346a6.206,6.206,0,0,1-.038.865,9.571,9.571,0,0,0-.088,1.56c-.009,1.517-.066,3.035-.135,4.552-.077,1.7-.188,3.4-.286,5.1-.043.745-.039,1.5-.154,2.232a4.713,4.713,0,0,1-.511,1.4C14374.128,2685.566,14373.808,2685.664,14373.395,2685.422Z" fill="#fff"/><path d="M14392.551,2620.539a1.4,1.4,0,0,1,1.652.523c.594.914,1.173,1.839,1.729,2.776.5.847.972,1.714,1.445,2.577.762,1.385,1.624,2.71,2.412,4.079.544.944,1.048,1.911,1.582,2.861.378.673.8,1.321,1.16,2.005.86,1.645,2.037,3.09,2.964,4.693.159.274.393.5.577.763.207.291.272.56-.087.821a2.752,2.752,0,0,0-.446.551,1.708,1.708,0,0,1-1.181-1.066c-.39-.784-.868-1.523-1.313-2.279-.4-.681-.8-1.363-1.215-2.037-.223-.362-.5-.692-.706-1.064-1.047-1.916-2.066-3.847-3.12-5.759-.641-1.162-1.347-2.288-1.988-3.451q-1.468-2.664-3.163-5.19A3.947,3.947,0,0,1,14392.551,2620.539Z" fill="#fff"/><path d="M14401.151,2616.812a2.235,2.235,0,0,1,.267-.293c.2-.148.534-.445.609-.393.286.2.7.528.689.793a9.4,9.4,0,0,0,.734,2.679,25.405,25.405,0,0,0,.776,2.425c.349.974.748,1.93,1.094,2.906.5,1.406.965,2.822,1.446,4.234a2.09,2.09,0,0,0,.113.3,20.264,20.264,0,0,1,1.194,3.207c.287.889.673,1.747.928,2.644a27.08,27.08,0,0,0,1.313,3.381,2.237,2.237,0,0,1-.028,1.251.31.31,0,0,1-.55.15,2.364,2.364,0,0,1-.4-.688c-.77-2.106-1.52-4.218-2.286-6.326-.645-1.777-1.322-3.542-1.95-5.325-1.07-3.045-2.105-6.1-3.175-9.149C14401.708,2617.987,14401.406,2617.4,14401.151,2616.812Z" fill="#fff"/><path d="M14396.174,2676.158a2.8,2.8,0,0,1-.3-1.414c.044-2.426.092-4.853.13-7.28.036-2.324.059-4.649.095-6.973.024-1.575.043-3.15.1-4.724.036-1.066.174-2.129.183-3.194.008-.9-.1-1.806-.161-2.709-.011-.154-.031-.308-.046-.453.859-.322,1.21-.143,1.276.687a12.9,12.9,0,0,1-.035,1.516c-.079,2.021-.2,4.041-.231,6.063-.024,1.49.092,2.983.084,4.475-.008,1.755-.058,3.511-.132,5.265-.059,1.41-.172,2.818-.279,4.225-.033.45-.12.9-.188,1.343C14396.512,2673.983,14396.356,2674.982,14396.174,2676.158Z" fill="#fff"/><path d="M14413.587,2670.439a1.971,1.971,0,0,1,.157.428,22.478,22.478,0,0,1,.21,4.916c-.113,1.158-.006,2.336,0,3.506,0,.292-.024.585-.043.877-.081,1.191-.241,2.383-.227,3.573.016,1.3.221,2.589.289,3.886a6.855,6.855,0,0,1-.1,2.534c-.1.312-.2.7-.577.616-.185-.041-.38-.431-.414-.684-.191-1.42-.342-2.846-.492-4.271a18.739,18.739,0,0,1-.162-2.151c.011-.9.137-1.8.176-2.7.068-1.571.084-3.144.17-4.714.068-1.249.2-2.5.324-3.74.058-.567.151-1.132.258-1.693a1.457,1.457,0,0,1,.245-.425Z" fill="#fff"/><path d="M14414.27,2638.03c-.144-1.179-.324-2.336-.416-3.5-.145-1.835-.2-3.678-.35-5.513-.124-1.461-.35-2.913-.515-4.371-.057-.5-.082-1.01-.091-1.516-.023-1.336-.016-2.672-.053-4.008a12.46,12.46,0,0,0-.188-1.427c-.021-.131-.073-.258-.085-.389-.039-.442.161-.78.467-.81a.968.968,0,0,1,.846.72c.035.823.065,1.646.064,2.47,0,.606-.1,1.216-.069,1.819.057,1.005.187,2.006.285,3.008q.059.6.115,1.192c.05.529.095,1.059.147,1.588.127,1.258.1,2.524.182,3.784.056.9.183,1.8.258,2.7.051.607.036,1.222.109,1.825a9.662,9.662,0,0,0,.328,1.47C14415.555,2637.935,14415.35,2638.177,14414.27,2638.03Z" fill="#fff"/><path d="M14436.553,2648.315a4.757,4.757,0,0,1-.73-.361c-.381-.28-.306-.607.1-.857a14.606,14.606,0,0,0,2.752-1.739,7.24,7.24,0,0,1,1.135-.728c.957-.619,1.924-1.225,2.864-1.869,1.34-.917,2.665-1.855,3.985-2.8.388-.278.726-.626,1.1-.919a1.031,1.031,0,0,1,1.726.32.437.437,0,0,1-.134.631c-.681.471-1.36.942-2.053,1.4-.951.623-1.924,1.215-2.868,1.848-.571.384-1.106.822-1.659,1.234a1.3,1.3,0,0,1-.271.173,26.587,26.587,0,0,0-3.236,2.02c-.661.384-1.265.87-1.909,1.287A5.908,5.908,0,0,1,14436.553,2648.315Z" fill="#fff"/><path d="M14452.179,2644.179a.681.681,0,0,1-.5.686,9.222,9.222,0,0,0-2.171,1.166,6.557,6.557,0,0,1-2.141.828,13.072,13.072,0,0,0-3.069,1.07c-1.372.64-2.74,1.29-4.114,1.927-.624.29-1.252.575-1.89.835-.766.312-1.21.036-1.412-.884,1.112-.481,2.243-.943,3.35-1.456,1.3-.6,2.57-1.285,3.881-1.872.723-.323,1.5-.516,2.257-.779.652-.228,1.318-.433,1.945-.721.726-.332,1.412-.743,2.117-1.118C14451.284,2643.405,14451.452,2643.434,14452.179,2644.179Z" fill="#fff"/><path d="M14398.895,2623.8c.663-.641,1.007-.591,1.332.164.453,1.049.859,2.118,1.341,3.153.312.672.743,1.288,1.083,1.949q1.061,2.061,2.075,4.145c.355.73.66,1.485.988,2.228a24.682,24.682,0,0,0,2.442,4.205c.164.232.331.49.091.8a.637.637,0,0,1-.691.29.8.8,0,0,1-.472-.341q-2.773-5.5-5.512-11.019c-.853-1.716-1.669-3.449-2.5-5.175C14399.014,2624.083,14398.965,2623.96,14398.895,2623.8Z" fill="#fff"/><path d="M14417.247,2618.669c0,1.571.007,3.142,0,4.713-.012,2.16-.041,4.321-.053,6.482a7.38,7.38,0,0,0,.083.876q.193,1.662.393,3.323c.105.868.22,1.735.321,2.6a1.546,1.546,0,0,1,0,.549.694.694,0,0,1-.7.56c-.378-.011-.41-.342-.437-.65-.2-2.445-.424-4.888-.6-7.334-.071-.985-.045-1.977-.062-2.966-.027-1.522-.069-3.043-.076-4.564,0-.8.064-1.6.08-2.4.011-.609-.021-1.219-.014-1.829a1.128,1.128,0,0,1,.115-.526.457.457,0,0,1,.793-.05C14417.429,2617.825,14417.293,2618.252,14417.247,2618.669Z" fill="#fff"/><path d="M14425.359,2619.553l1.047.555c-.108.351-.251.77-.365,1.2-.122.457-.22.921-.325,1.383a2.6,2.6,0,0,1-.091.46,14.216,14.216,0,0,0-.865,3.475,9.039,9.039,0,0,1-.368,1.791,8.836,8.836,0,0,0-.418,2.585c-.044.607-.152,1.209-.183,1.816-.064,1.3-.079,2.61-.146,3.914a1.766,1.766,0,0,1-.551,1.44c-.171.131-.478.281-.611.21a.769.769,0,0,1-.241-.61c.018-.531.1-1.059.168-1.588.248-2.008.537-4.012.739-6.025a59.388,59.388,0,0,1,1.22-7.234c.176-.776.271-1.571.4-2.358A1.179,1.179,0,0,1,14425.359,2619.553Z" fill="#fff"/><path d="M14438.025,2629.031a2.52,2.52,0,0,1,.832-.247,2.914,2.914,0,0,1,.98.353.98.98,0,0,1-.132.549c-.432.7-.939,1.36-1.336,2.08-.834,1.517-1.6,3.07-2.424,4.594-.5.936-1.082,1.833-1.59,2.767-.456.84-.863,1.706-1.291,2.562a.968.968,0,0,1-.937.63.826.826,0,0,1-.545-.21c-.074-.087.006-.351.08-.507.123-.263.311-.494.445-.752.712-1.371,1.4-2.754,2.124-4.117,1.015-1.9,2.057-3.793,3.09-5.686.089-.163.215-.306.3-.469C14437.895,2630.085,14438.46,2629.683,14438.025,2629.031Z" fill="#fff"/><path d="M14435.611,2626.618c.678.492.167,1.112,0,1.617-.418,1.259-.947,2.482-1.461,3.707-.563,1.344-1.208,2.655-1.729,4.015-.385,1.009-.625,2.074-.937,3.111-.114.38-.241.757-.377,1.129a1.107,1.107,0,0,1-.206.34c-.192.217-.743.337-.87.151a.939.939,0,0,1-.11-.654,35.036,35.036,0,0,1,1.827-5.694q1.112-2.822,2.179-5.659c.168-.446.277-.914.408-1.373A.875.875,0,0,1,14435.611,2626.618Z" fill="#fff"/><path d="M14411.847,2638.692c-.483-1.885-.978-3.71-1.418-5.548-.342-1.425-.622-2.866-.921-4.3-.19-.912-.379-1.825-.545-2.741a9.7,9.7,0,0,1-.134-1.269c-.014-.308.071-.647.444-.636a.674.674,0,0,1,.67.567c.124.65.281,1.3.367,1.951a25.271,25.271,0,0,0,.719,3.835c.191.656.182,1.368.337,2.038.178.767.444,1.512.66,2.271.266.941.533,1.882.771,2.831C14413.023,2638.586,14412.856,2638.755,14411.847,2638.692Z" fill="#fff"/><path d="M14431.888,2625.68a3.48,3.48,0,0,1-.056,1.667c-.082.493-.22.977-.332,1.465a.956.956,0,0,1-.047.235,31.7,31.7,0,0,0-.955,3.268,8.969,8.969,0,0,0-.319,1.309,21.578,21.578,0,0,0-.973,5.167.613.613,0,0,1-.6.63c-.4.061-.641-.131-.586-.535.137-1,.271-2.011.479-3,.278-1.324.639-2.631.94-3.951.326-1.427.629-2.86.936-4.292.072-.338.133-.679.18-1.021C14430.648,2625.934,14431.059,2625.627,14431.888,2625.68Z" fill="#fff"/><path d="M14420.851,2622.252a4.893,4.893,0,0,1,.3,2.528c-.016.843-.208,1.681-.242,2.524-.041,1.038,0,2.078.007,3.118a2.567,2.567,0,0,1-.047.717,5.4,5.4,0,0,0-.075,2.575,13.115,13.115,0,0,1-.04,2.84c-.018.383-.371.6-.806.553-.389-.045-.342-.335-.336-.606.063-2.67.112-5.341.2-8.011.028-.906.172-1.809.205-2.716a10.941,10.941,0,0,0-.092-1.909A1.328,1.328,0,0,1,14420.851,2622.252Z" fill="#fff"/><path d="M14448.383,2653.8a11.87,11.87,0,0,0-3.985.707c-.706.228-1.444.361-2.172.52-.676.149-1.357.267-2.034.414a1.33,1.33,0,0,1-1.344-.279.691.691,0,0,1-.18-.482c.01-.1.215-.227.351-.258,1.664-.368,3.333-.72,5-1.08a4.44,4.44,0,0,0,.614-.173,7.072,7.072,0,0,1,2.108-.414,8.541,8.541,0,0,0,2.9-.49c.523-.218,1.136-.419,1.626.124.127.14.27.384.228.53a.593.593,0,0,1-.462.339,4.846,4.846,0,0,0-1.7.392A7.746,7.746,0,0,1,14448.383,2653.8Z" fill="#fff"/><path d="M14435.533,2645.949c-.241-.12-.521-.17-.629-.334-.171-.261.042-.459.254-.663,1.4-1.348,2.769-2.722,4.159-4.078a7.673,7.673,0,0,1,1.148-.992,12.557,12.557,0,0,0,2.817-2.686,2.576,2.576,0,0,1,.6-.518c.412-.26.728-.225.911.053a.694.694,0,0,1-.14,1c-.455.41-.933.794-1.386,1.2-.525.477-1.024.982-1.555,1.453-.3.264-.662.455-.949.73-.726.7-1.418,1.427-2.136,2.132-.812.8-1.629,1.591-2.462,2.367A2.874,2.874,0,0,1,14435.533,2645.949Z" fill="#fff"/><path d="M14448.611,2649.9a4.737,4.737,0,0,0-1.093.419,7.385,7.385,0,0,1-2.812,1.026c-.921.237-1.826.548-2.723.868a14.927,14.927,0,0,1-1.437.641,10.317,10.317,0,0,1-1.977.2.624.624,0,0,1-.483-.3c-.117-.259.068-.443.331-.533.7-.241,1.405-.483,2.105-.733.2-.071.384-.182.583-.255a23.649,23.649,0,0,1,2.544-.9,7.934,7.934,0,0,0,2.872-1.089c.021-.015.038-.036.061-.051a1.57,1.57,0,0,1,1.3-.2C14448.372,2649.1,14448.177,2649.626,14448.611,2649.9Z" fill="#fff"/><path d="M14439.508,2636.773a1.192,1.192,0,0,1-.279,1.3c-.7.8-1.358,1.64-1.991,2.5-.555.748-1.046,1.543-1.571,2.314-.209.309-.434.606-.649.911a.975.975,0,0,1-1.164.436c-.316-.08-.386-.28-.228-.538.222-.365.468-.716.715-1.065q1.295-1.827,2.6-3.647.674-.94,1.376-1.865A.879.879,0,0,1,14439.508,2636.773Z" fill="#fff"/><path d="M14423.308,2644.612a9.3,9.3,0,0,1,.863-.932,1.776,1.776,0,0,1,1.389-.192,3.432,3.432,0,0,1,2.935,2.912c.054.582.16,1.159.212,1.741.037.418-.139.583-.6.683-.419.091-.559-.112-.644-.491a20.453,20.453,0,0,0-.62-2.3,2.256,2.256,0,0,0-.682-.955,1.56,1.56,0,0,0-1.789-.255A.775.775,0,0,1,14423.308,2644.612Z" fill="#fff"/><path d="M14419.57,2643.465a.928.928,0,0,1-1,.019,2.07,2.07,0,0,0-2.887.939c-.187.41-.355.829-.55,1.236a1.381,1.381,0,0,1-.341.52.706.706,0,0,1-.569.141.572.572,0,0,1-.236-.505,9.7,9.7,0,0,1,.566-1.726,4.743,4.743,0,0,1,.789-1.1,2.223,2.223,0,0,1,2.184-.868,2.515,2.515,0,0,0,.711-.054A1.155,1.155,0,0,1,14419.57,2643.465Z" fill="#fff"/><path d="M14427.507,2631.664a7.117,7.117,0,0,0-.466.667,1.65,1.65,0,0,0-.2.583c-.126,1.268-.219,2.539-.354,3.806a3.931,3.931,0,0,1-.282.991.8.8,0,0,1-.885.377c-.349-.132-.354-.382-.29-.713.234-1.229.444-2.464.648-3.7.078-.47.114-.948.17-1.422a3.634,3.634,0,0,1,.09-.631c.159-.505.52-.634.992-.366C14427.108,2631.359,14427.267,2631.493,14427.507,2631.664Z" fill="#fff"/><path d="M14445.033,2657.214a.852.852,0,0,1-.856.411,10.561,10.561,0,0,0-3,.355,17.662,17.662,0,0,1-1.811.225.8.8,0,0,1-.774-.671c-.043-.308.174-.524.623-.555a20.407,20.407,0,0,0,3.51-.645,4.4,4.4,0,0,1,1.647.023C14444.782,2656.416,14444.933,2656.81,14445.033,2657.214Z" fill="#fff"/><path d="M14459.828,2621.927c-.143.09-.251.169-.368.231a6.654,6.654,0,0,0-2,1.592,3.9,3.9,0,0,0-.317.57c-.119.207-.171.482-.551.547a2.377,2.377,0,0,1,.552-1.328,5.65,5.65,0,0,1,1.727-1.407c.171-.083.331-.189.5-.28A.319.319,0,0,1,14459.828,2621.927Z" fill="#fff"/><path d="M14440.413,2660.286a4.763,4.763,0,0,1-1.03-.021c-.181-.04-.314-.293-.47-.45.164-.146.3-.369.5-.424a7.451,7.451,0,0,1,1.407-.258.919.919,0,0,1,.647.187.771.771,0,0,1,.173.618c-.027.145-.262.312-.431.353a3.536,3.536,0,0,1-.792.015Z" fill="#fff"/><path d="M14458.051,2624.746a1.037,1.037,0,0,1,.059-.334,4.174,4.174,0,0,1,1.779-1.738,1.141,1.141,0,0,1,.556-.039c.055,0,.1.13.15.2-.075.038-.167.127-.221.107a.878.878,0,0,0-.8.2,3.552,3.552,0,0,0-1.187,1.345c-.06.1-.131.2-.2.3Z" fill="#fff"/><path d="M14427.214,2652.53a1.809,1.809,0,0,1-1.1,2.5c-.232.057-.492.075-.621-.21a.434.434,0,0,1,.225-.607,1.722,1.722,0,0,0,.9-1.064C14426.685,2652.933,14426.957,2652.783,14427.214,2652.53Z" fill="#fff"/><path d="M14406.325,2687.667c.033-.419.052-.839.1-1.255.058-.482.332-.777.658-.742.308.033.491.438.387.9-.046.2-.134.4-.2.6a2.749,2.749,0,0,0-.2.67c-.02.32-.134.53-.455.523-.349-.007-.3-.3-.306-.535,0-.053,0-.106,0-.159Z" fill="#fff"/><path d="M14439.785,2661.639c.469-.078.855-.088,1.12.322.208.325.152.577-.209.68a2.364,2.364,0,0,1-1.612-.231.5.5,0,0,1-.179-.456c.033-.129.232-.257.385-.3A1.615,1.615,0,0,1,14439.785,2661.639Z" fill="#fff"/><path d="M14414.2,2648.1a2.589,2.589,0,0,1-.007.623,2.727,2.727,0,0,0-.205,2,.466.466,0,0,1-.164.362.646.646,0,0,1-.462-.187A2.309,2.309,0,0,1,14414.2,2648.1Z" fill="#fff"/><path d="M14380.658,2648.229a2,2,0,0,1,.734,1.766c-.035,1.142-.065,2.289,0,3.429a3.031,3.031,0,0,1-.088,1.71c-.069.135.1.4.161.6a.95.95,0,0,1-.69,1.232.662.662,0,0,1-.806-.572,2.029,2.029,0,0,1,.026-.794,9.325,9.325,0,0,0,.146-2.6c-.027-1.347.032-2.7.108-4.044.014-.245.284-.475.433-.713Z" fill="#fff"/><path d="M14382.608,2658.3a.615.615,0,0,1-.427-.84,29.67,29.67,0,0,0,.594-6.279,3.543,3.543,0,0,1,.118-.864c.041-.135.232-.223.453-.419a5.029,5.029,0,0,1,.081.662c-.039,1.274-.072,2.549-.14,3.822-.058,1.089-.135,2.177-.258,3.26C14383,2657.878,14382.748,2658.09,14382.608,2658.3Z" fill="#fff"/><path d="M14382.744,2646.359a1.9,1.9,0,0,1,.54-.187q1.868,0,3.737.047c.294.006.312.223.258.453A8.485,8.485,0,0,1,14382.744,2646.359Z" fill="#fff"/><path d="M14334.612,2585c-.783.295-1.6.54-2.353.9a11.918,11.918,0,0,1-1.236.45c-.317.112-.608.29-.915.424.253.6.538,1.179.8,1.774.479,1.106.956,2.214,1.416,3.33.488,1.19.938,2.4,1.443,3.581.185.428.122.581-.112.7-1.421.691-2.834,1.4-4.264,2.067-.841.393-1.705.73-2.566,1.068a3.081,3.081,0,0,1-.835.175.418.418,0,0,1-.295-.222q-.92-2.365-1.811-4.743c-.261-.7-.457-1.43-.729-2.125-.334-.848-.711-1.676-1.073-2.512-.175.065-.352.128-.529.187a.287.287,0,0,1-.174,0c-.4.137-.788.287-1.177.443-.672.27-1.363.507-2.009.839.154.365.308.73.455,1.1.185.457.3.948.485,1.4.323.773.7,1.52,1.023,2.291.374.883.711,1.785,1.08,2.671.5,1.195,1.027,2.375,1.519,3.573.692,1.685,1.338,3.392,2.047,5.068a59.254,59.254,0,0,1,3.11,8.347,1.387,1.387,0,0,0,.092.26c.748-.367,1.527-.661,2.3-.97a9.647,9.647,0,0,1,1.058-.363l.021-.015a2.976,2.976,0,0,1,.74-.334,1.143,1.143,0,0,0-.154-.253,1.691,1.691,0,0,1-.268-.4c-.319-.8-.6-1.624-.937-2.42-.643-1.537-1.312-3.06-1.965-4.592a5,5,0,0,1-.46-1.274c-.017-.155.435-.239.672-.358.047-.023.087-.061.135-.08.928-.353,1.856-.7,2.781-1.059a7.536,7.536,0,0,0,.81-.361c1.075-.573,2.147-1.156,3.22-1.737.223-.121.355-.043.462.354a8.263,8.263,0,0,0,.383,1.009c.575,1.4,1.165,2.8,1.73,4.2.52,1.293,1.024,2.592,1.536,3.889a3.045,3.045,0,0,1,.514-.2c.367-.118.724-.269,1.084-.408.75-.291,1.5-.582,2.269-.82q-1.071-2.811-2.121-5.629c-.93-2.5-1.848-5.013-2.775-7.519q-.973-2.624-1.956-5.243c-.474-1.254-.96-2.5-1.437-3.754C14335.3,2586.8,14334.961,2585.9,14334.612,2585Z" fill="#fff"/><path d="M14409.429,2578.7a1.971,1.971,0,0,0-.462-.024,14.641,14.641,0,0,1-2.265.009c-.381.015-.451-.069-.429-.463.038-.706.106-1.411.156-2.116.056-.8.1-1.593.155-2.389.045-.662.213-.822.845-.751.441.05.874.165,1.315.212,1.26.134,2.524.224,3.783.379.839.1,1.668.288,2.5.431.812.14,1.625.274,2.437.412a12.022,12.022,0,0,1,3.768,1.309,6.88,6.88,0,0,1,3.39,4.174,17.521,17.521,0,0,1,.8,6.864,13.578,13.578,0,0,1-1.223,4.857,6.57,6.57,0,0,1-3.793,3.439,13.621,13.621,0,0,1-5.346.509c-1.478-.1-2.954-.222-4.432-.334-.084-.006-.168-.02-.252-.024-.181-.011-.421.054-.527-.043a.917.917,0,0,1-.244-.582c-.032-.612-.016-1.228-.019-1.843,0-.154,0-.308-.006-.462-.062-1.169-.163-2.336-.183-3.506-.041-2.435-.049-4.87-.051-7.306,0-.73.065-1.461.1-2.192C14409.45,2579.088,14409.435,2578.915,14409.429,2578.7Zm4.529.144c-.207,4.249-.545,8.411-.357,12.61a2.725,2.725,0,0,0,.521.089c1.351-.043,2.7-.084,4.052-.159a1.977,1.977,0,0,0,.974-.254,5.157,5.157,0,0,0,2.345-3.777,25.715,25.715,0,0,0,.1-3.178,4.908,4.908,0,0,0-.944-2.9,5.287,5.287,0,0,0-3.232-2.058c-.908-.2-1.837-.288-2.758-.408A4.03,4.03,0,0,0,14413.958,2578.844Z" fill="#fff"/><path d="M14371.252,2591.056c-.557,0-1.113,0-1.67-.007.126.806.243,1.615.294,2.429a19.5,19.5,0,0,1-.089,2.6c-.051.711-.026,2.707-1.229,2.438-.217-.048-.265-.214-.346-.408-.144-.341-.284-.683-.4-1.037a17.277,17.277,0,0,1-.526-2.479,33.9,33.9,0,0,1-.514-4.974c-.015-1.41.049-2.828-.1-4.23-.14.033-.277.074-.419.1-.941.175-1.884.351-2.829.512-.33.057-.42.227-.359.494.09.4.223.783.278,1.182.189,1.33.373,2.661.516,4a19.628,19.628,0,0,1,.056,1.993c0,.585-.014,1.17-.027,1.756a6.945,6.945,0,0,1-.071,2.569,1.934,1.934,0,0,1-2.407,1.337c-1.01-.321-1.544-1.592-1.9-2.491a42.5,42.5,0,0,1-1.977-8.59c0-.035,0-.071-.006-.107-.14-.659-.142-1.337-.216-2.007q-.3.057-.6.107-1.3.208-2.6.4c-.187.028-.29.1-.278.286q.025.4.041.8c.176.8.319,1.6.467,2.41.217,1.185.47,2.366.729,3.543.316,1.449.624,2.915.994,4.361.118.31.24.62.367.926.067.162.133.325.2.487.09.138.178.279.268.419a9.539,9.539,0,0,0,.934,1.2c.224.254.443.518.676.766.379.254.776.491,1.158.742a5.353,5.353,0,0,0,3.8.648.7.7,0,0,0,.219-.081c.552-.277,1.087-.587,1.654-.83a3.646,3.646,0,0,0,1.845-2.078,2.58,2.58,0,0,0,.12-.419c.277.278.512.541.775.774a2.263,2.263,0,0,0,2.3.409,2.127,2.127,0,0,0,1.43-1.5,6.287,6.287,0,0,0,.225-1.415,23.929,23.929,0,0,0-.141-4.947c-.064-.546-.072-1.1-.137-1.645A.465.465,0,0,0,14371.252,2591.056Z" fill="#fff"/><path d="M14390.033,2590.062c.053.376.079.715.148,1.039a11.067,11.067,0,0,0,.422,1.674,2.879,2.879,0,0,0,3.1,2c.421-.022,1.432-1.116,1.52-1.629.057-.333.085-.674.111-1.013.021-.262.11-.4.332-.388.662.045,1.325.091,1.988.133a2.933,2.933,0,0,0,.385,0c.235-.018.319.145.306.4a6.2,6.2,0,0,1-.878,3.079,5.072,5.072,0,0,1-4.018,2.452,4.159,4.159,0,0,1-3.139-.824,6.4,6.4,0,0,1-2.119-2.359,11.832,11.832,0,0,1-1.018-3.625,11.5,11.5,0,0,1,0-3.24,10.031,10.031,0,0,1,2.359-5.156,6.214,6.214,0,0,1,3.05-1.984,13.185,13.185,0,0,1,1.408-.079,4.037,4.037,0,0,1,2.726,1.031,5.092,5.092,0,0,1,1.313,1.382,5.568,5.568,0,0,1,.752,2,11.937,11.937,0,0,1,.031,3.975c0,.034-.014.067-.017.1-.045.517-.3.785-.735.8-.969.038-1.936.1-2.9.121-1.272.028-2.544.02-3.816.037C14390.934,2590,14390.52,2590.035,14390.033,2590.062Zm5.314-2.575a7.04,7.04,0,0,0-.1-2.293c-.3-1.048-.774-1.743-1.739-1.912a2.383,2.383,0,0,0-2.5,1.4,6.13,6.13,0,0,0-.725,2.268c-.028.169-.043.343-.067.535Z" fill="#fff"/><path d="M14354.257,2598.006a13.791,13.791,0,0,1-.121,3.959,9.834,9.834,0,0,1-1.407,3.892,3.256,3.256,0,0,1-1.556,1.234,4.208,4.208,0,0,1-1.181.4,10,10,0,0,1-1.581.054c-1.115-.013-2.07-.972-2.959-2.06a10.888,10.888,0,0,1-1.425-2.358,19.593,19.593,0,0,1-1.555-4.464,11.752,11.752,0,0,1,.621-7.322,5.215,5.215,0,0,1,2.629-2.81,4.287,4.287,0,0,1,3.949.16,6.715,6.715,0,0,1,2.444,2.625,17.553,17.553,0,0,1,1.647,4.293C14353.965,2596.392,14354.095,2597.206,14354.257,2598.006Zm-2.982-.208a8.1,8.1,0,0,0-.8-2.777,5.463,5.463,0,0,0-1.91-2.056,1.246,1.246,0,0,0-.685-.232,2.239,2.239,0,0,0-1.6.616,3.763,3.763,0,0,0-.776.964,5.5,5.5,0,0,0-.4,2.49,8.781,8.781,0,0,0,.686,3.39,5.149,5.149,0,0,0,1.986,2.487,1.549,1.549,0,0,0,1.806.139,4.877,4.877,0,0,0,.531-.444,4.168,4.168,0,0,0,1.276-3.507C14351.372,2598.513,14351.314,2598.155,14351.274,2597.8Z" fill="#fff"/><path d="M14381.381,2584c-.152-.678-.3-1.319-.437-1.961-.047-.216-.07-.437-.107-.654-.031-.188.032-.291.261-.328.888-.145,1.772-.3,2.657-.459.086-.015.175-.025.26-.046.285-.07.4.017.441.282.123.8.244,1.612.4,2.412.194,1.018.43,2.028.626,3.045.073.378-.148.487-.562.422a12.01,12.01,0,0,0-1.973-.185,26.248,26.248,0,0,0-2.844.181,17.022,17.022,0,0,0-2.114.438,1.571,1.571,0,0,0-.969.642.8.8,0,0,0,.154,1.106,7.561,7.561,0,0,0,3.159,1.537,20.146,20.146,0,0,1,4.068,1.63,3.472,3.472,0,0,1,1.674,1.7,1.991,1.991,0,0,1-.782,2.675,6.937,6.937,0,0,1-1.889.5,17.936,17.936,0,0,1-3.364.092c-.9,0-1.8-.068-2.7-.1-.053,0-.108,0-.2.008,0,.143-.017.279-.007.413.057.747.123,1.493.179,2.24.026.342-.084.447-.468.455-.656.014-1.312.017-1.967.034-.205.006-.41.066-.613.059a.362.362,0,0,1-.267-.165,1.649,1.649,0,0,1-.148-.545c-.046-.556-.044-1.116-.105-1.669-.06-.535-.166-1.065-.27-1.593-.113-.578-.258-1.15-.364-1.728-.065-.359.2-.514.585-.43.719.155,1.441.315,2.175.4,1.342.154,2.69.273,4.041.371a4.767,4.767,0,0,0,2.007-.276c.38-.14.535-.424.363-.761a1.326,1.326,0,0,0-.473-.55,20.918,20.918,0,0,0-2.18-1.1c-.706-.292-1.467-.477-2.2-.715a7.558,7.558,0,0,1-2.133-1.168,4.209,4.209,0,0,1-1.446-1.717,2.14,2.14,0,0,1,.01-2.108,2.2,2.2,0,0,1,.4-.466,5.957,5.957,0,0,1,3.016-1.281c1.3-.219,2.6-.405,3.9-.605C14381.228,2584.016,14381.292,2584.009,14381.381,2584Z" fill="#fff"/><path d="M14466.647,2587.811c.166-.96.309-1.834.471-2.705.072-.388.2-.457.525-.38.96.225,1.921.449,2.883.664.384.086.533.339.448.965-.173,1.278-.379,2.551-.569,3.826-.083.559-.173,1.117-.242,1.679-.044.362-.2.547-.506.512-.4-.044-.807-.1-1.206-.162-.292-.048-.458.039-.494.427-.105,1.128-.224,2.255-.347,3.381-.085.78-.182,1.558-.28,2.336-.114.891-.21,1.787-.36,2.672a15.029,15.029,0,0,1-1.138,3.91,3.889,3.889,0,0,1-2.139,2.035,7.473,7.473,0,0,1-3.218.487c-1.443-.068-2.885-.173-4.326-.268a3.683,3.683,0,0,1-.553-.085.52.52,0,0,1-.445-.592c.047-1.276.1-2.551.149-3.827.014-.321.033-.643.033-.964,0-.415.188-.594.537-.463.368.138.721.324,1.09.458a11.09,11.09,0,0,0,3.537.547,17.866,17.866,0,0,0,2.332-.116c.84-.088,1.131-.41,1.3-1.359.024-.131-.085-.292-.136-.447l.247.025.7-4.81c-.375.261-.682.491-1,.693a5.026,5.026,0,0,1-2.806.775,7.663,7.663,0,0,1-1.687-.4,5.9,5.9,0,0,1-2.912-1.908,5.179,5.179,0,0,1-1.3-2.843,7.155,7.155,0,0,1-.074-2.449,10.883,10.883,0,0,1,1.149-2.97,4.53,4.53,0,0,1,1.576-1.817,4.81,4.81,0,0,1,2.508-.889,7.762,7.762,0,0,1,3.467.793,5.165,5.165,0,0,1,2.677,3.024C14466.563,2587.622,14466.59,2587.676,14466.647,2587.811Zm-5.109-.6a2.175,2.175,0,0,0-1.662.335,3.383,3.383,0,0,0-.94.9,4.622,4.622,0,0,0-.6,2.3c-.064,1.547.683,3.187,2.491,3.166a2.339,2.339,0,0,0,1.524-.669,4.67,4.67,0,0,0,1.355-2.445,3.337,3.337,0,0,0-.377-2.621A1.984,1.984,0,0,0,14461.538,2587.206Z" fill="#fff"/><path d="M14477.077,2591.285c.174-.175.341-.359.524-.524a8.766,8.766,0,0,1,4.074-2.189,3.291,3.291,0,0,1,1.933.158,6.985,6.985,0,0,1,1.894,1.022,2.991,2.991,0,0,1,1.092,1.967,7.6,7.6,0,0,1-.2,2.793c-.239,1.052-.652,2.065-.994,3.094-.2.591-.409,1.178-.606,1.769a12.843,12.843,0,0,0-.468,1.517,1.028,1.028,0,0,0,.248.639c.038.057.313.034.416-.039.384-.273.747-.576,1.108-.878.186-.153.363-.184.531,0a.34.34,0,0,1,.083.266c-.183.687-.388,1.368-.575,2.054-.112.415-.21.835-.309,1.253a.8.8,0,0,1-.68.612,4.055,4.055,0,0,1-1.761.091,8.683,8.683,0,0,1-1.731-.519c-.587-.249-.714-.853-.854-1.4a2.6,2.6,0,0,1,.217-1.56c.319-.865.655-1.723.977-2.587.508-1.362,1.036-2.717,1.5-4.094a8.5,8.5,0,0,0,.326-1.723,1.358,1.358,0,0,0-.843-1.323,3.06,3.06,0,0,0-1.953-.118,4.62,4.62,0,0,0-2.219,1.159,12.137,12.137,0,0,0-2.677,3.125,16.079,16.079,0,0,0-1.142,2.15,15.72,15.72,0,0,0-.591,2.37c-.091.421-.112.856-.171,1.285-.034.248-.265.362-.6.283-.457-.108-.907-.249-1.367-.34a8.407,8.407,0,0,0-1.166-.139c-.391-.021-.509-.149-.38-.514.208-.592.46-1.17.635-1.771.258-.885.456-1.787.692-2.678.094-.354.251-.692.326-1.049.243-1.147.45-2.3.7-3.45.133-.625.332-1.236.469-1.861.153-.691.276-1.388.4-2.086.107-.616.187-1.238.293-1.854.055-.312.183-.384.5-.3.193.051.372.158.567.2.915.189,1.834.361,2.75.552.067.014.172.136.162.19-.107.584-.226,1.166-.36,1.744-.082.356-.186.707-.295,1.055-.169.537-.35,1.071-.525,1.606Z" fill="#fff"/><path d="M14429.576,2589.073c.051.315.077.6.146.87a8.054,8.054,0,0,0,.417,1.4,2.911,2.911,0,0,0,3.067,1.677,2.709,2.709,0,0,0,1.5-1.363,8.216,8.216,0,0,0,.11-.848c.02-.219.108-.337.329-.324.654.037,1.311.076,1.967.111a3.181,3.181,0,0,0,.38,0c.234-.014.317.122.3.337a4.61,4.61,0,0,1-.869,2.576,5.217,5.217,0,0,1-3.976,2.052,4.68,4.68,0,0,1-3.105-.689,5.8,5.8,0,0,1-2.1-1.974,8.737,8.737,0,0,1-1.006-3.033,8.1,8.1,0,0,1,0-2.711,7.888,7.888,0,0,1,2.335-4.315,6.36,6.36,0,0,1,3.017-1.66c.453-.088.932-.02,1.394-.066a4.45,4.45,0,0,1,2.7.862,4.68,4.68,0,0,1,1.3,1.157,4.267,4.267,0,0,1,.744,1.674,8.473,8.473,0,0,1,.029,3.326c0,.028-.012.056-.015.084a.68.68,0,0,1-.728.671c-.958.032-1.915.084-2.873.1-1.259.023-2.518.016-3.775.031C14430.467,2589.02,14430.058,2589.051,14429.576,2589.073Zm5.259-2.154a5.006,5.006,0,0,0-.1-1.919,2.057,2.057,0,0,0-1.722-1.6,2.465,2.465,0,0,0-2.469,1.173,4.6,4.6,0,0,0-.717,1.9c-.028.143-.043.288-.066.449Z" fill="#fff"/><path d="M14453.64,2581.876a1.891,1.891,0,0,1,1.9,1.9,1.412,1.412,0,0,1-1.146,1.086,3.587,3.587,0,0,1-1.705-.158,1.232,1.232,0,0,1-.91-1.129,1.442,1.442,0,0,1,1.131-1.6A5.5,5.5,0,0,1,14453.64,2581.876Z" fill="#fff"/><path d="M14447.172,2589.014a10.539,10.539,0,0,0-1.312-.335s-3.819-.536-3.27-3.618,5.542.021,5.542.021l1.5-2.786s-4.855-2.882-8.521.872.271,6.579,3.057,7.328,1.489,2.614,1.489,2.614c-3.293,3.164-5.343-1.711-5.343-1.711l-1.218,3.691c1.213,1.586,6.634,2.381,8.835-.06a4.213,4.213,0,0,0,.411-5.157A3.518,3.518,0,0,0,14447.172,2589.014Z" fill="#fff"/><path d="M14451.816,2585.962l3,.229s-2.134,15.732.234,9.129l.8-2.508.6.154s-3.437,9.694-5,2.216A43.066,43.066,0,0,1,14451.816,2585.962Z" fill="#fff"/><path d="M14473.041,2689.549c-.123.035-.246.067-.371.095-.511.115-1,.3-1.5.455-.468.147-.929.315-1.4.469a2.191,2.191,0,0,1-.364.085c-.045.006-.129-.018-.141-.049a.5.5,0,0,1-.029-.469,2.9,2.9,0,0,1,.6-.8.575.575,0,0,0,.084-.116l-.171-.148a3.014,3.014,0,0,1-.214.237c-.379.347-.762.69-1.143,1.034-.116.1-.228.216-.349.313a.479.479,0,0,1-.164.049c-.015-.057-.051-.117-.04-.168a.736.736,0,0,1,.1-.257c.16-.24.33-.474.5-.708.1-.143.1-.142-.021-.3l-1.808,1.663a1.431,1.431,0,0,1,.017-.156,3.3,3.3,0,0,1,.568-1.2,4.708,4.708,0,0,0,.282-.436l-.133-.188c-.294.339-.58.672-.869,1a6.712,6.712,0,0,1-1.024.894,3.239,3.239,0,0,1,.395-1l-.177-.145-.313.563a4.469,4.469,0,0,1-.249.439c-.175.246-.359.486-.554.717-.129.151-.28.281-.453.451a1.015,1.015,0,0,1-.118-.861c.105-.334.248-.657.359-.99a.65.65,0,0,1,.286-.355,10.932,10.932,0,0,1,1.227-.726.6.6,0,0,0,.157-.1c.277-.261.558-.521.827-.79.209-.209.413-.425.6-.651.105-.126.085-.2-.05-.289a1.092,1.092,0,0,0-.59-.191,1.623,1.623,0,0,0-.854.282,4.635,4.635,0,0,0-1,.715c-.112.109-.245.2-.4.323.013-.123.021-.2.029-.273.014-.124.029-.248.042-.373.01-.1-.018-.171-.169-.175a3.553,3.553,0,0,0-.127.379c-.037.167-.053.34-.08.51a.984.984,0,0,1-.288.57c-.354.351-.693.72-1.02,1.1-.278.323-.538.663-.792,1.007a4.123,4.123,0,0,0-.609.991c-.046.124-.088.25-.142.371a1.561,1.561,0,0,0-.115.846c.039.294.08.346.373.409.212-.239.431-.469.632-.715a11.624,11.624,0,0,0,1.132-1.689,9.959,9.959,0,0,0,.964-2.307.978.978,0,0,1,.362-.53c.338-.266.677-.531,1.033-.769a3.754,3.754,0,0,1,.688-.342.751.751,0,0,1,.705.047.447.447,0,0,1-.055.106c-.205.213-.411.424-.618.635-.081.083-.162.168-.248.246a2.385,2.385,0,0,1-.512.435,9.566,9.566,0,0,0-1.065.625,1.265,1.265,0,0,0-.619.759,5.5,5.5,0,0,1-.275.693,1.5,1.5,0,0,0-.014,1.054.361.361,0,0,0,.561.209,3,3,0,0,0,.341-.35c.15-.174.291-.355.438-.536.182.229.236.163.391.036.253-.208.492-.432.737-.648.057-.05.114-.1.2-.171-.013.124-.015.207-.031.286-.055.259-.11.518-.176.774a.5.5,0,0,1-.1.173c-.162.2-.332.394-.492.595-.336.42-.668.843-1,1.265-.029.037-.06.072-.086.111l-.438.66a3.239,3.239,0,0,0-.5,1.022c-.045.189-.013.281.158.358a1.048,1.048,0,0,0,.823.041,1.752,1.752,0,0,0,.986-.888c.2-.413.346-.853.5-1.285a5.982,5.982,0,0,0,.428-1.935.287.287,0,0,1,.081-.162q.382-.426.775-.846c.075-.082.161-.155.259-.246-.013.116-.022.2-.03.281a.339.339,0,0,0,.183.368.308.308,0,0,0,.369-.046c.151-.124.293-.258.439-.388.1-.089.2-.18.316-.287.016.1.02.166.033.226s.043.134.063.2c.057.2.126.259.325.265a.673.673,0,0,0,.208-.027c.321-.095.645-.186.962-.3.64-.223,1.27-.477,1.915-.682q.316-.1.635-.2C14473.036,2689.671,14473.038,2689.61,14473.041,2689.549Zm-11.424,3.714c-.084-.06-.082-.15-.089-.243a2.113,2.113,0,0,1,.174-.816,3.983,3.983,0,0,1,.733-1.24c.474-.589.97-1.16,1.457-1.738a.515.515,0,0,1,.063-.058l.05.038A10.983,10.983,0,0,1,14461.617,2693.263Zm4.531-.938a3.105,3.105,0,0,0-.1.361c-.094.313-.188.626-.287.938a6.7,6.7,0,0,1-.22.661,3.125,3.125,0,0,1-.317.568,1.393,1.393,0,0,1-.886.6,1.166,1.166,0,0,1-.39-.016c-.105-.017-.128-.1-.091-.2a4.454,4.454,0,0,1,.569-1.095c.316-.435.643-.864.97-1.292.223-.292.453-.576.682-.863a1.2,1.2,0,0,1,.1-.1A.933.933,0,0,1,14466.148,2692.325Z" fill="#fff"/></g></svg>