<svg xmlns="http://www.w3.org/2000/svg" width="98.97" height="73.997" viewBox="0 0 98.97 73.997">
  <g id="グループ_436" data-name="グループ 436" transform="translate(-1776.506 -31.501)">
    <path id="パス_956" data-name="パス 956" d="M1823.244,120.608c.237-.035.4-.061.569-.084.107-.015.215-.023.322-.038a3.943,3.943,0,0,0,.68-.11c.711-.238.761-.05.94.4.03.073.065.143.1.214a.218.218,0,0,1,0,.055.438.438,0,0,1-.5.271,5.424,5.424,0,0,0-.926.114,9.148,9.148,0,0,1-.972.083,1.68,1.68,0,0,1-.47-.154,3.2,3.2,0,0,0-.03.958c0,.14.029.281.035.422.037.867-.306,1.257-1.115,1.652-.1.048-.229.052-.305.12a2.882,2.882,0,0,1-1.9.529,6.449,6.449,0,0,1-.939.027,12.884,12.884,0,0,1-1.331-.184c-.109-.02-.2-.14-.3-.222a6.129,6.129,0,0,1-.772-.688,2.37,2.37,0,0,1-.832-1.711,4.983,4.983,0,0,0-.229-1.28c-.047-.228-.119-.45-.156-.679-.053-.324,0-.6.421-.674-.315-.547,0-.9.31-1.235a2.188,2.188,0,0,1,1.006-.584c.622-.193,1.256-.344,1.935-.526.014-.361.027-.78.045-1.2.012-.3.047-.6.042-.892a16.513,16.513,0,0,1,.254-2.763,15.469,15.469,0,0,0,.071-1.733c.041-1.192.086-2.383.122-3.575.013-.437,0-.874,0-1.332-.34-.136-.438-.257-.384-.674a10.4,10.4,0,0,0-.078-2.061c-.039-.56.025-1.127.026-1.691,0-.655-.018-1.311-.017-1.966s.019-1.316.024-1.974c0-.155.111-.381-.166-.4-.262-.021-.243.214-.248.371q-.031.987-.029,1.974a2.348,2.348,0,0,1-.343,1.39c-.1.151-.122.358-.22.514-.052.083-.19.114-.289.169-.047-.106-.144-.218-.133-.318.032-.293.119-.58.161-.873a2.132,2.132,0,0,0,.032-.653,5.961,5.961,0,0,1,.006-1.642,2.282,2.282,0,0,0,0-.233l-.62.184c-.03.009-.083.012-.086.028-.076.337-.484.482-.5.839-.013.28.033.562.047.843.019.391.009.785.056,1.172a7.743,7.743,0,0,1-.1,1.526c-.076,1-.11,2.006-.165,3.009-.01.187-.04.374-.055.562a2,2,0,0,0-.014.369c.026.261.09.519.1.779a13.458,13.458,0,0,1,.009,1.539c-.107,1.391-.24,2.78-.379,4.167-.068.669-.179,1.333-.263,2a3.526,3.526,0,0,0-.017.514c0,.167-.01.313-.2.384a.556.556,0,0,1-.238-.576c.035-.767.091-1.533.144-2.3.031-.438.086-.875.107-1.313.035-.721.063-1.442.07-2.164a16.855,16.855,0,0,0-.044-1.878,19.976,19.976,0,0,1,0-3.059c.039-.8.132-1.6.156-2.394.031-1.02.016-2.041.017-3.062a.9.9,0,0,0-.084-.224,2.033,2.033,0,0,0-.188.311c-.088.246-.188.452-.489.513-.091.019-.2.2-.209.321-.033.5-.044,1-.038,1.5.008.674.054,1.347.058,2.02,0,.561-.047,1.124-.042,1.685,0,.419.037.835.007,1.256-.071.979-.166,1.96-.151,2.939a7.331,7.331,0,0,1-.1,1.49,13.186,13.186,0,0,0-.066,3.312c.051.811.014,1.627.032,2.441A13.551,13.551,0,0,0,1814.5,118a2.894,2.894,0,0,1-.3,1.507l-.47.029c-.041-.355-.109-.69-.114-1.027-.017-1.334-.007-2.668-.023-4-.007-.628-.077-1.256-.067-1.883.01-.657.084-1.313.126-1.97.071-1.109.156-2.218.2-3.328.042-1,.055-2.007.051-3.011-.005-1.035-.047-2.07-.071-3.1v-.545l-.577-.222-.724.668c.324.291.27.711.285,1.122a5.475,5.475,0,0,0,.134.687,15.879,15.879,0,0,1,.095,4.03c-.047.553,0,1.114,0,1.671v.423a9.494,9.494,0,0,0-.013,1.126,14.572,14.572,0,0,1,.045,2.108c-.036.892.047,1.789.053,2.684,0,.563-.04,1.127-.057,1.69a8.02,8.02,0,0,0-.008,1.127,6.313,6.313,0,0,1-.085,2.011,3.769,3.769,0,0,0-.007.709h.875a3.437,3.437,0,0,1,.562.017.717.717,0,0,1,.6.786c-.013.182-.144.287-.284.2-.342-.207-.678,0-1.014-.031-.247-.021-.5.021-.748.019-.309,0-.625-.11-.918.084a.2.2,0,0,1-.137.015,4.811,4.811,0,0,0-1.525.114.862.862,0,0,1-.28,0,6.745,6.745,0,0,0-1.865-.093c-.557.036-1.122-.088-1.682-.083a16.665,16.665,0,0,0-1.77.129,1.486,1.486,0,0,0-.435.216,1.066,1.066,0,0,0-.9-.261c-.241.025-.493-.092-.76-.024-.151.039-.222-.118-.279-.262a.365.365,0,0,0-.51-.228c-.456.129-.581.039-.549-.427.062-.892.157-1.781.2-2.674.047-.909.046-1.819.081-2.728a3.466,3.466,0,0,1,.121-.583,2.407,2.407,0,0,0,.1-.5,13.582,13.582,0,0,1,.286-2.326c.1-.6.181-1.208.279-1.811s.21-1.173.306-1.761a8.332,8.332,0,0,0,.137-1.069c.022-.687.006-1.374.006-2.092-.086.039-.178.084-.272.123-.576.237-1.151.476-1.729.709-.753.3-1.5.621-2.264.9a12.769,12.769,0,0,1-1.529.443.648.648,0,0,1-.755-.342c-.224-.392-.5-.758-.708-1.155a2.083,2.083,0,0,1-.115-.6c1-.408,1.96-.835,2.942-1.186,1.134-.4,2.3-.724,3.436-1.118.725-.251,1.426-.571,2.136-.862a.5.5,0,0,0,.1-.076c-.186-.523-.08-.731.458-.839a12.5,12.5,0,0,0,2.765-1.107,5.328,5.328,0,0,1,1.868-.722.577.577,0,0,0,.309-.106c.558-.444,1.106-.9,1.7-1.384l-1.606-.876c-.041-.022-.089-.032-.13-.055a1.585,1.585,0,0,1-.854-1.408c-.046-1.125-.128-2.249-.169-3.373-.02-.549.022-1.1.028-1.647.009-.769.01-1.538.018-2.306,0-.234.021-.467.03-.7.028-.749.048-1.5.087-2.246a.6.6,0,0,0-.165-.516,1.38,1.38,0,0,1-.407-.774,5.137,5.137,0,0,0-.211-.592,1.887,1.887,0,0,1,.33-.2c.281-.1.492-.2.5-.572,0-.22.252-.359.491-.352.264.008.527.056.789.089a.3.3,0,0,1,.3.39c-.044.249.094.366.279.483.36.228.365.381.064.684a.77.77,0,0,0-.276.824,2.667,2.667,0,0,1,0,.844c-.043.765-.121,1.53-.136,2.3s.049,1.564.039,2.346c-.008.667-.11,1.335-.1,2a6.028,6.028,0,0,0,.092,1.8c.01.03.032.069.021.09-.207.389.1.758.046,1.143a.308.308,0,0,0,.1.244,6.011,6.011,0,0,0,.857.548,10.333,10.333,0,0,0,1.054.382c.088.031.182.044.267.08.353.151.342.143.6-.108a11.693,11.693,0,0,0,.977-.924,1.814,1.814,0,0,1,1.22-.7c.124-.018.237-.144.346-.23.291-.23.578-.465.95-.766l-.725-.149a6.683,6.683,0,0,1-.735-.16.345.345,0,0,1-.2-.252c0-.146.146-.184.285-.161.278.045.556.09.834.14.254.045.532-.063.767.138.042.036.187-.006.257-.052.347-.228.685-.471,1.067-.738-.9-.392-1.73-.762-2.567-1.109-.316-.13-.654-.2-.979-.311a2.259,2.259,0,0,1-.388-.163c-.156-.086-.116-.2.006-.325,1.453.27,2.778.964,4.259,1.343l.873-1.063a5.019,5.019,0,0,0-1.367-.976c-.654-.428-1.354-.783-2.02-1.193a5.9,5.9,0,0,1-.807-.632.333.333,0,0,1-.031-.29c.013-.041.172-.074.242-.049a3.6,3.6,0,0,1,.553.26c.529.3,1.057.6,1.578.915.254.153.483.349.737.5.465.277.941.533,1.411.8a.345.345,0,0,0,.523-.091,5.881,5.881,0,0,1,.542-.556c-.243-.285-.531-.446-.73-.727a3.791,3.791,0,0,0-.832-.751c-.48-.367-1-.685-1.464-1.068-.553-.456-1.057-.97-1.6-1.439-.438-.378-.9-.728-1.354-1.089a2.92,2.92,0,0,1-.329-.26c-.121-.131-.135-.28.053-.435a.8.8,0,0,1,.276.093c.687.568,1.353,1.163,2.052,1.715a14.067,14.067,0,0,0,2.177,1.531,4.749,4.749,0,0,1,1.332.95,7.567,7.567,0,0,0,1.013.788l.718-.712c-.364-.363-.718-.733-1.09-1.086-.442-.419-.9-.827-1.349-1.234-.2-.175-.415-.322-.6-.5a6.729,6.729,0,0,1-.466-.576c.163-.025.274-.08.337-.046a4.269,4.269,0,0,1,.8.492c.407.355.776.754,1.162,1.135a.353.353,0,0,0,.1.092,3.925,3.925,0,0,1,1.03.809c.167.136.348.256.582.427.446-.116.662-.567,1-.974-.455-.5-.9-1-1.354-1.493-.328-.357-.668-.7-1-1.058-.555-.594-1.1-1.195-1.661-1.786-.461-.488-.933-.966-1.4-1.45a.822.822,0,0,1-.166-.224c-.094-.208.053-.406.268-.342a1.627,1.627,0,0,1,.622.3c.437.4.842.828,1.252,1.253a2.735,2.735,0,0,1,.207.309,1.49,1.49,0,0,0,.234.289c.283.231.578.446.867.67a.473.473,0,0,1,.134.13,11.136,11.136,0,0,0,1.737,1.94c.253.287.49.588.772.929.266,0,.374-.3.624-.516-.2-.323-.389-.644-.6-.948-.355-.514-.721-1.021-1.091-1.523-.158-.214-.344-.407-.511-.615q-1.216-1.524-2.427-3.052c-.057-.071-.136-.149-.142-.228-.007-.1.037-.281.085-.29a1.558,1.558,0,0,1,.54,0c.077.014.144.116.2.189.449.541.894,1.086,1.341,1.629a19.872,19.872,0,0,1,1.414,1.744q.52.8,1.076,1.577c.216.3.43.6.65.91l1.113-.67-2.124-2.962c.07-.325.07-.325.59-.482.162.19.359.386.517.611.533.761,1.048,1.535,1.582,2.3.115.163.346.269.407.443a8.174,8.174,0,0,0,.968,1.471,4.7,4.7,0,0,0,.36.647c.55.64,1.125,1.257,1.691,1.882.052.058.118.1.168.163.241.285.488.566.714.863a3.865,3.865,0,0,1,.306.527,3.606,3.606,0,0,0,.268.53,32.193,32.193,0,0,0,2.853,3.139c.47-.387.9-.779,1.365-1.111a6.321,6.321,0,0,1,1.508-.935c.512-.181.981-.483,1.479-.708a7.429,7.429,0,0,1,2.172-.551c.542-.068,1.081-.146,1.622-.218a5.428,5.428,0,0,1,2.552.118A14.871,14.871,0,0,1,1849,91.557c.382.26.838.419,1.191.709.506.415.95.9,1.417,1.366a3.705,3.705,0,0,1,.379.415,7.33,7.33,0,0,1,1.316,2.522c.129.5.327.98.448,1.479.147.608.239,1.229.367,1.841a3.933,3.933,0,0,1,.04,1.3.568.568,0,0,0,0,.141c.056.428.1.857.177,1.28a1.832,1.832,0,0,1-.1.878c-.2.672-.364,1.36-.619,2.011a1.693,1.693,0,0,1-1.035,1.02,1.86,1.86,0,0,1,.026-.291,3.339,3.339,0,0,0,.292-1.032c-.006-.133.168-.265.2-.411a10.372,10.372,0,0,0,.536-2.52,2.068,2.068,0,0,0-.018-.234,6.332,6.332,0,0,1-.135-1.337,6.789,6.789,0,0,0-.314-2.313,10.955,10.955,0,0,0-.805-2.448,6.23,6.23,0,0,0-1.058-1.539c-.288-.3-.554-.631-.865-.908a7.736,7.736,0,0,0-1.186-.92c-.684-.4-1.407-.733-2.114-1.095a.84.84,0,0,0-.083-.044l-1.64-.566a5.154,5.154,0,0,0-2.643-.184c-.833.15-1.675.245-2.508.4a3.76,3.76,0,0,0-.929.325,24.815,24.815,0,0,0-2.347,1.194,6.1,6.1,0,0,0-1.678,1.426l1.438,1.381c.091.087.2.159.28.253.848.964,1.783,1.839,2.712,2.723.6.572,1.264,1.087,1.827,1.684a31.834,31.834,0,0,0,2.642,2.3.58.58,0,0,0,.641.141c.51-.19,1.024-.375,1.545-.53a7.76,7.76,0,0,0,2.123-.951c.676-.452,1.342-.921,2.009-1.387a1.2,1.2,0,0,0,.179-.2c-.725-.381-.725-.381-.541-.876a2.431,2.431,0,0,1,1.616.961,1.775,1.775,0,0,1-.039,1.871c-.372.044-.5-.058-.51-.429a.963.963,0,0,0-.188-.763,2.233,2.233,0,0,0-.362.221,11.392,11.392,0,0,1-4.87,2.641c-.179.045-.366.059-.6.1l.74.674a26.012,26.012,0,0,0,2.2,1.966,19.079,19.079,0,0,1,1.977,1.7,16.941,16.941,0,0,0,1.357,1.077.7.7,0,0,0,.219.07.9.9,0,0,1,.265.089c.4.294.811.586,1.19.909a.491.491,0,0,1,.118.419.309.309,0,0,1-.426.175c-.055-.017-.113-.026-.166-.038-.019.051-.049.089-.039.105a3.313,3.313,0,0,1,.154,2.155,5,5,0,0,1-.14.739,16.15,16.15,0,0,0-.149,2.434c-.041.358-.027.722-.048,1.082a.887.887,0,0,1-.072.318,1,1,0,0,0-.1.767c.036.116-.039.266-.068.422.186.066.412.127.438.425a.581.581,0,0,1-.288.593,1.276,1.276,0,0,1-.961.354,1.553,1.553,0,0,0-.759.2c-.541.228-1.07.484-1.585.72a3.725,3.725,0,0,1-.423-.328.641.641,0,0,1-.223-.672c.078-.263-.059-.4-.278-.291-.458.224-.957.093-1.428.208a12.245,12.245,0,0,1-1.435.223,13.034,13.034,0,0,1-2.847.208,1.218,1.218,0,0,0-.325.028c-.334.057-.311.026-.5-.257a3.291,3.291,0,0,1-.459-1.838c-.012-.454-.083-.907-.109-1.361a7.36,7.36,0,0,1,.312-2.178,5.814,5.814,0,0,0,.059-1.444c0-.3-.09-.589-.1-.886a13.357,13.357,0,0,1-.032-1.739,11.355,11.355,0,0,0,.051-2.2c-.017-.154-.047-.309-.049-.463,0-.181-.043-.366.172-.5s.339.024.531.207l.06-.562c-.447.241-.711.033-.986-.193-.2-.168-.447-.288-.655-.452-.317-.25-.621-.517-.923-.786a.981.981,0,0,1-.148-.23l-.114.053-.172,1.65h-.385a.676.676,0,0,1-.05-.157c-.008-.627-.019-1.254-.014-1.881a.646.646,0,0,0-.23-.536,3.469,3.469,0,0,1-.354-.436,1,1,0,0,0-.37-.314q-.034,1.667-.068,3.334l-.082.023c-.041-.049-.111-.093-.118-.147a6.774,6.774,0,0,1-.068-.792c-.007-.88,0-1.76,0-2.641,0-.408-.335-.593-.6-.9.109.589.222,1.1.292,1.625.043.326-.113.476-.414.5a.3.3,0,0,1-.346-.244,1.64,1.64,0,0,1-.076-.413,13.61,13.61,0,0,1,.07-1.4.93.93,0,0,0-.288-.888,3.593,3.593,0,0,0-.577-.509c0,.113-.007.226,0,.338a16.653,16.653,0,0,1-.01,3.331,4.376,4.376,0,0,0,.015.745c.024.425.057.85.085,1.275,0,.076.033.176,0,.226a1.194,1.194,0,0,0-.1.821,8.3,8.3,0,0,1-.258,2.376c-.123.464-.18.946-.267,1.419-.005.031.005.074-.012.092-.07.072-.148.136-.223.2-.057-.081-.166-.163-.164-.243a12.865,12.865,0,0,1,.083-1.456,25.4,25.4,0,0,0,.167-3.231c.015-1.458.078-2.917.1-4.375a13.23,13.23,0,0,0-.084-1.59.59.59,0,0,1,.192-.617l-1.07-1.543c-.036.355-.079.608-.082.861-.006.436.034.872.015,1.307-.049,1.183-.122,2.364-.176,3.547-.009.2.052.4.041.6a24.264,24.264,0,0,1-.177,2.627c-.145.894-.039,1.784-.114,2.673-.051.608-.111,1.215-.154,1.824-.02.278,0,.558-.011.836-.034,1-.068,2.007-.109,3.01-.022.53-.076,1.059-.087,1.589-.014.641.015,1.284-.007,1.925a1.716,1.716,0,0,1-.213.518l.765.046c0-.58-.018-1.158,0-1.734a18.3,18.3,0,0,1,.2-2.812,9.278,9.278,0,0,0,.082-1.313c.009-.188,0-.381.227-.475.215.1.156.293.143.449-.071.828-.2,1.653-.225,2.481a13.164,13.164,0,0,0,.061,2.816,3.31,3.31,0,0,1,0,.581h.858a1.245,1.245,0,0,1-.152-1.035,2.561,2.561,0,0,0,0-.465c0-.6-.013-1.192.007-1.787.045-1.349.11-2.7.156-4.046a1.057,1.057,0,0,1,.3-.706.9.9,0,0,1,.119.3c0,.3-.041.593-.052.89-.039,1.035-.11,2.071-.1,3.106.014,1.186.1,2.372.16,3.558a1.214,1.214,0,0,0,.051.2c.269.012.532.027.8.034.375.01.751,0,1.126.028a.429.429,0,0,1,.3.168,2.871,2.871,0,0,1,.308.681.534.534,0,0,1-.091.381.551.551,0,0,0,.056.705c.421-.047.842-.075,1.256-.147a2.737,2.737,0,0,0,.75-.247c.1-.048.155-.224.177-.351.082-.48.19-.552.672-.577.636-.034,1.269-.126,1.905-.173a8.36,8.36,0,0,1,1.03-.008c.3.014.587.083.882.1a2.956,2.956,0,0,0,.646-.06,12.727,12.727,0,0,1,3.118-.3.269.269,0,0,1,.273.309c0,.168-.139.18-.274.177-.3,0-.594-.018-.89,0a1.864,1.864,0,0,0-1.035.384,1.388,1.388,0,0,1-.5.21,10.874,10.874,0,0,1-2.529.147,3.877,3.877,0,0,0-.833.1,3.463,3.463,0,0,1-1.335.175c-.217-.028-.319.085-.343.29-.019.17-.042.339-.063.514-.29.12-.557.244-.835.338a2,2,0,0,1-.452.054c-.059,0-.134-.026-.178,0-.5.3-1.047.058-1.569.162-.372.074-.773-.486-.77-.969,0-.154.01-.308.011-.463,0-.429-.158-.611-.567-.609-.683,0-1.367.02-2.05.032a.811.811,0,0,1-.14.008,24.864,24.864,0,0,0-2.86.029c-.211-.012-.43.106-.641.1a4.33,4.33,0,0,1-1.511-.026,5.675,5.675,0,0,0-1.953-.184,2.525,2.525,0,0,0-.741.247c-.074-.047-.262-.1-.342-.232a4.379,4.379,0,0,1-.42-.882c-.055-.157.13-.307.3-.243a2.886,2.886,0,0,0,1.394.042,11.071,11.071,0,0,1,1.245-.009c.047-.331.116-.68.144-1.034q.124-1.593.22-3.188c.035-.578.047-1.158.069-1.737a1.2,1.2,0,0,1,.01-.281.829.829,0,0,1,.14-.209c.063.074.173.143.183.224a7.093,7.093,0,0,1,.025.752q.013,1.129.02,2.256a5.034,5.034,0,0,1-.156,1.632,1.9,1.9,0,0,0-.035.419c-.028.325-.049.651-.089.975-.053.422.051.542.484.506a3.879,3.879,0,0,0,.409-.077c.016-.128.032-.219.038-.311q.108-1.643.214-3.286c.067-1.064.12-2.13.2-3.193.038-.514.12-1.025.18-1.539.092-.795.174-1.591.275-2.385.03-.236.016-.514.372-.638a2.345,2.345,0,0,1,.081.409c.01.612.029,1.225,0,1.835-.023.547-.1,1.091-.153,1.636,0,.015-.005.031-.006.046-.075,1.015-.179,2.03-.215,3.047-.043,1.225-.191,2.437-.345,3.649a5.642,5.642,0,0,1-.141.586h1.626c.025-.722.055-1.422.07-2.123s-.015-1.378.028-2.064c.1-1.532.244-3.062.338-4.594.061-1,.049-2.01.1-3.015.043-.907.146-1.811.182-2.718.033-.813.012-1.629.015-2.443v-.471q.056-1.358.116-2.717c.016-.345.051-.689.054-1.034,0-.244.077-.5-.113-.724a.149.149,0,0,1-.022-.132c.192-.4-.154-.537-.372-.831a1.744,1.744,0,0,0-.1.358q-.012.559,0,1.118c.014.62.038,1.24.054,1.861,0,.124-.017.248-.022.374a4.242,4.242,0,0,0-.027,1.028,5.618,5.618,0,0,1-.127,2.047c-.048.324-.13.643-.17.968-.085.7-.142,1.4-.231,2.1a5.726,5.726,0,0,1-.194.741l-.1-.011a.846.846,0,0,1-.063-.243c.06-1.276.13-2.551.188-3.826.019-.408,0-.817.012-1.226.015-.58.042-1.159.057-1.74.006-.235-.007-.471-.012-.707-.009-.391-.031-.783-.028-1.174.006-.785.032-1.57.036-2.356a.9.9,0,0,0-.775-.842q-.724-.07-1.45-.125a1.569,1.569,0,0,0-.3.042,2.292,2.292,0,0,1,.14,1.35c-.011.275.075.554.06.829-.024.433-.094.864-.148,1.295a1.1,1.1,0,0,0-.051.32,5.615,5.615,0,0,1-.238,2.17c-.031.174-.159.348.007.527.029.032.009.12,0,.179a5.805,5.805,0,0,0,.036,1.68,1.572,1.572,0,0,1-.185.553c-.028.363-.041.752-.091,1.137a1.323,1.323,0,0,0,.063.816.9.9,0,0,1,.061.411c-.014.611-.029,1.223-.063,1.832a15.5,15.5,0,0,1-.159,1.953,8.057,8.057,0,0,0-.145,1.342c-.005.421.052.842.041,1.262-.015.564-.072,1.128-.106,1.691-.026.438-.038.877-.07,1.314-.037.5-.09,1-.136,1.5a1.141,1.141,0,0,0-.015.228c.066.6-.092.792-.714.832-.018.063-.043.133-.058.206-.041.207-.184.278-.342.173a1.271,1.271,0,0,0-.727-.115,22.041,22.041,0,0,0-2.848.278.285.285,0,0,0-.2.2,1.585,1.585,0,0,1-.24,1.018Zm-2.214-25.323.013.006c-.357-.174-.7.033-1.067.009-.013.158-.025.28-.033.4-.04.576-.07,1.152-.12,1.727-.066.761-.172,1.52-.218,2.283-.053.892-.062,1.786-.085,2.679a.822.822,0,0,0,.048.21l.091.006c.035-.173.064-.348.108-.519a1.726,1.726,0,0,1,.147-.437.3.3,0,0,1,.431-.15,2.139,2.139,0,0,0,1.319.168c.4-.065.8-.161,1.2-.19a2.078,2.078,0,0,1,.942-.049,2.087,2.087,0,0,0,.7.015c.042-.49.106-.934.114-1.38.02-1.254.015-2.51.025-3.764a1.239,1.239,0,0,1,.056-.413.242.242,0,0,1,.438-.07c.092.105.168.224.248.333a2.328,2.328,0,0,0-.087.372c-.029.453-.058.907-.06,1.361,0,.322.055.645.056.968,0,.452-.032.9-.035,1.357a1.738,1.738,0,0,1-.356,1.289,9.792,9.792,0,0,0,2.373.009c.039-.082.063-.11.063-.138.015-.815.008-1.63.048-2.443.03-.624.118-1.245.182-1.868.019-.181.11-.285.362-.266a3.239,3.239,0,0,1,.211,1.2q-.067,1.266-.155,2.531a1.306,1.306,0,0,1-.122.487.584.584,0,0,0-.036.585l.974.126v-6.21a7.537,7.537,0,0,0-2.425-.039c0,.646,0,1.253,0,1.861-.006.627-.015,1.255-.038,1.882-.023.6-.065,1.2-.1,1.826-.347-.069-.3-.331-.318-.493a21.138,21.138,0,0,1,.018-3.471,3.542,3.542,0,0,0-.1-1.612c-.355.018-.7.043-1.038.052s-.7,0-1.107,0a.829.829,0,0,1,.125.863.464.464,0,0,0,0,.187c.023.529.039,1.059.071,1.589.029.5.119,1,.1,1.493a3.53,3.53,0,0,1-.274.968c-.025.07-.14.109-.22.167a.722.722,0,0,1-.287-.582c.009-.641.045-1.283.022-1.923a13.632,13.632,0,0,1,0-2.833,10.517,10.517,0,0,0-2.2-.163Zm-16.945,12.8a.6.6,0,0,0-.156.532c0,.69.017,1.38.014,2.07,0,.953,0,1.906-.036,2.857a11.966,11.966,0,0,1,.016,1.826,8.968,8.968,0,0,0-.057,1.357c0,.082-.016.165-.025.263-.085-.025-.14-.026-.17-.053a.366.366,0,0,0-.539.009.428.428,0,0,0-.114.514,1.275,1.275,0,0,1,.083.356c.031.5.049,1,.075,1.5.006.105-.012.237.043.311a.985.985,0,0,1,.15.887,1.913,1.913,0,0,0,0,.406l.407-.259c.259.136.485.415.8.144-.031-.536-.079-1.051-.086-1.567-.006-.482.044-.965.048-1.448a20.187,20.187,0,0,1,.042-2.679,6.591,6.591,0,0,0,.015-2.012.7.7,0,0,1,.154-.7.332.332,0,0,1,.3.324,3.146,3.146,0,0,0,.091.738,5.047,5.047,0,0,1,.211,1.479c.019.576.091,1.151.113,1.727a7.787,7.787,0,0,1-.016,1.543,5.039,5.039,0,0,0,0,1.721c.044.249.08.5.116.724a8.349,8.349,0,0,1,1.573-.058,14.37,14.37,0,0,0,1.686.089c.406.011.813.018,1.219.031.161,0,.321.02.448.028-.037-.839-.077-1.617-.107-2.4-.046-1.221-.121-2.442-.121-3.662,0-1.645.067-3.289.092-4.934.023-1.54.029-3.08.04-4.619.005-.738,0-1.476.01-2.214,0-.164-.042-.284-.211-.313s-.316.14-.326.323c-.036.671-.068,1.344-.115,2.014a.958.958,0,0,1-.125.534.575.575,0,0,0-.132.472c.018.374.036.749.071,1.122a17.364,17.364,0,0,1-.236,3.156,5.454,5.454,0,0,1-.046.56c-.014.074-.11.187-.167.186a.466.466,0,0,1-.261-.137c-.038-.033-.034-.117-.041-.179a17.339,17.339,0,0,1-.056-3.336c.1-1.457.214-2.913.316-4.369a.754.754,0,0,0-.081-.243c-.43.411-.389,1.071-.938,1.388a3.3,3.3,0,0,1,.268,1.6c-.04,1.521-.1,3.04-.16,4.559-.026.719-.085,1.438-.077,2.157.007.625.1,1.249.128,1.873a4.074,4.074,0,0,0,.13,1.238.406.406,0,0,1-.006.14c-.023.687-.052,1.374-.068,2.061-.017.706-.013,1.412-.037,2.118-.01.3-.083.593-.448.664a.567.567,0,0,1-.274-.528c0-.376-.018-.753-.015-1.129,0-.55.019-1.1.033-1.649.016-.641.077-1.284.043-1.923-.061-1.128-.2-2.251-.264-3.378-.046-.876-.04-1.755-.021-2.632.025-1.145.08-2.289.13-3.433a6.654,6.654,0,0,1,.334-2.072,1.886,1.886,0,0,0,.1-1.063c-.247-.039-.322.078-.327.288,0,.235-.015.469-.034.7-.038.467-.173.523-.562.287a.6.6,0,0,0-.433-.028c-.059.017-.087.2-.1.318-.015.185.006.373,0,.559-.025.438-.076.874-.085,1.311-.008.389.024.778.039,1.167.015.359.025.718.052,1.075.022.295.07.587.1.881.028.327.051.655.064.983q.044,1.1.072,2.2c.015.576,0,1.152.027,1.727.044.9.14,1.808.163,2.714.017.657-.047,1.316-.075,1.974,0,.046.006.109-.019.136a.547.547,0,0,1-.239.181c-.055.011-.158-.089-.194-.161a1.179,1.179,0,0,1-.067-.319c-.028-.169-.051-.338-.081-.506-.08-.446-.2-.887-.236-1.336-.046-.546-.018-1.1-.035-1.646-.062-2.039-.135-4.078-.193-6.116-.033-1.176-.04-2.352-.069-3.527-.009-.384-.051-.767-.081-1.186l-.436.119c-.032.179-.009.373-.1.477-.273.329-.18.715-.225,1.078a3.715,3.715,0,0,0,.006.559,10.5,10.5,0,0,1,.014,1.918,8.221,8.221,0,0,0-.05.982c0,.153,0,.307.008.46.02.389.06.779.06,1.168,0,.251-.119.3-.377.221Zm7.6-8.4c.3-.176.578-.354.867-.5.468-.244,1.081-.245,1.344-.824,0-.011.027-.014.041-.022.258-.174.523-.339.773-.524a15.888,15.888,0,0,0,1.3-1.006c.6-.546,1.162-1.137,1.745-1.7.967-.938,1.94-1.869,2.906-2.808a5.251,5.251,0,0,0,.4-.462c.307-.376.585-.778.918-1.129.6-.636,1.238-1.241,1.856-1.862.364-.366.727-.734,1.077-1.114.307-.332.755-.327,1.132-.489a.4.4,0,0,1,.5.24,2.8,2.8,0,0,0,.238.4c.411.57.8,1.158,1.247,1.7a8.676,8.676,0,0,0,1.6,1.873c.049.033.072.1.112.15.547.641,1.1,1.273,1.638,1.923a5.413,5.413,0,0,1,.917,1.162,2.008,2.008,0,0,0,.224.409,22.825,22.825,0,0,0,2.115,2.611,7.252,7.252,0,0,1,.483.629,1.9,1.9,0,0,0,.393.391,5.927,5.927,0,0,1,1.252,1.234c.26.311.491.644.746.959.166.206.345.4.527.6.419.447.843.89,1.327,1.4a.925.925,0,0,0-.019-.237c-.157-.284-.214-.62-.5-.84a.319.319,0,0,1-.055-.465c.117-.14.278-.108.428-.019.077.045.161.079.348.17a2.182,2.182,0,0,0-.146-.5c-.353-.551-.722-1.094-1.09-1.637-.228-.336-.452-.676-.7-1-.327-.416-.675-.817-1.021-1.217-.235-.271-.486-.53-.724-.8-.416-.468-.82-.947-1.243-1.408s-.871-.9-1.289-1.361-.8-.962-1.214-1.426a25.384,25.384,0,0,1-2.057-2.433,4.074,4.074,0,0,0-.416-.507,7.072,7.072,0,0,1-1.151-1.3,2.72,2.72,0,0,0-.432-.493c-.523-.532-1.052-1.058-1.578-1.589a.514.514,0,0,0-.813.062,2.78,2.78,0,0,1-.286.29,9.7,9.7,0,0,0-.824.746c-.315.36-.535.809-1.026.985a.18.18,0,0,0-.095.1c-.093.3-.38.4-.574.6-.367.378-.725.763-1.092,1.141a4.234,4.234,0,0,0-1,1.085c-.015.033-.083.04-.123.065a5.846,5.846,0,0,0-1.6,1.7,3.635,3.635,0,0,1-.517.594c-.286.265-.6.5-.9.753-.527.442-1.053.886-1.584,1.324a.539.539,0,0,1-.287.154,1.471,1.471,0,0,0-1.1.574c-.069.075-.132.156-.2.235s-.123.169-.2.243c-.1.1-.213.178-.3.282a5.323,5.323,0,0,1-1.733,1.4,3.593,3.593,0,0,0-1.047.7Zm.594,20.865v-.911c0-1.145.023-2.291.007-3.436-.014-1.02-.078-2.038-.1-3.057-.018-.893,0-1.787-.012-2.68,0-.313-.043-.627-.04-.939.009-1.067.013-2.133.047-3.2.042-1.317.114-2.632.168-3.948.012-.277,0-.554,0-.8l-1.1-.107c0,.422.012.828,0,1.233s-.055.809-.091,1.212a3.856,3.856,0,0,0-.067,1.23c.018.079-.04.175-.058.264a.541.541,0,0,0-.026.217,7.729,7.729,0,0,1,.154,2.382c-.029.389-.041.781-.046,1.172-.011.953-.006,1.906-.02,2.858-.006.375-.062.751-.06,1.125,0,.813.028,1.626.042,2.438.016.877.028,1.754.046,2.631,0,.093.04.185.039.277a6.617,6.617,0,0,1-.047,1.257,1.8,1.8,0,0,0,0,.734c.046.238.2.3.418.248s.453-.129.744-.207Zm33.429-5.257c.248-.037.445-.065.64-.1.466-.073.57.03.5.489a6.574,6.574,0,0,0,.247,2.746l1.41-.284a12.32,12.32,0,0,1-.283-3.457,11.827,11.827,0,0,1,.224-3.429l.445-.04c-.435-.391-.853.126-1.231-.072-.107-.371-.113-.362-.4-.544-.382-.243-.754-.5-1.134-.749a.51.51,0,0,0-.183-.029,48.546,48.546,0,0,0-.236,5.462Zm-24.853,2.286c-.08-.615-.206-1.2-.223-1.789-.035-1.219-.023-2.438-.011-3.658.009-.956.025-1.913.082-2.867.046-.765.18-1.525.238-2.29.067-.875.095-1.753.136-2.629,0-.09.019-.209-.028-.267a4.324,4.324,0,0,1-.526-1.082,1.6,1.6,0,0,0-.189-.262c-.176.149-.241.26-.163.468a1.409,1.409,0,0,1,.113.676,30.026,30.026,0,0,0-.13,3.173c-.028.532-.084,1.062-.111,1.6-.019.373,0,.748-.015,1.122a9.766,9.766,0,0,1-.256,3.016,1.558,1.558,0,0,0-.031.419c-.009.14-.015.281-.029.421-.11,1.038-.224,2.076-.328,3.114a.416.416,0,0,0,.061.308,1.473,1.473,0,0,0,1.409.525Zm7.46-15.365a6.53,6.53,0,0,1-.545.532,1.031,1.031,0,0,0-.452,1.188,6.005,6.005,0,0,1,.058,1.633c-.012.921.052,1.842.057,2.764q0,1.011-.061,2.021a14.951,14.951,0,0,0-.134,2.527,1.932,1.932,0,0,1,.049.416,22.333,22.333,0,0,0-.083,2.281,4.828,4.828,0,0,1-.128,1.443.448.448,0,0,0,.024.355c.189.237.415.442.686.719.027-.169.048-.241.05-.312.021-.8.03-1.6.06-2.391.023-.642.116-1.284.1-1.924a30.965,30.965,0,0,1,.177-4.176,21.393,21.393,0,0,0-.023-3.714c-.008-.106,0-.213,0-.319,0-.31-.011-.621-.015-.931a.8.8,0,0,1,.01-.266,1.245,1.245,0,0,0-.042-.985c.3-.475.3-.475.211-.868Zm.969-9.268c-.04.128-.061.212-.091.292a.3.3,0,0,1-.329.2c-.783-.036-1.568-.05-2.35-.1-.624-.043-1.247-.121-1.869-.2-.775-.1-1.546-.24-2.322-.339-.369-.047-.523.1-.637.532.442.015.879.011,1.313.049.671.06,1.339.2,2.01.217,1.4.042,2.8.275,4.209.195a.327.327,0,0,1,.184.015c.082.056.194.139.2.216a.3.3,0,0,1-.164.243,2.782,2.782,0,0,1-.782.08c-.589-.048-1.173-.148-1.761-.206-.373-.037-.751-.023-1.124-.058-.5-.046-.988-.142-1.484-.175-.7-.048-1.409-.056-2.113-.083-.2-.008-.4-.021-.638-.034l-.1.914c.6.055,1.142.1,1.684.155a13.707,13.707,0,0,0,2.579.014,15.028,15.028,0,0,1,2.011-.126c.853.037,1.7.18,2.552.284.193.023.362.023.477-.137Zm-1.522,9.121c-.289.05-.523.1-.76.128-.264.027-.531.035-.8.039a4.143,4.143,0,0,1-.837-.014,8.23,8.23,0,0,0-2.713-.026,6.524,6.524,0,0,1-1.765.149c-.034,0-.074.043-.16.1l.483.92a1.76,1.76,0,0,1,.494-.075,9.679,9.679,0,0,0,1.908-.012,12.669,12.669,0,0,1,3.08-.107.537.537,0,0,0,.179-.024l-.049-.061Zm-3.324,15.3V115.2a22.438,22.438,0,0,1,.117-3.605,4.956,4.956,0,0,0,.089-1.071,1.166,1.166,0,0,1,.309-1.088,1.293,1.293,0,0,1-.112-.348c.014-.768.023-1.536.068-2.3.056-.963.145-1.924.22-2.885-.25-.068-.46-.01-.433.189a4.48,4.48,0,0,1-.072.966c-.025.327-.037.655-.065.983-.074.856-.177,1.71-.227,2.567-.074,1.267-.063,2.54-.181,3.8-.116,1.237-.175,2.47-.17,3.711,0,.415-.042.83-.066,1.256Zm18.37-11.913a1.952,1.952,0,0,1-.72-.664c-.1-.112-.187-.214-.4-.068.055.112.081.273.174.335.561.379.819,1.028,1.357,1.443a9.214,9.214,0,0,0,1.505,1.018,3.212,3.212,0,0,1,.81.606,2.392,2.392,0,0,0,.918.675l-.1-.529c.747-.036.974.738,1.557.894.13-.175.311-.306.172-.576a.584.584,0,0,1-.665-.165,2.133,2.133,0,0,0-.272-.183c-.568-.372-1.3-.449-1.762-1.017-.211-.261-.595-.419-.622-.783a.862.862,0,0,0-.524-.707c-.119-.073-.226-.166-.338-.25l-.754-.57Zm-18.744-1.539a.636.636,0,0,0-.314.617c-.085,1.108-.155,2.216-.217,3.326-.051.906-.084,1.813-.124,2.72-.031.7-.053,1.407-.089,2.11-.044.86-.1,1.719-.146,2.579-.033.64-.047,1.282-.088,1.922-.01.15,0,.26.156.279s.256-.07.261-.249c.01-.406.03-.81.043-1.216.026-.752.035-1.506.077-2.258.057-.986.189-1.969.2-2.955.024-1.9.093-3.793.237-5.685.027-.367,0-.735,0-1.193Zm-3.125,15.773a5,5,0,0,0-.793.355c-.3.2-.607.088-.911.095-.287.006-.574-.023-.919-.039l.112.315c.343.059.594.11.847.141a1.037,1.037,0,0,0,.319-.029c.32-.063.638-.132.956-.2a5.3,5.3,0,0,0,.767-.185c.448-.171.882-.38,1.341-.582-.062-.421-.485-.543-.8-.687a5.215,5.215,0,0,0-1.874-.485c-.476-.027-.951-.085-1.427-.127-.046,0-.111-.009-.137.017-.229.226-.548.2-.819.3a3.407,3.407,0,0,0-.4.22c.175.2.312.327.554.189.073-.042.2,0,.3.009a1.609,1.609,0,0,0,.4.055c.478-.071.95-.179,1.428-.25.656-.1.97.166,1.055.885Zm29.585-8.664a.8.8,0,0,0-.151-.037c-.433-.022-.561.084-.593.507-.022.3-.008.6-.046.892a12.171,12.171,0,0,0,.025,3,2.945,2.945,0,0,1,0,.325c0,.454-.013.909.019,1.36.025.342.109.373.572.28v-2.795a1.517,1.517,0,0,1,.012-.233,12.839,12.839,0,0,0,.16-2.2c0-.355,0-.711,0-1.1Zm-27.356-6.951-.092-.034c-.054.053-.151.1-.156.161-.028.324-.038.651-.048.977-.011.376.005.754-.028,1.127a24.817,24.817,0,0,0-.149,2.606c0,.123.046.248.038.37q-.1,1.758-.217,3.517c-.018.28-.077.557-.091.837-.046.969-.083,1.939-.117,2.908a4.87,4.87,0,0,0,.022.61c.018.2.126.274.318.193q.259-6.645.519-13.275Zm-1.388,12.559q.214-6.256.429-12.522c-.046.018-.093.024-.1.041a5.679,5.679,0,0,0-.193.9c-.035.555-.021,1.114-.029,1.67a2.434,2.434,0,0,1-.012.324c-.045.307-.113.612-.141.92a6.26,6.26,0,0,1-.021.792,9.26,9.26,0,0,0-.16,2.122q0,1.006.006,2.012c0,.577-.013,1.154,0,1.73a4.744,4.744,0,0,0,.221,2.008Zm30.384-5.532h-.781a28.814,28.814,0,0,0-.149,5.322,2.392,2.392,0,0,0,.58-1.361,18.519,18.519,0,0,1,.347-3.539,1.913,1.913,0,0,0,0-.422Zm-27.327,6.329c.437-.01.457-.02.47-.348.04-.985.081-1.97.107-2.956.019-.688.014-1.377.018-2.066v-.769c-.23-.078-.364-.051-.393.163a11.858,11.858,0,0,0-.163,1.248c-.033.954-.031,1.909-.038,2.864-.006.6,0,1.214,0,1.861Zm3.139-25.8c0-.083.019-.126.005-.142-.185-.209-.375-.414-.5-.549-.614-.025-1.154-.038-1.692-.069a8.535,8.535,0,0,0-1.6-.194l-.021.106,1.056.206c-.045.285-.054.312-.159.3a2.725,2.725,0,0,1-.691-.123.849.849,0,0,0-1.061.277,20.508,20.508,0,0,0,4.662.189Zm-1.5,18.736a1.388,1.388,0,0,0-.519,1.151c.042.922.007,1.848,0,2.771a9.09,9.09,0,0,0-.029,1.219,6.938,6.938,0,0,1,.026,1.635c-.015.134-.032.287.181.338a1.052,1.052,0,0,0,.194-.784c.026-1.347.017-2.693.037-4.04.008-.546.056-1.092.084-1.637.01-.185.017-.371.029-.652Zm-4.293-18.2c.171.041.242.063.314.074.726.109,1.45.228,2.178.319.637.08,1.276.156,1.916.18.824.031,1.65.007,2.5.007a.515.515,0,0,0-.456-.379,4.233,4.233,0,0,0-.883-.085,17.639,17.639,0,0,1-3.661-.152,13.177,13.177,0,0,0-1.593-.1c-.07,0-.145.065-.312.138Zm3.4,12.26a.512.512,0,0,0-.06.15c-.034.5-.062,1-.092,1.5a3.259,3.259,0,0,1-.028.514,13.882,13.882,0,0,0-.147,2.559c.311.046.388-.134.409-.348.082-.854.183-1.708.223-2.564a13.068,13.068,0,0,0-.086-1.545c0-.116,0-.263-.214-.265Zm1.745,13.947c-.08-.315-.2-.382-.406-.31a1.347,1.347,0,0,1-.45.1c-.826-.02-1.653-.059-2.479-.085a.792.792,0,0,0-.369.044.977.977,0,0,1-.683.031.369.369,0,0,0-.48.155,2.046,2.046,0,0,1,.293.2.906.906,0,0,0,.881.234c.793-.142,1.6-.179,2.41-.257.416-.036.829-.07,1.288-.111Zm-.855-8.158a3.13,3.13,0,0,0,.068-.428q-.01-2.444-.031-4.888a2.462,2.462,0,0,0-.072-.651c-.045-.154-.025-.385-.3-.454a.72.72,0,0,0-.018.232,8,8,0,0,1,.2,2.314,15.325,15.325,0,0,1-.15,1.866,3.693,3.693,0,0,0,.308,2.01Zm-9.5,8.707c-.323-.1-.448.14-.614.291a.942.942,0,0,0-.406.794c.465.083.935.171,1.406.247a.956.956,0,0,0,.277-.028.357.357,0,0,0,.33-.373c-.33-.306-.974-.317-.993-.93ZM1848.935,113l-.139.023v.551c.028,1.174.051,2.348.091,3.522a3.883,3.883,0,0,0,.132.738c.042.18.148.269.331.156,0-.046.019-.083.008-.107a3.279,3.279,0,0,1-.188-1.748,2.551,2.551,0,0,0,.008-.47q-.082-1.121-.176-2.243C1848.992,113.278,1848.958,113.138,1848.935,113Zm-22.2-22.711.059-.13-1.055-1.1v.723c.2.142.6-.073.573.449-.278-.049-.531-.089-.782-.138s-.483-.153-.723.016a4.62,4.62,0,0,0,1.932.178Zm-29.23,15.224c-.345.225-.769.208-.961.586.271.436.55.43,1.22-.019Zm20.068,16.011c.5-.121.646.249.832.6.22-.216.449-.144.756,0l-.206-.637c-.272-.036-.5-.076-.731-.092-.21-.016-.442-.087-.647.127Zm7.781-10.962c.485-.252.53-.483.206-.909a.683.683,0,0,0-.2.907Zm-3.716,12.5a.956.956,0,0,0,.313-1.5,2.26,2.26,0,0,1-.31,1.5Zm-5.166-.033c-.032-.342.57-.2.432-.612-.193-.084-.411-.132-.551.044s-.063.376.122.567Zm3.331-.164-.309-.438c-.226.441-.24.494-.129.526s.235-.042.441-.089Zm19.952-23.509-.585-.624-.074.069c.14.26.273.525.662.554Zm11.29,18.116c.3-.191.3-.191.066-.564ZM1818.228,123c-.1-.078-.163-.161-.209-.153a.708.708,0,0,0-.218.133c.05.049.1.136.15.136C1818.025,123.122,1818.1,123.061,1818.228,123ZM1840.4,99.923l-.123.083.241.351.112-.075Zm-19.084,23.449c-.289.021-.289.021-.438.3Zm23.528-4.985-.176.415c.246-.1.291-.191.172-.415Zm-22.886,2.918c.126-.329.126-.329-.154-.425Zm21-8.24c.285-.061.285-.061.2-.346Zm-16.619-24.54-.259-.362c-.072.237.082.305.26.361Zm16.511,30.2c.085.226.2.2.335.035Zm-26.136,2.544.018.069.233-.038-.036-.112Zm-13.474-6.991-.074-.018-.057.217.076.018Zm15.833,8.682-.074-.132a2.185,2.185,0,0,0-.212.137.373.373,0,0,0,.049.1c.081-.032.164-.071.238-.109Zm-.312-27.41c-.085-.043-.138-.088-.16-.076a.535.535,0,0,0-.145.137s.06.086.071.082a1.81,1.81,0,0,0,.234-.146Z" transform="translate(-7.843 -19.575)" fill="#fff"/>
    <path id="パス_957" data-name="パス 957" d="M1900,126.441c-.389-.186-.867-.03-1.079-.469.117-.26.382-.109.559-.237-.09-.236-.346-.224-.519-.328a2.935,2.935,0,0,1-.377-.18c-.068-.055-.134-.223-.1-.271a.375.375,0,0,1,.294-.156,4.08,4.08,0,0,1,.662.228c.156.06.305.134.547.242-.036-.24-.059-.387-.08-.534-.013-.093-.025-.187-.031-.281-.025-.373.059-.53.286-.543a.58.58,0,0,1,.563.522c.021.292.046.586.084.876.062.467.067.466.625.433,0-.223-.014-.452,0-.678.036-.482.094-.963.132-1.445.016-.2,0-.4,0-.556-.49-.181-.936-.342-1.379-.512a1.973,1.973,0,0,0-1.433.012,5.665,5.665,0,0,1-1.288.3.639.639,0,0,1-.417-.17c-.238-.2-.176-.415.131-.508.208-.063.422-.107.629-.174a2.316,2.316,0,0,0,.35-.208c-.384-.068-.657-.108-.926-.164-.312-.066-.387-.161-.427-.523a3.28,3.28,0,0,1,1.326-.023c-.14-.283-.275-.523-.379-.776s.013-.4.277-.369a.626.626,0,0,1,.544.389c.09.214.21.414.345.674a3.181,3.181,0,0,1,.187-.282,2,2,0,0,1,.317-.337.561.561,0,0,1,.612.049c.172.154.059.317.008.476-.073.23-.15.46-.248.758l1.291.391a.95.95,0,0,0,0-.233,6.666,6.666,0,0,1-.468-1.86.477.477,0,0,0-.117-.292c-.317-.245-.543-.608-.963-.724a1.8,1.8,0,0,1-.466-.221.219.219,0,0,1-.028-.389.492.492,0,0,1,.764.018c.155-.26-.006-.438-.036-.621-.025-.156-.2-.319.031-.448a.542.542,0,0,1,.642.226,1.677,1.677,0,0,1,.089.36c.036.179.067.359.1.524.249.039.284-.119.328-.246s.059-.276.1-.412q.2-.721.836-.3l.211.139a10.611,10.611,0,0,1-.437,1.087c-.083.159-.293.251-.464.388l.279.317a1.258,1.258,0,0,0,.08,1.047.724.724,0,0,1,.089.452c-.086.339.131.568.294.866.092-.235.174-.475.276-.7.273-.616.532-1.24.843-1.836a2.223,2.223,0,0,0,.362-1.163c-.09-.1-.2-.214-.292-.336-.108-.14-.2-.292-.073-.47.152-.215.305-.025.507.022a2.7,2.7,0,0,0,.089-.548.412.412,0,0,1,.276-.477c.226-.086.355.043.489.181.032.033.056.074.1.126l-.221.735c.149-.061.245-.07.281-.121.108-.153.185-.328.29-.483a.416.416,0,0,1,.68-.067c.244.214.24.363-.014.617-.154.154-.31.308-.458.468-.025.027-.012.089-.025.21.167-.031.31-.055.45-.084.491-.1.7.123.574.583-.5.094-.986.208-1.476.267a.527.527,0,0,0-.475.292,3.554,3.554,0,0,1-.413.5.757.757,0,0,0-.133.191q-.445,1.161-.88,2.326a.882.882,0,0,0,.015.257l1.63-1.1a2.667,2.667,0,0,1-.219-.5.526.526,0,0,1,.062-.382c.087-.116.4-.043.5.1.054.075.061.187.122.25s.184.145.251.125.141-.144.171-.236a.4.4,0,0,0-.032-.23.532.532,0,0,1,.3-.7c.535.129.613.234.511.753l.81-.267c.357.38.347.52-.062.7a5.718,5.718,0,0,1-.621.178,2.221,2.221,0,0,0-.271.126,2.736,2.736,0,0,1,.335.388.364.364,0,0,1,0,.3c-.025.052-.163.075-.247.069a3.418,3.418,0,0,1-.791-.1.95.95,0,0,0-.878.175c-.322.218-.63.458-1.014.74a2.705,2.705,0,0,0,.36.087c.439.031.878.052,1.317.08.685.045.684.046.829.725-.29.267-.543-.2-.859-.029.368.3.961.24,1.193.756a.627.627,0,0,1-.9.123,1.721,1.721,0,0,1,.045.2c.016.2.1.418-.18.512a.612.612,0,0,1-.609-.254c-.183-.252-.374-.5-.568-.739-.035-.043-.1-.059-.2-.11-.062.12-.122.221-.167.328-.057.136-.148.207-.292.164a.23.23,0,0,1-.152-.337c.07-.191.163-.374.238-.563a1.058,1.058,0,0,0,.026-.231,3.045,3.045,0,0,0-.409-.055.587.587,0,0,0-.558.8c.064.2.124.412.2.675a.9.9,0,0,0,.2.08c.243.053.316.186.31.438-.01.421.042.843.052,1.265.007.3-.014.594-.018.89v.583h.109c.014-.058.031-.116.04-.175a2.772,2.772,0,0,1,.1-.543c.127-.319.293-.624.441-.936a.508.508,0,0,1,.59-.282.561.561,0,0,1,.33.279c.034.065-.06.226-.134.311a4.754,4.754,0,0,1-.444.393.584.584,0,0,0,.627-.1,1.084,1.084,0,0,1,.894-.153.342.342,0,0,1,.286.327c.009.19-.135.263-.307.292a1.1,1.1,0,0,0-.406.138l.626.167v.511a.639.639,0,0,1-.667.017,1.743,1.743,0,0,0-.469-.109c-.091.232.057.265.163.319.134.069.27.156.21.318a.655.655,0,0,1-.26.349c-.147.077-.283-.025-.4-.164a3.649,3.649,0,0,0-.455-.4c-.034.327.108.631-.23.771-.244.1-.375-.082-.576-.258-.1.217-.178.392-.255.569-.019.043-.018.1-.04.135a2.471,2.471,0,0,0-.237,1.731.569.569,0,0,1-.141.37.68.68,0,0,0-.07.676c.1-.088.207-.135.246-.215a3.7,3.7,0,0,1,.943-1.1.5.5,0,0,1,.562-.116.4.4,0,0,1,.235.633,2.253,2.253,0,0,1-.149.224c.445.312.445.312.318.8.135.122.248.107.328-.06a1.891,1.891,0,0,0,.067-.226c.128-.4.25-.8.39-1.2.12-.339.179-.362.512-.27.074.021.147.045.206.063.177.293-.052.488-.139.707.068.167.177.184.34.166.408-.046.41-.035.5.42l-.5.238.022.083h.191a.769.769,0,0,1,.225-.028c.171.041.351.112.359.318.006.178-.133.264-.3.32a2.6,2.6,0,0,0-.765.389c.073.029.15.087.22.08.233-.022.464-.068.695-.1.513-.075.556-.029.492.542l-1.269.127c.018.331.537.326.311.753-.153-.015-.332-.028-.51-.054-.108-.016-.211-.066-.318-.077-.051-.005-.142.036-.152.073-.018.065-.013.177.029.209a4.118,4.118,0,0,0,.433.263c.158.456.069.645-.807.816l-.207.467a.689.689,0,0,1-.714-.193,2.529,2.529,0,0,0-1.07-.482l.036.655a.465.465,0,0,1-.547-.146,2.807,2.807,0,0,0-.324-.271.438.438,0,0,0-.6.031.88.88,0,0,1-.75.3c-.155-.021-.327.1-.494.139-.48.127-.536.1-.77-.327-.236.07-.471.147-.71.21a.622.622,0,0,1-.324.029,1.15,1.15,0,0,0-1.1.075.3.3,0,0,1-.433-.159c-.071-.187.076-.284.215-.368l.35-.213c-.305-.213-.535-.427-.9-.389a.692.692,0,0,1-.7-.26c.291-.514.815-.236,1.242-.349-.059-.216-.27-.2-.385-.3-.1-.084-.252-.247-.227-.3a.554.554,0,0,1,.33-.275,1.593,1.593,0,0,1,.5.062.368.368,0,0,0,.285-.057c-.11-.068-.22-.138-.332-.2-.146-.084-.367-.139-.319-.345.028-.12.2-.207.313-.307a.768.768,0,0,1,.1-.064.418.418,0,0,1,.245-.519.512.512,0,0,1,.526.092c.268.177.557.32.886.5a.5.5,0,0,0-.221-.5c-.238-.186-.221-.355-.005-.526L1898.8,132a.516.516,0,0,1,.652-.254c.351.123.7.257,1.046.384a1.209,1.209,0,0,0,.163.033c.161-.244.253-.556.543-.709a.169.169,0,0,0,.055-.123c.021-.4.036-.806.053-1.233a.608.608,0,0,0-.746.164c-.047.062-.156.073-.233.115a1.451,1.451,0,0,0-.266.157c-.28.237-.553.483-.889.779l-.227-.553c-.094.027-.21.057-.324.092-.161.05-.31.061-.416-.1a.279.279,0,0,1,.066-.413c.021-.017.025-.055.04-.092-.232-.093-.56.036-.7-.312.1-.377.485-.223.825-.376a1.713,1.713,0,0,1-.409-.116.534.534,0,0,1-.217-.261c-.013-.042.119-.16.206-.2a1.02,1.02,0,0,1,.823.041c.139.056.274.122.5.221-.055-.211-.078-.328-.116-.438s-.1-.2-.134-.3c-.055-.147-.131-.319.052-.419s.325-.013.425.164c.116.2.243.4.369.6.048.076.1.147.172.242.045-.058.088-.088.09-.121.01-.17-.031-.375.222-.389a.456.456,0,0,1,.489.295,2.555,2.555,0,0,1,.076.449l.389.056v-3.048a1.808,1.808,0,0,0-.289-.062c-.328-.019-.376.023-.47.325a2.067,2.067,0,0,1-.184.476.456.456,0,0,1-.286.189c-.179.026-.4.063-.5-.153-.1-.2.064-.312.183-.436a1.563,1.563,0,0,0,.168-.235Z" transform="translate(-49.377 -34.955)" fill="#fff"/>
    <path id="パス_958" data-name="パス 958" d="M1922.756,81.44a1.926,1.926,0,0,0,.03-.208.311.311,0,0,1,.219-.325.44.44,0,0,1,.476.051.806.806,0,0,1,.3.544.268.268,0,0,0,.242.266.673.673,0,0,0,.223.023c.283-.035.422.208.63.317.034.018.052.078.062.121.051.227.1.456.147.693a.207.207,0,0,0,.032.029c.129.082.3.1.353.292a1.154,1.154,0,0,1-.005.745c-.036.094-.08.185-.139.318a1.85,1.85,0,0,0,.273,0c.183-.031.364-.079.547-.105a.193.193,0,0,1,.163.062.258.258,0,0,1,.01.206.328.328,0,0,1-.165.143c-.172.073-.35.134-.528.193-.4.133-.8.274-1.2.388a2.684,2.684,0,0,1-.524.039,1.754,1.754,0,0,1-.875,1.332h-.491a2.691,2.691,0,0,1-.112.282c-.1.194-.063.3.149.29.316-.022.655.086.946-.13a.191.191,0,0,1,.076-.018c.246.211.274.318.13.486-.082.1-.13.081-.366-.114-.195.166.026.391-.085.556a3.451,3.451,0,0,1-.38.188.374.374,0,0,1-.261.012.278.278,0,0,1-.145-.31c.014-.087.029-.174.042-.26-.2-.07-.259.094-.354.164a.367.367,0,0,1-.44.052c-.147-.082-.181-.167-.111-.317.054-.116.112-.231.174-.358a.843.843,0,0,0-.938.5.859.859,0,0,0,.429.157.58.58,0,0,1,.585.584.466.466,0,0,1-.124.268.259.259,0,0,1-.312.01c-.077-.086-.038-.176.006-.26.026-.049.08-.088.094-.139s-.015-.1-.036-.212c-.206.291-.336.574-.707.567l-.1-.161.256-.345c-.185-.174-.29-.156-.385.039s-.208.394-.319.587a.157.157,0,0,1-.233.062c0-.325.336-.482.406-.788-.1-.125-.268-.248-.117-.485-.169.029-.338.061-.508.086a4.5,4.5,0,0,1-.585.071.638.638,0,0,1-.695-.517.682.682,0,0,0-.056-.1,1.9,1.9,0,0,0-.217.1c-.229.144-.457.289-.681.44-.355.24-.7.5-1.061.725a1.2,1.2,0,0,1-.973.258,1.05,1.05,0,0,1-.188-.053c-.208-.1-.238-.18-.168-.406.014-.044.032-.086.054-.146a.632.632,0,0,0-.414.021.737.737,0,0,1-.646-.093.343.343,0,0,1-.059-.588,1.889,1.889,0,0,1,.446-.282c.225-.106.462-.187.746-.3-.1-.056-.159-.081-.21-.112a2.333,2.333,0,0,1-.306-.2c-.141-.12-.157-.24-.032-.362a.675.675,0,0,1,.644-.265,1.06,1.06,0,0,0,.28.007c.44-.018.88-.052,1.32-.052a3.453,3.453,0,0,1,.607.1c.193.035.388.063.576.115.25.069.385-.067.5-.251.032-.053.055-.112.1-.2-.1-.008-.168-.018-.239-.018-.524-.006-1.05,0-1.574-.022a2.091,2.091,0,0,1-.624-.159c-.235-.09-.256-.32-.059-.485a2.3,2.3,0,0,1,.729-.355l.181-.062c-.131-.163-.308-.169-.453-.233a.213.213,0,0,1-.076-.377.769.769,0,0,1,.255-.169,1.729,1.729,0,0,1,.741-.143,2.4,2.4,0,0,0,.267-.017l.012-.056c-.111-.053-.224-.1-.331-.16a2.34,2.34,0,0,1-.312-.19.5.5,0,0,1-.174-.56c.025-.087.035-.178.055-.289a1.453,1.453,0,0,1,.689-.027,2.315,2.315,0,0,0,.667.076,2.82,2.82,0,0,1,1.068.29l.719.307a3.219,3.219,0,0,1,1.135.652.626.626,0,0,0,.138.071,2.509,2.509,0,0,0,.039-.283,1.1,1.1,0,0,1,.557-.971c.014-.009.019-.032.027-.046q-.161-.223-.3-.462c-.125-.239-.108-.369.025-.482a.535.535,0,0,1,.582-.041C1922.586,81.31,1922.65,81.363,1922.756,81.44Zm-5.445,2.478a1.05,1.05,0,0,0,.62.172c.526-.009,1.051-.029,1.577-.041a.866.866,0,0,1,.176.028v.364a6.032,6.032,0,0,1-.946.1,4.044,4.044,0,0,0-1.8.355.923.923,0,0,0-.169.135,1.1,1.1,0,0,0,.214.074,7.731,7.731,0,0,0,2.266-.02,2.1,2.1,0,0,0,1.26-.625c.139-.162.305-.194.388-.1s.042.239-.107.4a1.932,1.932,0,0,1-.755.469c-.366.136-.836.118-1,.594-.167.057-.181.2-.187.342a.177.177,0,0,1-.224.185,2.458,2.458,0,0,1-.473-.061.382.382,0,0,0-.4.117c-.31.27-.633.525-.952.785a.291.291,0,0,1-.073.043,2.825,2.825,0,0,0-.758.53c-.13.11-.287.217-.3.428a.394.394,0,0,0,.368-.1c.3-.2.585-.405.881-.6.414-.276.828-.551,1.246-.819a.976.976,0,0,1,.63-.2c.058.006.148.041.159.08.037.13.169.245.047.41-.047.063-.008.19-.008.29a.684.684,0,0,0,.486-.053.764.764,0,0,1,.243-.053c.211-.036.426-.058.633-.11.335-.085.672-.173,1-.29.249-.09.545-.091.725-.336a.058.058,0,0,1,.049-.023c.137.05.222-.013.309-.113.033-.038.123-.027.186-.042a2.346,2.346,0,0,0,.294-.076,1.048,1.048,0,0,0,.563-.731c.077-.213.107-.435.33-.558.027-.015.03-.072.048-.119l.06.1a5.013,5.013,0,0,0,.574-.037.717.717,0,0,0,.541-.219,3.761,3.761,0,0,0-.522-.005c-.206.026-.286-.147-.431-.244-.215.257-.516.2-.788.214a.389.389,0,0,1-.288-.149.793.793,0,0,1-.182-.681,2.209,2.209,0,0,1,.237-.6.668.668,0,0,1,.565-.317.635.635,0,0,1,.661.432c.106-.127.223-.212.261-.324a.484.484,0,0,0-.457-.7.583.583,0,0,1-.648-.54.391.391,0,0,0-.2-.331c-.086.17.038.277.092.393.075.161.079.28-.018.352a.265.265,0,0,1-.311-.036c-.186-.126-.368-.257-.556-.378-.03-.019-.088,0-.159.01a1.317,1.317,0,0,0,.645.522.425.425,0,0,1-.346.361.6.6,0,0,0-.5.444c-.055.247-.088.5-.121.749a.4.4,0,0,0,.022.244.821.821,0,0,1-.044.874,4.379,4.379,0,0,1-1.113,1.095.11.11,0,0,1-.078.029c-.071-.008-.167,0-.2-.045s-.012-.139.012-.2a1.084,1.084,0,0,1,.479-.462,1.948,1.948,0,0,0,.566-.618.419.419,0,0,0-.073-.627,3.612,3.612,0,0,0-1.209-.794c-.312-.126-.625-.25-.935-.384a3.705,3.705,0,0,0-1.647-.3c-.083,0-.146.034-.145.151a2.611,2.611,0,0,0,.992.4,10.2,10.2,0,0,1,1.092.253s.02.046.034.09c.059.193.046.221-.162.254a2.195,2.195,0,0,1-.335.01,2.236,2.236,0,0,0-.532,0,6.224,6.224,0,0,1-1.144.14,1.387,1.387,0,0,0-.235.043Zm-.465,2.712a1.592,1.592,0,0,0-.217.029c-.241.076-.485.148-.722.237-.42.157-.835.327-1.252.49a.317.317,0,0,0-.234.274,4.065,4.065,0,0,0,2.425-1.03Zm.781-.489a1.811,1.811,0,0,0-.379-.085c-.628.01-1.255.033-1.882.052a.247.247,0,0,0-.252.211,1.369,1.369,0,0,0,.9.1c.31-.073.621-.14.932-.209a.4.4,0,0,1,.323.039c.131.08.231.023.359-.107Zm6.324-2.253c-.1-.042-.155-.063-.21-.092-.1-.055-.2-.113-.191-.25s.119-.172.237-.2a1.233,1.233,0,0,0,.211-.086l-.007-.063c-.057-.017-.117-.056-.169-.048a.845.845,0,0,0-.393.1.585.585,0,0,0-.2.532.375.375,0,0,0,.188.328.325.325,0,0,0,.36-.085c.049-.034.1-.076.175-.136Zm1.177.055c-.392-.032-.446-.1-.361-.452.049-.016.1-.031.154-.051s.089-.043.151-.073c-.352-.14-.576-.08-.682.163a.446.446,0,0,0,.166.632.419.419,0,0,0,.573-.219Z" transform="translate(-56.732 -20.372)" fill="#fff"/>
    <path id="パス_959" data-name="パス 959" d="M1866.875,136.079l-.526-.15a4.753,4.753,0,0,1,.566,2.673,1.6,1.6,0,0,1-.429.051.3.3,0,0,1-.209-.2c-.078-.805-.136-1.612-.2-2.44h-.344c.016.654.034,1.276.047,1.9.006.3,0,.6,0,.9,0,.078-.008.157-.014.235-.014.181-.111.314-.291.294a.284.284,0,0,1-.248-.341c.034-.422.076-.843.088-1.266.016-.543,0-1.088,0-1.7a4.288,4.288,0,0,0-.613.157.5.5,0,0,1-.479-.067c-.21-.113-.092-.28-.13-.416a5.789,5.789,0,0,1,.006-1.388c-.036-.749.023-1.5.059-2.256.049-1.018.1-2.036.177-3.052.047-.607.147-1.21.232-1.814a.581.581,0,0,1,.54-.429c.389,0,.779,0,1.169,0,.6,0,.927.351.823.932a26.782,26.782,0,0,0-.181,4.267c-.011.593-.081,1.185-.1,1.778-.012.421.019.842.036,1.263a.257.257,0,0,0,.06.174c.249.2.179.4.031.611a.979.979,0,0,0-.07.279Zm-1.618-8.577c-.151,2.48-.279,4.962-.183,7.453a1.877,1.877,0,0,0,.139-.627c.029-.484.045-.969.065-1.454q.06-1.48.119-2.96.046-1.1.094-2.205c.009-.14-.016-.255-.234-.209Z" transform="translate(-36.13 -39.317)" fill="#fff"/>
    <path id="パス_960" data-name="パス 960" d="M1876.307,107.841a1.076,1.076,0,0,0-.175.261c-.144.482-.568.623-.964.726a1.711,1.711,0,0,1-1.185-.046,1.269,1.269,0,0,1-.739-.866,3.123,3.123,0,0,1,1.06-3.49,1.275,1.275,0,0,1,1.973.538c.169.409.271.845.42,1.321a2.028,2.028,0,0,0,.171-.265,1.935,1.935,0,0,1,.9-.985,1.682,1.682,0,0,1,2.235,1,3.289,3.289,0,0,1-.187,2.238.436.436,0,0,1-.086.164,3.237,3.237,0,0,1-1.878,1.064c-.943.08-1.234-.341-1.391-1.1q-.045-.275-.062-.553Zm.854.342c.048.151.07.238.1.322.145.374.268.419.642.245.142-.066.287-.127.427-.2a1.393,1.393,0,0,0,.887-.993,2.428,2.428,0,0,0-.078-1.512.658.658,0,0,0-.906-.419,1.709,1.709,0,0,0-.979,1.653c.123-.125.212-.225.31-.315a.572.572,0,0,1,.726.012,1.322,1.322,0,0,1-.044.981l-.462.514Zm-3.238-1.1a1.09,1.09,0,0,0,.814,1.11.7.7,0,0,0,.577-.25,2.072,2.072,0,0,0,.454-1.929,3.632,3.632,0,0,0-.354-1.006c-.16-.307-.368-.314-.6-.078a2.7,2.7,0,0,0-.522.6c-.186.362-.539.7-.294,1.206.017-.073.028-.125.041-.176a.7.7,0,0,1,.514-.547c.315-.074.341.263.481.43a.9.9,0,0,1,.106.258.913.913,0,0,1-.169.883.358.358,0,0,1-.6.072,4.781,4.781,0,0,1-.447-.571Z" transform="translate(-39.857 -29.985)" fill="#fff"/>
    <path id="パス_961" data-name="パス 961" d="M1856.253,93.683a.494.494,0,0,1-.575-.333,4.4,4.4,0,0,0-.527-.714c-.516-.688-1.05-1.362-1.538-2.068-.463-.667-.866-1.375-1.316-2.053-.416-.625-.858-1.232-1.289-1.847-.548-.782-1.1-1.562-1.644-2.346q-.6-.866-1.183-1.744a9.827,9.827,0,0,1-.5-.848c-.089-.17-.142-.355.091-.485a.374.374,0,0,1,.564.114c.294.44.556.9.853,1.339.272.4.584.775.86,1.172.4.577.785,1.169,1.185,1.747.245.355.512.695.764,1.046.118.164.223.339.331.51.034.053.044.129.089.164.59.454.663,1.279,1.249,1.734a5.628,5.628,0,0,0,.9,1.418c.429.534.833,1.089,1.25,1.633.161.211.338.411.49.627C1856.629,93.208,1856.624,93.222,1856.253,93.683Z" transform="translate(-29.346 -20.497)" fill="#fff"/>
    <path id="パス_962" data-name="パス 962" d="M1831.706,134.022c.03-.782.053-1.576.093-2.369.032-.657.107-1.313.121-1.97.027-1.333.01-2.667.043-4,.028-1.111.1-2.22.156-3.33.032-.641.069-1.281.1-1.922.014-.327.007-.327.352-.569a.526.526,0,0,1,.164.493.938.938,0,0,0,.02.414,5.146,5.146,0,0,1,.236,1.966c-.028.655-.032,1.31-.048,1.965a3.585,3.585,0,0,1-.022.508,5.7,5.7,0,0,0-.052.916c-.005.892-.038,1.783-.079,2.673-.046,1-.11,2-.168,3-.025.437-.023.879-.09,1.31a2.759,2.759,0,0,1-.3.82C1832.137,134.107,1831.949,134.164,1831.706,134.022Z" transform="translate(-22.784 -36.468)" fill="#fff"/>
    <path id="パス_963" data-name="パス 963" d="M1850.861,79.062a.822.822,0,0,1,.971.307c.349.537.689,1.08,1.015,1.631.3.5.57,1.006.849,1.513.447.813.954,1.592,1.416,2.4.32.554.616,1.122.929,1.68.223.4.472.776.682,1.178.506.967,1.2,1.815,1.741,2.757.093.16.231.295.339.448.122.172.16.329-.051.483a1.6,1.6,0,0,0-.262.324,1.009,1.009,0,0,1-.694-.626c-.228-.46-.51-.9-.771-1.339-.235-.4-.47-.8-.713-1.2-.131-.213-.3-.407-.415-.625-.615-1.125-1.214-2.259-1.833-3.382-.376-.683-.79-1.344-1.167-2.027q-.864-1.565-1.858-3.049a2.314,2.314,0,0,1-.178-.473Z" transform="translate(-30.689 -19.613)" fill="#fff"/>
    <path id="パス_964" data-name="パス 964" d="M1859.462,75.076a1.376,1.376,0,0,1,.156-.172c.12-.088.314-.262.358-.231.168.119.412.31.406.465a5.517,5.517,0,0,0,.431,1.573,14.585,14.585,0,0,0,.457,1.424c.2.573.439,1.134.642,1.707.292.826.567,1.658.849,2.487a1.284,1.284,0,0,0,.067.174,11.952,11.952,0,0,1,.7,1.883c.168.522.4,1.026.545,1.553a15.883,15.883,0,0,0,.771,1.986,1.31,1.31,0,0,1-.016.734.182.182,0,0,1-.323.088,1.382,1.382,0,0,1-.235-.4c-.452-1.237-.893-2.478-1.343-3.715-.379-1.044-.777-2.081-1.145-3.128-.629-1.788-1.237-3.584-1.865-5.373C1859.788,75.766,1859.612,75.42,1859.462,75.076Z" transform="translate(-34.239 -17.816)" fill="#fff"/>
    <path id="パス_965" data-name="パス 965" d="M1854.36,123.607a1.627,1.627,0,0,1-.177-.83c.026-1.425.054-2.851.076-4.276.021-1.365.035-2.73.056-4.1.014-.925.025-1.85.057-2.774.021-.625.1-1.25.107-1.876,0-.53-.06-1.061-.094-1.591-.006-.09-.018-.181-.027-.265.5-.189.711-.084.749.4a7.467,7.467,0,0,1-.021.89c-.046,1.187-.116,2.373-.135,3.561-.015.876.053,1.753.049,2.629,0,1.031-.035,2.061-.078,3.092-.035.828-.1,1.655-.164,2.481-.02.264-.071.526-.112.789C1854.559,122.33,1854.467,122.916,1854.36,123.607Z" transform="translate(-32.06 -31.493)" fill="#fff"/>
    <path id="パス_966" data-name="パス 966" d="M1871.336,128.969a1.144,1.144,0,0,1,.092.252,13.184,13.184,0,0,1,.123,2.887c-.066.68,0,1.373,0,2.059,0,.171-.014.344-.026.515-.047.7-.141,1.4-.133,2.1.009.761.13,1.521.17,2.282a4.021,4.021,0,0,1-.059,1.488c-.059.183-.116.412-.34.362-.108-.025-.222-.253-.243-.4-.113-.834-.2-1.671-.289-2.509a11.067,11.067,0,0,1-.095-1.263c.006-.53.08-1.058.1-1.588.041-.923.049-1.847.1-2.769.041-.734.118-1.465.191-2.2.033-.333.089-.665.151-.994a.867.867,0,0,1,.144-.25Z" transform="translate(-38.808 -40.214)" fill="#fff"/>
    <path id="パス_967" data-name="パス 967" d="M1871.878,87.692c-.084-.692-.19-1.372-.244-2.056-.084-1.078-.114-2.16-.2-3.237-.072-.858-.2-1.711-.3-2.567-.033-.3-.048-.593-.053-.89-.014-.785-.009-1.57-.031-2.354a7.252,7.252,0,0,0-.112-.838c-.011-.077-.042-.152-.049-.228-.023-.26.095-.458.274-.475a.567.567,0,0,1,.5.423c.021.483.038.967.038,1.45,0,.356-.061.714-.04,1.069.033.59.109,1.178.167,1.767q.034.35.067.7c.029.311.056.622.087.933.075.739.061,1.482.106,2.222.032.53.107,1.057.152,1.587.03.357.021.718.064,1.072a5.55,5.55,0,0,0,.192.863C1872.633,87.636,1872.513,87.778,1871.878,87.692Z" transform="translate(-38.95 -17.971)" fill="#fff"/>
    <path id="パス_968" data-name="パス 968" d="M1894.46,102.9a2.719,2.719,0,0,1-.429-.212c-.224-.164-.18-.356.06-.5a8.639,8.639,0,0,0,1.616-1.021,4.1,4.1,0,0,1,.667-.428c.562-.364,1.129-.72,1.682-1.1q1.18-.809,2.34-1.645c.228-.163.427-.367.649-.54a.606.606,0,0,1,1.013.189.256.256,0,0,1-.079.37c-.4.277-.8.554-1.2.82-.559.366-1.13.713-1.684,1.085-.336.226-.65.483-.975.725a.742.742,0,0,1-.158.1,15.691,15.691,0,0,0-1.9,1.186c-.389.226-.743.512-1.122.756a3.455,3.455,0,0,1-.48.215Z" transform="translate(-48.445 -27.139)" fill="#fff"/>
    <path id="パス_969" data-name="パス 969" d="M1904.175,102.473a.4.4,0,0,1-.3.4,5.38,5.38,0,0,0-1.275.685,3.864,3.864,0,0,1-1.257.486,7.667,7.667,0,0,0-1.8.628c-.806.376-1.609.758-2.416,1.132-.367.17-.735.337-1.11.49-.45.183-.711.021-.829-.519.653-.283,1.317-.554,1.967-.856.765-.355,1.509-.755,2.278-1.1.425-.19.884-.3,1.326-.458.384-.134.775-.255,1.143-.423.426-.195.829-.437,1.243-.657C1903.65,102.018,1903.748,102.035,1904.175,102.473Z" transform="translate(-48.983 -29.141)" fill="#fff"/>
    <path id="パス_970" data-name="パス 970" d="M1857.206,82.166c.389-.377.591-.348.782.1.266.616.5,1.244.787,1.852.183.395.436.756.636,1.144q.623,1.21,1.219,2.435c.208.429.387.872.58,1.308a14.463,14.463,0,0,0,1.434,2.47c.1.136.195.288.054.472a.374.374,0,0,1-.406.171.47.47,0,0,1-.277-.2q-1.629-3.23-3.238-6.471c-.5-1.008-.98-2.026-1.468-3.04C1857.276,82.332,1857.247,82.26,1857.206,82.166Z" transform="translate(-33.308 -20.802)" fill="#fff"/>
    <path id="パス_971" data-name="パス 971" d="M1875.09,76.634V79.4c-.007,1.269-.024,2.538-.031,3.807a4.144,4.144,0,0,0,.048.514q.114.976.231,1.952c.062.51.129,1.019.189,1.529a.906.906,0,0,1,0,.322.408.408,0,0,1-.409.329c-.221-.006-.241-.2-.255-.382-.117-1.436-.249-2.871-.354-4.307-.042-.578-.026-1.161-.037-1.742-.016-.893-.041-1.787-.045-2.68,0-.47.038-.939.047-1.409.006-.358-.012-.716-.008-1.074a.663.663,0,0,1,.068-.31.269.269,0,0,1,.466-.029C1875.2,76.138,1875.117,76.389,1875.09,76.634Z" transform="translate(-40.413 -18.284)" fill="#fff"/>
    <path id="パス_972" data-name="パス 972" d="M1882.383,78.1l.615.326c-.064.206-.147.452-.214.7-.072.268-.129.541-.191.812a1.551,1.551,0,0,1-.053.271,8.327,8.327,0,0,0-.508,2.04,5.351,5.351,0,0,1-.216,1.052,5.178,5.178,0,0,0-.246,1.518c-.026.356-.09.71-.107,1.067-.038.766-.047,1.533-.086,2.3a1.039,1.039,0,0,1-.323.846c-.1.076-.281.164-.359.123a.455.455,0,0,1-.141-.359c.01-.311.06-.622.1-.933.146-1.179.316-2.356.434-3.538a35.07,35.07,0,0,1,.717-4.249c.1-.456.159-.922.234-1.385a.69.69,0,0,1,.344-.591Z" transform="translate(-42.942 -19.233)" fill="#fff"/>
    <path id="パス_973" data-name="パス 973" d="M1893.665,87.477a1.481,1.481,0,0,1,.489-.145,1.7,1.7,0,0,1,.576.207.564.564,0,0,1-.077.322c-.254.412-.552.8-.785,1.222-.49.891-.94,1.8-1.423,2.7-.3.55-.636,1.077-.934,1.625-.268.493-.507,1-.758,1.5a.566.566,0,0,1-.55.37.485.485,0,0,1-.32-.123c-.044-.051,0-.207.046-.3.073-.154.183-.29.262-.442.418-.8.821-1.617,1.248-2.417.6-1.118,1.208-2.228,1.815-3.34.052-.1.126-.179.179-.275C1893.589,88.1,1893.921,87.86,1893.665,87.477Z" transform="translate(-46.786 -23.041)" fill="#fff"/>
    <path id="パス_974" data-name="パス 974" d="M1891.567,85.135c.4.288.1.652,0,.95-.246.739-.556,1.457-.858,2.177-.331.789-.71,1.559-1.015,2.358-.227.593-.367,1.218-.55,1.828-.067.223-.142.444-.221.662a.656.656,0,0,1-.121.2c-.113.127-.437.2-.511.088a.552.552,0,0,1-.065-.384,20.607,20.607,0,0,1,1.073-3.344q.652-1.657,1.28-3.324c.1-.262.163-.537.24-.806a.513.513,0,0,1,.748-.405Z" transform="translate(-46.105 -22.116)" fill="#fff"/>
    <path id="パス_975" data-name="パス 975" d="M1868.912,91.258c-.284-1.107-.574-2.179-.833-3.258-.2-.838-.365-1.684-.542-2.527-.111-.536-.222-1.071-.32-1.61a5.844,5.844,0,0,1-.078-.745c-.009-.181.042-.38.261-.374a.4.4,0,0,1,.394.333c.073.382.166.761.215,1.146a14.807,14.807,0,0,0,.422,2.252c.112.385.106.8.2,1.2.1.45.261.889.387,1.334.156.553.313,1.105.453,1.663C1869.6,91.2,1869.5,91.3,1868.912,91.258Z" transform="translate(-37.407 -21.149)" fill="#fff"/>
    <path id="パス_976" data-name="パス 976" d="M1888.6,84.228a2.043,2.043,0,0,1-.033.978c-.048.29-.129.574-.2.86a.567.567,0,0,1-.028.138,18.708,18.708,0,0,0-.561,1.92,5.289,5.289,0,0,0-.188.768,12.668,12.668,0,0,0-.571,3.035.36.36,0,0,1-.353.37c-.233.036-.376-.077-.344-.314.08-.59.159-1.181.281-1.763.163-.778.375-1.545.552-2.32.192-.838.37-1.68.55-2.521q.064-.3.106-.6C1887.87,84.377,1888.112,84.2,1888.6,84.228Z" transform="translate(-45.323 -21.759)" fill="#fff"/>
    <path id="パス_977" data-name="パス 977" d="M1878.649,80.8a2.867,2.867,0,0,1,.176,1.485c-.008.5-.121.987-.142,1.482-.024.609,0,1.22,0,1.831a1.468,1.468,0,0,1-.027.421,3.17,3.17,0,0,0-.044,1.512,7.736,7.736,0,0,1-.023,1.668c-.01.226-.218.355-.473.325-.228-.026-.2-.2-.2-.356.038-1.568.067-3.137.115-4.7.016-.532.1-1.062.12-1.6a6.421,6.421,0,0,0-.054-1.122.779.779,0,0,1,.552-.951Z" transform="translate(-41.856 -20.347)" fill="#fff"/>
    <path id="パス_978" data-name="パス 978" d="M1902.683,111.623a7,7,0,0,0-2.341.415c-.414.134-.847.212-1.275.306-.4.087-.8.157-1.195.243a.781.781,0,0,1-.789-.164.4.4,0,0,1-.106-.282c.006-.058.126-.134.206-.152.978-.217,1.957-.423,2.936-.635a2.66,2.66,0,0,0,.361-.1,4.146,4.146,0,0,1,1.237-.243,5.006,5.006,0,0,0,1.7-.288c.307-.128.667-.246.955.073.075.083.158.226.133.311a.349.349,0,0,1-.271.2,2.852,2.852,0,0,0-1,.23,4.434,4.434,0,0,1-.551.086Z" transform="translate(-49.721 -32.641)" fill="#fff"/>
    <path id="パス_979" data-name="パス 979" d="M1893.559,100.6c-.142-.07-.306-.1-.37-.2-.1-.153.025-.269.149-.389.82-.792,1.626-1.6,2.443-2.395a4.507,4.507,0,0,1,.675-.583,7.365,7.365,0,0,0,1.654-1.577,1.5,1.5,0,0,1,.353-.3c.242-.153.427-.133.535.031a.408.408,0,0,1-.082.585c-.267.241-.547.466-.814.708-.308.28-.6.577-.913.853-.175.156-.389.268-.557.429-.427.409-.833.839-1.255,1.253-.477.469-.957.934-1.446,1.39a1.631,1.631,0,0,1-.372.2Z" transform="translate(-48.143 -26.228)" fill="#fff"/>
    <path id="パス_980" data-name="パス 980" d="M1902.563,108.053a2.807,2.807,0,0,0-.641.246,4.339,4.339,0,0,1-1.652.6c-.541.139-1.072.322-1.6.51a8.613,8.613,0,0,1-.844.377,6.121,6.121,0,0,1-1.161.119.368.368,0,0,1-.284-.176c-.068-.152.04-.26.2-.313.412-.142.825-.284,1.236-.43.117-.042.226-.107.342-.15a13.922,13.922,0,0,1,1.494-.531,4.653,4.653,0,0,0,1.686-.639c.013-.009.023-.021.036-.031a.925.925,0,0,1,.766-.116C1902.423,107.582,1902.309,107.892,1902.563,108.053Z" transform="translate(-49.467 -31.361)" fill="#fff"/>
    <path id="パス_981" data-name="パス 981" d="M1895.358,95.275a.7.7,0,0,1-.164.763c-.41.472-.8.963-1.17,1.465-.326.44-.614.907-.922,1.36-.123.181-.255.356-.381.534a.573.573,0,0,1-.683.256c-.186-.047-.227-.164-.134-.316.13-.214.274-.421.42-.625q.759-1.073,1.526-2.142.4-.553.807-1.1a.518.518,0,0,1,.7-.195Z" transform="translate(-47.607 -26.293)" fill="#fff"/>
    <path id="パス_982" data-name="パス 982" d="M1881.618,102.677a5.521,5.521,0,0,1,.507-.547,1.045,1.045,0,0,1,.816-.113,2.016,2.016,0,0,1,1.724,1.71c.032.342.094.681.125,1.023.022.245-.082.342-.351.4-.245.053-.327-.065-.377-.288a12.066,12.066,0,0,0-.364-1.354,1.327,1.327,0,0,0-.4-.56.916.916,0,0,0-1.051-.15.455.455,0,0,1-.629-.121Z" transform="translate(-43.382 -29.091)" fill="#fff"/>
    <path id="パス_983" data-name="パス 983" d="M1875.573,101.435a.545.545,0,0,1-.589.011,1.216,1.216,0,0,0-1.7.551c-.11.241-.209.487-.323.726a.8.8,0,0,1-.2.305.411.411,0,0,1-.334.083.337.337,0,0,1-.139-.3,5.663,5.663,0,0,1,.333-1.014,2.763,2.763,0,0,1,.463-.643,1.3,1.3,0,0,1,1.282-.51,1.475,1.475,0,0,0,.418-.032.679.679,0,0,1,.789.823Z" transform="translate(-39.532 -28.522)" fill="#fff"/>
    <path id="パス_984" data-name="パス 984" d="M1884.782,89.989a4.3,4.3,0,0,0-.274.392.956.956,0,0,0-.119.342c-.074.745-.128,1.491-.208,2.235a2.3,2.3,0,0,1-.166.583.468.468,0,0,1-.52.221c-.2-.078-.207-.224-.17-.418.138-.722.261-1.447.381-2.172.046-.277.066-.557.1-.836a2,2,0,0,1,.053-.37c.093-.3.3-.373.582-.215A4.005,4.005,0,0,1,1884.782,89.989Z" transform="translate(-44.08 -24.007)" fill="#fff"/>
    <path id="パス_985" data-name="パス 985" d="M1900.685,115.371a.5.5,0,0,1-.5.241,6.227,6.227,0,0,0-1.76.209,10.19,10.19,0,0,1-1.063.132.468.468,0,0,1-.454-.394c-.025-.181.1-.308.366-.326a12,12,0,0,0,2.062-.379,2.593,2.593,0,0,1,.967.014C1900.538,114.9,1900.627,115.134,1900.685,115.371Z" transform="translate(-49.69 -34.383)" fill="#fff"/>
    <path id="パス_986" data-name="パス 986" d="M1916.8,80.418c-.083.052-.147.1-.216.135a3.9,3.9,0,0,0-1.177.936,2.159,2.159,0,0,0-.186.335c-.07.121-.1.282-.323.321a1.391,1.391,0,0,1,.323-.78,3.328,3.328,0,0,1,1.014-.826c.1-.049.2-.111.293-.165a.188.188,0,0,1,.272.044Z" transform="translate(-57.117 -20.154)" fill="#fff"/>
    <path id="パス_987" data-name="パス 987" d="M1898.1,118.359a2.841,2.841,0,0,1-.6-.012c-.106-.024-.185-.172-.276-.264.1-.086.179-.217.291-.25a4.324,4.324,0,0,1,.826-.151.539.539,0,0,1,.381.11.455.455,0,0,1,.1.363.376.376,0,0,1-.254.207,2.074,2.074,0,0,1-.464.009Z" transform="translate(-49.823 -35.567)" fill="#fff"/>
    <path id="パス_988" data-name="パス 988" d="M1916.362,82.418a.6.6,0,0,1,.034-.2,2.452,2.452,0,0,1,1.045-1.02.673.673,0,0,1,.327-.024c.032,0,.059.077.089.118-.044.023-.1.075-.13.063-.187-.067-.323.032-.468.12a2.079,2.079,0,0,0-.7.789c-.035.061-.078.118-.116.177Z" transform="translate(-57.721 -20.499)" fill="#fff"/>
    <path id="パス_989" data-name="パス 989" d="M1884.792,111.079a1.062,1.062,0,0,1-.65,1.469c-.135.033-.288.044-.364-.123a.255.255,0,0,1,.132-.356,1.008,1.008,0,0,0,.526-.625C1884.482,111.316,1884.642,111.228,1884.792,111.079Z" transform="translate(-44.262 -32.842)" fill="#fff"/>
    <path id="パス_990" data-name="パス 990" d="M1864.629,145.391c.019-.246.03-.492.059-.737.034-.283.2-.456.386-.436s.289.257.228.529c-.027.119-.079.234-.117.351a1.657,1.657,0,0,0-.12.393c-.01.188-.078.311-.266.307s-.175-.177-.179-.314v-.093Z" transform="translate(-36.366 -46.518)" fill="#fff"/>
    <path id="パス_991" data-name="パス 991" d="M1897.73,120.171c.275-.046.5-.052.658.19.122.19.09.338-.123.4a1.4,1.4,0,0,1-.947-.136.3.3,0,0,1-.1-.268c.019-.076.137-.15.226-.178a.963.963,0,0,1,.286-.008Z" transform="translate(-49.817 -36.584)" fill="#fff"/>
    <path id="パス_992" data-name="パス 992" d="M1872.085,106.648a1.475,1.475,0,0,1,0,.366,1.6,1.6,0,0,0-.12,1.177c.021.052-.067.215-.1.213a.377.377,0,0,1-.271-.11,1.357,1.357,0,0,1,.491-1.646Z" transform="translate(-39.196 -31.014)" fill="#fff"/>
    <path id="パス_993" data-name="パス 993" d="M1838.673,106.779a1.178,1.178,0,0,1,.432,1.037c-.021.671-.039,1.345,0,2.014a1.774,1.774,0,0,1-.052,1c-.041.08.06.233.1.352a.559.559,0,0,1-.406.724.39.39,0,0,1-.473-.337,1.2,1.2,0,0,1,.016-.466,5.485,5.485,0,0,0,.086-1.528c-.017-.791.019-1.584.063-2.375.008-.143.166-.279.254-.419Z" transform="translate(-25.485 -31.068)" fill="#fff"/>
    <path id="パス_994" data-name="パス 994" d="M1840.726,113.38a.36.36,0,0,1-.25-.493,17.409,17.409,0,0,0,.348-3.688,2.074,2.074,0,0,1,.07-.507c.024-.079.136-.131.266-.245a3,3,0,0,1,.048.388c-.023.748-.043,1.5-.082,2.245-.034.639-.079,1.279-.152,1.914C1840.958,113.133,1840.808,113.258,1840.726,113.38Z" transform="translate(-26.393 -31.756)" fill="#fff"/>
    <path id="パス_995" data-name="パス 995" d="M1841.055,104.831a1.121,1.121,0,0,1,.317-.11q1.1,0,2.195.028c.173,0,.183.131.152.266a4.983,4.983,0,0,1-2.664-.184Z" transform="translate(-26.642 -30.218)" fill="#fff"/>
    <path id="パス_996" data-name="パス 996" d="M1786.145,43.546c-.46.174-.94.317-1.382.531a6.991,6.991,0,0,1-.726.264c-.186.066-.357.17-.537.249.149.351.316.692.467,1.042.281.65.562,1.3.831,1.956.288.7.551,1.41.849,2.1.108.252.072.341-.067.409-.834.4-1.664.822-2.5,1.214-.493.23-1,.428-1.507.627a1.807,1.807,0,0,1-.491.1.248.248,0,0,1-.173-.131q-.54-1.388-1.063-2.785c-.153-.412-.268-.84-.429-1.249-.2-.5-.418-.984-.63-1.475-.1.038-.207.075-.311.109a.166.166,0,0,1-.1,0c-.233.08-.462.169-.69.261-.4.158-.8.3-1.18.493.091.214.181.428.268.644.108.268.173.556.285.822.19.453.409.892.6,1.345.219.519.417,1.049.634,1.569.293.7.6,1.4.892,2.1.406.989.786,1.992,1.2,2.976a34.76,34.76,0,0,1,1.827,4.9.849.849,0,0,0,.053.153c.44-.216.9-.388,1.351-.57a5.663,5.663,0,0,1,.621-.213l.012-.009a1.721,1.721,0,0,1,.434-.2.663.663,0,0,0-.09-.148.978.978,0,0,1-.157-.236c-.187-.472-.354-.954-.55-1.421-.378-.9-.771-1.8-1.154-2.7a2.926,2.926,0,0,1-.27-.748c-.01-.092.255-.141.394-.21.028-.014.051-.036.079-.047.545-.208,1.09-.412,1.633-.623a4.25,4.25,0,0,0,.475-.212q.948-.506,1.891-1.02c.131-.071.209-.025.271.208a4.792,4.792,0,0,0,.225.592c.337.823.684,1.642,1.016,2.468.305.759.6,1.523.9,2.285a1.782,1.782,0,0,1,.3-.116c.216-.07.426-.158.637-.24.44-.171.88-.342,1.332-.482q-.628-1.65-1.245-3.305c-.547-1.471-1.085-2.945-1.63-4.416q-.571-1.542-1.149-3.079c-.278-.737-.564-1.47-.844-2.205C1786.547,44.607,1786.35,44.075,1786.145,43.546Z" transform="translate(0 -4.971)" fill="#fff"/>
    <path id="パス_997" data-name="パス 997" d="M1866.436,34.877a1.171,1.171,0,0,0-.271-.015,8.524,8.524,0,0,1-1.33.005c-.224.009-.265-.04-.252-.272.023-.415.063-.829.092-1.243.033-.467.06-.935.091-1.4.026-.389.125-.483.5-.442.259.029.513.1.772.125.74.079,1.483.132,2.222.223.493.06.98.169,1.469.254s.954.16,1.431.241a7.065,7.065,0,0,1,2.212.769,4.041,4.041,0,0,1,1.992,2.451,10.281,10.281,0,0,1,.468,4.031,7.95,7.95,0,0,1-.718,2.853,3.856,3.856,0,0,1-2.227,2.02,8,8,0,0,1-3.139.3c-.868-.06-1.735-.13-2.6-.2-.049,0-.1-.012-.148-.015-.106-.006-.247.032-.31-.025a.537.537,0,0,1-.143-.341c-.019-.36-.009-.722-.011-1.082v-.272c-.037-.686-.1-1.372-.108-2.059-.024-1.429-.028-2.86-.029-4.291,0-.429.038-.858.056-1.287C1866.448,35.1,1866.439,35,1866.436,34.877Zm2.66.084c-.121,2.5-.32,4.94-.21,7.406a1.639,1.639,0,0,0,.306.052c.793-.025,1.587-.049,2.38-.093a1.16,1.16,0,0,0,.571-.15,3.026,3.026,0,0,0,1.377-2.218,15.3,15.3,0,0,0,.06-1.867,2.883,2.883,0,0,0-.555-1.706,3.1,3.1,0,0,0-1.9-1.209c-.533-.115-1.079-.169-1.62-.24a2.361,2.361,0,0,0-.405.025Z" transform="translate(-36.351)" fill="#fff"/>
    <path id="パス_998" data-name="パス 998" d="M1822.373,47.268h-.981c.074.473.143.948.173,1.426a11.234,11.234,0,0,1-.053,1.53c-.029.418-.014,1.59-.72,1.432-.128-.028-.156-.125-.2-.239-.084-.2-.167-.4-.233-.609a10.181,10.181,0,0,1-.309-1.456,19.822,19.822,0,0,1-.3-2.922c-.008-.828.029-1.66-.059-2.484-.082.02-.163.044-.246.059-.553.1-1.107.206-1.661.3-.194.033-.247.133-.211.29.053.232.131.46.163.694.111.781.219,1.563.3,2.347a11.408,11.408,0,0,1,.033,1.17c0,.344-.008.688-.016,1.031a4.074,4.074,0,0,1-.042,1.509,1.135,1.135,0,0,1-1.414.785c-.594-.189-.907-.934-1.116-1.462a18.2,18.2,0,0,1-.857-3.17,18.6,18.6,0,0,1-.3-1.875c0-.021,0-.042,0-.063-.081-.387-.083-.785-.127-1.178-.118.022-.236.043-.354.062q-.764.123-1.528.237c-.11.016-.17.058-.163.168.01.156.017.312.024.469.1.469.187.942.274,1.415.127.7.276,1.39.427,2.081.186.85.366,1.712.584,2.561q.1.274.215.544c.039.1.078.19.118.285a1.379,1.379,0,0,0,.157.247,5.639,5.639,0,0,0,.548.7c.132.149.261.3.4.45.223.15.455.288.68.436a3.142,3.142,0,0,0,2.234.381.422.422,0,0,0,.128-.048c.323-.163.638-.344.971-.487a2.146,2.146,0,0,0,1.083-1.22,1.579,1.579,0,0,0,.071-.247c.163.164.3.318.455.455a1.331,1.331,0,0,0,1.35.24,1.248,1.248,0,0,0,.84-.882,3.7,3.7,0,0,0,.131-.832,14.086,14.086,0,0,0-.082-2.9c-.038-.32-.043-.645-.08-.966a.273.273,0,0,0-.307-.259Z" transform="translate(-14.709 -5.135)" fill="#fff"/>
    <path id="パス_999" data-name="パス 999" d="M1847.117,44.676c.031.221.046.42.087.61a6.444,6.444,0,0,0,.248.983,1.69,1.69,0,0,0,1.821,1.177c.247-.013.841-.655.892-.957.033-.2.05-.4.065-.6.012-.154.065-.237.2-.228.389.026.778.054,1.167.078a1.526,1.526,0,0,0,.226,0c.139-.01.188.085.18.236a3.647,3.647,0,0,1-.516,1.808,2.978,2.978,0,0,1-2.36,1.44,2.44,2.44,0,0,1-1.843-.483,3.762,3.762,0,0,1-1.245-1.386,6.955,6.955,0,0,1-.6-2.128,6.74,6.74,0,0,1,0-1.9,5.894,5.894,0,0,1,1.385-3.028,3.66,3.66,0,0,1,1.791-1.165,7.725,7.725,0,0,1,.827-.046,2.374,2.374,0,0,1,1.6.606,2.985,2.985,0,0,1,.771.812,3.284,3.284,0,0,1,.442,1.175,7.01,7.01,0,0,1,.018,2.335c0,.02-.008.039-.01.059-.026.3-.175.46-.432.47-.568.022-1.136.059-1.7.072-.747.016-1.494.011-2.241.022C1847.646,44.639,1847.4,44.661,1847.117,44.676Zm3.122-1.512a4.14,4.14,0,0,0-.058-1.347c-.18-.615-.455-1.024-1.021-1.123a1.4,1.4,0,0,0-1.466.824,3.6,3.6,0,0,0-.426,1.331c-.016.1-.025.2-.039.314Z" transform="translate(-28.423 -3.127)" fill="#fff"/>
    <path id="パス_1000" data-name="パス 1000" d="M1807.582,52.478a8.107,8.107,0,0,1-.071,2.325,5.792,5.792,0,0,1-.826,2.286,1.916,1.916,0,0,1-.914.725,2.477,2.477,0,0,1-.694.235,5.883,5.883,0,0,1-.928.032c-.654-.007-1.215-.57-1.737-1.21a6.383,6.383,0,0,1-.837-1.385,11.484,11.484,0,0,1-.913-2.621,6.888,6.888,0,0,1,.365-4.3,3.062,3.062,0,0,1,1.543-1.65,2.517,2.517,0,0,1,2.319.095,3.934,3.934,0,0,1,1.435,1.541,10.315,10.315,0,0,1,.968,2.521C1807.411,51.531,1807.487,52.009,1807.582,52.478Zm-1.752-.122a4.767,4.767,0,0,0-.468-1.632,3.205,3.205,0,0,0-1.122-1.207.722.722,0,0,0-.4-.136,1.313,1.313,0,0,0-.941.362,2.208,2.208,0,0,0-.456.566,3.241,3.241,0,0,0-.233,1.462,5.158,5.158,0,0,0,.4,1.99,3.029,3.029,0,0,0,1.166,1.462.911.911,0,0,0,1.061.081,2.906,2.906,0,0,0,.312-.26,2.446,2.446,0,0,0,.749-2.06c-.01-.207-.044-.418-.068-.627Z" transform="translate(-9.9 -6.264)" fill="#fff"/>
    <path id="パス_1001" data-name="パス 1001" d="M1836.271,41.115c-.089-.4-.176-.775-.257-1.152-.028-.127-.041-.256-.063-.384-.018-.11.019-.17.153-.193.521-.085,1.04-.179,1.561-.27.05-.009.1-.014.152-.026.168-.042.236.01.26.165.072.473.143.947.233,1.417.114.6.252,1.19.367,1.788.043.222-.087.286-.33.248a7.045,7.045,0,0,0-1.159-.108,15.4,15.4,0,0,0-1.669.106,10.028,10.028,0,0,0-1.242.258.919.919,0,0,0-.568.376.467.467,0,0,0,.09.65,4.443,4.443,0,0,0,1.855.9,11.857,11.857,0,0,1,2.389.957,2.04,2.04,0,0,1,.983,1,1.168,1.168,0,0,1-.459,1.57,4.08,4.08,0,0,1-1.11.294,10.542,10.542,0,0,1-1.976.054c-.529,0-1.057-.04-1.587-.061h-.119a1.968,1.968,0,0,0,0,.243c.033.438.072.876.1,1.315.015.2-.049.263-.275.268-.385.008-.771.009-1.155.02-.12,0-.241.038-.36.035a.214.214,0,0,1-.157-.1.963.963,0,0,1-.087-.32c-.027-.326-.026-.655-.062-.98s-.1-.625-.158-.936c-.066-.339-.152-.675-.214-1.015-.039-.21.115-.3.343-.253a12.86,12.86,0,0,0,1.277.235c.788.091,1.581.16,2.373.218a2.8,2.8,0,0,0,1.179-.162c.223-.083.314-.25.213-.447a.77.77,0,0,0-.277-.323,12.074,12.074,0,0,0-1.28-.649c-.415-.172-.862-.28-1.293-.42a4.42,4.42,0,0,1-1.253-.687,2.482,2.482,0,0,1-.85-1.008,1.18,1.18,0,0,1,.243-1.512,3.5,3.5,0,0,1,1.771-.753c.762-.129,1.526-.238,2.289-.355A.406.406,0,0,0,1836.271,41.115Z" transform="translate(-22.658 -3.127)" fill="#fff"/>
    <path id="パス_1002" data-name="パス 1002" d="M1920.186,44.683c.1-.563.181-1.077.276-1.588.042-.228.117-.269.309-.224q.846.2,1.693.39c.225.051.314.2.264.567-.1.75-.223,1.5-.335,2.246-.049.328-.1.657-.142.986-.026.213-.115.321-.3.3-.237-.026-.473-.056-.708-.1-.172-.029-.269.023-.29.25-.062.662-.132,1.324-.2,1.986-.05.458-.106.915-.165,1.372-.067.524-.124,1.05-.212,1.569a8.812,8.812,0,0,1-.668,2.3,2.279,2.279,0,0,1-1.256,1.2,4.4,4.4,0,0,1-1.89.287c-.848-.041-1.694-.1-2.541-.157a2.167,2.167,0,0,1-.325-.051.3.3,0,0,1-.261-.348c.027-.749.059-1.5.088-2.247.008-.189.019-.378.019-.567,0-.244.11-.349.315-.272s.424.19.64.27a6.535,6.535,0,0,0,2.077.321,10.506,10.506,0,0,0,1.37-.069c.493-.051.663-.241.766-.8.014-.078-.05-.171-.08-.263l.145.015.409-2.825c-.22.154-.4.289-.587.408a2.956,2.956,0,0,1-1.648.455,4.53,4.53,0,0,1-.991-.237,3.467,3.467,0,0,1-1.71-1.12,3.045,3.045,0,0,1-.761-1.67,4.231,4.231,0,0,1-.044-1.439,6.429,6.429,0,0,1,.676-1.744,2.655,2.655,0,0,1,.926-1.067,2.82,2.82,0,0,1,1.472-.523,4.555,4.555,0,0,1,2.036.466,3.035,3.035,0,0,1,1.572,1.776C1920.136,44.572,1920.152,44.6,1920.186,44.683Zm-3-.355a1.277,1.277,0,0,0-.976.2,1.986,1.986,0,0,0-.552.529,2.719,2.719,0,0,0-.353,1.35c-.038.909.4,1.872,1.464,1.859a1.368,1.368,0,0,0,.9-.393,2.746,2.746,0,0,0,.8-1.435,1.959,1.959,0,0,0-.222-1.539,1.165,1.165,0,0,0-1.062-.572Z" transform="translate(-56.497 -4.455)" fill="#fff"/>
    <path id="パス_1003" data-name="パス 1003" d="M1932.743,47.6c.1-.1.2-.21.309-.308A5.141,5.141,0,0,1,1935.444,46a1.936,1.936,0,0,1,1.135.093,4.12,4.12,0,0,1,1.112.6,1.762,1.762,0,0,1,.641,1.155,4.468,4.468,0,0,1-.116,1.64c-.14.618-.383,1.213-.584,1.817-.116.347-.24.692-.356,1.04a7.652,7.652,0,0,0-.274.89.6.6,0,0,0,.145.375c.023.033.185.02.245-.023.226-.16.439-.338.651-.516.108-.09.213-.108.311,0a.2.2,0,0,1,.049.157c-.108.4-.227.8-.337,1.206-.066.243-.124.49-.182.735a.469.469,0,0,1-.4.359,2.381,2.381,0,0,1-1.034.053,5.091,5.091,0,0,1-1.017-.3c-.345-.146-.42-.5-.5-.82a1.532,1.532,0,0,1,.127-.917c.188-.508.385-1.012.574-1.519.3-.8.608-1.6.881-2.4a5.007,5.007,0,0,0,.191-1.013.8.8,0,0,0-.5-.777,1.8,1.8,0,0,0-1.147-.069,2.711,2.711,0,0,0-1.3.68,7.124,7.124,0,0,0-1.572,1.835,9.409,9.409,0,0,0-.671,1.263,9.3,9.3,0,0,0-.348,1.392c-.053.247-.065.5-.1.755-.02.146-.155.213-.352.166-.268-.063-.533-.146-.8-.2a4.882,4.882,0,0,0-.685-.082c-.229-.012-.3-.088-.223-.3.122-.348.271-.687.373-1.04.151-.52.268-1.05.406-1.573.055-.208.147-.406.192-.616.143-.674.264-1.352.408-2.026.078-.368.195-.726.276-1.094.089-.406.163-.815.234-1.225.063-.362.109-.727.172-1.089.031-.183.106-.226.294-.176.114.03.219.093.333.116.538.112,1.078.213,1.615.324a.172.172,0,0,1,.1.112c-.063.343-.132.685-.212,1.025-.048.208-.109.415-.173.62-.1.315-.206.628-.309.943Z" transform="translate(-62.928 -5.33)" fill="#fff"/>
    <path id="パス_1004" data-name="パス 1004" d="M1886.672,44.329c.031.185.046.352.087.511a4.683,4.683,0,0,0,.245.822,1.708,1.708,0,0,0,1.8.985,1.588,1.588,0,0,0,.884-.8,4.687,4.687,0,0,0,.065-.5c.012-.128.064-.2.193-.19l1.155.065a1.9,1.9,0,0,0,.224,0c.137-.009.186.071.178.2a2.714,2.714,0,0,1-.51,1.513,3.066,3.066,0,0,1-2.335,1.2,2.747,2.747,0,0,1-1.823-.4,3.4,3.4,0,0,1-1.232-1.159,5.148,5.148,0,0,1-.591-1.781,4.77,4.77,0,0,1,0-1.592,4.627,4.627,0,0,1,1.371-2.534,3.735,3.735,0,0,1,1.772-.975c.265-.052.546-.012.818-.039a2.607,2.607,0,0,1,1.584.507,2.737,2.737,0,0,1,.763.679,2.5,2.5,0,0,1,.437.983,4.971,4.971,0,0,1,.018,1.954c0,.016-.008.032-.009.049a.4.4,0,0,1-.427.393c-.563.019-1.125.049-1.687.06-.739.014-1.478.01-2.217.018C1887.2,44.3,1886.955,44.317,1886.672,44.329Zm3.089-1.265a2.946,2.946,0,0,0-.058-1.127,1.208,1.208,0,0,0-1.011-.94,1.448,1.448,0,0,0-1.45.689,2.7,2.7,0,0,0-.421,1.114c-.017.083-.025.169-.039.263Z" transform="translate(-44.755 -3.361)" fill="#fff"/>
    <path id="パス_1005" data-name="パス 1005" d="M1911.179,40.425a1.111,1.111,0,0,1,1.114,1.115.83.83,0,0,1-.673.638,2.118,2.118,0,0,1-1-.093.723.723,0,0,1-.534-.662.846.846,0,0,1,.664-.937,3.25,3.25,0,0,1,.429-.061Z" transform="translate(-55.13 -3.683)" fill="#fff"/>
    <path id="パス_1006" data-name="パス 1006" d="M1902.152,44.355a6.114,6.114,0,0,0-.771-.2s-2.244-.314-1.92-2.124,3.255.012,3.255.012l.883-1.636s-2.852-1.692-5,.512.16,3.864,1.8,4.3.875,1.535.875,1.535c-1.934,1.859-3.139-1-3.139-1l-.714,2.167c.712.932,3.9,1.4,5.189-.035a2.476,2.476,0,0,0,.241-3.029,2.076,2.076,0,0,0-.7-.5Z" transform="translate(-49.901 -3.421)" fill="#fff"/>
    <path id="パス_1007" data-name="パス 1007" d="M1909.94,44.511l1.761.134s-1.253,9.24.138,5.361l.469-1.473.355.09s-2.019,5.694-2.933,1.3a25.306,25.306,0,0,1,.21-5.412Z" transform="translate(-54.961 -5.37)" fill="#fff"/>
    <path id="パス_1008" data-name="パス 1008" d="M1926.491,147.014c-.072.021-.145.039-.217.056-.3.068-.586.176-.878.267-.275.086-.546.185-.82.275a1.265,1.265,0,0,1-.214.05c-.027,0-.075-.011-.083-.029a.293.293,0,0,1-.018-.275,1.7,1.7,0,0,1,.352-.472.354.354,0,0,0,.049-.069l-.1-.087c-.046.052-.082.1-.125.14-.223.2-.448.4-.671.607-.068.061-.133.126-.2.183a.268.268,0,0,1-.1.029c-.009-.033-.03-.069-.023-.1a.428.428,0,0,1,.061-.151c.094-.141.194-.278.293-.416.06-.084.061-.083-.012-.177l-1.062.977a.894.894,0,0,1,.01-.092,1.935,1.935,0,0,1,.334-.7,2.785,2.785,0,0,0,.166-.255l-.079-.11c-.172.2-.34.4-.51.588a3.974,3.974,0,0,1-.6.525,1.9,1.9,0,0,1,.232-.586l-.1-.086-.184.331a2.579,2.579,0,0,1-.146.258c-.1.144-.211.285-.325.421-.075.089-.165.165-.266.265a.6.6,0,0,1-.07-.506c.063-.2.146-.386.212-.581a.381.381,0,0,1,.168-.209,6.335,6.335,0,0,1,.72-.426.349.349,0,0,0,.092-.06c.164-.153.328-.305.487-.464.123-.123.242-.249.354-.382.062-.074.05-.116-.03-.17a.645.645,0,0,0-.346-.112.954.954,0,0,0-.5.166,2.731,2.731,0,0,0-.59.42c-.066.064-.144.116-.237.19.008-.072.012-.116.017-.16.008-.073.017-.146.024-.219s-.01-.1-.1-.1a2.176,2.176,0,0,0-.075.223c-.021.1-.031.2-.047.3a.576.576,0,0,1-.169.335c-.208.207-.407.423-.6.645-.163.19-.316.389-.465.591a2.448,2.448,0,0,0-.359.582c-.027.073-.051.147-.082.218a.9.9,0,0,0-.068.5c.022.173.047.2.219.24.125-.14.253-.275.371-.42a6.94,6.94,0,0,0,.665-.991,5.878,5.878,0,0,0,.566-1.355.577.577,0,0,1,.213-.312c.2-.156.4-.312.607-.452a2.184,2.184,0,0,1,.4-.2.443.443,0,0,1,.414.028.248.248,0,0,1-.032.062q-.18.189-.363.373c-.048.049-.1.1-.146.144a1.361,1.361,0,0,1-.3.255,5.764,5.764,0,0,0-.626.368.739.739,0,0,0-.363.445,3.465,3.465,0,0,1-.162.408.88.88,0,0,0-.008.618.212.212,0,0,0,.329.123,1.732,1.732,0,0,0,.2-.2c.088-.1.171-.209.257-.315.106.135.139.1.229.022.148-.122.289-.254.434-.381.033-.029.067-.057.118-.1-.008.073-.009.122-.019.168-.032.152-.064.3-.1.455a.282.282,0,0,1-.062.1c-.1.117-.194.231-.288.349-.2.247-.392.5-.588.744-.017.021-.035.042-.051.065l-.257.388a1.888,1.888,0,0,0-.294.6c-.027.111-.008.164.093.21a.615.615,0,0,0,.483.024,1.03,1.03,0,0,0,.579-.521c.117-.243.2-.5.3-.755a3.517,3.517,0,0,0,.251-1.137.166.166,0,0,1,.048-.1q.224-.251.455-.5c.044-.048.095-.09.152-.144-.007.068-.013.116-.018.165a.2.2,0,0,0,.107.216.18.18,0,0,0,.217-.027c.089-.073.172-.151.258-.227l.186-.169c.009.061.011.1.019.132s.025.079.036.119c.034.116.074.152.191.156a.394.394,0,0,0,.122-.016c.189-.056.379-.109.565-.174.376-.131.745-.28,1.125-.4l.373-.116C1926.489,147.086,1926.49,147.05,1926.491,147.014Zm-6.709,2.181c-.05-.035-.048-.088-.052-.142a1.243,1.243,0,0,1,.1-.48,2.324,2.324,0,0,1,.431-.728c.278-.346.569-.681.855-1.021.011-.012.025-.022.037-.034l.03.023a6.444,6.444,0,0,1-1.4,2.387Zm2.661-.551a1.929,1.929,0,0,0-.058.212q-.082.276-.168.551a4.085,4.085,0,0,1-.129.388,1.867,1.867,0,0,1-.186.334.817.817,0,0,1-.52.352.7.7,0,0,1-.229-.009c-.062-.01-.075-.058-.054-.117a2.651,2.651,0,0,1,.335-.642c.186-.256.378-.508.57-.759.131-.171.267-.338.4-.507.013-.016.031-.03.058-.058a.544.544,0,0,1-.019.255Z" transform="translate(-59.047 -47.036)" fill="#fff"/>
  </g>
</svg>
