<svg xmlns="http://www.w3.org/2000/svg" width="482" height="286.131" viewBox="0 0 482 286.131">
  <g id="グループ_429" data-name="グループ 429" transform="translate(-1919 -262.11)">
    <path id="パス_915" data-name="パス 915" d="M2082.17,521.975c1.393-.207,2.37-.358,3.349-.494.629-.087,1.264-.135,1.892-.227a23.146,23.146,0,0,0,4-.647c4.181-1.4,4.473-.3,5.527,2.333.172.428.383.84.566,1.263a1.208,1.208,0,0,1,.03.322,2.577,2.577,0,0,1-2.948,1.6c-1.795-.111-3.626.46-5.448.671a54.413,54.413,0,0,1-5.716.49,9.837,9.837,0,0,1-2.769-.906c-.613,1.879-.126,3.781-.175,5.636-.022.826.174,1.655.209,2.485.218,5.1-1.8,7.39-6.562,9.716-.578.282-1.345.3-1.791.7-3.218,2.9-7.235,2.841-11.159,3.113a38.109,38.109,0,0,1-5.525.157,76.011,76.011,0,0,1-7.83-1.078c-.64-.118-1.188-.829-1.743-1.307a36.118,36.118,0,0,1-4.543-4.045c-2.406-2.922-5.215-5.587-4.9-10.066.175-2.465-.835-5.021-1.346-7.528-.273-1.34-.7-2.651-.918-4-.313-1.9.018-3.546,2.475-3.966-1.854-3.215.013-5.267,1.824-7.266a12.883,12.883,0,0,1,5.917-3.433c3.658-1.131,7.39-2.022,11.383-3.092.078-2.123.159-4.585.262-7.045.073-1.75.281-3.5.245-5.245a97,97,0,0,1,1.494-16.249,90.855,90.855,0,0,0,.415-10.19c.242-7.01.509-14.02.716-21.031.076-2.569.013-5.142.013-7.836-2-.8-2.58-1.507-2.263-3.966.528-4.085-.181-8.08-.459-12.119-.226-3.3.146-6.631.158-9.949.016-3.855-.11-7.711-.1-11.566.007-3.872.113-7.743.144-11.615.008-.911.653-2.242-.978-2.372-1.539-.122-1.426,1.258-1.455,2.179q-.186,5.8-.172,11.615c.006,2.906-.32,5.67-2.016,8.172-.6.89-.718,2.1-1.292,3.022-.309.492-1.118.671-1.7.992-.279-.626-.847-1.284-.783-1.871.19-1.726.7-3.413.952-5.135a12.479,12.479,0,0,0,.187-3.84,35.149,35.149,0,0,1,.04-9.659,13.555,13.555,0,0,0,.006-1.367l-3.647,1.084c-.176.053-.489.074-.508.161-.445,1.981-2.849,2.838-2.946,4.934-.076,1.645.193,3.3.275,4.959.114,2.3.056,4.617.328,6.9.364,3.053-.359,5.988-.585,8.979-.445,5.889-.647,11.8-.971,17.7-.061,1.1-.235,2.2-.327,3.306a11.918,11.918,0,0,0-.083,2.174c.154,1.532.531,3.049.589,4.581a79.506,79.506,0,0,1,.052,9.053c-.632,8.179-1.409,16.348-2.233,24.511-.4,3.933-1.051,7.84-1.543,11.764a20.244,20.244,0,0,0-.1,3.027c.025.979-.061,1.841-1.184,2.258-1.376-.782-1.458-2.15-1.4-3.386.208-4.512.532-9.02.847-13.526.18-2.577.505-5.146.629-7.725.2-4.239.372-8.482.412-12.725a98.5,98.5,0,0,0-.26-11.049,117.806,117.806,0,0,1-.013-17.989c.231-4.7.779-9.383.919-14.081.179-6,.1-12.005.1-18.008a5.328,5.328,0,0,0-.494-1.315,11.988,11.988,0,0,0-1.111,1.831c-.515,1.447-1.1,2.655-2.874,3.018-.534.109-1.183,1.207-1.228,1.888-.194,2.938-.264,5.89-.228,8.834.048,3.963.317,7.923.34,11.885.019,3.3-.279,6.607-.248,9.909.023,2.463.219,4.914.041,7.39-.413,5.758-.977,11.531-.886,17.289a43.06,43.06,0,0,1-.581,8.765c-1.237,6.493-.793,12.965-.387,19.483.3,4.77.082,9.57.185,14.354a79.378,79.378,0,0,0,.507,9.1c.439,3.184-.618,5.923-1.791,8.863l-2.766.171a60.766,60.766,0,0,1-.67-6.041c-.1-7.846-.045-15.693-.136-23.538-.042-3.692-.451-7.384-.394-11.072.061-3.865.495-7.724.742-11.587.417-6.524.921-13.046,1.192-19.576.245-5.9.325-11.807.3-17.71-.028-6.088-.276-12.174-.418-18.261-.025-1.091,0-2.184,0-3.207l-3.4-1.306-4.258,3.932c1.907,1.714,1.59,4.179,1.679,6.6a31.783,31.783,0,0,0,.789,4.036,93.487,93.487,0,0,1,.558,23.7c-.276,3.254-.021,6.554-.007,9.833,0,.83.023,1.66.01,2.49a56.549,56.549,0,0,0-.073,6.62,85.825,85.825,0,0,1,.264,12.4c-.215,5.249.271,10.524.31,15.788.024,3.314-.238,6.628-.335,9.943a46.884,46.884,0,0,0-.047,6.627,37.19,37.19,0,0,1-.5,11.829,22.447,22.447,0,0,0-.04,4.17c1.735,0,3.44-.009,5.145,0a20.44,20.44,0,0,1,3.307.1,4.221,4.221,0,0,1,3.511,4.622c-.079,1.071-.848,1.688-1.67,1.189-2.014-1.221-3.986-.016-5.965-.182-1.454-.123-2.935.119-4.4.109-1.818-.012-3.678-.644-5.4.495a1.206,1.206,0,0,1-.81.09c-3.054-.587-5.991.3-8.97.668a5.06,5.06,0,0,1-1.648,0,39.55,39.55,0,0,0-10.97-.547c-3.272.212-6.6-.517-9.894-.491-3.473.027-6.951.389-10.411.76a8.777,8.777,0,0,0-2.558,1.269,6.285,6.285,0,0,0-5.3-1.538c-1.416.148-2.9-.539-4.473-.139-.888.226-1.3-.7-1.641-1.542-.567-1.406-1.528-1.756-3-1.341-2.681.756-3.421.231-3.23-2.51.365-5.245.927-10.479,1.2-15.728.279-5.343.272-10.7.478-16.047a20.324,20.324,0,0,1,.71-3.428,14.06,14.06,0,0,0,.618-2.957c-.032-4.64.926-9.144,1.681-13.682.589-3.542,1.059-7.1,1.639-10.648.566-3.459,1.235-6.9,1.8-10.36a49,49,0,0,0,.811-6.291c.128-4.039.037-8.084.037-12.3-.51.231-1.049.5-1.6.724-3.386,1.4-6.77,2.8-10.166,4.173-4.429,1.788-8.832,3.649-13.318,5.283a75.014,75.014,0,0,1-8.995,2.609,3.813,3.813,0,0,1-4.442-2.012c-1.315-2.307-2.913-4.457-4.162-6.8a12.3,12.3,0,0,1-.679-3.5c5.912-2.4,11.53-4.911,17.307-6.976,6.668-2.383,13.517-4.258,20.21-6.578,4.262-1.476,8.385-3.356,12.564-5.069a2.794,2.794,0,0,0,.608-.451c-1.091-3.075-.471-4.3,2.7-4.933,5.843-1.166,10.945-4.046,16.264-6.512,3.533-1.637,6.878-3.984,10.985-4.247a3.408,3.408,0,0,0,1.815-.622c3.282-2.613,6.511-5.292,9.993-8.143-3.29-1.8-6.368-3.479-9.449-5.154-.242-.132-.527-.187-.766-.323a9.333,9.333,0,0,1-5.021-8.28c-.27-6.618-.753-13.227-.995-19.845-.119-3.223.129-6.459.168-9.689.054-4.521.056-9.043.106-13.565.015-1.374.124-2.747.176-4.121.165-4.4.282-8.813.513-13.215a3.5,3.5,0,0,0-.971-3.035,8.135,8.135,0,0,1-2.392-4.551,30.519,30.519,0,0,0-1.242-3.484,10.99,10.99,0,0,1,1.941-1.176c1.654-.567,2.889-1.177,2.938-3.365.029-1.3,1.482-2.114,2.891-2.073,1.552.045,3.1.329,4.645.521a1.782,1.782,0,0,1,1.752,2.295c-.26,1.462.547,2.153,1.637,2.843,2.116,1.341,2.147,2.238.38,4.02-1.32,1.332-2.24,2.671-1.623,4.847.434,1.533.092,3.3,0,4.964-.253,4.5-.711,9-.8,13.5-.09,4.6.285,9.2.232,13.8-.046,3.924-.65,7.85-.563,11.765.078,3.526-.6,7.116.541,10.593.057.174.188.407.125.527-1.216,2.289.566,4.459.27,6.721a1.8,1.8,0,0,0,.584,1.435,34.83,34.83,0,0,0,5.041,3.221,60.486,60.486,0,0,0,6.2,2.252c.516.18,1.071.259,1.57.472,2.078.887,2.015.841,3.515-.636,1.88-1.852,4.108-3.4,5.744-5.438a10.664,10.664,0,0,1,7.172-4.139c.731-.105,1.393-.846,2.039-1.356,1.713-1.351,3.4-2.736,5.588-4.506l-4.264-.873a38.531,38.531,0,0,1-4.324-.939,2.028,2.028,0,0,1-1.177-1.482c.016-.861.858-1.083,1.68-.948,1.636.269,3.274.532,4.905.826,1.495.268,3.132-.369,4.514.812.248.212,1.1-.033,1.513-.306,2.041-1.345,4.028-2.771,6.281-4.339-5.314-2.306-10.18-4.482-15.1-6.522-1.853-.768-3.844-1.2-5.759-1.827a13.3,13.3,0,0,1-2.279-.958c-.917-.506-.684-1.163.035-1.914,8.541,1.587,16.336,5.674,25.052,7.9l5.133-6.252c-2.149-2.732-5.317-3.961-8.041-5.742-3.846-2.514-7.964-4.609-11.882-7.021a34.742,34.742,0,0,1-4.745-3.713,1.976,1.976,0,0,1-.181-1.708c.078-.24,1.013-.437,1.429-.288a21.014,21.014,0,0,1,3.249,1.532c3.111,1.762,6.217,3.536,9.279,5.381,1.494.9,2.838,2.051,4.336,2.944,2.733,1.628,5.537,3.136,8.3,4.721,1.2.688,2.124.722,3.078-.535a34.259,34.259,0,0,1,3.187-3.268c-1.43-1.68-3.122-2.622-4.293-4.278a22.373,22.373,0,0,0-4.892-4.416c-2.823-2.158-5.876-4.028-8.614-6.284-3.252-2.682-6.219-5.706-9.41-8.466-2.575-2.225-5.3-4.28-7.958-6.406a16.6,16.6,0,0,1-1.933-1.531c-.713-.771-.8-1.644.312-2.555a4.651,4.651,0,0,1,1.625.549c4.043,3.34,7.954,6.845,12.071,10.088,4.1,3.228,8.127,6.573,12.805,9a27.887,27.887,0,0,1,7.829,5.588c1.715,1.838,4,3.146,5.955,4.636l4.225-4.191c-2.136-2.136-4.225-4.312-6.409-6.386-2.6-2.468-5.264-4.867-7.932-7.26-1.147-1.028-2.445-1.895-3.542-2.97a39.567,39.567,0,0,1-2.743-3.387c.96-.149,1.612-.47,1.985-.27a24.831,24.831,0,0,1,4.7,2.9c2.4,2.089,4.566,4.435,6.833,6.671a2.135,2.135,0,0,0,.62.54c2.525.949,4.068,3.134,6.057,4.757.982.8,2.043,1.506,3.419,2.51,2.626-.681,3.9-3.337,5.873-5.727-2.678-2.957-5.3-5.888-7.962-8.781-1.932-2.1-3.929-4.136-5.876-6.22-3.266-3.495-6.492-7.027-9.776-10.5-2.711-2.871-5.488-5.68-8.221-8.531a4.962,4.962,0,0,1-.974-1.316c-.551-1.223.312-2.392,1.577-2.011a9.571,9.571,0,0,1,3.658,1.736c2.571,2.327,4.948,4.87,7.359,7.369a15.763,15.763,0,0,1,1.217,1.821,8.566,8.566,0,0,0,1.38,1.7c1.663,1.357,3.4,2.622,5.1,3.936a2.757,2.757,0,0,1,.787.767c2.483,4.635,6.845,7.579,10.219,11.409,1.487,1.688,2.879,3.459,4.541,5.467,1.566-.027,2.2-1.77,3.673-3.033-1.2-1.9-2.289-3.787-3.525-5.576-2.088-3.022-4.238-6-6.418-8.959-.929-1.259-2.027-2.392-3-3.617q-7.152-8.966-14.276-17.954c-.331-.418-.8-.879-.832-1.345-.04-.582.22-1.653.5-1.706a9.129,9.129,0,0,1,3.175.019c.451.078.848.682,1.2,1.106,2.639,3.187,5.258,6.392,7.89,9.586,2.8,3.4,5.936,6.582,8.315,10.254q3.06,4.722,6.331,9.275c1.269,1.769,2.529,3.543,3.82,5.354l6.547-3.939-12.489-17.426c.41-1.91.41-1.91,3.467-2.837.954,1.117,2.114,2.275,3.041,3.6,3.14,4.475,6.169,9.027,9.308,13.5.676.963,2.039,1.585,2.4,2.6,1.187,3.4,3.905,5.7,5.693,8.649a27.534,27.534,0,0,0,2.121,3.809c3.233,3.762,6.614,7.4,9.945,11.072.307.339.692.61.986.958,1.418,1.679,2.872,3.332,4.2,5.08a22.6,22.6,0,0,1,1.8,3.1,21.3,21.3,0,0,0,1.577,3.117,189.888,189.888,0,0,0,16.782,18.467c2.769-2.278,5.275-4.584,8.032-6.538,2.828-2,5.462-4.29,8.87-5.5,3.014-1.067,5.77-2.842,8.7-4.167a43.781,43.781,0,0,1,12.778-3.24c3.184-.4,6.36-.857,9.54-1.285,5.048-.681,10.129-1.014,15.013.7,7.268,2.544,14.857,4.317,21.37,8.758,2.243,1.53,4.928,2.469,7.005,4.172,2.974,2.438,5.585,5.32,8.33,8.034a21.676,21.676,0,0,1,2.226,2.443c3.363,4.533,6.309,9.275,7.742,14.838.755,2.932,1.924,5.76,2.635,8.7.864,3.575,1.4,7.227,2.159,10.83a23.068,23.068,0,0,1,.237,7.662,3.294,3.294,0,0,0,0,.829c.33,2.512.582,5.038,1.04,7.527a10.753,10.753,0,0,1-.571,5.162c-1.185,3.955-2.142,8-3.638,11.832a9.946,9.946,0,0,1-6.084,6,11.033,11.033,0,0,1,.149-1.713c.548-2.022,1.817-3.8,1.721-6.068-.033-.785.99-1.56,1.173-2.416,1.052-4.941,3.334-9.624,3.155-14.824-.016-.459-.055-.919-.106-1.376-.293-2.626-1.066-5.3-.79-7.866.512-4.756-.8-9.144-1.844-13.609a64.563,64.563,0,0,0-4.739-14.4,36.65,36.65,0,0,0-6.218-9.052c-1.7-1.78-3.261-3.711-5.092-5.34a45.331,45.331,0,0,0-6.974-5.411c-4.019-2.36-8.276-4.315-12.432-6.441a3.876,3.876,0,0,0-.491-.257q-4.819-1.672-9.643-3.332a30.316,30.316,0,0,0-15.55-1.086c-4.9.881-9.855,1.443-14.749,2.344a22.178,22.178,0,0,0-5.465,1.912,145.96,145.96,0,0,0-13.8,7.025,35.9,35.9,0,0,0-9.87,8.387q4.219,4.055,8.46,8.124c.534.51,1.159.935,1.644,1.486,4.988,5.669,10.487,10.818,15.952,16.016,3.539,3.366,7.433,6.393,10.743,9.91,4.76,5.056,10.326,9.048,15.543,13.5a3.408,3.408,0,0,0,3.767.83c3-1.119,6.02-2.207,9.087-3.119a45.534,45.534,0,0,0,12.486-5.6c3.98-2.657,7.894-5.414,11.816-8.157a6.793,6.793,0,0,0,1.054-1.2c-4.261-2.239-4.261-2.239-3.184-5.155,2.67-.139,7.906,2.981,9.508,5.654,2.215,3.7,1.729,7.354-.229,11.005-2.19.256-2.951-.34-3-2.527-.032-1.458.291-2.971-1.106-4.489a13.282,13.282,0,0,0-2.127,1.3,67.016,67.016,0,0,1-28.649,15.533c-1.052.265-2.15.346-3.521.557,1.577,1.438,2.961,2.705,4.349,3.966,4.289,3.9,8.281,8.209,12.958,11.568a112.508,112.508,0,0,1,11.625,10.019,100.124,100.124,0,0,0,7.979,6.338,4.182,4.182,0,0,0,1.289.408,5.374,5.374,0,0,1,1.556.523c2.374,1.73,4.77,3.443,7,5.349a2.877,2.877,0,0,1,.692,2.465,1.817,1.817,0,0,1-2.5,1.03c-.323-.1-.663-.152-.977-.222-.116.3-.286.523-.231.62,2.36,4.081,1.383,8.4.905,12.677a29.45,29.45,0,0,1-.827,4.344c-1.268,4.716-.327,9.557-.874,14.315-.242,2.105-.161,4.246-.282,6.367a5.152,5.152,0,0,1-.426,1.869,5.913,5.913,0,0,0-.59,4.513c.209.682-.23,1.564-.4,2.483,1.093.391,2.425.746,2.572,2.5a3.417,3.417,0,0,1-1.7,3.486c-1.729,1.115-3.187,2.486-5.654,2.083-1.392-.228-3.041.6-4.468,1.2-3.178,1.343-6.29,2.845-9.323,4.233a21.616,21.616,0,0,1-2.488-1.929c-1.019-1.083-1.835-2.206-1.311-3.955.463-1.545-.347-2.34-1.635-1.709-2.7,1.318-5.626.548-8.4,1.222a72.739,72.739,0,0,1-8.443,1.31c-5.56.674-11.093,1.77-16.747,1.221a7.3,7.3,0,0,0-1.909.161c-1.964.336-1.828.152-2.945-1.513-2.231-3.326-2.593-6.989-2.7-10.81-.072-2.672-.487-5.333-.643-8.005-.256-4.39.8-8.571,1.836-12.811.658-2.7.391-5.656.347-8.494-.026-1.739-.532-3.467-.616-5.21a78.552,78.552,0,0,1-.187-10.228,67.068,67.068,0,0,0,.3-12.935c-.1-.909-.275-1.816-.286-2.726-.013-1.062-.254-2.156,1.01-2.917,1.333-.8,1.992.138,3.121,1.22l.353-3.309c-2.629,1.416-4.185.194-5.8-1.133-1.2-.988-2.633-1.69-3.855-2.655-1.864-1.473-3.655-3.043-5.432-4.621a5.87,5.87,0,0,1-.867-1.354l-.671.311c-.333,3.2-.666,6.4-1.01,9.7h-2.266a3.857,3.857,0,0,1-.3-.925c-.046-3.686-.111-7.373-.082-11.06a3.8,3.8,0,0,0-1.35-3.155,20.166,20.166,0,0,1-2.079-2.562,5.9,5.9,0,0,0-2.178-1.85q-.2,9.807-.4,19.614l-.482.137c-.241-.286-.653-.551-.692-.863a40.5,40.5,0,0,1-.4-4.657c-.042-5.177.015-10.354-.012-15.531-.013-2.4-1.97-3.485-3.543-5.288.637,3.465,1.309,6.5,1.717,9.561.255,1.918-.665,2.8-2.435,2.934a1.734,1.734,0,0,1-2.037-1.434,9.685,9.685,0,0,1-.448-2.434,80.746,80.746,0,0,1,.41-8.21,5.463,5.463,0,0,0-1.694-5.224,21.052,21.052,0,0,0-3.389-2.995c0,.664-.047,1.331.007,1.99a97.924,97.924,0,0,1-.065,19.593,25.453,25.453,0,0,0,.092,4.385c.14,2.5.334,5,.5,7.5.029.449.2,1.038-.015,1.328-1.116,1.515-.653,3.239-.61,4.83a48.783,48.783,0,0,1-1.514,13.971c-.725,2.73-1.063,5.562-1.572,8.349-.033.181.029.435-.072.539-.413.423-.872.8-1.314,1.194-.338-.477-.976-.961-.965-1.43a76.113,76.113,0,0,1,.487-8.566,149.576,149.576,0,0,0,.987-19c.083-8.579.459-17.155.58-25.735a79.062,79.062,0,0,0-.494-9.352c-.145-1.377-.215-2.55,1.128-3.63l-6.294-9.081c-.209,2.087-.463,3.575-.485,5.067-.037,2.561.2,5.129.091,7.684-.288,6.957-.717,13.908-1.034,20.864-.054,1.172.3,2.363.24,3.534-.266,5.159-.221,10.378-1.043,15.453-.853,5.259-.232,10.494-.67,15.719-.3,3.576-.654,7.148-.906,10.727-.116,1.634-.01,3.281-.065,4.921-.2,5.9-.4,11.8-.643,17.7-.13,3.119-.444,6.231-.513,9.35-.085,3.772.085,7.55-.044,11.319-.033.976-.769,1.928-1.25,3.047l4.5.268c0-3.412-.109-6.809.025-10.2.217-5.522.11-11.059,1.181-16.541a54.5,54.5,0,0,0,.483-7.722c.055-1.108,0-2.245,1.332-2.794,1.267.57.922,1.724.843,2.639-.418,4.868-1.2,9.721-1.324,14.593-.142,5.51-.677,11.057.36,16.562a19.5,19.5,0,0,1,.028,3.417h5.048c-1.473-2.159-1.266-4.095-.891-6.086a15.093,15.093,0,0,0-.027-2.736c0-3.5-.076-7.011.04-10.511.263-7.936.651-15.867.921-23.8a6.207,6.207,0,0,1,1.776-4.149,5.243,5.243,0,0,1,.7,1.771c-.008,1.746-.243,3.49-.309,5.237-.23,6.088-.648,12.18-.578,18.266.08,6.979.6,13.953.944,20.928a7.086,7.086,0,0,0,.3,1.206c1.583.069,3.13.159,4.679.2,2.209.059,4.423.012,6.624.165a2.527,2.527,0,0,1,1.761.99,16.778,16.778,0,0,1,1.81,4,3.143,3.143,0,0,1-.531,2.236c-.962,1.483-.729,2.741.326,4.148,2.48-.276,4.955-.441,7.387-.862a16.037,16.037,0,0,0,4.411-1.456c.56-.282.913-1.314,1.04-2.06.483-2.823,1.117-3.248,3.956-3.4,3.742-.2,7.465-.741,11.2-1.019a49.969,49.969,0,0,1,6.057-.044c1.734.082,3.454.491,5.188.561a17.541,17.541,0,0,0,3.8-.353c6.064-1.1,12.124-2.184,18.336-1.775a1.585,1.585,0,0,1,1.606,1.815c0,.99-.82,1.058-1.612,1.045-1.744-.027-3.492-.106-5.231-.025a10.952,10.952,0,0,0-6.091,2.261,8.13,8.13,0,0,1-2.966,1.231c-4.917,1.344-9.912.682-14.873.866a22.666,22.666,0,0,0-4.9.609c-2.591.68-5.144,1.378-7.858,1.029-1.279-.165-1.877.5-2.014,1.7-.114,1-.245,2-.371,3.024-1.706.7-3.279,1.437-4.913,1.987a11.549,11.549,0,0,1-2.656.318c-.35.031-.79-.149-1.047,0-2.921,1.746-6.161.339-9.229.95-2.186.435-4.543-2.859-4.527-5.7,0-.908.061-1.816.065-2.724.011-2.522-.93-3.591-3.334-3.582-4.019.015-8.037.118-12.055.187a4.559,4.559,0,0,1-.827.048c-5.615-.978-11.207.5-16.822.173-1.242-.073-2.527.622-3.773.565-2.957-.137-5.884,1.019-8.888-.157-3.677-1.441-7.644-.969-11.489-1.083-1.282-.038-2.59.833-4.357,1.454-.432-.278-1.54-.621-2.008-1.365a25.775,25.775,0,0,1-2.471-5.19c-.322-.921.763-1.8,1.769-1.429,2.735,1.019,5.425.567,8.2.244a65.134,65.134,0,0,1,7.325-.056c.277-1.943.683-4,.845-6.077q.731-9.372,1.293-18.756c.208-3.4.279-6.81.408-10.215a7.08,7.08,0,0,1,.062-1.655,4.756,4.756,0,0,1,.822-1.229c.374.436,1.018.841,1.073,1.315a42.4,42.4,0,0,1,.147,4.426q.069,6.636.115,13.273c.021,3.228.113,6.456-.917,9.6a11.071,11.071,0,0,0-.205,2.463c-.165,1.912-.286,3.83-.525,5.733-.311,2.484.3,3.189,2.846,2.976a22.782,22.782,0,0,0,2.4-.454c.095-.752.191-1.289.227-1.83q.638-9.664,1.259-19.33c.394-6.259.71-12.523,1.17-18.778.223-3.025.708-6.031,1.056-9.048.539-4.676,1.025-9.359,1.615-14.028.176-1.388.1-3.026,2.193-3.753a13.852,13.852,0,0,1,.474,2.409c.06,3.6.17,7.2.02,10.792-.134,3.213-.584,6.412-.9,9.618-.008.092-.032.182-.039.274-.438,5.973-1.055,11.94-1.265,17.921-.253,7.205-1.123,14.334-2.029,21.466a32.894,32.894,0,0,1-.83,3.447h9.565c.144-4.247.323-8.364.413-12.483.088-4.047-.093-8.108.162-12.142.569-9.015,1.437-18.011,1.986-27.026.359-5.9.284-11.825.566-17.73.255-5.335.855-10.654,1.072-15.989.194-4.783.072-9.578.089-14.368,0-.924-.03-1.848.008-2.77q.324-7.992.678-15.983c.091-2.028.3-4.054.319-6.082.013-1.435.451-2.971-.663-4.26a.884.884,0,0,1-.134-.775c1.133-2.331-.9-3.159-2.188-4.89a10.647,10.647,0,0,0-.564,2.105q-.067,3.287.01,6.576c.083,3.648.225,7.3.315,10.942.018.731-.1,1.465-.131,2.2-.087,2.021-.566,4.129-.158,6.047.879,4.14-.153,8.057-.745,12.042-.284,1.9-.77,3.782-1,5.691-.5,4.11-.833,8.241-1.363,12.347a33.627,33.627,0,0,1-1.14,4.356l-.574-.063a5.016,5.016,0,0,1-.369-1.428c.353-7.5.766-15,1.107-22.506.109-2.4.013-4.807.072-7.21.084-3.411.247-6.82.333-10.23.035-1.384-.036-2.772-.069-4.157-.054-2.3-.179-4.6-.161-6.906.034-4.618.19-9.236.206-13.854a5.266,5.266,0,0,0-4.554-4.955q-4.26-.414-8.529-.737a9.324,9.324,0,0,0-1.789.249c1.52,2.647.921,5.3.819,7.938-.063,1.619.442,3.264.354,4.878-.139,2.548-.554,5.081-.87,7.618a6.451,6.451,0,0,0-.3,1.884c.916,4.418-.649,8.542-1.4,12.764-.181,1.02-.935,2.046.04,3.1.174.187.054.706-.019,1.053-.7,3.317-.051,6.585.209,9.882.081,1.026-.688,2.12-1.092,3.253-.16,2.134-.237,4.425-.534,6.686a7.8,7.8,0,0,0,.372,4.8,5.323,5.323,0,0,1,.359,2.418c-.079,3.593-.17,7.189-.368,10.778a91.965,91.965,0,0,1-.932,11.484,47.263,47.263,0,0,0-.851,7.894c-.032,2.473.3,4.953.238,7.424-.089,3.319-.422,6.631-.624,9.948-.156,2.575-.225,5.156-.416,7.729-.218,2.939-.529,5.871-.8,8.807a6.761,6.761,0,0,0-.088,1.34c.39,3.517-.542,4.656-4.2,4.892-.106.37-.254.784-.339,1.212-.242,1.218-1.085,1.636-2.011,1.015-1.383-.926-2.822-.6-4.276-.673-5.667-.284-11.16,1.192-16.755,1.633a1.7,1.7,0,0,0-1.168,1.154C2083.472,519.436,2083.511,519.437,2082.17,521.975Zm-13.019-148.947.076.039c-2.1-1.023-4.09.2-6.276.051-.077.931-.144,1.647-.194,2.364-.234,3.385-.411,6.775-.707,10.155-.391,4.479-1.013,8.942-1.282,13.427-.315,5.245-.365,10.506-.5,15.761a4.986,4.986,0,0,0,.286,1.233l.538.032c.207-1.017.376-2.044.633-3.048a10.118,10.118,0,0,1,.863-2.57,1.749,1.749,0,0,1,2.534-.886,12.587,12.587,0,0,0,7.764.989c2.353-.378,4.692-.947,7.059-1.114,1.824-.129,3.556-1,5.543-.288,1.289.464,2.881.087,4.1.087.248-2.882.628-5.5.67-8.117.121-7.378.093-14.759.151-22.138a7.276,7.276,0,0,1,.331-2.428,1.424,1.424,0,0,1,2.575-.412c.537.621.985,1.32,1.457,1.96a13.334,13.334,0,0,0-.511,2.191c-.169,2.665-.338,5.334-.353,8-.011,1.9.321,3.8.329,5.694.012,2.659-.184,5.319-.2,7.979-.016,2.59.036,5.169-2.1,7.579,5,1.385,9.548-.2,13.957.053.228-.481.372-.646.375-.812.09-4.791.049-9.588.281-14.372.179-3.67.7-7.323,1.073-10.983.11-1.065.65-1.675,2.132-1.568a19.06,19.06,0,0,1,1.238,7.091q-.391,7.446-.907,14.886a7.658,7.658,0,0,1-.72,2.865,3.444,3.444,0,0,0-.214,3.442l5.731.741V374.371a44.321,44.321,0,0,0-14.267-.228c0,3.8.029,7.37-.007,10.942-.037,3.691-.087,7.383-.224,11.07-.13,3.527-.381,7.049-.588,10.745-2.04-.408-1.787-1.944-1.868-2.9a124.365,124.365,0,0,1,.106-20.416c.245-3.074.668-6.226-.562-9.482-2.09.109-4.095.255-6.1.306-2.067.052-4.137.011-6.513.011a4.881,4.881,0,0,1,.738,5.081,2.706,2.706,0,0,0,.016,1.1c.133,3.116.228,6.233.413,9.345.175,2.932.7,5.869.582,8.784-.077,1.922-.959,3.828-1.609,5.7-.145.416-.828.644-1.3.983a4.248,4.248,0,0,1-1.687-3.424c.056-3.77.263-7.546.126-11.309-.2-5.51-.927-11.007.029-16.66C2077.8,372.9,2073.453,373.207,2069.151,373.028ZM1969.479,448.3c-1.144,1.122-.921,2.16-.916,3.128.022,4.058.1,8.117.082,12.176-.021,5.6.017,11.211-.21,16.807-.146,3.583.782,7.11.091,10.741-.492,2.587-.241,5.315-.333,7.98-.017.487-.092.971-.15,1.548-.5-.149-.824-.15-1-.313a2.148,2.148,0,0,0-3.171.051,2.519,2.519,0,0,0-.672,3.022,7.6,7.6,0,0,1,.493,2.1c.181,2.935.287,5.876.439,8.813.032.621-.073,1.4.25,1.828a5.794,5.794,0,0,1,.882,5.218,11.217,11.217,0,0,0-.026,2.389l2.4-1.522c1.523.8,2.847,2.438,4.718.848-.184-3.148-.469-6.18-.508-9.216-.037-2.837.259-5.676.281-8.516.041-5.251-.489-10.491.247-15.756a38.909,38.909,0,0,0,.087-11.837c-.225-1.353-.421-2.955.905-4.117a1.95,1.95,0,0,1,1.747,1.907,18.528,18.528,0,0,0,.532,4.34,29.63,29.63,0,0,1,1.243,8.7c.114,3.39.537,6.769.666,10.159a45.574,45.574,0,0,1-.093,9.074,29.655,29.655,0,0,0-.026,10.121c.257,1.466.473,2.94.683,4.257,3.035-.153,6.219-.774,9.252-.341a85.275,85.275,0,0,0,9.913.525c2.391.063,4.783.1,7.173.178.945.029,1.887.118,2.635.167-.223-4.938-.456-9.514-.631-14.092-.275-7.18-.715-14.361-.716-21.542,0-9.674.394-19.348.537-29.024.134-9.056.169-18.113.235-27.169.032-4.341.016-8.683.065-13.023.011-.963-.249-1.671-1.244-1.841-.933-.16-1.86.822-1.919,1.9-.215,3.951-.4,7.9-.68,11.849-.076,1.081-.1,2.432-.737,3.141a3.384,3.384,0,0,0-.776,2.772c.108,2.2.21,4.409.419,6.6.6,6.271-.858,12.381-1.391,18.562a32.736,32.736,0,0,1-.27,3.3c-.082.435-.643,1.1-.979,1.092a2.75,2.75,0,0,1-1.535-.806c-.22-.194-.2-.687-.242-1.049a102.043,102.043,0,0,1-.326-19.623c.589-8.569,1.258-17.133,1.857-25.7a4.425,4.425,0,0,0-.476-1.425c-2.53,2.418-2.289,6.3-5.519,8.165,1.484,2.969,1.661,6.2,1.577,9.4-.233,8.941-.61,17.878-.939,26.816-.156,4.229-.5,8.46-.452,12.686.041,3.676.6,7.344.755,11.023.1,2.452-.078,4.911.768,7.281a2.443,2.443,0,0,1-.035.824c-.137,4.042-.3,8.082-.4,12.124-.1,4.153-.075,8.309-.219,12.459-.061,1.776-.485,3.488-2.634,3.9a3.333,3.333,0,0,1-1.614-3.1c-.015-2.214-.1-4.428-.085-6.641.027-3.234.112-6.467.191-9.7.092-3.771.453-7.554.252-11.308-.354-6.633-1.193-13.239-1.547-19.872-.275-5.148-.236-10.322-.126-15.48.144-6.734.471-13.464.766-20.193a39.153,39.153,0,0,1,1.966-12.188,11.094,11.094,0,0,0,.581-6.252c-1.45-.231-1.893.462-1.92,1.694-.029,1.38-.092,2.761-.2,4.136-.22,2.747-1.02,3.078-3.309,1.688a3.521,3.521,0,0,0-2.547-.168c-.349.1-.511,1.206-.564,1.871-.088,1.089.036,2.193-.026,3.286-.146,2.571-.444,5.138-.5,7.71-.05,2.285.137,4.575.232,6.862.088,2.11.147,4.222.3,6.327.127,1.732.412,3.451.561,5.181.167,1.923.3,3.85.375,5.778.169,4.317.32,8.635.428,12.954.084,3.385-.006,6.776.158,10.156.259,5.324.821,10.637.96,15.963.1,3.864-.274,7.742-.442,11.613-.012.275.038.644-.115.8a3.208,3.208,0,0,1-1.4,1.064c-.322.061-.932-.524-1.143-.952a6.872,6.872,0,0,1-.394-1.873c-.167-.992-.3-1.989-.48-2.979-.472-2.62-1.167-5.219-1.39-7.859-.271-3.21-.106-6.453-.2-9.68-.367-11.991-.8-23.981-1.138-35.974-.2-6.913-.233-13.831-.4-20.745-.056-2.26-.3-4.514-.477-6.979l-2.565.7c-.188,1.051-.055,2.194-.563,2.8-1.6,1.933-1.058,4.207-1.323,6.341a21.768,21.768,0,0,0,.036,3.288c.107,3.759.666,7.5.083,11.284a47.993,47.993,0,0,0-.29,5.773c-.029.9,0,1.806.049,2.706.117,2.291.351,4.581.352,6.871,0,1.479-.7,1.787-2.217,1.3C1970.833,461.25,1970.175,454.958,1969.479,448.3Zm44.693-49.43c1.773-1.039,3.394-2.081,5.1-2.967,2.75-1.43,6.358-1.442,7.9-4.844.03-.066.163-.08.239-.132,1.519-1.023,3.078-1.994,4.548-3.084,2.592-1.922,5.275-3.758,7.659-5.919,3.54-3.209,6.833-6.688,10.265-10.017,5.688-5.516,11.412-11,17.095-16.517a30.838,30.838,0,0,0,2.352-2.717c1.8-2.215,3.445-4.578,5.4-6.645,3.544-3.74,7.284-7.3,10.917-10.953,2.141-2.154,4.275-4.317,6.336-6.547,1.8-1.954,4.443-1.922,6.657-2.878a2.378,2.378,0,0,1,2.962,1.411,16.884,16.884,0,0,0,1.4,2.361c2.413,3.35,4.7,6.807,7.336,9.975,3.086,3.711,5.28,8.2,9.416,11.018.287.195.423.6.662.879,3.214,3.768,6.485,7.49,9.633,11.314,1.842,2.238,4.174,4.1,5.394,6.833a11.7,11.7,0,0,0,1.316,2.406c4.023,5.217,7.656,10.745,12.439,15.357a42.458,42.458,0,0,1,2.839,3.7,11.152,11.152,0,0,0,2.312,2.3c2.953,1.931,5.143,4.61,7.36,7.259,1.528,1.825,2.892,3.787,4.387,5.641.977,1.211,2.033,2.362,3.1,3.5,2.465,2.63,4.958,5.234,7.806,8.236a5.435,5.435,0,0,0-.112-1.4c-.922-1.669-1.26-3.643-2.917-4.94a1.873,1.873,0,0,1-.326-2.737c.691-.824,1.638-.633,2.517-.113.453.268.947.465,2.051,1a12.838,12.838,0,0,0-.861-2.923c-2.081-3.245-4.246-6.437-6.412-9.627-1.343-1.976-2.659-3.979-4.133-5.854-1.925-2.449-3.972-4.8-6.01-7.16-1.382-1.6-2.857-3.116-4.26-4.7-2.445-2.754-4.824-5.568-7.311-8.283s-5.126-5.271-7.58-8-4.683-5.66-7.139-8.386c-4.183-4.645-8.512-9.158-12.1-14.308a23.681,23.681,0,0,0-2.445-2.981c-2.373-2.438-5.009-4.618-6.77-7.624a15.938,15.938,0,0,0-2.541-2.9c-3.077-3.129-6.189-6.226-9.279-9.343a3.025,3.025,0,0,0-4.782.363,16.5,16.5,0,0,1-1.683,1.7,56.931,56.931,0,0,0-4.846,4.389c-1.852,2.115-3.147,4.754-6.032,5.793a1.043,1.043,0,0,0-.556.6c-.548,1.748-2.239,2.386-3.378,3.557-2.158,2.219-4.268,4.486-6.426,6.706-2.021,2.079-4.632,3.608-5.91,6.386-.09.2-.49.234-.722.382-3.968,2.542-6.761,6.179-9.4,9.987a21.465,21.465,0,0,1-3.044,3.5c-1.683,1.559-3.515,2.957-5.278,4.431-3.1,2.6-6.194,5.211-9.316,7.786a3.168,3.168,0,0,1-1.686.9c-2.789-.009-4.727,1.49-6.485,3.381-.408.438-.775.915-1.153,1.38s-.728.993-1.151,1.431c-.562.581-1.253,1.046-1.77,1.661a31.274,31.274,0,0,1-10.19,8.261,21.108,21.108,0,0,0-6.157,4.112Zm3.49,122.724c0-1.867-.005-3.612,0-5.357.022-6.737.137-13.475.045-20.211-.081-5.994-.455-11.985-.579-17.979-.108-5.252-.027-10.508-.074-15.762-.016-1.842-.252-3.684-.238-5.525.05-6.271.08-12.544.28-18.811.248-7.744.67-15.482.989-23.224.066-1.626.009-3.257.009-4.731l-6.449-.633c0,2.479.071,4.869-.02,7.252s-.327,4.754-.538,7.128c-.213,2.406-.958,4.773-.4,7.237.107.467-.237,1.029-.34,1.554a3.247,3.247,0,0,0-.153,1.28,45.4,45.4,0,0,1,.907,14.007c-.171,2.291-.243,4.593-.269,6.891-.063,5.6-.04,11.209-.12,16.812-.031,2.208-.359,4.414-.353,6.619.014,4.781.162,9.562.246,14.342.091,5.159.165,10.318.266,15.476.011.545.234,1.089.228,1.632-.027,2.472.219,5.011-.274,7.393a10.558,10.558,0,0,0,.006,4.316c.269,1.4,1.178,1.782,2.459,1.464C2014.63,522.428,2015.953,522.05,2017.662,521.59Zm196.632-30.92c1.46-.219,2.612-.385,3.762-.565,2.742-.429,3.353.173,2.92,2.877-.861,5.379,0,10.585,1.457,16.149l8.292-1.672c-2.442-6.875-1.168-13.653-1.661-20.332a69.623,69.623,0,0,1,1.319-20.169l2.617-.236c-2.563-2.3-5.02.739-7.237-.424-.635-2.182-.668-2.13-2.35-3.2-2.25-1.427-4.436-2.957-6.672-4.408a3,3,0,0,0-1.073-.17C2214.834,469.219,2213.922,479.738,2214.294,490.67Zm-146.182,13.445c-.472-3.62-1.212-7.062-1.312-10.522-.209-7.167-.138-14.345-.067-21.518.056-5.624.145-11.254.483-16.866.272-4.5,1.056-8.969,1.4-13.468.393-5.146.556-10.31.8-15.467.025-.529.114-1.228-.166-1.571-1.544-1.888-2.148-4.2-3.093-6.361a9.366,9.366,0,0,0-1.113-1.542c-1.034.877-1.416,1.53-.96,2.755a8.318,8.318,0,0,1,.668,3.974c-.986,6.2-.439,12.449-.766,18.666-.164,3.128-.5,6.248-.654,9.377-.111,2.2.013,4.4-.09,6.6-.278,5.929.619,11.956-1.5,17.74a9.107,9.107,0,0,0-.183,2.464c-.053.826-.086,1.653-.173,2.475-.645,6.1-1.316,12.206-1.929,18.314a2.449,2.449,0,0,0,.358,1.811C2062.15,503,2064.524,505.1,2068.112,504.115Zm43.882-90.375a38.616,38.616,0,0,1-3.207,3.13c-2.364,1.807-3.484,3.89-2.661,6.989.832,3.136.389,6.384.345,9.6-.074,5.417.3,10.838.331,16.259.021,3.961-.122,7.929-.356,11.885-.293,4.954-1.333,9.866-.787,14.864a11.322,11.322,0,0,1,.287,2.452,131.5,131.5,0,0,0-.487,13.416c-.047,2.861.148,5.7-.751,8.485a2.627,2.627,0,0,0,.141,2.087c1.108,1.392,2.444,2.6,4.03,4.234a17.913,17.913,0,0,0,.3-1.841c.122-4.688.181-9.379.352-14.066.138-3.775.681-7.553.563-11.315a181.536,181.536,0,0,1,1.038-24.564,125.608,125.608,0,0,0-.135-21.846c-.043-.623-.009-1.252-.019-1.878-.027-1.826-.063-3.651-.085-5.477a4.633,4.633,0,0,1,.062-1.566,7.31,7.31,0,0,0-.25-5.79C2112.484,416.077,2112.484,416.077,2111.994,413.74Zm5.7-54.51c-.231.752-.356,1.246-.534,1.72a1.746,1.746,0,0,1-1.933,1.206c-4.608-.214-9.224-.294-13.824-.611-3.675-.252-7.34-.708-10.992-1.2-4.56-.61-9.094-1.411-13.655-2-2.171-.278-3.078.574-3.749,3.127,2.6.089,5.172.065,7.72.292,3.948.353,7.871,1.154,11.82,1.272,8.261.248,16.469,1.62,24.76,1.148a1.931,1.931,0,0,1,1.085.086c.478.333,1.141.82,1.165,1.273a1.772,1.772,0,0,1-.964,1.426,16.448,16.448,0,0,1-4.6.474c-3.462-.281-6.9-.87-10.357-1.214-2.192-.218-4.414-.133-6.607-.34-2.917-.275-5.81-.836-8.73-1.032-4.135-.278-8.285-.329-12.428-.488-1.172-.044-2.343-.124-3.75-.2-.216,1.932-.4,3.605-.6,5.379,3.52.322,6.715.6,9.906.91a80.5,80.5,0,0,0,15.17.081,88.766,88.766,0,0,1,11.831-.737c5.02.218,10.013,1.057,15.013,1.672,1.135.139,2.131.136,2.809-.8Zm-8.951,53.648c-1.7.293-3.074.607-4.468.751-1.554.16-3.123.2-4.686.229a24.338,24.338,0,0,1-4.923-.084,48.469,48.469,0,0,0-15.955-.153c-3.445.48-6.853,1.343-10.381.879-.2-.026-.44.256-.94.57l2.841,5.412a10.371,10.371,0,0,1,2.9-.442c3.765.613,7.473.06,11.224-.069,6.034-.207,12.038-1.9,18.119-.627a3.248,3.248,0,0,0,1.053-.142l-.29-.359ZM2089.191,502.9c0-4.494-.01-8.635,0-12.775.021-7.074-.471-14.162.69-21.206a29.155,29.155,0,0,0,.527-6.3c-.139-2.478-.18-4.786,1.821-6.4a7.5,7.5,0,0,1-.66-2.046c.081-4.516.135-9.036.4-13.544.331-5.663.854-11.316,1.294-16.968-1.47-.4-2.7-.059-2.545,1.11.267,1.976-.282,3.789-.425,5.676-.147,1.925-.217,3.856-.384,5.779-.437,5.035-1.038,10.059-1.335,15.1-.437,7.45-.374,14.939-1.069,22.361-.681,7.272-1.027,14.528-1,21.822.011,2.44-.248,4.881-.387,7.388Zm108.051-70.074c-2.144-.868-3.026-2.572-4.237-3.9-.6-.659-1.1-1.257-2.366-.4.323.657.477,1.606,1.023,1.974,3.3,2.226,4.819,6.046,7.985,8.488a54.256,54.256,0,0,0,8.853,5.988,18.861,18.861,0,0,1,4.762,3.561c1.541,1.482,2.99,3.188,5.4,3.97-.225-1.136-.4-2.029-.617-3.111,4.393-.214,5.728,4.34,9.162,5.257.762-1.031,1.826-1.8,1.013-3.388-1.561.667-2.783.05-3.917-.973a12.718,12.718,0,0,0-1.6-1.077c-3.338-2.19-7.668-2.64-10.364-5.981-1.241-1.539-3.5-2.465-3.657-4.612-.162-2.231-1.5-3.175-3.084-4.155-.7-.431-1.329-.975-1.988-1.471-1.451-1.1-2.9-2.192-4.435-3.351C2198.469,430.8,2197.91,431.721,2197.242,432.822Zm-110.251-9.053c-1.851,1.107-1.761,2.525-1.846,3.63-.5,6.514-.912,13.037-1.278,19.561-.3,5.329-.5,10.665-.729,16-.18,4.137-.313,8.277-.524,12.413-.258,5.057-.6,10.11-.862,15.168-.2,3.766-.278,7.539-.518,11.3-.056.88,0,1.525.92,1.64,1,.125,1.507-.413,1.532-1.465.057-2.385.175-4.768.255-7.153.15-4.426.2-8.858.456-13.278.333-5.8,1.11-11.583,1.181-17.38.137-11.165.545-22.308,1.39-33.44C2087.131,428.626,2086.991,426.463,2086.991,423.769Zm-18.38,92.775a29.2,29.2,0,0,0-4.669,2.084c-1.774,1.176-3.573.519-5.357.559-1.686.038-3.376-.135-5.4-.231l.659,1.851c2.024.346,3.5.645,4.988.829a6.079,6.079,0,0,0,1.876-.17c1.88-.373,3.753-.778,5.624-1.193a31.362,31.362,0,0,0,4.51-1.086c2.633-1.011,5.184-2.236,7.891-3.425-.364-2.473-2.851-3.193-4.693-4.037a30.647,30.647,0,0,0-11.023-2.853c-2.8-.16-5.595-.5-8.393-.746-.269-.023-.65-.052-.8.1-1.349,1.33-3.223,1.172-4.819,1.783a20.018,20.018,0,0,0-2.376,1.291c1.03,1.16,1.84,1.925,3.261,1.112.432-.247,1.159-.011,1.745.057a9.625,9.625,0,0,0,2.358.322c2.811-.419,5.59-1.057,8.4-1.469C2066.26,510.754,2068.106,512.311,2068.611,516.544Zm174.01-50.964a5.167,5.167,0,0,0-.888-.219c-2.549-.128-3.3.5-3.486,2.985-.128,1.748-.048,3.517-.269,5.249a71.585,71.585,0,0,0,.147,17.642,17.492,17.492,0,0,1,.01,1.914c.022,2.668-.079,5.345.111,8,.144,2.013.643,2.192,3.364,1.644,0-5.422,0-10.931,0-16.44a9.173,9.173,0,0,1,.073-1.369,75.056,75.056,0,0,0,.942-12.922C2242.587,469.975,2242.621,467.882,2242.621,465.58ZM2081.72,424.7l-.542-.2c-.319.314-.888.606-.917.945-.168,1.909-.225,3.829-.282,5.746-.067,2.21.03,4.433-.166,6.63a144.818,144.818,0,0,0-.879,15.328c.013.727.268,1.458.226,2.177q-.6,10.346-1.279,20.686c-.108,1.646-.457,3.278-.535,4.924-.271,5.7-.487,11.4-.688,17.11a28.839,28.839,0,0,0,.131,3.588c.106,1.167.743,1.613,1.872,1.133Q2080.192,463.7,2081.72,424.7Zm-8.163,73.868,2.519-73.653c-.268.106-.543.141-.565.236a32.9,32.9,0,0,0-1.132,5.272c-.21,3.265-.126,6.549-.169,9.825a14.855,14.855,0,0,1-.075,1.9c-.26,1.807-.661,3.6-.833,5.413-.147,1.545.223,3.177-.119,4.659a54.437,54.437,0,0,0-.939,12.481c.01,3.946.028,7.892.034,11.838.006,3.392-.075,6.786.022,10.175C2072.413,490.648,2071.717,494.636,2073.557,498.566Zm178.714-32.54h-4.6c-2.039,10.529-.775,20.919-.877,31.3a14.054,14.054,0,0,0,3.409-8.007c.324-6.973.388-13.969,2.042-20.816A11.08,11.08,0,0,0,2252.271,466.026Zm-160.737,37.227c2.574-.059,2.686-.117,2.765-2.047.236-5.795.477-11.591.631-17.389.107-4.049.079-8.1.1-12.153.009-1.538,0-3.076,0-4.521-1.35-.456-2.139-.3-2.316.957a70.666,70.666,0,0,0-.955,7.344c-.194,5.611-.183,11.229-.226,16.845C2091.511,495.868,2091.534,499.448,2091.534,503.253ZM2110,351.524c.026-.488.116-.736.032-.831-1.09-1.229-2.2-2.436-2.928-3.227-3.615-.143-6.789-.224-9.957-.407-3.151-.181-6.19-1.555-9.4-1.139l-.12.62,6.208,1.212c-.26,1.676-.318,1.84-.932,1.76a16.055,16.055,0,0,1-4.06-.723c-2.477-1.025-4.4-.438-6.245,1.629C2091.769,352.436,2100.9,351.6,2110,351.524Zm-8.8,110.205c-2.27,2.214-3.179,4.089-3.055,6.767.25,5.422.043,10.867-.019,16.3-.027,2.393-.466,4.823-.171,7.168a40.617,40.617,0,0,1,.154,9.616c-.087.788-.184,1.69,1.067,1.991,1.272-1.3,1.111-3.071,1.141-4.613.154-7.92.1-15.843.215-23.764.045-3.212.327-6.42.5-9.631C2101.085,464.474,2101.126,463.382,2101.2,461.729Zm-25.254-107.047c1.009.241,1.422.372,1.846.435,4.268.64,8.528,1.343,12.81,1.878,3.744.468,7.5.918,11.271,1.058,4.847.18,9.706.044,14.713.044a3.035,3.035,0,0,0-2.68-2.231,25.074,25.074,0,0,0-5.2-.5,103.675,103.675,0,0,1-21.536-.894,77.392,77.392,0,0,0-9.367-.573C2077.374,353.885,2076.926,354.256,2075.945,354.682Zm20.013,72.113a2.979,2.979,0,0,0-.354.883c-.2,2.936-.369,5.873-.54,8.81a19.151,19.151,0,0,1-.167,3.025c-1.1,4.959-.687,9.974-.862,15.052,1.83.272,2.283-.787,2.405-2.048.486-5.025,1.078-10.047,1.314-15.085a77.188,77.188,0,0,0-.5-9.086C2097.2,427.663,2097.221,426.8,2095.958,426.8Zm10.261,82.031c-.469-1.85-1.149-2.248-2.387-1.82a7.9,7.9,0,0,1-2.643.606c-4.862-.114-9.721-.345-14.583-.5a4.66,4.66,0,0,0-2.167.26,5.765,5.765,0,0,1-4.024.184c-.817-.166-1.814-.585-2.824.911a11.921,11.921,0,0,1,1.722,1.16,5.332,5.332,0,0,0,5.187,1.379c4.664-.836,9.44-1.054,14.171-1.509C2101.094,509.264,2103.521,509.065,2106.219,508.826Zm-5.028-47.986a18.462,18.462,0,0,0,.4-2.517q-.059-14.376-.183-28.752a14.305,14.305,0,0,0-.42-3.829c-.263-.907-.147-2.261-1.775-2.667a4.2,4.2,0,0,0-.108,1.362c1.39,4.451,1.115,9.067,1.177,13.611a89.662,89.662,0,0,1-.88,10.975A21.742,21.742,0,0,0,2101.191,460.84Zm-55.9,51.213c-1.9-.559-2.633.821-3.615,1.711-1.3,1.177-2.512,2.4-2.391,4.67,2.737.489,5.495,1.005,8.265,1.454a5.741,5.741,0,0,0,1.632-.167,2.1,2.1,0,0,0,1.938-2.193C2049.184,515.726,2045.4,515.663,2045.29,512.053Zm187.992-34.845-.818.14c0,1.079-.022,2.159,0,3.237.163,6.906.3,13.814.538,20.717a22.764,22.764,0,0,0,.777,4.344c.249,1.056.87,1.581,1.948.916.026-.276.114-.489.05-.634a19.291,19.291,0,0,1-1.107-10.284,14.89,14.89,0,0,0,.048-2.762q-.478-6.6-1.035-13.194C2233.616,478.856,2233.42,478.034,2233.282,477.208ZM2102.725,343.625l.347-.768-6.205-6.446v4.253c1.158.835,3.556-.427,3.368,2.644-1.633-.286-3.122-.523-4.6-.812-1.423-.279-2.841-.9-4.252.093C2095.147,343.341,2098.866,344.478,2102.725,343.625ZM1930.8,433.17c-2.026,1.325-4.523,1.227-5.649,3.445,1.594,2.567,3.235,2.528,7.173-.115Zm118.042,94.177c2.964-.714,3.8,1.462,4.892,3.534,1.3-1.27,2.639-.848,4.446.006-.533-1.651-.9-2.788-1.21-3.747-1.6-.208-2.944-.444-4.3-.54C2051.406,526.511,2050.043,526.089,2048.839,527.347Zm45.766-64.479c2.851-1.482,3.12-2.843,1.207-5.346C2093.946,459.3,2093.652,460.479,2094.6,462.868ZM2072.744,536.4c3.659-2.512,4.137-5.187,1.842-8.843A13.294,13.294,0,0,1,2072.744,536.4Zm-30.388-.194c-.186-2.016,3.349-1.176,2.545-3.6-1.135-.494-2.416-.778-3.241.257C2040.868,533.86,2041.267,535.079,2042.356,536.207Zm19.594-.966-1.819-2.572c-1.328,2.593-1.413,2.9-.758,3.094C2059.969,535.935,2060.735,535.518,2061.95,535.241ZM2179.3,396.966l-3.444-3.671-.437.4C2176.23,395.236,2177.015,396.793,2179.3,396.966Zm66.4,106.553c1.784-1.124,1.784-1.124.392-3.32C2245.945,501.5,2245.841,502.378,2245.706,503.519Zm-193.042,32.548c-.6-.458-.962-.946-1.229-.9a4.128,4.128,0,0,0-1.284.782c.3.285.586.8.884.8C2051.477,536.759,2051.923,536.4,2052.664,536.067Zm130.4-135.766-.725.487q.71,1.032,1.421,2.063l.653-.44ZM2070.81,538.227c-1.705.12-1.705.12-2.582,1.752ZM2209.2,508.9l-1.033,2.442C2209.632,510.744,2209.894,510.225,2209.2,508.9Zm-134.612,17.164c.743-1.939.743-1.939-.9-2.5ZM2198.128,477.6c1.68-.361,1.68-.361,1.2-2.034Zm-97.749-144.343q-.762-1.064-1.523-2.126C2098.431,332.5,2099.333,332.93,2100.379,333.255Zm97.113,177.615c.5,1.332,1.186,1.2,1.972.207Zm-153.727,14.967.108.4,1.367-.223-.212-.654Zm-79.253-41.118-.433-.109-.336,1.274.447.11Zm93.129,51.067-.439-.78a13.775,13.775,0,0,0-1.244.8,2.15,2.15,0,0,0,.289.605C2056.722,536.234,2057.18,536.006,2057.641,535.786ZM2055.8,374.564c-.5-.252-.814-.519-.94-.45a3.162,3.162,0,0,0-.856.806c-.026.031.35.507.419.479A10.469,10.469,0,0,0,2055.8,374.564Z" fill="#12577d"/>
    <path id="パス_916" data-name="パス 916" d="M2289.319,465.817c-2.288-1.093-5.1-.179-6.346-2.758.691-1.529,2.251-.64,3.287-1.4-.531-1.389-2.036-1.32-3.057-1.93a18.131,18.131,0,0,1-2.216-1.061c-.4-.327-.784-1.313-.588-1.594a2.2,2.2,0,0,1,1.732-.913,23.5,23.5,0,0,1,3.894,1.34c.912.355,1.794.789,3.218,1.424-.213-1.416-.35-2.279-.47-3.145-.075-.548-.147-1.1-.184-1.65-.145-2.2.35-3.122,1.684-3.193a3.407,3.407,0,0,1,3.311,3.07c.126,1.721.272,3.444.5,5.153.365,2.749.4,2.745,3.681,2.549,0-1.313-.083-2.658.017-3.989.215-2.836.556-5.662.779-8.5.093-1.173.016-2.36.016-3.266-2.877-1.065-5.5-2.012-8.11-3.009a11.584,11.584,0,0,0-8.427.074,33.723,33.723,0,0,1-7.579,1.765,3.769,3.769,0,0,1-2.452-1c-1.4-1.2-1.035-2.441.767-2.987,1.225-.371,2.486-.627,3.7-1.026a13.625,13.625,0,0,0,2.054-1.226c-2.258-.4-3.86-.635-5.441-.968-1.837-.387-2.276-.95-2.512-3.073,2.472-.957,5.033-.24,7.805-.139-.824-1.664-1.618-3.076-2.231-4.563-.62-1.5.076-2.376,1.628-2.172a3.675,3.675,0,0,1,3.2,2.287c.531,1.254,1.239,2.434,2.031,3.959a19,19,0,0,1,1.1-1.66,11.943,11.943,0,0,1,1.865-1.981,3.3,3.3,0,0,1,3.6.288c1.009.907.345,1.866.047,2.8-.432,1.355-.883,2.7-1.457,4.458l7.592,2.3a4.661,4.661,0,0,0-.016-1.371,39.106,39.106,0,0,1-2.756-10.941,2.784,2.784,0,0,0-.686-1.718c-1.861-1.446-3.2-3.58-5.663-4.261a10.584,10.584,0,0,1-2.739-1.3,1.287,1.287,0,0,1-.165-2.292c1.419-1.23,2.947-1.52,4.5.1.911-1.526-.035-2.572-.211-3.651-.15-.919-1.2-1.875.179-2.631a3.18,3.18,0,0,1,3.779,1.325,9.9,9.9,0,0,1,.522,2.119c.212,1.053.393,2.113.572,3.083,1.462.231,1.671-.7,1.929-1.446.271-.78.345-1.625.563-2.425q1.156-4.239,4.917-1.789c.377.245.751.495,1.242.819a62.055,62.055,0,0,1-2.571,6.391c-.49.934-1.723,1.477-2.725,2.282l1.636,1.862a7.39,7.39,0,0,0,.473,6.159,4.26,4.26,0,0,1,.524,2.661c-.507,1.991.769,3.34,1.728,5.089.537-1.383,1.021-2.791,1.623-4.145,1.607-3.62,3.125-7.291,4.956-10.8,1.13-2.163,2.256-4.231,2.129-6.839-.53-.6-1.166-1.259-1.719-1.977-.635-.825-1.177-1.719-.431-2.768.9-1.264,1.8-.147,2.984.131a15.845,15.845,0,0,0,.518-3.222c-.056-1.375.267-2.288,1.625-2.806,1.33-.506,2.092.257,2.874,1.07a8.621,8.621,0,0,1,.563.74c-.373,1.241-.76,2.525-1.3,4.323.873-.358,1.438-.411,1.653-.713.639-.9,1.091-1.925,1.708-2.84,1.025-1.52,2.571-1.646,4-.394s1.414,2.132-.082,3.628c-.908.908-1.822,1.81-2.69,2.754-.147.16-.074.523-.15,1.235.986-.182,1.823-.318,2.651-.493,2.888-.612,4.126.723,3.372,3.427-2.945.554-5.795,1.227-8.684,1.572a3.1,3.1,0,0,0-2.795,1.72,20.43,20.43,0,0,1-2.426,2.957,4.392,4.392,0,0,0-.786,1.125q-2.624,6.826-5.174,13.68c-.112.3.031.692.088,1.51l9.592-6.473a15.413,15.413,0,0,1-1.284-2.918,3.087,3.087,0,0,1,.361-2.244c.512-.686,2.362-.254,2.96.57.317.435.357,1.1.717,1.468.38.39,1.084.856,1.479.736.446-.136.825-.845,1.008-1.382a2.389,2.389,0,0,0-.19-1.351c-.631-1.9.079-3.214,1.776-4.123,3.147.76,3.607,1.38,3.009,4.43l4.762-1.571c2.1,2.233,2.04,3.061-.364,4.113a33.388,33.388,0,0,1-3.649,1.046,13.343,13.343,0,0,0-1.6.738,16.041,16.041,0,0,1,1.971,2.286,2.136,2.136,0,0,1,.022,1.757c-.15.307-.956.438-1.451.4a19.874,19.874,0,0,1-4.65-.577,5.6,5.6,0,0,0-5.168,1.03c-1.894,1.286-3.7,2.7-5.963,4.353a15.725,15.725,0,0,0,2.12.511c2.58.183,5.164.3,7.746.472,4.027.261,4.027.27,4.875,4.266-1.706,1.566-3.2-1.2-5.049-.171,2.163,1.786,5.652,1.408,7.02,4.45-1.553,1.456-3.138,2.274-5.3.725a10.645,10.645,0,0,1,.262,1.162c.092,1.155.573,2.458-1.058,3.007a3.6,3.6,0,0,1-3.58-1.5c-1.071-1.48-2.2-2.924-3.338-4.35-.2-.255-.612-.348-1.173-.648-.363.706-.718,1.3-.981,1.931-.333.8-.867,1.22-1.72.967a1.356,1.356,0,0,1-.9-1.983c.412-1.125.963-2.2,1.406-3.312a6.267,6.267,0,0,0,.152-1.362,17.958,17.958,0,0,0-2.409-.323,3.453,3.453,0,0,0-3.287,4.723c.379,1.209.73,2.426,1.192,3.97a5.338,5.338,0,0,0,1.151.472c1.427.311,1.861,1.09,1.825,2.575-.059,2.476.246,4.959.306,7.441.042,1.744-.078,3.492-.106,5.238-.019,1.143,0,2.286,0,3.43l.644.021c.08-.344.177-.684.237-1.031a16.151,16.151,0,0,1,.566-3.193c.747-1.881,1.725-3.67,2.593-5.5a2.983,2.983,0,0,1,3.471-1.66,3.28,3.28,0,0,1,1.94,1.639c.2.379-.353,1.328-.789,1.826a27.547,27.547,0,0,1-2.609,2.315c1.745.714,2.673.048,3.684-.6a6.375,6.375,0,0,1,5.26-.9,2.012,2.012,0,0,1,1.683,1.924c.053,1.12-.8,1.546-1.8,1.716a6.447,6.447,0,0,0-2.391.813l3.679.981v3a3.758,3.758,0,0,1-3.92.1,10.113,10.113,0,0,0-2.759-.639c-.534,1.365.342,1.558.959,1.878.786.406,1.586.919,1.237,1.874a3.882,3.882,0,0,1-1.53,2.054c-.864.452-1.667-.15-2.325-.969a21.778,21.778,0,0,0-2.677-2.361c-.2,1.925.629,3.709-1.355,4.531-1.437.6-2.206-.479-3.39-1.514-.573,1.274-1.046,2.3-1.5,3.346-.11.251-.108.556-.236.795a14.551,14.551,0,0,0-1.392,10.181,3.33,3.33,0,0,1-.827,2.175,4,4,0,0,0-.413,3.977c.606-.514,1.217-.8,1.445-1.266,1.29-2.648,3.41-4.553,5.544-6.463a2.94,2.94,0,0,1,3.308-.681c1.848.745,2.318,1.936,1.384,3.721a14.205,14.205,0,0,1-.878,1.317c2.616,1.837,2.616,1.837,1.87,4.7.792.719,1.459.633,1.926-.356a10.908,10.908,0,0,0,.394-1.326c.757-2.358,1.471-4.732,2.3-7.067.705-2,1.052-2.128,3.01-1.585.435.12.865.261,1.213.367,1.041,1.726-.3,2.871-.817,4.16.4.984,1.045,1.084,2,.975,2.4-.272,2.407-.205,2.954,2.468l-2.936,1.4.129.49c.374,0,.75.026,1.121-.007a4.607,4.607,0,0,1,1.326-.166c1.005.244,2.065.659,2.111,1.872.04,1.047-.782,1.551-1.732,1.884a15.194,15.194,0,0,0-4.5,2.291c.432.167.879.508,1.292.47,1.369-.126,2.723-.4,4.086-.6,3.018-.439,3.272-.172,2.894,3.185l-7.466.747c.109,1.949,3.164,1.919,1.834,4.435-.9-.092-1.957-.163-3-.318-.634-.094-1.241-.389-1.874-.455-.3-.03-.834.211-.893.43-.1.381-.077,1.041.168,1.229a23.87,23.87,0,0,0,2.548,1.548c.93,2.684.408,3.8-4.749,4.8-.36.813-.763,1.722-1.217,2.749a4.053,4.053,0,0,1-4.2-1.137c-1.688-1.564-3.8-2.093-6.3-2.832.081,1.475.143,2.607.212,3.852-1.356.58-2.305,0-3.217-.861a16.707,16.707,0,0,0-1.906-1.591,2.578,2.578,0,0,0-3.528.178c-1.24,1.127-2.5,2.021-4.41,1.76-.912-.124-1.921.556-2.9.816-2.822.749-3.153.6-4.534-1.924-1.388.417-2.769.869-4.172,1.235a3.693,3.693,0,0,1-1.908.173c-2.236-.723-4.313-1.044-6.466.439a1.736,1.736,0,0,1-2.546-.938c-.414-1.1.449-1.67,1.268-2.165.6-.362,1.194-.727,2.058-1.253-1.795-1.252-3.148-2.512-5.267-2.291a4.06,4.06,0,0,1-4.144-1.531c1.713-3.025,4.794-1.387,7.3-2.056-.348-1.265-1.585-1.165-2.261-1.747-.572-.493-1.484-1.454-1.335-1.751a3.244,3.244,0,0,1,1.942-1.615,9.348,9.348,0,0,1,2.955.364,2.161,2.161,0,0,0,1.678-.335c-.65-.4-1.293-.81-1.954-1.189-.858-.492-2.16-.817-1.876-2.027.166-.707,1.189-1.216,1.836-1.8a4.615,4.615,0,0,1,.616-.378A2.457,2.457,0,0,1,2277,503.1a3,3,0,0,1,3.1.542c1.574,1.039,3.279,1.881,5.209,2.964a2.941,2.941,0,0,0-1.3-2.917c-1.4-1.092-1.3-2.087-.033-3.1l-1.611-2.065c1-1.5,2.227-2.059,3.839-1.5,2.062.72,4.1,1.511,6.151,2.259a7.346,7.346,0,0,0,.962.2c.949-1.438,1.487-3.272,3.2-4.175a.988.988,0,0,0,.324-.726c.121-2.37.211-4.74.317-7.248-1.633-.459-3.149-.665-4.392.965-.275.362-.916.434-1.37.674a8.508,8.508,0,0,0-1.562.922c-1.65,1.4-3.257,2.845-5.233,4.584l-1.332-3.249c-.555.157-1.235.333-1.9.541-.948.3-1.824.359-2.45-.612a1.644,1.644,0,0,1,.392-2.431c.123-.1.147-.323.238-.543-1.364-.545-3.293.211-4.1-1.835.6-2.216,2.85-1.312,4.853-2.212a10.108,10.108,0,0,1-2.406-.682,3.116,3.116,0,0,1-1.278-1.536c-.078-.249.7-.939,1.209-1.167a6,6,0,0,1,4.841.242c.816.326,1.608.712,2.93,1.3-.324-1.247-.454-1.928-.682-2.575-.213-.606-.567-1.161-.792-1.764-.324-.866-.767-1.878.3-2.464s1.912-.076,2.5.968c.681,1.2,1.43,2.37,2.168,3.541.284.449.618.867,1.017,1.42.261-.336.518-.515.529-.708.056-1-.186-2.208,1.308-2.288a2.679,2.679,0,0,1,2.877,1.735,14.85,14.85,0,0,1,.445,2.64l2.29.329V465.208a10.527,10.527,0,0,0-1.7-.363c-1.926-.111-2.21.136-2.765,1.915a12.059,12.059,0,0,1-1.083,2.8,2.669,2.669,0,0,1-1.681,1.109c-1.05.151-2.335.373-2.945-.9-.56-1.168.375-1.837,1.078-2.567A9.038,9.038,0,0,0,2289.319,465.817Z" fill="#12577d"/>
    <path id="パス_917" data-name="パス 917" d="M2379.925,286.9a10.963,10.963,0,0,0,.177-1.225,1.831,1.831,0,0,1,1.288-1.913,2.588,2.588,0,0,1,2.8.3,4.733,4.733,0,0,1,1.783,3.2,1.572,1.572,0,0,0,1.422,1.565,3.974,3.974,0,0,0,1.313.135c1.662-.2,2.484,1.228,3.707,1.867.195.1.307.454.364.711.3,1.337.572,2.681.865,4.077a1.21,1.21,0,0,0,.189.17c.761.486,1.776.6,2.077,1.721a6.793,6.793,0,0,1-.03,4.38c-.217.553-.476,1.09-.821,1.873a10.9,10.9,0,0,0,1.6-.013c1.078-.18,2.14-.466,3.221-.619a1.137,1.137,0,0,1,.959.363,1.535,1.535,0,0,1,.061,1.211,1.956,1.956,0,0,1-.968.841c-1.014.43-2.06.788-3.106,1.136-2.352.784-4.694,1.609-7.077,2.283a15.575,15.575,0,0,1-3.08.229c-.736,3.077-1.71,6.115-5.143,7.836h-2.894a15.369,15.369,0,0,1-.659,1.658c-.609,1.137-.367,1.788.874,1.7,1.863-.131,3.854.5,5.567-.768a1.192,1.192,0,0,1,.445-.108c1.445,1.242,1.609,1.873.765,2.861-.477.558-.766.478-2.155-.67-1.147.975.153,2.3-.495,3.271a20.4,20.4,0,0,1-2.236,1.107,2.2,2.2,0,0,1-1.539.068,1.636,1.636,0,0,1-.849-1.82c.082-.512.168-1.024.251-1.525-1.19-.416-1.526.552-2.082.965a2.152,2.152,0,0,1-2.587.3c-.865-.481-1.064-.98-.653-1.864.319-.684.658-1.358,1.021-2.1-2.937-.108-4.729.858-5.514,2.948a5.067,5.067,0,0,0,2.526.925,3.411,3.411,0,0,1,3.44,3.435,2.748,2.748,0,0,1-.728,1.577,1.522,1.522,0,0,1-1.835.06c-.456-.505-.229-1.039.035-1.534.154-.289.472-.514.552-.813.07-.264-.088-.589-.214-1.247-1.215,1.711-1.977,3.379-4.161,3.332-.162-.252-.388-.607-.606-.946l1.5-2.032c-1.086-1.026-1.7-.917-2.263.231-.574,1.176-1.227,2.316-1.878,3.453a.926.926,0,0,1-1.372.366c-.006-1.909,1.976-2.831,2.386-4.632-.572-.735-1.576-1.461-.685-2.851-1,.17-1.991.361-2.991.506a26.586,26.586,0,0,1-3.438.416c-2.231.03-3.4-.907-4.087-3.042a4.061,4.061,0,0,0-.328-.57,10.824,10.824,0,0,0-1.275.6c-1.347.843-2.688,1.7-4,2.589-2.087,1.413-4.1,2.946-6.243,4.262-1.719,1.055-3.518,2.135-5.72,1.521a6.46,6.46,0,0,1-1.108-.309c-1.225-.6-1.4-1.057-.984-2.39.08-.257.186-.506.317-.86a3.746,3.746,0,0,0-2.436.121,4.342,4.342,0,0,1-3.8-.547,2.021,2.021,0,0,1-.348-3.461,11.041,11.041,0,0,1,2.627-1.659c1.324-.625,2.718-1.1,4.388-1.761-.617-.328-.937-.479-1.238-.662a13.814,13.814,0,0,1-1.8-1.153c-.831-.7-.927-1.414-.192-2.128,1.028-1,2.131-1.946,3.787-1.56a6.206,6.206,0,0,0,1.648.039c2.589-.105,5.176-.3,7.764-.307a20.208,20.208,0,0,1,3.573.584c1.132.207,2.279.37,3.385.676,1.474.409,2.262-.392,2.935-1.476.193-.31.323-.659.563-1.162-.574-.046-.986-.1-1.4-.107-3.086-.034-6.177.027-9.258-.127a12.317,12.317,0,0,1-3.67-.932c-1.384-.529-1.506-1.885-.349-2.856a13.642,13.642,0,0,1,4.288-2.086c.293-.107.591-.2,1.063-.363-.771-.961-1.811-.992-2.665-1.366a1.257,1.257,0,0,1-.452-2.22,4.6,4.6,0,0,1,1.5-.991,10.226,10.226,0,0,1,4.359-.843,13.456,13.456,0,0,0,1.574-.1l.067-.332c-.65-.311-1.313-.6-1.946-.94a13.821,13.821,0,0,1-1.833-1.118,2.948,2.948,0,0,1-1.023-3.291c.146-.512.2-1.048.327-1.7,1.267-.166,2.565-.636,4.055-.16a13.638,13.638,0,0,0,3.922.447,16.493,16.493,0,0,1,6.281,1.706q2.113.9,4.231,1.8c2.38,1.008,4.82,1.91,6.675,3.836a3.83,3.83,0,0,0,.814.416,15.21,15.21,0,0,0,.226-1.661,6.486,6.486,0,0,1,3.274-5.715c.082-.05.112-.183.162-.271a31.339,31.339,0,0,1-1.774-2.715c-.734-1.4-.635-2.174.151-2.837a3.147,3.147,0,0,1,3.421-.24C2378.925,286.135,2379.3,286.447,2379.925,286.9ZM2347.9,301.477a6.151,6.151,0,0,0,3.647,1.011c3.092-.05,6.182-.171,9.274-.239a4.88,4.88,0,0,1,1.038.164v2.143a35.813,35.813,0,0,1-5.567.574,23.789,23.789,0,0,0-10.6,2.085,5.4,5.4,0,0,0-.992.8,6.43,6.43,0,0,0,1.256.435c4.448.416,8.921.779,13.332-.117,2.743-.557,5.455-1.39,7.414-3.68.816-.953,1.795-1.138,2.281-.609s.245,1.4-.63,2.324a11.377,11.377,0,0,1-4.442,2.759c-2.156.8-4.915.694-5.905,3.5-.979.336-1.063,1.173-1.1,2.015-.041.865-.531,1.166-1.316,1.089a14.588,14.588,0,0,1-2.78-.36,2.238,2.238,0,0,0-2.361.691c-1.824,1.588-3.727,3.086-5.6,4.615a1.663,1.663,0,0,1-.429.25,16.688,16.688,0,0,0-4.454,3.116c-.765.647-1.691,1.275-1.753,2.516a2.313,2.313,0,0,0,2.163-.592c1.745-1.155,3.443-2.381,5.182-3.545,2.43-1.626,4.868-3.242,7.33-4.819a5.73,5.73,0,0,1,3.707-1.2c.338.035.867.239.935.473.22.762,1,1.443.276,2.413-.275.369-.044,1.116-.044,1.7a4.026,4.026,0,0,0,2.861-.308,4.409,4.409,0,0,1,1.43-.314c1.241-.217,2.505-.342,3.723-.649,1.973-.5,3.951-1.014,5.862-1.7,1.465-.529,3.207-.538,4.263-1.978a.354.354,0,0,1,.29-.134c.8.294,1.3-.075,1.819-.666.2-.227.721-.161,1.092-.248a14.37,14.37,0,0,0,1.726-.448c1.98-.74,2.685-2.565,3.311-4.3.452-1.254.628-2.559,1.938-3.284.159-.087.179-.425.284-.7l.356.566a29.562,29.562,0,0,0,3.375-.22c1-.177,2.156-.056,3.181-1.288a22.587,22.587,0,0,0-3.072-.032c-1.212.158-1.685-.866-2.535-1.436-1.262,1.508-3.031,1.157-4.632,1.263a2.3,2.3,0,0,1-1.691-.876,4.666,4.666,0,0,1-1.07-4.008,13.147,13.147,0,0,1,1.393-3.512,3.933,3.933,0,0,1,3.328-1.862,3.736,3.736,0,0,1,3.886,2.542c.624-.748,1.314-1.245,1.538-1.9.741-2.165-.36-4.015-2.69-4.093-2.29-.076-3.419-.989-3.814-3.174a2.291,2.291,0,0,0-1.182-1.944c-.506,1,.223,1.628.538,2.313.437.95.466,1.648-.107,2.075-.659.49-1.262.167-1.827-.216-1.092-.738-2.161-1.511-3.271-2.22-.179-.114-.519.024-.938.058a7.743,7.743,0,0,0,3.8,3.071,2.505,2.505,0,0,1-2.037,2.121,3.529,3.529,0,0,0-2.921,2.612c-.326,1.449-.52,2.93-.714,4.4a2.39,2.39,0,0,0,.128,1.435c1.1,1.8.623,3.452-.257,5.146-1.488,2.864-4.3,4.363-6.547,6.438a.655.655,0,0,1-.458.168c-.415-.045-.984-.016-1.189-.265-.187-.229-.071-.817.07-1.186.508-1.329,1.738-1.979,2.816-2.717a11.451,11.451,0,0,0,3.331-3.636c.935-1.555.865-2.393-.433-3.689a21.264,21.264,0,0,0-7.108-4.669c-1.837-.745-3.681-1.472-5.5-2.255a21.767,21.767,0,0,0-9.686-1.752c-.486.022-.859.2-.847.889a15.3,15.3,0,0,0,5.832,2.332,60.234,60.234,0,0,1,6.426,1.49c.01.027.118.275.2.532.349,1.132.272,1.3-.952,1.492a12.627,12.627,0,0,1-1.967.058,13.16,13.16,0,0,0-3.132.014,36.406,36.406,0,0,1-6.727.826A8.376,8.376,0,0,0,2347.9,301.477Zm-2.734,15.955a9.343,9.343,0,0,0-1.278.171c-1.421.447-2.852.871-4.244,1.395-2.468.927-4.91,1.922-7.364,2.886a1.868,1.868,0,0,0-1.376,1.61C2335.066,323.563,2342.227,320.581,2345.166,317.432Zm4.594-2.875a10.465,10.465,0,0,0-2.232-.5c-3.69.06-7.379.194-11.068.308a1.452,1.452,0,0,0-1.479,1.246,8.046,8.046,0,0,0,5.317.6c1.823-.428,3.652-.826,5.482-1.224a2.385,2.385,0,0,1,1.906.227C2348.4,315.657,2349.01,315.324,2349.76,314.557Zm37.2-13.257c-.559-.243-.91-.367-1.233-.542-.589-.318-1.2-.665-1.125-1.47.074-.824.7-1.013,1.392-1.162a7.329,7.329,0,0,0,1.241-.505l-.043-.371c-.333-.1-.685-.33-.994-.282a5.031,5.031,0,0,0-2.311.612,3.447,3.447,0,0,0-1.2,3.127,2.212,2.212,0,0,0,1.1,1.929,1.922,1.922,0,0,0,2.124-.5C2386.224,301.9,2386.518,301.655,2386.96,301.3Zm6.921.326c-2.3-.19-2.622-.6-2.122-2.661.286-.093.6-.18.908-.3.27-.107.526-.252.889-.429-2.068-.823-3.388-.471-4.01.963-.714,1.647-.344,3.048.979,3.715C2391.747,303.531,2393.043,303.081,2393.881,301.626Z" fill="#12577d"/>
    <path id="パス_918" data-name="パス 918" d="M2172.421,496.85l-3.1-.882c3.22,5.161,3.268,10.3,3.327,15.725a9.349,9.349,0,0,1-2.525.3,1.792,1.792,0,0,1-1.229-1.163c-.455-4.736-.8-9.483-1.182-14.354h-2.025c.1,3.843.2,7.507.276,11.172.036,1.754.027,3.509.025,5.263,0,.461-.045.923-.08,1.383-.08,1.065-.652,1.845-1.712,1.726a1.668,1.668,0,0,1-1.462-2c.2-2.481.451-4.962.52-7.448.09-3.2.022-6.4.022-9.987a25.085,25.085,0,0,0-3.607.925,2.905,2.905,0,0,1-2.816-.394c-1.239-.664-.54-1.644-.767-2.45-.782-2.777.164-5.446.035-8.166-.208-4.408.138-8.848.35-13.269.287-5.987.579-11.976,1.043-17.951.278-3.572.866-7.121,1.366-10.673a3.419,3.419,0,0,1,3.177-2.522c2.291.006,4.583.01,6.875.03,3.5.03,5.455,2.066,4.844,5.482-1.489,8.331-.915,16.724-1.069,25.1-.064,3.489-.478,6.971-.576,10.46-.069,2.474.112,4.955.214,7.432a1.516,1.516,0,0,0,.352,1.024c1.464,1.161,1.054,2.321.179,3.6A5.7,5.7,0,0,0,2172.421,496.85ZM2162.9,446.4c-.89,14.583-1.644,29.182-1.079,43.839a11.043,11.043,0,0,0,.815-3.687c.168-2.849.267-5.7.383-8.553q.354-8.706.7-17.411.266-6.486.551-12.971C2164.308,446.793,2164.182,446.117,2162.9,446.4Z" fill="#12577d"/>
    <path id="パス_919" data-name="パス 919" d="M2205.973,385.646a6.249,6.249,0,0,0-1.029,1.533c-.847,2.835-3.338,3.662-5.671,4.273a10.079,10.079,0,0,1-6.972-.269,7.461,7.461,0,0,1-4.346-5.1,18.372,18.372,0,0,1,6.237-20.53,7.5,7.5,0,0,1,11.6,3.165c.99,2.4,1.593,4.966,2.47,7.773a12.265,12.265,0,0,0,1-1.56,11.38,11.38,0,0,1,5.279-5.791c4.8-2.493,11.6.754,13.149,5.908,1.389,4.639.581,8.89-1.1,13.165a2.6,2.6,0,0,1-.507.966c-3.186,2.961-6.5,5.871-11.045,6.258-5.542.473-7.256-2.005-8.182-6.462-.221-1.064-.247-2.168-.363-3.254Zm5.027,2.009c.279.889.41,1.4.6,1.9.854,2.2,1.577,2.469,3.776,1.442.835-.391,1.687-.75,2.513-1.159,2.51-1.244,4.512-2.631,5.217-5.836a14.25,14.25,0,0,0-.457-8.891c-1.007-2.443-2.854-3.3-5.33-2.464-3.293,1.119-5.9,5.355-5.759,9.723.72-.735,1.247-1.321,1.824-1.854a3.367,3.367,0,0,1,4.273.072c.7.837.518,4.9-.262,5.769-.86.954-1.717,1.911-2.717,3.025Zm-19.044-6.457c-.231,2.955,2.335,6.383,4.79,6.529a4.107,4.107,0,0,0,3.389-1.47c3.112-3.3,3.432-7.239,2.669-11.344a21.464,21.464,0,0,0-2.085-5.92c-.943-1.806-2.165-1.847-3.54-.455a15.924,15.924,0,0,0-3.07,3.518c-1.1,2.128-3.167,4.106-1.732,7.1.1-.432.167-.736.241-1.038a4.1,4.1,0,0,1,3.026-3.215c1.853-.436,2,1.548,2.826,2.529a5.272,5.272,0,0,1,.626,1.516c.744,1.934.081,3.638-.994,5.191-.969,1.4-2.276,1.589-3.514.426A28.2,28.2,0,0,1,2191.956,381.2Z" fill="#12577d"/>
    <path id="パス_920" data-name="パス 920" d="M2149.846,358.179a2.91,2.91,0,0,1-3.385-1.958,25.869,25.869,0,0,0-3.1-4.2c-3.032-4.042-6.174-8.009-9.049-12.16-2.72-3.927-5.092-8.093-7.738-12.074-2.444-3.677-5.047-7.249-7.582-10.866-3.225-4.6-6.471-9.184-9.672-13.8q-3.532-5.094-6.962-10.259c-1.061-1.607-2.03-3.283-2.926-4.988-.528-1-.836-2.092.533-2.854,1.344-.748,2.436-.65,3.317.672,1.727,2.589,3.268,5.3,5.017,7.874,1.6,2.357,3.432,4.557,5.062,6.9,2.365,3.395,4.612,6.873,6.968,10.276,1.445,2.087,3.016,4.087,4.495,6.152.694.969,1.312,1.994,1.949,3,.2.31.26.761.525.965,3.472,2.668,3.9,7.521,7.343,10.2a33.083,33.083,0,0,0,5.28,8.341c2.524,3.144,4.9,6.407,7.352,9.609.95,1.24,1.988,2.414,2.886,3.689C2152.056,355.384,2152.026,355.465,2149.846,358.179Z" fill="#12577d"/>
    <path id="パス_921" data-name="パス 921" d="M2044.063,501.507c.175-4.6.314-9.268.545-13.932.19-3.865.629-7.721.71-11.586.164-7.84.06-15.686.258-23.524.164-6.533.6-13.059.918-19.588.185-3.768.407-7.534.572-11.3.083-1.92.042-1.922,2.073-3.347a3.091,3.091,0,0,1,.965,2.9,5.571,5.571,0,0,0,.116,2.434,30.215,30.215,0,0,1,1.388,11.567c-.162,3.85-.188,7.7-.28,11.557a21.214,21.214,0,0,1-.131,2.99,33.208,33.208,0,0,0-.3,5.386c-.031,5.243-.227,10.487-.465,15.726-.268,5.878-.651,11.751-.989,17.626-.148,2.573-.133,5.173-.53,7.708a16.265,16.265,0,0,1-1.768,4.825C2046.594,502.006,2045.49,502.344,2044.063,501.507Z" fill="#12577d"/>
    <path id="パス_922" data-name="パス 922" d="M2110.233,277.373c2.587-.55,4.459-.112,5.708,1.808q3.079,4.736,5.975,9.59c1.735,2.925,3.354,5.919,4.993,8.9,2.63,4.785,5.611,9.363,8.333,14.092,1.878,3.262,3.619,6.6,5.463,9.882,1.306,2.326,2.774,4.565,4.009,6.926,2.974,5.685,7.036,10.676,10.239,16.213.546.946,1.356,1.736,1.992,2.634.715,1.008.942,1.937-.3,2.839a9.319,9.319,0,0,0-1.541,1.9c-2.042-.436-3.158-1.822-4.081-3.683-1.344-2.708-3-5.262-4.536-7.873-1.385-2.353-2.767-4.709-4.2-7.035-.769-1.253-1.734-2.393-2.437-3.678-3.619-6.617-7.14-13.288-10.781-19.893-2.213-4.015-4.652-7.9-6.866-11.92q-5.075-9.207-10.926-17.93A13.488,13.488,0,0,1,2110.233,277.373Z" fill="#12577d"/>
    <path id="パス_923" data-name="パス 923" d="M2139.942,264.5a7.841,7.841,0,0,1,.921-1.012c.7-.514,1.847-1.539,2.1-1.357.989.7,2.421,1.823,2.385,2.737-.134,3.417,1.773,6.16,2.535,9.256a87.012,87.012,0,0,0,2.686,8.376c1.2,3.366,2.582,6.668,3.774,10.038,1.718,4.857,3.335,9.751,5,14.628a7.25,7.25,0,0,0,.391,1.024,70.283,70.283,0,0,1,4.126,11.079c.99,3.07,2.323,6.036,3.2,9.133a93.523,93.523,0,0,0,4.532,11.681c.674,1.549.051,2.9-.1,4.32a1.07,1.07,0,0,1-1.9.517,8.117,8.117,0,0,1-1.384-2.374c-2.659-7.274-5.253-14.573-7.9-21.853-2.229-6.138-4.569-12.236-6.736-18.4-3.7-10.519-7.277-21.081-10.97-31.6C2141.865,268.559,2140.825,266.525,2139.942,264.5Z" fill="#12577d"/>
    <path id="パス_924" data-name="パス 924" d="M2122.751,469.506a9.618,9.618,0,0,1-1.042-4.884c.154-8.383.318-16.765.449-25.148.126-8.03.205-16.06.329-24.09.083-5.44.149-10.881.335-16.318.126-3.681.6-7.354.633-11.033.028-3.118-.352-6.239-.558-9.358-.035-.533-.107-1.064-.158-1.564,2.968-1.112,4.18-.494,4.409,2.373a44.341,44.341,0,0,1-.121,5.236c-.274,6.981-.681,13.959-.8,20.943-.087,5.15.312,10.307.289,15.461-.028,6.062-.2,12.127-.456,18.185-.205,4.871-.595,9.735-.964,14.6-.117,1.553-.418,3.094-.654,4.638C2123.918,461.994,2123.38,465.441,2122.751,469.506Z" fill="#12577d"/>
    <path id="パス_925" data-name="パス 925" d="M2182.9,449.75a6.771,6.771,0,0,1,.542,1.479c.683,5.639,1.279,11.252.723,16.981-.389,4-.019,8.071-.013,12.11,0,1.01-.081,2.022-.149,3.031-.279,4.115-.832,8.232-.781,12.342.054,4.478.76,8.944,1,13.425.156,2.912.588,5.863-.349,8.753-.349,1.077-.681,2.423-1.994,2.13-.638-.143-1.312-1.49-1.429-2.364-.661-4.906-1.182-9.831-1.7-14.755a64.919,64.919,0,0,1-.561-7.431c.034-3.115.47-6.225.606-9.342.237-5.427.289-10.863.588-16.286.237-4.314.692-8.618,1.122-12.919.2-1.96.521-3.911.885-5.848a5.207,5.207,0,0,1,.848-1.469Z" fill="#12577d"/>
    <path id="パス_926" data-name="パス 926" d="M2185.26,337.8c-.5-4.073-1.121-8.07-1.438-12.092-.5-6.34-.675-12.706-1.209-19.042-.425-5.047-1.208-10.063-1.776-15.1-.2-1.736-.284-3.49-.315-5.237-.081-4.616-.051-9.234-.18-13.847a42.935,42.935,0,0,0-.655-4.929c-.066-.453-.25-.892-.29-1.346-.137-1.525.554-2.693,1.61-2.8a3.341,3.341,0,0,1,2.924,2.488c.121,2.842.223,5.686.221,8.53,0,2.1-.354,4.2-.237,6.286.2,3.471.643,6.928.982,10.391q.2,2.058.4,4.117c.173,1.828.331,3.658.514,5.485.437,4.347.359,8.718.625,13.071.191,3.117.63,6.219.89,9.333.176,2.1.123,4.221.381,6.307a32.648,32.648,0,0,0,1.131,5.076C2189.7,337.468,2188.991,338.3,2185.26,337.8Z" fill="#12577d"/>
    <path id="パス_927" data-name="パス 927" d="M2262.235,373.324a16.1,16.1,0,0,1-2.525-1.248c-1.315-.966-1.054-2.1.353-2.958,3.191-1.959,6.738-3.328,9.507-6.007a24.513,24.513,0,0,1,3.92-2.515c3.307-2.139,6.644-4.234,9.894-6.458,4.628-3.168,9.206-6.408,13.764-9.675,1.342-.962,2.51-2.162,3.817-3.176,2.4-1.863,4.612-1.418,5.957,1.108a1.5,1.5,0,0,1-.464,2.176c-2.349,1.627-4.7,3.257-7.087,4.822-3.287,2.152-6.646,4.194-9.907,6.382-1.976,1.326-3.824,2.84-5.735,4.263a4.39,4.39,0,0,1-.932.6c-4.132,1.673-7.376,4.769-11.178,6.978-2.288,1.329-4.371,3.007-6.6,4.446A20.508,20.508,0,0,1,2262.235,373.324Z" fill="#12577d"/>
    <path id="パス_928" data-name="パス 928" d="M2316.216,359.038a2.354,2.354,0,0,1-1.741,2.367c-2.788.809-5.06,2.54-7.5,4.03a22.7,22.7,0,0,1-7.4,2.858,45.184,45.184,0,0,0-10.6,3.7c-4.74,2.213-9.465,4.458-14.21,6.66-2.158,1-4.327,1.985-6.529,2.882-2.648,1.078-4.179.125-4.877-3.052,3.841-1.662,7.748-3.257,11.571-5.031,4.5-2.088,8.877-4.439,13.4-6.465,2.5-1.119,5.2-1.783,7.8-2.691,2.257-.79,4.557-1.5,6.724-2.491,2.5-1.146,4.878-2.568,7.311-3.864C2313.123,356.362,2313.705,356.462,2316.216,359.038Z" fill="#12577d"/>
    <path id="パス_929" data-name="パス 929" d="M2132.149,288.639c2.291-2.215,3.474-2.042,4.6.567,1.564,3.622,2.968,7.316,4.629,10.892,1.079,2.322,2.569,4.449,3.743,6.731q3.663,7.119,7.169,14.32c1.226,2.523,2.28,5.129,3.415,7.7a85.08,85.08,0,0,0,8.436,14.527c.564.8,1.143,1.692.314,2.774a2.2,2.2,0,0,1-2.387,1,2.773,2.773,0,0,1-1.633-1.181q-9.578-19-19.041-38.061c-2.94-5.929-5.764-11.916-8.636-17.878C2132.56,289.616,2132.39,289.191,2132.149,288.639Z" fill="#12577d"/>
    <path id="パス_930" data-name="パス 930" d="M2195.545,270.913c0,5.427.025,10.854-.006,16.281-.044,7.464-.142,14.928-.183,22.392a25.187,25.187,0,0,0,.284,3.026q.669,5.742,1.359,11.481c.362,3,.758,5.993,1.109,8.993a5.252,5.252,0,0,1-.017,1.9,2.4,2.4,0,0,1-2.4,1.935c-1.3-.039-1.416-1.181-1.5-2.247-.692-8.445-1.466-16.884-2.08-25.335-.247-3.4-.156-6.829-.218-10.245-.095-5.255-.24-10.51-.264-15.766-.012-2.762.226-5.525.277-8.289.039-2.105-.069-4.212-.046-6.318a3.9,3.9,0,0,1,.4-1.818c.648-1.143,1.835-1.141,2.739-.171C2196.174,268,2195.7,269.475,2195.545,270.913Z" fill="#12577d"/>
    <path id="パス_931" data-name="パス 931" d="M2223.567,273.969l3.616,1.918c-.374,1.212-.866,2.659-1.26,4.132-.423,1.579-.76,3.182-1.122,4.777a8.98,8.98,0,0,1-.315,1.591c-1.675,3.835-2.325,7.916-2.987,12a31.639,31.639,0,0,1-1.273,6.189c-1.11,2.918-1.228,5.908-1.444,8.93-.15,2.1-.529,4.176-.632,6.272-.219,4.5-.271,9.017-.506,13.521-.094,1.82-.284,3.742-1.9,4.975-.591.451-1.651.969-2.112.726a2.662,2.662,0,0,1-.833-2.108c.06-1.833.352-3.66.578-5.486.857-6.938,1.857-13.861,2.553-20.814a205.9,205.9,0,0,1,4.217-24.988c.607-2.682.937-5.426,1.374-8.145C2221.744,276.068,2222.043,274.734,2223.567,273.969Z" fill="#12577d"/>
    <path id="パス_932" data-name="パス 932" d="M2267.321,306.709c1.2-.384,2.074-.944,2.873-.853a10.063,10.063,0,0,1,3.388,1.217,3.368,3.368,0,0,1-.453,1.9c-1.495,2.423-3.246,4.7-4.615,7.186-2.882,5.24-5.532,10.606-8.374,15.869-1.746,3.232-3.738,6.331-5.493,9.559-1.577,2.9-2.982,5.894-4.459,8.85a3.337,3.337,0,0,1-3.237,2.176,2.851,2.851,0,0,1-1.882-.724c-.257-.3.02-1.215.273-1.753.426-.907,1.077-1.706,1.54-2.6,2.457-4.734,4.828-9.514,7.337-14.22,3.506-6.575,7.1-13.1,10.674-19.643.307-.563.743-1.056,1.05-1.619C2266.872,310.349,2268.824,308.96,2267.321,306.709Z" fill="#12577d"/>
    <path id="パス_933" data-name="パス 933" d="M2258.983,298.374c2.34,1.7.575,3.84,0,5.587-1.444,4.347-3.27,8.573-5.045,12.8-1.948,4.641-4.174,9.171-5.969,13.868-1.333,3.486-2.161,7.164-3.238,10.75-.394,1.312-.835,2.611-1.3,3.9a3.784,3.784,0,0,1-.711,1.175c-.663.748-2.567,1.163-3,.52a3.244,3.244,0,0,1-.379-2.26,121.39,121.39,0,0,1,6.309-19.67q3.839-9.746,7.528-19.549c.582-1.538.957-3.156,1.411-4.742C2255.161,298.708,2256.3,297.528,2258.983,298.374Z" fill="#12577d"/>
    <path id="パス_934" data-name="パス 934" d="M2176.892,340.081c-1.674-6.51-3.378-12.815-4.9-19.163-1.181-4.925-2.147-9.9-3.182-14.862-.658-3.15-1.309-6.3-1.883-9.469a33.725,33.725,0,0,1-.46-4.383c-.051-1.066.244-2.235,1.531-2.2a2.326,2.326,0,0,1,2.316,1.958c.429,2.247.973,4.478,1.269,6.742a87.046,87.046,0,0,0,2.482,13.247c.662,2.265.628,4.726,1.164,7.04.614,2.648,1.538,5.224,2.279,7.844.921,3.251,1.847,6.5,2.669,9.779C2180.954,339.715,2180.376,340.3,2176.892,340.081Z" fill="#12577d"/>
    <path id="パス_935" data-name="パス 935" d="M2246.121,295.134c.614,1.912.124,3.849-.193,5.757-.284,1.7-.76,3.374-1.147,5.06a3.361,3.361,0,0,1-.163.811c-1.872,3.537-1.826,7.63-3.3,11.292a30.977,30.977,0,0,0-1.1,4.521c-1.382,5.9-3.432,11.669-3.36,17.848a2.118,2.118,0,0,1-2.078,2.178c-1.371.211-2.216-.454-2.026-1.848.471-3.469.932-6.948,1.651-10.37.962-4.576,2.207-9.09,3.25-13.649,1.127-4.931,2.17-9.881,3.23-14.827.25-1.167.459-2.346.624-3.528C2241.838,296.012,2243.258,294.952,2246.121,295.134Z" fill="#12577d"/>
    <path id="パス_936" data-name="パス 936" d="M2208,283.292c1.514,2.887,1.087,5.864,1.037,8.734-.051,2.91-.718,5.8-.834,8.718-.142,3.584.016,7.179.022,10.77a8.673,8.673,0,0,1-.161,2.477,18.623,18.623,0,0,0-.258,8.895c.553,3.168.016,6.535-.138,9.811-.062,1.323-1.282,2.084-2.786,1.909-1.338-.155-1.182-1.157-1.16-2.092.221-9.225.39-18.451.677-27.673.1-3.132.591-6.25.707-9.382a37.683,37.683,0,0,0-.315-6.6C2204.407,286.151,2205.154,284.567,2208,283.292Z" fill="#12577d"/>
    <path id="パス_937" data-name="パス 937" d="M2303.1,392.272a41.11,41.11,0,0,0-13.769,2.44c-2.438.789-4.986,1.249-7.5,1.8-2.335.512-4.694.922-7.031,1.427-1.708.37-3.345.374-4.639-.962a2.359,2.359,0,0,1-.621-1.665c.034-.342.74-.786,1.21-.89,5.75-1.275,11.513-2.49,17.27-3.734a15.5,15.5,0,0,0,2.122-.6,24.335,24.335,0,0,1,7.28-1.432c3.373-.184,6.774-.338,10.015-1.69,1.806-.754,3.922-1.449,5.617.426.44.487.929,1.327.786,1.832a2.054,2.054,0,0,1-1.6,1.173c-2.138-.157-3.948.8-5.886,1.352A26.67,26.67,0,0,1,2303.1,392.272Z" fill="#12577d"/>
    <path id="パス_938" data-name="パス 938" d="M2258.711,365.149c-.83-.414-1.8-.587-2.17-1.152-.593-.9.144-1.584.874-2.289,4.826-4.659,9.566-9.406,14.369-14.088a26.584,26.584,0,0,1,3.971-3.428,43.452,43.452,0,0,0,9.729-9.277,8.8,8.8,0,0,1,2.073-1.789c1.422-.9,2.513-.779,3.146.182a2.4,2.4,0,0,1-.484,3.44c-1.569,1.417-3.219,2.744-4.785,4.165-1.814,1.646-3.54,3.391-5.371,5.018-1.028.913-2.287,1.572-3.276,2.52-2.507,2.406-4.9,4.931-7.379,7.367-2.8,2.757-5.63,5.494-8.506,8.175A9.686,9.686,0,0,1,2258.711,365.149Z" fill="#12577d"/>
    <path id="パス_939" data-name="パス 939" d="M2303.889,378.8c-1.638.606-2.89.781-3.771,1.448-2.9,2.2-6.351,2.677-9.718,3.543-3.183.819-6.308,1.893-9.406,3-1.7.609-3.233,1.8-4.964,2.215a35.914,35.914,0,0,1-6.83.7,2.165,2.165,0,0,1-1.67-1.033c-.4-.9.235-1.53,1.144-1.841,2.428-.832,4.855-1.669,7.272-2.532.688-.246,1.327-.629,2.013-.882a82.214,82.214,0,0,1,8.789-3.122c3.491-.852,6.944-1.624,9.92-3.76.075-.054.137-.125.212-.178a5.426,5.426,0,0,1,4.5-.684C2303.065,376.029,2302.391,377.851,2303.889,378.8Z" fill="#12577d"/>
    <path id="パス_940" data-name="パス 940" d="M2272.443,333.452a4.117,4.117,0,0,1-.963,4.492c-2.41,2.773-4.7,5.664-6.882,8.617-1.915,2.587-3.613,5.333-5.425,8-.723,1.064-1.5,2.092-2.242,3.145a3.371,3.371,0,0,1-4.022,1.506c-1.094-.277-1.332-.967-.788-1.859.768-1.259,1.615-2.472,2.469-3.677q4.471-6.311,8.975-12.6,2.334-3.25,4.752-6.442C2269.354,333.271,2270.651,332.572,2272.443,333.452Z" fill="#12577d"/>
    <path id="パス_941" data-name="パス 941" d="M2216.48,360.531a32.136,32.136,0,0,1,2.984-3.218c1.4-1.142,3.186-.835,4.8-.665,4.882.518,9.663,4.934,10.136,10.061.186,2.01.553,4,.732,6.015.128,1.443-.48,2.014-2.064,2.358-1.446.314-1.925-.385-2.22-1.694a71.69,71.69,0,0,0-2.14-7.962,7.8,7.8,0,0,0-2.357-3.3,5.389,5.389,0,0,0-6.181-.883A2.674,2.674,0,0,1,2216.48,360.531Z" fill="#12577d"/>
    <path id="パス_942" data-name="パス 942" d="M2203.571,356.572a3.208,3.208,0,0,1-3.466.063c-3.606-1.656-8.039-.969-9.97,3.245-.649,1.416-1.231,2.864-1.9,4.269a4.772,4.772,0,0,1-1.179,1.8,2.44,2.44,0,0,1-1.963.487,1.976,1.976,0,0,1-.818-1.745,33.348,33.348,0,0,1,1.959-5.964,16.225,16.225,0,0,1,2.725-3.784c1.986-2.233,4.351-3.617,7.541-3a8.746,8.746,0,0,0,2.455-.186C2201.965,351.444,2203.878,353.41,2203.571,356.572Z" fill="#12577d"/>
    <path id="パス_943" data-name="パス 943" d="M2230.988,315.8a25.024,25.024,0,0,0-1.609,2.3,5.576,5.576,0,0,0-.7,2.014c-.436,4.38-.758,8.771-1.225,13.147a13.473,13.473,0,0,1-.974,3.425,2.751,2.751,0,0,1-3.056,1.3c-1.2-.455-1.22-1.319-1-2.462.812-4.247,1.537-8.511,2.242-12.778.269-1.625.392-3.275.588-4.913a12.08,12.08,0,0,1,.309-2.179c.55-1.746,1.793-2.191,3.429-1.263C2229.608,314.749,2230.159,315.215,2230.988,315.8Z" fill="#12577d"/>
    <path id="パス_944" data-name="パス 944" d="M2291.53,404.064a2.942,2.942,0,0,1-2.959,1.42c-3.53-.281-6.927.518-10.349,1.227a60.437,60.437,0,0,1-6.255.777,2.759,2.759,0,0,1-2.674-2.317c-.148-1.065.6-1.811,2.153-1.917a70.614,70.614,0,0,0,12.124-2.23,15.228,15.228,0,0,1,5.689.081C2290.664,401.31,2291.184,402.67,2291.53,404.064Z" fill="#12577d"/>
    <path id="パス_945" data-name="パス 945" d="M2342.639,282.17c-.492.31-.868.582-1.274.8a23,23,0,0,0-6.924,5.5,12.99,12.99,0,0,0-1.1,1.969c-.412.713-.592,1.664-1.9,1.887a8.187,8.187,0,0,1,1.905-4.587,19.611,19.611,0,0,1,5.962-4.858c.592-.289,1.146-.653,1.724-.97A1.109,1.109,0,0,1,2342.639,282.17Z" fill="#12577d"/>
    <path id="パス_946" data-name="パス 946" d="M2275.57,414.678a16.586,16.586,0,0,1-3.557-.072c-.626-.14-1.088-1.012-1.624-1.555.565-.506,1.054-1.275,1.711-1.466a25.556,25.556,0,0,1,4.858-.89,3.176,3.176,0,0,1,2.24.647,2.662,2.662,0,0,1,.6,2.134c-.1.5-.9,1.077-1.49,1.217a12.148,12.148,0,0,1-2.735.053Z" fill="#12577d"/>
    <path id="パス_947" data-name="パス 947" d="M2336.5,291.906a3.54,3.54,0,0,1,.2-1.153,14.407,14.407,0,0,1,6.146-6,3.944,3.944,0,0,1,1.919-.137c.19.014.349.452.522.7-.258.134-.578.439-.764.372-1.1-.393-1.9.19-2.75.7a12.239,12.239,0,0,0-4.1,4.645c-.207.358-.454.694-.682,1.04Z" fill="#12577d"/>
    <path id="パス_948" data-name="パス 948" d="M2229.974,387.884c1.361,4.178-.4,7.8-3.818,8.643-.8.2-1.7.259-2.144-.726a1.5,1.5,0,0,1,.779-2.1,5.947,5.947,0,0,0,3.1-3.677C2228.148,389.276,2229.087,388.76,2229.974,387.884Z" fill="#12577d"/>
    <path id="パス_949" data-name="パス 949" d="M2157.817,509.261c.112-1.445.177-2.9.347-4.335.2-1.664,1.148-2.681,2.272-2.562,1.067.113,1.7,1.512,1.338,3.106-.16.7-.462,1.376-.69,2.066a9.629,9.629,0,0,0-.707,2.314c-.064,1.1-.459,1.829-1.57,1.806-1.2-.025-1.028-1.04-1.053-1.848,0-.183,0-.367,0-.551Z" fill="#12577d"/>
    <path id="パス_950" data-name="パス 950" d="M2273.4,419.351c1.617-.269,2.956-.306,3.866,1.114.718,1.119.53,1.991-.72,2.348a8.2,8.2,0,0,1-5.57-.8,1.759,1.759,0,0,1-.617-1.577c.112-.445.8-.886,1.33-1.046A5.548,5.548,0,0,1,2273.4,419.351Z" fill="#12577d"/>
    <path id="パス_951" data-name="パス 951" d="M2185.031,372.577a8.843,8.843,0,0,1-.024,2.152c-.725,2.262-1.746,4.456-.706,6.923a1.606,1.606,0,0,1-.567,1.251,2.238,2.238,0,0,1-1.6-.646C2180.516,379.65,2181.8,374.736,2185.031,372.577Z" fill="#12577d"/>
    <path id="パス_952" data-name="パス 952" d="M2069.151,373.028a6.921,6.921,0,0,1,2.539,6.1c-.124,3.948-.227,7.91,0,11.847.114,2.01.719,3.925-.306,5.906-.242.468.353,1.367.557,2.07a3.283,3.283,0,0,1-2.386,4.257,2.29,2.29,0,0,1-2.783-1.977,7.022,7.022,0,0,1,.092-2.742c.776-2.975.565-5.957.5-8.982-.095-4.654.11-9.32.372-13.97.048-.845.981-1.64,1.5-2.463Z" fill="#12577d"/>
    <path id="パス_953" data-name="パス 953" d="M2075.887,407.809a2.122,2.122,0,0,1-1.472-2.9c1.881-7.119,1.715-14.427,2.049-21.69a12.284,12.284,0,0,1,.411-2.985c.141-.464.8-.771,1.564-1.445a17.881,17.881,0,0,1,.282,2.284c-.137,4.4-.253,8.807-.486,13.2-.2,3.76-.466,7.52-.89,11.259C2077.251,406.357,2076.369,407.09,2075.887,407.809Z" fill="#12577d"/>
    <path id="パス_954" data-name="パス 954" d="M2076.357,366.568a6.477,6.477,0,0,1,1.864-.648q6.454.009,12.909.163c1.016.023,1.078.77.892,1.565C2088,368.76,2078.812,368.2,2076.357,366.568Z" fill="#12577d"/>
    <path id="パス_955" data-name="パス 955" d="M2388.279,515.764c-.424.119-.85.23-1.279.327-1.768.4-3.449,1.032-5.164,1.572-1.618.508-3.212,1.089-4.822,1.621a7.444,7.444,0,0,1-1.259.293c-.157.023-.445-.061-.486-.169a1.718,1.718,0,0,1-.1-1.62,10.07,10.07,0,0,1,2.067-2.779,2.054,2.054,0,0,0,.291-.4l-.592-.511c-.273.307-.483.588-.737.82-1.31,1.2-2.633,2.382-3.95,3.572-.4.362-.784.744-1.2,1.08a1.611,1.611,0,0,1-.564.168c-.052-.194-.176-.4-.14-.578a2.552,2.552,0,0,1,.356-.89c.554-.829,1.142-1.636,1.724-2.446.355-.493.361-.489-.07-1.038l-6.245,5.746a4.155,4.155,0,0,1,.061-.54,11.356,11.356,0,0,1,1.959-4.129,16.34,16.34,0,0,0,.976-1.505l-.462-.649c-1.012,1.169-2,2.322-3,3.464a23.288,23.288,0,0,1-3.538,3.087c.078-1.413.954-2.316,1.362-3.445l-.607-.5c-.382.684-.733,1.314-1.084,1.944a16.081,16.081,0,0,1-.86,1.519c-.606.848-1.243,1.677-1.915,2.473-.442.523-.969.973-1.565,1.561a3.533,3.533,0,0,1-.41-2.976c.369-1.154.858-2.269,1.246-3.418a2.22,2.22,0,0,1,.988-1.227,37.384,37.384,0,0,1,4.234-2.507,2.029,2.029,0,0,0,.542-.351c.961-.9,1.929-1.8,2.861-2.729.722-.721,1.425-1.466,2.08-2.248.365-.435.293-.68-.173-1a3.8,3.8,0,0,0-2.036-.661,5.633,5.633,0,0,0-2.948.975,16.081,16.081,0,0,0-3.472,2.469c-.388.377-.846.681-1.4,1.117.046-.425.073-.684.1-.942.047-.429.1-.858.144-1.288.034-.34-.059-.59-.584-.606a12.766,12.766,0,0,0-.437,1.31c-.13.578-.183,1.173-.277,1.76a3.386,3.386,0,0,1-.994,1.969c-1.224,1.215-2.4,2.488-3.523,3.794-.963,1.116-1.861,2.29-2.735,3.478a14.274,14.274,0,0,0-2.108,3.423c-.159.429-.3.866-.486,1.284a5.33,5.33,0,0,0-.4,2.921c.133,1.016.275,1.2,1.289,1.413.731-.824,1.489-1.621,2.183-2.469a40.386,40.386,0,0,0,3.909-5.834,34.406,34.406,0,0,0,3.331-7.97,3.388,3.388,0,0,1,1.25-1.833c1.166-.916,2.337-1.833,3.568-2.657a13.006,13.006,0,0,1,2.382-1.18,2.6,2.6,0,0,1,2.435.163,1.558,1.558,0,0,1-.192.366c-.706.737-1.419,1.465-2.134,2.194-.281.287-.558.579-.857.848a8.12,8.12,0,0,1-1.768,1.505,33.232,33.232,0,0,0-3.68,2.159,4.366,4.366,0,0,0-2.137,2.619,19.838,19.838,0,0,1-.953,2.4,5.178,5.178,0,0,0-.046,3.638,1.247,1.247,0,0,0,1.934.724,10.2,10.2,0,0,0,1.179-1.208c.519-.6,1.006-1.229,1.514-1.853.622.79.814.564,1.346.125.873-.718,1.7-1.492,2.549-2.241.194-.17.394-.334.7-.59-.046.43-.053.715-.11.989-.189.9-.381,1.789-.6,2.675a1.7,1.7,0,0,1-.366.6c-.56.69-1.144,1.361-1.7,2.056-1.159,1.451-2.3,2.913-3.456,4.371-.1.126-.207.249-.3.382q-.761,1.139-1.514,2.281a11.111,11.111,0,0,0-1.728,3.531c-.155.653-.043.968.546,1.234a3.624,3.624,0,0,0,2.842.143,6.071,6.071,0,0,0,3.409-3.066c.686-1.429,1.194-2.947,1.743-4.439a20.745,20.745,0,0,0,1.478-6.687.99.99,0,0,1,.279-.557q1.325-1.474,2.678-2.924c.263-.283.561-.534.9-.849-.043.4-.075.685-.1.972a1.168,1.168,0,0,0,.633,1.269,1.061,1.061,0,0,0,1.274-.16c.521-.427,1.013-.888,1.516-1.337.346-.31.689-.624,1.1-.992.051.356.066.572.114.78.056.236.146.463.213.7.2.686.436.9,1.123.918a2.3,2.3,0,0,0,.718-.1c1.111-.328,2.229-.641,3.323-1.022,2.211-.77,4.386-1.648,6.616-2.356q1.095-.348,2.2-.684C2388.262,516.184,2388.27,515.974,2388.279,515.764Zm-39.461,12.828c-.292-.2-.285-.517-.308-.837a7.308,7.308,0,0,1,.6-2.82,13.714,13.714,0,0,1,2.534-4.282c1.636-2.035,3.35-4.008,5.032-6.005a2.176,2.176,0,0,1,.218-.2l.174.132A37.89,37.89,0,0,1,2348.818,528.592Zm15.652-3.24a11.466,11.466,0,0,0-.34,1.247q-.484,1.625-.991,3.241a23.116,23.116,0,0,1-.76,2.284,10.792,10.792,0,0,1-1.093,1.964,4.806,4.806,0,0,1-3.062,2.073,4.021,4.021,0,0,1-1.346-.053c-.364-.059-.444-.34-.317-.685a15.428,15.428,0,0,1,1.969-3.782c1.093-1.505,2.22-2.987,3.35-4.465.769-1.006,1.567-1.99,2.356-2.982a4.473,4.473,0,0,1,.342-.336A3.242,3.242,0,0,1,2364.47,525.352Z" fill="#12577d"/>
  </g>
</svg>
